<svg width="257" height="83" viewBox="0 0 257 83" fill="none" xmlns="http://www.w3.org/2000/svg">
<g filter="url(#filter0_d_1_19788)">
<rect x="19" y="16" width="219" height="45" rx="8" fill="white"/>
<rect x="19.5" y="16.5" width="218" height="44" rx="7.5" stroke="#F6F8F8"/>
<g clip-path="url(#clip0_1_19788)">
<path d="M37.875 37.0947H44.125M36.3125 33.9697C35.4496 33.9697 34.75 34.6693 34.75 35.5322V38.8024C34.75 39.1527 34.819 39.4995 34.953 39.8231C35.0871 40.1467 35.2836 40.4408 35.5313 40.6885C35.7789 40.9362 35.9754 41.2302 36.1095 41.5538C36.2435 41.8774 36.3125 42.2243 36.3125 42.5746V46.1572C36.3125 47.0202 37.0121 47.7197 37.875 47.7197H44.125C44.9879 47.7197 45.6875 47.0202 45.6875 46.1572V42.5746C45.6875 42.2243 45.7565 41.8774 45.8905 41.5538C46.0246 41.2302 46.2211 40.9362 46.4688 40.6885C46.7164 40.4408 46.9129 40.1467 47.047 39.8231C47.181 39.4995 47.25 39.1527 47.25 38.8024V35.5322C47.25 34.6693 46.5504 33.9697 45.6875 33.9697H36.3125Z" stroke="#0D0E15" stroke-width="1.18182" stroke-miterlimit="10" stroke-linecap="round" stroke-linejoin="round"/>
<path d="M39.2031 44.4727H39.2106" stroke="#43BAF9" stroke-width="1.18182" stroke-linecap="round" stroke-linejoin="round"/>
<path d="M42.5234 44.4727H42.5309" stroke="#43BAF9" stroke-width="1.18182" stroke-linecap="round" stroke-linejoin="round"/>
<path d="M39.1855 41.1393H39.193" stroke="#43BAF9" stroke-width="1.18182" stroke-linecap="round" stroke-linejoin="round"/>
<path d="M42.5215 41.1393H42.5289" stroke="#43BAF9" stroke-width="1.18182" stroke-linecap="round" stroke-linejoin="round"/>
<path d="M36.4531 30.8438C36.4531 29.9807 37.1526 29.2812 38.0156 29.2812H44.2656C45.1285 29.2812 45.8281 29.9807 45.8281 30.8435" stroke="#43BAF9" stroke-width="1.18182" stroke-miterlimit="10" stroke-linecap="round" stroke-linejoin="round"/>
</g>
<path d="M62.0059 40.584L63.7051 33.9688H64.5957L64.4961 35.6738L62.6797 42.5H61.7539L62.0059 40.584ZM60.7344 33.9688L62.1113 40.5312L62.2344 42.5H61.25L59.2754 33.9688H60.7344ZM66.5234 40.5137L67.8828 33.9688H69.3477L67.373 42.5H66.3887L66.5234 40.5137ZM64.9414 33.9688L66.623 40.6016L66.8691 42.5H65.9434L64.1562 35.6738L64.0625 33.9688H64.9414ZM71.8086 36.1602V42.5H70.3906V36.1602H71.8086ZM70.2969 34.4961C70.2969 34.2812 70.3672 34.1035 70.5078 33.9629C70.6523 33.8184 70.8516 33.7461 71.1055 33.7461C71.3555 33.7461 71.5527 33.8184 71.6973 33.9629C71.8418 34.1035 71.9141 34.2812 71.9141 34.4961C71.9141 34.707 71.8418 34.8828 71.6973 35.0234C71.5527 35.1641 71.3555 35.2344 71.1055 35.2344C70.8516 35.2344 70.6523 35.1641 70.5078 35.0234C70.3672 34.8828 70.2969 34.707 70.2969 34.4961ZM76.9121 40.7832C76.9121 40.6426 76.877 40.5156 76.8066 40.4023C76.7363 40.2852 76.6016 40.1797 76.4023 40.0859C76.207 39.9922 75.918 39.9062 75.5352 39.8281C75.1992 39.7539 74.8906 39.666 74.6094 39.5645C74.332 39.459 74.0938 39.332 73.8945 39.1836C73.6953 39.0352 73.541 38.8594 73.4316 38.6562C73.3223 38.4531 73.2676 38.2188 73.2676 37.9531C73.2676 37.6953 73.3242 37.4512 73.4375 37.2207C73.5508 36.9902 73.7129 36.7871 73.9238 36.6113C74.1348 36.4355 74.3906 36.2969 74.6914 36.1953C74.9961 36.0938 75.3359 36.043 75.7109 36.043C76.2422 36.043 76.6973 36.1328 77.0762 36.3125C77.459 36.4883 77.752 36.7285 77.9551 37.0332C78.1582 37.334 78.2598 37.6738 78.2598 38.0527H76.8477C76.8477 37.8848 76.8047 37.7285 76.7188 37.584C76.6367 37.4355 76.5117 37.3164 76.3438 37.2266C76.1758 37.1328 75.9648 37.0859 75.7109 37.0859C75.4688 37.0859 75.2676 37.125 75.1074 37.2031C74.9512 37.2773 74.834 37.375 74.7559 37.4961C74.6816 37.6172 74.6445 37.75 74.6445 37.8945C74.6445 38 74.6641 38.0957 74.7031 38.1816C74.7461 38.2637 74.8164 38.3398 74.9141 38.4102C75.0117 38.4766 75.1445 38.5391 75.3125 38.5977C75.4844 38.6562 75.6992 38.7129 75.957 38.7676C76.4414 38.8691 76.8574 39 77.2051 39.1602C77.5566 39.3164 77.8262 39.5195 78.0137 39.7695C78.2012 40.0156 78.2949 40.3281 78.2949 40.707C78.2949 40.9883 78.2344 41.2461 78.1133 41.4805C77.9961 41.7109 77.8242 41.9121 77.5977 42.084C77.3711 42.252 77.0996 42.3828 76.7832 42.4766C76.4707 42.5703 76.1191 42.6172 75.7285 42.6172C75.1543 42.6172 74.668 42.5156 74.2695 42.3125C73.8711 42.1055 73.5684 41.8418 73.3613 41.5215C73.1582 41.1973 73.0566 40.8613 73.0566 40.5137H74.4219C74.4375 40.7754 74.5098 40.9844 74.6387 41.1406C74.7715 41.293 74.9355 41.4043 75.1309 41.4746C75.3301 41.541 75.5352 41.5742 75.7461 41.5742C76 41.5742 76.2129 41.541 76.3848 41.4746C76.5566 41.4043 76.6875 41.3105 76.7773 41.1934C76.8672 41.0723 76.9121 40.9355 76.9121 40.7832ZM82.3262 42.6172C81.8574 42.6172 81.4336 42.541 81.0547 42.3887C80.6797 42.2324 80.3594 42.0156 80.0938 41.7383C79.832 41.4609 79.6309 41.1348 79.4902 40.7598C79.3496 40.3848 79.2793 39.9805 79.2793 39.5469V39.3125C79.2793 38.8164 79.3516 38.3672 79.4961 37.9648C79.6406 37.5625 79.8418 37.2188 80.0996 36.9336C80.3574 36.6445 80.6621 36.4238 81.0137 36.2715C81.3652 36.1191 81.7461 36.043 82.1562 36.043C82.6094 36.043 83.0059 36.1191 83.3457 36.2715C83.6855 36.4238 83.9668 36.6387 84.1895 36.916C84.416 37.1895 84.584 37.5156 84.6934 37.8945C84.8066 38.2734 84.8633 38.6914 84.8633 39.1484V39.752H79.9648V38.7383H83.4688V38.627C83.4609 38.373 83.4102 38.1348 83.3164 37.9121C83.2266 37.6895 83.0879 37.5098 82.9004 37.373C82.7129 37.2363 82.4629 37.168 82.1504 37.168C81.916 37.168 81.707 37.2188 81.5234 37.3203C81.3438 37.418 81.1934 37.5605 81.0723 37.748C80.9512 37.9355 80.8574 38.1621 80.791 38.4277C80.7285 38.6895 80.6973 38.9844 80.6973 39.3125V39.5469C80.6973 39.8242 80.7344 40.082 80.8086 40.3203C80.8867 40.5547 81 40.7598 81.1484 40.9355C81.2969 41.1113 81.4766 41.25 81.6875 41.3516C81.8984 41.4492 82.1387 41.498 82.4082 41.498C82.748 41.498 83.0508 41.4297 83.3164 41.293C83.582 41.1562 83.8125 40.9629 84.0078 40.7129L84.752 41.4336C84.6152 41.6328 84.4375 41.8242 84.2188 42.0078C84 42.1875 83.7324 42.334 83.416 42.4473C83.1035 42.5605 82.7402 42.6172 82.3262 42.6172ZM89.3457 39.3184H87.125V38.1523H89.3457C89.7324 38.1523 90.0449 38.0898 90.2832 37.9648C90.5215 37.8398 90.6953 37.668 90.8047 37.4492C90.918 37.2266 90.9746 36.9727 90.9746 36.6875C90.9746 36.418 90.918 36.166 90.8047 35.9316C90.6953 35.6934 90.5215 35.502 90.2832 35.3574C90.0449 35.2129 89.7324 35.1406 89.3457 35.1406H87.5762V42.5H86.1055V33.9688H89.3457C90.0059 33.9688 90.5664 34.0859 91.0273 34.3203C91.4922 34.5508 91.8457 34.8711 92.0879 35.2812C92.3301 35.6875 92.4512 36.1523 92.4512 36.6758C92.4512 37.2266 92.3301 37.6992 92.0879 38.0938C91.8457 38.4883 91.4922 38.791 91.0273 39.002C90.5664 39.2129 90.0059 39.3184 89.3457 39.3184ZM100.572 38V38.4688C100.572 39.1133 100.488 39.6914 100.32 40.2031C100.152 40.7148 99.9121 41.1504 99.5996 41.5098C99.291 41.8691 98.9199 42.1445 98.4863 42.3359C98.0527 42.5234 97.5723 42.6172 97.0449 42.6172C96.5215 42.6172 96.043 42.5234 95.6094 42.3359C95.1797 42.1445 94.8066 41.8691 94.4902 41.5098C94.1738 41.1504 93.9277 40.7148 93.752 40.2031C93.5801 39.6914 93.4941 39.1133 93.4941 38.4688V38C93.4941 37.3555 93.5801 36.7793 93.752 36.2715C93.9238 35.7598 94.166 35.3242 94.4785 34.9648C94.7949 34.6016 95.168 34.3262 95.5977 34.1387C96.0312 33.9473 96.5098 33.8516 97.0332 33.8516C97.5605 33.8516 98.041 33.9473 98.4746 34.1387C98.9082 34.3262 99.2812 34.6016 99.5938 34.9648C99.9062 35.3242 100.146 35.7598 100.314 36.2715C100.486 36.7793 100.572 37.3555 100.572 38ZM99.1016 38.4688V37.9883C99.1016 37.5117 99.0547 37.0918 98.9609 36.7285C98.8711 36.3613 98.7363 36.0547 98.5566 35.8086C98.3809 35.5586 98.1641 35.3711 97.9062 35.2461C97.6484 35.1172 97.3574 35.0527 97.0332 35.0527C96.709 35.0527 96.4199 35.1172 96.166 35.2461C95.9121 35.3711 95.6953 35.5586 95.5156 35.8086C95.3398 36.0547 95.2051 36.3613 95.1113 36.7285C95.0176 37.0918 94.9707 37.5117 94.9707 37.9883V38.4688C94.9707 38.9453 95.0176 39.3672 95.1113 39.7344C95.2051 40.1016 95.3418 40.4121 95.5215 40.666C95.7051 40.916 95.9238 41.1055 96.1777 41.2344C96.4316 41.3594 96.7207 41.4219 97.0449 41.4219C97.373 41.4219 97.6641 41.3594 97.918 41.2344C98.1719 41.1055 98.3867 40.916 98.5625 40.666C98.7383 40.4121 98.8711 40.1016 98.9609 39.7344C99.0547 39.3672 99.1016 38.9453 99.1016 38.4688ZM106.531 40.3027C106.531 40.127 106.504 39.9707 106.449 39.834C106.398 39.6973 106.307 39.5723 106.174 39.459C106.041 39.3457 105.854 39.2363 105.611 39.1309C105.373 39.0215 105.068 38.9102 104.697 38.7969C104.291 38.6719 103.916 38.5332 103.572 38.3809C103.232 38.2246 102.936 38.0449 102.682 37.8418C102.428 37.6348 102.23 37.3984 102.09 37.1328C101.949 36.8633 101.879 36.5527 101.879 36.2012C101.879 35.8535 101.951 35.5371 102.096 35.252C102.244 34.9668 102.453 34.7207 102.723 34.5137C102.996 34.3027 103.318 34.1406 103.689 34.0273C104.061 33.9102 104.471 33.8516 104.92 33.8516C105.553 33.8516 106.098 33.9688 106.555 34.2031C107.016 34.4375 107.369 34.752 107.615 35.1465C107.865 35.541 107.99 35.9766 107.99 36.4531H106.531C106.531 36.1719 106.471 35.9238 106.35 35.709C106.232 35.4902 106.053 35.3184 105.811 35.1934C105.572 35.0684 105.27 35.0059 104.902 35.0059C104.555 35.0059 104.266 35.0586 104.035 35.1641C103.805 35.2695 103.633 35.4121 103.52 35.5918C103.406 35.7715 103.35 35.9746 103.35 36.2012C103.35 36.3613 103.387 36.5078 103.461 36.6406C103.535 36.7695 103.648 36.8906 103.801 37.0039C103.953 37.1133 104.145 37.2168 104.375 37.3145C104.605 37.4121 104.877 37.5059 105.189 37.5957C105.662 37.7363 106.074 37.8926 106.426 38.0645C106.777 38.2324 107.07 38.4238 107.305 38.6387C107.539 38.8535 107.715 39.0977 107.832 39.3711C107.949 39.6406 108.008 39.9473 108.008 40.291C108.008 40.6504 107.936 40.9746 107.791 41.2637C107.646 41.5488 107.439 41.793 107.17 41.9961C106.904 42.1953 106.584 42.3496 106.209 42.459C105.838 42.5645 105.424 42.6172 104.967 42.6172C104.557 42.6172 104.152 42.5625 103.754 42.4531C103.359 42.3438 103 42.1777 102.676 41.9551C102.352 41.7285 102.094 41.4473 101.902 41.1113C101.711 40.7715 101.615 40.375 101.615 39.9219H103.086C103.086 40.1992 103.133 40.4355 103.227 40.6309C103.324 40.8262 103.459 40.9863 103.631 41.1113C103.803 41.2324 104.002 41.3223 104.229 41.3809C104.459 41.4395 104.705 41.4688 104.967 41.4688C105.311 41.4688 105.598 41.4199 105.828 41.3223C106.062 41.2246 106.238 41.0879 106.355 40.9121C106.473 40.7363 106.531 40.5332 106.531 40.3027ZM113.574 37.3789V44.9375H112.162V36.1602H113.463L113.574 37.3789ZM117.705 39.2715V39.3945C117.705 39.8555 117.65 40.2832 117.541 40.6777C117.436 41.0684 117.277 41.4102 117.066 41.7031C116.859 41.9922 116.604 42.2168 116.299 42.377C115.994 42.5371 115.643 42.6172 115.244 42.6172C114.85 42.6172 114.504 42.5449 114.207 42.4004C113.914 42.252 113.666 42.043 113.463 41.7734C113.26 41.5039 113.096 41.1875 112.971 40.8242C112.85 40.457 112.764 40.0547 112.713 39.6172V39.1426C112.764 38.6777 112.85 38.2559 112.971 37.877C113.096 37.498 113.26 37.1719 113.463 36.8984C113.666 36.625 113.914 36.4141 114.207 36.2656C114.5 36.1172 114.842 36.043 115.232 36.043C115.631 36.043 115.984 36.1211 116.293 36.2773C116.602 36.4297 116.861 36.6484 117.072 36.9336C117.283 37.2148 117.441 37.5547 117.547 37.9531C117.652 38.3477 117.705 38.7871 117.705 39.2715ZM116.293 39.3945V39.2715C116.293 38.9785 116.266 38.707 116.211 38.457C116.156 38.2031 116.07 37.9805 115.953 37.7891C115.836 37.5977 115.686 37.4492 115.502 37.3438C115.322 37.2344 115.105 37.1797 114.852 37.1797C114.602 37.1797 114.387 37.2227 114.207 37.3086C114.027 37.3906 113.877 37.5059 113.756 37.6543C113.635 37.8027 113.541 37.9766 113.475 38.1758C113.408 38.3711 113.361 38.584 113.334 38.8145V39.9512C113.381 40.2324 113.461 40.4902 113.574 40.7246C113.688 40.959 113.848 41.1465 114.055 41.2871C114.266 41.4238 114.535 41.4922 114.863 41.4922C115.117 41.4922 115.334 41.4375 115.514 41.3281C115.693 41.2188 115.84 41.0684 115.953 40.877C116.07 40.6816 116.156 40.457 116.211 40.2031C116.266 39.9492 116.293 39.6797 116.293 39.3945ZM120.324 37.3672V42.5H118.912V36.1602H120.26L120.324 37.3672ZM122.264 36.1191L122.252 37.4316C122.166 37.416 122.072 37.4043 121.971 37.3965C121.873 37.3887 121.775 37.3848 121.678 37.3848C121.436 37.3848 121.223 37.4199 121.039 37.4902C120.855 37.5566 120.701 37.6543 120.576 37.7832C120.455 37.9082 120.361 38.0605 120.295 38.2402C120.229 38.4199 120.189 38.6211 120.178 38.8438L119.855 38.8672C119.855 38.4688 119.895 38.0996 119.973 37.7598C120.051 37.4199 120.168 37.1211 120.324 36.8633C120.484 36.6055 120.684 36.4043 120.922 36.2598C121.164 36.1152 121.443 36.043 121.76 36.043C121.846 36.043 121.938 36.0508 122.035 36.0664C122.137 36.082 122.213 36.0996 122.264 36.1191ZM122.727 39.4004V39.2656C122.727 38.8086 122.793 38.3848 122.926 37.9941C123.059 37.5996 123.25 37.2578 123.5 36.9688C123.754 36.6758 124.062 36.4492 124.426 36.2891C124.793 36.125 125.207 36.043 125.668 36.043C126.133 36.043 126.547 36.125 126.91 36.2891C127.277 36.4492 127.588 36.6758 127.842 36.9688C128.096 37.2578 128.289 37.5996 128.422 37.9941C128.555 38.3848 128.621 38.8086 128.621 39.2656V39.4004C128.621 39.8574 128.555 40.2812 128.422 40.6719C128.289 41.0625 128.096 41.4043 127.842 41.6973C127.588 41.9863 127.279 42.2129 126.916 42.377C126.553 42.5371 126.141 42.6172 125.68 42.6172C125.215 42.6172 124.799 42.5371 124.432 42.377C124.068 42.2129 123.76 41.9863 123.506 41.6973C123.252 41.4043 123.059 41.0625 122.926 40.6719C122.793 40.2812 122.727 39.8574 122.727 39.4004ZM124.139 39.2656V39.4004C124.139 39.6855 124.168 39.9551 124.227 40.209C124.285 40.4629 124.377 40.6855 124.502 40.877C124.627 41.0684 124.787 41.2188 124.982 41.3281C125.178 41.4375 125.41 41.4922 125.68 41.4922C125.941 41.4922 126.168 41.4375 126.359 41.3281C126.555 41.2188 126.715 41.0684 126.84 40.877C126.965 40.6855 127.057 40.4629 127.115 40.209C127.178 39.9551 127.209 39.6855 127.209 39.4004V39.2656C127.209 38.9844 127.178 38.7188 127.115 38.4688C127.057 38.2148 126.963 37.9902 126.834 37.7949C126.709 37.5996 126.549 37.4473 126.354 37.3379C126.162 37.2246 125.934 37.168 125.668 37.168C125.402 37.168 125.172 37.2246 124.977 37.3379C124.785 37.4473 124.627 37.5996 124.502 37.7949C124.377 37.9902 124.285 38.2148 124.227 38.4688C124.168 38.7188 124.139 38.9844 124.139 39.2656Z" fill="#0D0E15"/>
<rect x="152" y="26" width="74" height="25" rx="12" fill="#E9F9F2"/>
<circle cx="163" cy="38.5" r="3" fill="#21C179"/>
<path d="M174.906 40.2227H176.371C176.324 40.7812 176.168 41.2793 175.902 41.7168C175.637 42.1504 175.264 42.4922 174.783 42.7422C174.303 42.9922 173.719 43.1172 173.031 43.1172C172.504 43.1172 172.029 43.0234 171.607 42.8359C171.186 42.6445 170.824 42.375 170.523 42.0273C170.223 41.6758 169.992 41.252 169.832 40.7559C169.676 40.2598 169.598 39.7051 169.598 39.0918V38.3828C169.598 37.7695 169.678 37.2148 169.838 36.7188C170.002 36.2227 170.236 35.7988 170.541 35.4473C170.846 35.0918 171.211 34.8203 171.637 34.6328C172.066 34.4453 172.549 34.3516 173.084 34.3516C173.764 34.3516 174.338 34.4766 174.807 34.7266C175.275 34.9766 175.639 35.3223 175.896 35.7637C176.158 36.2051 176.318 36.7109 176.377 37.2812H174.912C174.873 36.9141 174.787 36.5996 174.654 36.3379C174.525 36.0762 174.334 35.877 174.08 35.7402C173.826 35.5996 173.494 35.5293 173.084 35.5293C172.748 35.5293 172.455 35.5918 172.205 35.7168C171.955 35.8418 171.746 36.0254 171.578 36.2676C171.41 36.5098 171.283 36.8086 171.197 37.1641C171.115 37.5156 171.074 37.918 171.074 38.3711V39.0918C171.074 39.5215 171.111 39.9121 171.186 40.2637C171.264 40.6113 171.381 40.9102 171.537 41.1602C171.697 41.4102 171.9 41.6035 172.146 41.7402C172.393 41.877 172.688 41.9453 173.031 41.9453C173.449 41.9453 173.787 41.8789 174.045 41.7461C174.307 41.6133 174.504 41.4199 174.637 41.166C174.773 40.9082 174.863 40.5938 174.906 40.2227ZM178.961 34V43H177.555V34H178.961ZM178.715 39.5957L178.258 39.5898C178.262 39.1523 178.322 38.748 178.439 38.377C178.561 38.0059 178.729 37.6836 178.943 37.4102C179.162 37.1328 179.424 36.9199 179.729 36.7715C180.033 36.6191 180.371 36.543 180.742 36.543C181.055 36.543 181.336 36.5859 181.586 36.6719C181.84 36.7578 182.059 36.8965 182.242 37.0879C182.426 37.2754 182.564 37.5215 182.658 37.8262C182.756 38.127 182.805 38.4941 182.805 38.9277V43H181.387V38.916C181.387 38.6113 181.342 38.3691 181.252 38.1895C181.166 38.0098 181.039 37.8809 180.871 37.8027C180.703 37.7207 180.498 37.6797 180.256 37.6797C180.002 37.6797 179.777 37.7305 179.582 37.832C179.391 37.9336 179.23 38.0723 179.102 38.248C178.973 38.4238 178.875 38.627 178.809 38.8574C178.746 39.0879 178.715 39.334 178.715 39.5957ZM187.809 41.7285V38.7051C187.809 38.4785 187.768 38.2832 187.686 38.1191C187.604 37.9551 187.479 37.8281 187.311 37.7383C187.146 37.6484 186.939 37.6035 186.689 37.6035C186.459 37.6035 186.26 37.6426 186.092 37.7207C185.924 37.7988 185.793 37.9043 185.699 38.0371C185.605 38.1699 185.559 38.3203 185.559 38.4883H184.152C184.152 38.2383 184.213 37.9961 184.334 37.7617C184.455 37.5273 184.631 37.3184 184.861 37.1348C185.092 36.9512 185.367 36.8066 185.688 36.7012C186.008 36.5957 186.367 36.543 186.766 36.543C187.242 36.543 187.664 36.623 188.031 36.7832C188.402 36.9434 188.693 37.1855 188.904 37.5098C189.119 37.8301 189.227 38.2324 189.227 38.7168V41.5352C189.227 41.8242 189.246 42.084 189.285 42.3145C189.328 42.541 189.389 42.7383 189.467 42.9062V43H188.02C187.953 42.8477 187.9 42.6543 187.861 42.4199C187.826 42.1816 187.809 41.9512 187.809 41.7285ZM188.014 39.1445L188.025 40.0176H187.012C186.75 40.0176 186.52 40.043 186.32 40.0938C186.121 40.1406 185.955 40.2109 185.822 40.3047C185.689 40.3984 185.59 40.5117 185.523 40.6445C185.457 40.7773 185.424 40.9277 185.424 41.0957C185.424 41.2637 185.463 41.418 185.541 41.5586C185.619 41.6953 185.732 41.8027 185.881 41.8809C186.033 41.959 186.217 41.998 186.432 41.998C186.721 41.998 186.973 41.9395 187.188 41.8223C187.406 41.7012 187.578 41.5547 187.703 41.3828C187.828 41.207 187.895 41.041 187.902 40.8848L188.359 41.5117C188.312 41.6719 188.232 41.8438 188.119 42.0273C188.006 42.2109 187.857 42.3867 187.674 42.5547C187.494 42.7188 187.277 42.8535 187.023 42.959C186.773 43.0645 186.484 43.1172 186.156 43.1172C185.742 43.1172 185.373 43.0352 185.049 42.8711C184.725 42.7031 184.471 42.4785 184.287 42.1973C184.104 41.9121 184.012 41.5898 184.012 41.2305C184.012 40.8945 184.074 40.5977 184.199 40.3398C184.328 40.0781 184.516 39.8594 184.762 39.6836C185.012 39.5078 185.316 39.375 185.676 39.2852C186.035 39.1914 186.445 39.1445 186.906 39.1445H188.014ZM192.121 37.8672V43H190.709V36.6602H192.057L192.121 37.8672ZM194.061 36.6191L194.049 37.9316C193.963 37.916 193.869 37.9043 193.768 37.8965C193.67 37.8887 193.572 37.8848 193.475 37.8848C193.232 37.8848 193.02 37.9199 192.836 37.9902C192.652 38.0566 192.498 38.1543 192.373 38.2832C192.252 38.4082 192.158 38.5605 192.092 38.7402C192.025 38.9199 191.986 39.1211 191.975 39.3438L191.652 39.3672C191.652 38.9688 191.691 38.5996 191.77 38.2598C191.848 37.9199 191.965 37.6211 192.121 37.3633C192.281 37.1055 192.48 36.9043 192.719 36.7598C192.961 36.6152 193.24 36.543 193.557 36.543C193.643 36.543 193.734 36.5508 193.832 36.5664C193.934 36.582 194.01 36.5996 194.061 36.6191ZM198.889 36.6602H200.172V42.8242C200.172 43.3945 200.051 43.8789 199.809 44.2773C199.566 44.6758 199.229 44.9785 198.795 45.1855C198.361 45.3965 197.859 45.502 197.289 45.502C197.047 45.502 196.777 45.4668 196.48 45.3965C196.188 45.3262 195.902 45.2129 195.625 45.0566C195.352 44.9043 195.123 44.7031 194.939 44.4531L195.602 43.6211C195.828 43.8906 196.078 44.0879 196.352 44.2129C196.625 44.3379 196.912 44.4004 197.213 44.4004C197.537 44.4004 197.812 44.3398 198.039 44.2188C198.27 44.1016 198.447 43.9277 198.572 43.6973C198.697 43.4668 198.76 43.1855 198.76 42.8535V38.0957L198.889 36.6602ZM194.582 39.9004V39.7773C194.582 39.2969 194.641 38.8594 194.758 38.4648C194.875 38.0664 195.043 37.7246 195.262 37.4395C195.48 37.1504 195.746 36.9297 196.059 36.7773C196.371 36.6211 196.725 36.543 197.119 36.543C197.529 36.543 197.879 36.6172 198.168 36.7656C198.461 36.9141 198.705 37.127 198.9 37.4043C199.096 37.6777 199.248 38.0059 199.357 38.3887C199.471 38.7676 199.555 39.1895 199.609 39.6543V40.0469C199.559 40.5 199.473 40.9141 199.352 41.2891C199.23 41.6641 199.07 41.9883 198.871 42.2617C198.672 42.5352 198.426 42.7461 198.133 42.8945C197.844 43.043 197.502 43.1172 197.107 43.1172C196.721 43.1172 196.371 43.0371 196.059 42.877C195.75 42.7168 195.484 42.4922 195.262 42.2031C195.043 41.9141 194.875 41.5742 194.758 41.1836C194.641 40.7891 194.582 40.3613 194.582 39.9004ZM195.994 39.7773V39.9004C195.994 40.1895 196.021 40.459 196.076 40.709C196.135 40.959 196.223 41.1797 196.34 41.3711C196.461 41.5586 196.613 41.707 196.797 41.8164C196.984 41.9219 197.205 41.9746 197.459 41.9746C197.791 41.9746 198.062 41.9043 198.273 41.7637C198.488 41.623 198.652 41.4336 198.766 41.1953C198.883 40.9531 198.965 40.6836 199.012 40.3867V39.3262C198.988 39.0957 198.939 38.8809 198.865 38.6816C198.795 38.4824 198.699 38.3086 198.578 38.1602C198.457 38.0078 198.305 37.8906 198.121 37.8086C197.938 37.7227 197.721 37.6797 197.471 37.6797C197.217 37.6797 196.996 37.7344 196.809 37.8438C196.621 37.9531 196.467 38.1035 196.346 38.2949C196.229 38.4863 196.141 38.709 196.082 38.9629C196.023 39.2168 195.994 39.4883 195.994 39.7773ZM203.148 36.6602V43H201.73V36.6602H203.148ZM201.637 34.9961C201.637 34.7812 201.707 34.6035 201.848 34.4629C201.992 34.3184 202.191 34.2461 202.445 34.2461C202.695 34.2461 202.893 34.3184 203.037 34.4629C203.182 34.6035 203.254 34.7812 203.254 34.9961C203.254 35.207 203.182 35.3828 203.037 35.5234C202.893 35.6641 202.695 35.7344 202.445 35.7344C202.191 35.7344 201.992 35.6641 201.848 35.5234C201.707 35.3828 201.637 35.207 201.637 34.9961ZM206.096 38.0137V43H204.684V36.6602H206.014L206.096 38.0137ZM205.844 39.5957L205.387 39.5898C205.391 39.1406 205.453 38.7285 205.574 38.3535C205.699 37.9785 205.871 37.6562 206.09 37.3867C206.312 37.1172 206.578 36.9102 206.887 36.7656C207.195 36.6172 207.539 36.543 207.918 36.543C208.223 36.543 208.498 36.5859 208.744 36.6719C208.994 36.7539 209.207 36.8887 209.383 37.0762C209.562 37.2637 209.699 37.5078 209.793 37.8086C209.887 38.1055 209.934 38.4707 209.934 38.9043V43H208.516V38.8984C208.516 38.5938 208.471 38.3535 208.381 38.1777C208.295 37.998 208.168 37.8711 208 37.7969C207.836 37.7188 207.631 37.6797 207.385 37.6797C207.143 37.6797 206.926 37.7305 206.734 37.832C206.543 37.9336 206.381 38.0723 206.248 38.248C206.119 38.4238 206.02 38.627 205.949 38.8574C205.879 39.0879 205.844 39.334 205.844 39.5957ZM215.436 36.6602H216.719V42.8242C216.719 43.3945 216.598 43.8789 216.355 44.2773C216.113 44.6758 215.775 44.9785 215.342 45.1855C214.908 45.3965 214.406 45.502 213.836 45.502C213.594 45.502 213.324 45.4668 213.027 45.3965C212.734 45.3262 212.449 45.2129 212.172 45.0566C211.898 44.9043 211.67 44.7031 211.486 44.4531L212.148 43.6211C212.375 43.8906 212.625 44.0879 212.898 44.2129C213.172 44.3379 213.459 44.4004 213.76 44.4004C214.084 44.4004 214.359 44.3398 214.586 44.2188C214.816 44.1016 214.994 43.9277 215.119 43.6973C215.244 43.4668 215.307 43.1855 215.307 42.8535V38.0957L215.436 36.6602ZM211.129 39.9004V39.7773C211.129 39.2969 211.188 38.8594 211.305 38.4648C211.422 38.0664 211.59 37.7246 211.809 37.4395C212.027 37.1504 212.293 36.9297 212.605 36.7773C212.918 36.6211 213.271 36.543 213.666 36.543C214.076 36.543 214.426 36.6172 214.715 36.7656C215.008 36.9141 215.252 37.127 215.447 37.4043C215.643 37.6777 215.795 38.0059 215.904 38.3887C216.018 38.7676 216.102 39.1895 216.156 39.6543V40.0469C216.105 40.5 216.02 40.9141 215.898 41.2891C215.777 41.6641 215.617 41.9883 215.418 42.2617C215.219 42.5352 214.973 42.7461 214.68 42.8945C214.391 43.043 214.049 43.1172 213.654 43.1172C213.268 43.1172 212.918 43.0371 212.605 42.877C212.297 42.7168 212.031 42.4922 211.809 42.2031C211.59 41.9141 211.422 41.5742 211.305 41.1836C211.188 40.7891 211.129 40.3613 211.129 39.9004ZM212.541 39.7773V39.9004C212.541 40.1895 212.568 40.459 212.623 40.709C212.682 40.959 212.77 41.1797 212.887 41.3711C213.008 41.5586 213.16 41.707 213.344 41.8164C213.531 41.9219 213.752 41.9746 214.006 41.9746C214.338 41.9746 214.609 41.9043 214.82 41.7637C215.035 41.623 215.199 41.4336 215.312 41.1953C215.43 40.9531 215.512 40.6836 215.559 40.3867V39.3262C215.535 39.0957 215.486 38.8809 215.412 38.6816C215.342 38.4824 215.246 38.3086 215.125 38.1602C215.004 38.0078 214.852 37.8906 214.668 37.8086C214.484 37.7227 214.268 37.6797 214.018 37.6797C213.764 37.6797 213.543 37.7344 213.355 37.8438C213.168 37.9531 213.014 38.1035 212.893 38.2949C212.775 38.4863 212.688 38.709 212.629 38.9629C212.57 39.2168 212.541 39.4883 212.541 39.7773Z" fill="#21C179"/>
</g>
<defs>
<filter id="filter0_d_1_19788" x="0" y="0" width="257" height="83" filterUnits="userSpaceOnUse" color-interpolation-filters="sRGB">
<feFlood flood-opacity="0" result="BackgroundImageFix"/>
<feColorMatrix in="SourceAlpha" type="matrix" values="0 0 0 0 0 0 0 0 0 0 0 0 0 0 0 0 0 0 127 0" result="hardAlpha"/>
<feOffset dy="3"/>
<feGaussianBlur stdDeviation="9.5"/>
<feComposite in2="hardAlpha" operator="out"/>
<feColorMatrix type="matrix" values="0 0 0 0 0 0 0 0 0 0 0 0 0 0 0 0 0 0 0.09 0"/>
<feBlend mode="normal" in2="BackgroundImageFix" result="effect1_dropShadow_1_19788"/>
<feBlend mode="normal" in="SourceGraphic" in2="effect1_dropShadow_1_19788" result="shape"/>
</filter>
<clipPath id="clip0_1_19788">
<rect width="20" height="20" fill="white" transform="translate(31 28.5)"/>
</clipPath>
</defs>
</svg>
