<svg width="600" height="321" viewBox="0 0 600 321" fill="none" xmlns="http://www.w3.org/2000/svg">
<g clip-path="url(#clip0_1_19904)">
<rect y="0.669922" width="600" height="320" rx="8" fill="#202020"/>
<path d="M85 63C85 55.4575 85 51.6863 87.3431 49.3431C89.6863 47 93.4575 47 101 47H500C507.542 47 511.314 47 513.657 49.3431C516 51.6863 516 55.4575 516 63V321H85V63Z" fill="#3A3A3A"/>
<path fill-rule="evenodd" clip-rule="evenodd" d="M119.411 72.1212C119.781 72.4933 119.779 73.0947 119.407 73.4645L118.296 74.5691L112.876 79.8937C112.512 80.251 111.932 80.2575 111.56 79.9084L109.867 78.318L109.851 78.3031L108.722 77.1927C108.347 76.825 108.342 76.2236 108.71 75.8494C109.078 75.4753 109.679 75.4701 110.053 75.8378L111.175 76.9407L112.196 77.8989L116.962 73.2158L118.068 72.1169C118.44 71.7471 119.042 71.749 119.411 72.1212Z" fill="#21C179"/>
<path d="M140.681 71.0332H140.79V72.1064H140.681C140.011 72.1064 139.45 72.2158 138.999 72.4346C138.548 72.6488 138.19 72.9382 137.926 73.3027C137.661 73.6628 137.47 74.0684 137.352 74.5195C137.238 74.9707 137.181 75.4287 137.181 75.8936V77.3564C137.181 77.7985 137.233 78.1904 137.338 78.5322C137.443 78.8695 137.586 79.1543 137.769 79.3867C137.951 79.6191 138.156 79.7946 138.384 79.9131C138.616 80.0316 138.858 80.0908 139.108 80.0908C139.4 80.0908 139.66 80.0361 139.888 79.9268C140.116 79.8128 140.307 79.6556 140.462 79.4551C140.621 79.25 140.742 79.0085 140.824 78.7305C140.906 78.4525 140.947 78.1471 140.947 77.8145C140.947 77.5182 140.911 77.2334 140.838 76.96C140.765 76.682 140.653 76.4359 140.503 76.2217C140.353 76.0029 140.163 75.832 139.936 75.709C139.712 75.5814 139.446 75.5176 139.136 75.5176C138.785 75.5176 138.457 75.6042 138.151 75.7773C137.851 75.946 137.602 76.1693 137.406 76.4473C137.215 76.7207 137.105 77.0192 137.078 77.3428L136.408 77.3359C136.472 76.8255 136.59 76.3903 136.764 76.0303C136.941 75.6657 137.16 75.3695 137.42 75.1416C137.684 74.9092 137.978 74.7406 138.302 74.6357C138.63 74.5264 138.976 74.4717 139.341 74.4717C139.838 74.4717 140.266 74.5651 140.626 74.752C140.986 74.9388 141.282 75.1895 141.515 75.5039C141.747 75.8138 141.918 76.1647 142.027 76.5566C142.141 76.944 142.198 77.3428 142.198 77.7529C142.198 78.2223 142.132 78.6621 142 79.0723C141.868 79.4824 141.67 79.8424 141.405 80.1523C141.146 80.4622 140.824 80.7038 140.441 80.877C140.059 81.0501 139.614 81.1367 139.108 81.1367C138.571 81.1367 138.101 81.0273 137.7 80.8086C137.299 80.5853 136.966 80.2891 136.702 79.9199C136.438 79.5508 136.24 79.1406 136.107 78.6895C135.975 78.2383 135.909 77.7803 135.909 77.3154V76.7207C135.909 76.0189 135.98 75.3307 136.121 74.6562C136.262 73.9818 136.506 73.3711 136.853 72.8242C137.203 72.2773 137.689 71.8421 138.309 71.5186C138.928 71.195 139.719 71.0332 140.681 71.0332ZM143.784 80.3301C143.784 80.1159 143.85 79.9359 143.982 79.79C144.119 79.6396 144.315 79.5645 144.57 79.5645C144.826 79.5645 145.019 79.6396 145.151 79.79C145.288 79.9359 145.356 80.1159 145.356 80.3301C145.356 80.5397 145.288 80.7174 145.151 80.8633C145.019 81.0091 144.826 81.082 144.57 81.082C144.315 81.082 144.119 81.0091 143.982 80.8633C143.85 80.7174 143.784 80.5397 143.784 80.3301ZM143.791 74.2939C143.791 74.0798 143.857 73.8997 143.989 73.7539C144.126 73.6035 144.322 73.5283 144.577 73.5283C144.832 73.5283 145.026 73.6035 145.158 73.7539C145.295 73.8997 145.363 74.0798 145.363 74.2939C145.363 74.5036 145.295 74.6813 145.158 74.8271C145.026 74.973 144.832 75.0459 144.577 75.0459C144.322 75.0459 144.126 74.973 143.989 74.8271C143.857 74.6813 143.791 74.5036 143.791 74.2939ZM151.249 70.9922V81H149.984V72.5713L147.435 73.501V72.3594L151.051 70.9922H151.249ZM156.567 76.2627L155.556 76.0029L156.055 71.0469H161.161V72.2158H157.128L156.827 74.9229C157.009 74.818 157.24 74.7201 157.518 74.6289C157.8 74.5378 158.124 74.4922 158.488 74.4922C158.949 74.4922 159.361 74.5719 159.726 74.7314C160.09 74.8864 160.4 75.1097 160.655 75.4014C160.915 75.693 161.113 76.0439 161.25 76.4541C161.387 76.8643 161.455 77.3223 161.455 77.8281C161.455 78.3066 161.389 78.7464 161.257 79.1475C161.129 79.5485 160.936 79.8994 160.676 80.2002C160.416 80.4964 160.088 80.7266 159.691 80.8906C159.299 81.0547 158.837 81.1367 158.304 81.1367C157.903 81.1367 157.522 81.082 157.162 80.9727C156.807 80.8587 156.488 80.6878 156.205 80.46C155.927 80.2275 155.699 79.9404 155.521 79.5986C155.348 79.2523 155.239 78.8467 155.193 78.3818H156.396C156.451 78.7555 156.561 79.07 156.725 79.3252C156.889 79.5804 157.103 79.7741 157.367 79.9062C157.636 80.0339 157.948 80.0977 158.304 80.0977C158.604 80.0977 158.871 80.0452 159.104 79.9404C159.336 79.8356 159.532 79.6852 159.691 79.4893C159.851 79.2933 159.972 79.0563 160.054 78.7783C160.14 78.5003 160.184 78.1882 160.184 77.8418C160.184 77.5273 160.14 77.2357 160.054 76.9668C159.967 76.6979 159.837 76.4632 159.664 76.2627C159.495 76.0622 159.288 75.9072 159.042 75.7979C158.796 75.6839 158.513 75.627 158.194 75.627C157.771 75.627 157.449 75.6839 157.23 75.7979C157.016 75.9118 156.795 76.0667 156.567 76.2627ZM170.314 77.0967H167.655V76.0234H170.314C170.829 76.0234 171.246 75.9414 171.565 75.7773C171.884 75.6133 172.117 75.3854 172.263 75.0938C172.413 74.8021 172.488 74.4694 172.488 74.0957C172.488 73.7539 172.413 73.4326 172.263 73.1318C172.117 72.8311 171.884 72.5895 171.565 72.4072C171.246 72.2204 170.829 72.127 170.314 72.127H167.963V81H166.644V71.0469H170.314C171.066 71.0469 171.702 71.1768 172.222 71.4365C172.741 71.6963 173.135 72.0563 173.404 72.5166C173.673 72.9723 173.808 73.4941 173.808 74.082C173.808 74.7201 173.673 75.2646 173.404 75.7158C173.135 76.167 172.741 76.5111 172.222 76.748C171.702 76.9805 171.066 77.0967 170.314 77.0967ZM175.893 71.0469H177.171L180.432 79.1611L183.686 71.0469H184.971L180.924 81H179.926L175.893 71.0469ZM175.476 71.0469H176.604L176.788 77.1172V81H175.476V71.0469ZM184.253 71.0469H185.381V81H184.068V77.1172L184.253 71.0469Z" fill="white"/>
<path d="M468.021 73.5146L467.686 74.7246H461.287L461.622 73.5146H468.021ZM464.924 81L461.485 76.9463L461.479 75.9277H463.112C463.536 75.9277 463.885 75.8525 464.158 75.7021C464.436 75.5472 464.644 75.3398 464.78 75.0801C464.917 74.8158 464.985 74.5218 464.985 74.1982C464.985 73.8473 464.922 73.5374 464.794 73.2686C464.666 72.9997 464.464 72.79 464.186 72.6396C463.908 72.4893 463.541 72.4141 463.085 72.4141H461.294L461.663 71.0469H463.085C463.892 71.0469 464.562 71.1676 465.095 71.4092C465.628 71.6507 466.027 72.0016 466.291 72.4619C466.56 72.9222 466.694 73.4782 466.694 74.1299C466.694 74.6995 466.596 75.2031 466.4 75.6406C466.204 76.0736 465.888 76.4245 465.45 76.6934C465.013 76.9577 464.432 77.1217 463.707 77.1855L466.852 80.9111V81H464.924ZM468.027 71.0469L467.686 72.2568H462.456L462.791 71.0469H468.027ZM473.879 79.7012H474.016C474.645 79.7012 475.169 79.6191 475.588 79.4551C476.012 79.2865 476.349 79.054 476.6 78.7578C476.85 78.4616 477.03 78.113 477.14 77.7119C477.249 77.3109 477.304 76.8757 477.304 76.4062V74.6904C477.304 74.2848 477.26 73.9294 477.174 73.624C477.092 73.3141 476.973 73.0566 476.818 72.8516C476.668 72.6419 476.493 72.4847 476.292 72.3799C476.096 72.2751 475.884 72.2227 475.656 72.2227C475.406 72.2227 475.18 72.2796 474.979 72.3936C474.784 72.5029 474.617 72.6556 474.48 72.8516C474.348 73.043 474.246 73.2686 474.173 73.5283C474.104 73.7835 474.07 74.057 474.07 74.3486C474.07 74.6221 474.102 74.8864 474.166 75.1416C474.234 75.3923 474.335 75.6156 474.467 75.8115C474.599 76.0075 474.765 76.1624 474.966 76.2764C475.166 76.3903 475.401 76.4473 475.67 76.4473C475.925 76.4473 476.16 76.3994 476.374 76.3037C476.588 76.2035 476.775 76.069 476.935 75.9004C477.094 75.7318 477.219 75.5426 477.311 75.333C477.402 75.1234 477.452 74.9092 477.461 74.6904L478.09 74.8818C478.09 75.2282 478.017 75.57 477.871 75.9072C477.73 76.2399 477.532 76.5452 477.276 76.8232C477.026 77.0967 476.732 77.3154 476.395 77.4795C476.062 77.6436 475.7 77.7256 475.308 77.7256C474.834 77.7256 474.414 77.6367 474.05 77.459C473.69 77.2767 473.389 77.0306 473.147 76.7207C472.91 76.4108 472.733 76.0553 472.614 75.6543C472.496 75.2533 472.437 74.8317 472.437 74.3896C472.437 73.9111 472.509 73.4622 472.655 73.043C472.801 72.6237 473.013 72.2546 473.291 71.9355C473.569 71.612 473.906 71.3613 474.303 71.1836C474.704 71.0013 475.157 70.9102 475.663 70.9102C476.201 70.9102 476.673 71.015 477.078 71.2246C477.484 71.4342 477.826 71.7236 478.104 72.0928C478.382 72.4619 478.591 72.8903 478.732 73.3779C478.874 73.8656 478.944 74.3896 478.944 74.9502V75.5312C478.944 76.1191 478.892 76.6865 478.787 77.2334C478.682 77.7757 478.511 78.2793 478.274 78.7441C478.042 79.2044 477.734 79.61 477.352 79.9609C476.973 80.3073 476.508 80.5785 475.957 80.7744C475.41 80.9658 474.768 81.0615 474.029 81.0615H473.879V79.7012ZM486.997 75.1895V76.8164C486.997 77.5957 486.92 78.2611 486.765 78.8125C486.614 79.3594 486.396 79.8037 486.108 80.1455C485.821 80.4873 485.477 80.738 485.076 80.8975C484.68 81.057 484.235 81.1367 483.743 81.1367C483.351 81.1367 482.987 81.0866 482.649 80.9863C482.317 80.8861 482.016 80.7288 481.747 80.5146C481.478 80.3005 481.248 80.0247 481.057 79.6875C480.87 79.3457 480.724 78.9378 480.619 78.4639C480.519 77.9899 480.469 77.4408 480.469 76.8164V75.1895C480.469 74.4056 480.546 73.7448 480.701 73.207C480.856 72.6647 481.077 72.2249 481.364 71.8877C481.651 71.5459 481.993 71.2975 482.39 71.1426C482.791 70.9876 483.237 70.9102 483.729 70.9102C484.126 70.9102 484.491 70.9603 484.823 71.0605C485.16 71.1562 485.461 71.3089 485.726 71.5186C485.994 71.7282 486.222 72.0016 486.409 72.3389C486.601 72.6715 486.746 73.0749 486.847 73.5488C486.947 74.0182 486.997 74.5651 486.997 75.1895ZM485.35 77.0488V74.9434C485.35 74.5469 485.327 74.1982 485.281 73.8975C485.236 73.5921 485.167 73.3346 485.076 73.125C484.99 72.9108 484.88 72.7376 484.748 72.6055C484.616 72.4688 484.465 72.3708 484.297 72.3115C484.128 72.2477 483.939 72.2158 483.729 72.2158C483.474 72.2158 483.246 72.266 483.046 72.3662C482.845 72.4619 482.677 72.6169 482.54 72.8311C482.403 73.0452 482.299 73.3278 482.226 73.6787C482.157 74.0251 482.123 74.4466 482.123 74.9434V77.0488C482.123 77.4499 482.146 77.8031 482.191 78.1084C482.237 78.4137 482.305 78.6758 482.396 78.8945C482.488 79.1087 482.597 79.2865 482.725 79.4277C482.857 79.5645 483.007 79.6647 483.176 79.7285C483.349 79.7923 483.538 79.8242 483.743 79.8242C484.003 79.8242 484.233 79.7741 484.434 79.6738C484.634 79.5736 484.803 79.4141 484.939 79.1953C485.076 78.972 485.179 78.6826 485.247 78.3271C485.315 77.9717 485.35 77.5456 485.35 77.0488ZM494.954 75.1895V76.8164C494.954 77.5957 494.877 78.2611 494.722 78.8125C494.571 79.3594 494.353 79.8037 494.065 80.1455C493.778 80.4873 493.434 80.738 493.033 80.8975C492.637 81.057 492.192 81.1367 491.7 81.1367C491.308 81.1367 490.944 81.0866 490.606 80.9863C490.274 80.8861 489.973 80.7288 489.704 80.5146C489.435 80.3005 489.205 80.0247 489.014 79.6875C488.827 79.3457 488.681 78.9378 488.576 78.4639C488.476 77.9899 488.426 77.4408 488.426 76.8164V75.1895C488.426 74.4056 488.503 73.7448 488.658 73.207C488.813 72.6647 489.034 72.2249 489.321 71.8877C489.608 71.5459 489.95 71.2975 490.347 71.1426C490.748 70.9876 491.194 70.9102 491.687 70.9102C492.083 70.9102 492.448 70.9603 492.78 71.0605C493.118 71.1562 493.418 71.3089 493.683 71.5186C493.951 71.7282 494.179 72.0016 494.366 72.3389C494.558 72.6715 494.703 73.0749 494.804 73.5488C494.904 74.0182 494.954 74.5651 494.954 75.1895ZM493.307 77.0488V74.9434C493.307 74.5469 493.284 74.1982 493.238 73.8975C493.193 73.5921 493.124 73.3346 493.033 73.125C492.947 72.9108 492.837 72.7376 492.705 72.6055C492.573 72.4688 492.423 72.3708 492.254 72.3115C492.085 72.2477 491.896 72.2158 491.687 72.2158C491.431 72.2158 491.203 72.266 491.003 72.3662C490.802 72.4619 490.634 72.6169 490.497 72.8311C490.36 73.0452 490.256 73.3278 490.183 73.6787C490.114 74.0251 490.08 74.4466 490.08 74.9434V77.0488C490.08 77.4499 490.103 77.8031 490.148 78.1084C490.194 78.4137 490.262 78.6758 490.354 78.8945C490.445 79.1087 490.554 79.2865 490.682 79.4277C490.814 79.5645 490.964 79.6647 491.133 79.7285C491.306 79.7923 491.495 79.8242 491.7 79.8242C491.96 79.8242 492.19 79.7741 492.391 79.6738C492.591 79.5736 492.76 79.4141 492.896 79.1953C493.033 78.972 493.136 78.6826 493.204 78.3271C493.272 77.9717 493.307 77.5456 493.307 77.0488Z" fill="white"/>
<rect x="105" y="103" width="391" height="1" fill="#D9D9D9" fill-opacity="0.14"/>
<path fill-rule="evenodd" clip-rule="evenodd" d="M119.411 127.121C119.781 127.493 119.779 128.095 119.407 128.465L118.296 129.569L112.876 134.894C112.512 135.251 111.932 135.257 111.56 134.908L109.867 133.318L109.851 133.303L108.722 132.193C108.347 131.825 108.342 131.224 108.71 130.849C109.078 130.475 109.679 130.47 110.053 130.838L111.175 131.941L112.196 132.899L116.962 128.216L118.068 127.117C118.44 126.747 119.042 126.749 119.411 127.121Z" fill="#21C179"/>
<path d="M140.681 126.033H140.79V127.106H140.681C140.011 127.106 139.45 127.216 138.999 127.435C138.548 127.649 138.19 127.938 137.926 128.303C137.661 128.663 137.47 129.068 137.352 129.52C137.238 129.971 137.181 130.429 137.181 130.894V132.356C137.181 132.799 137.233 133.19 137.338 133.532C137.443 133.869 137.586 134.154 137.769 134.387C137.951 134.619 138.156 134.795 138.384 134.913C138.616 135.032 138.858 135.091 139.108 135.091C139.4 135.091 139.66 135.036 139.888 134.927C140.116 134.813 140.307 134.656 140.462 134.455C140.621 134.25 140.742 134.008 140.824 133.73C140.906 133.452 140.947 133.147 140.947 132.814C140.947 132.518 140.911 132.233 140.838 131.96C140.765 131.682 140.653 131.436 140.503 131.222C140.353 131.003 140.163 130.832 139.936 130.709C139.712 130.581 139.446 130.518 139.136 130.518C138.785 130.518 138.457 130.604 138.151 130.777C137.851 130.946 137.602 131.169 137.406 131.447C137.215 131.721 137.105 132.019 137.078 132.343L136.408 132.336C136.472 131.826 136.59 131.39 136.764 131.03C136.941 130.666 137.16 130.369 137.42 130.142C137.684 129.909 137.978 129.741 138.302 129.636C138.63 129.526 138.976 129.472 139.341 129.472C139.838 129.472 140.266 129.565 140.626 129.752C140.986 129.939 141.282 130.189 141.515 130.504C141.747 130.814 141.918 131.165 142.027 131.557C142.141 131.944 142.198 132.343 142.198 132.753C142.198 133.222 142.132 133.662 142 134.072C141.868 134.482 141.67 134.842 141.405 135.152C141.146 135.462 140.824 135.704 140.441 135.877C140.059 136.05 139.614 136.137 139.108 136.137C138.571 136.137 138.101 136.027 137.7 135.809C137.299 135.585 136.966 135.289 136.702 134.92C136.438 134.551 136.24 134.141 136.107 133.689C135.975 133.238 135.909 132.78 135.909 132.315V131.721C135.909 131.019 135.98 130.331 136.121 129.656C136.262 128.982 136.506 128.371 136.853 127.824C137.203 127.277 137.689 126.842 138.309 126.519C138.928 126.195 139.719 126.033 140.681 126.033ZM143.784 135.33C143.784 135.116 143.85 134.936 143.982 134.79C144.119 134.64 144.315 134.564 144.57 134.564C144.826 134.564 145.019 134.64 145.151 134.79C145.288 134.936 145.356 135.116 145.356 135.33C145.356 135.54 145.288 135.717 145.151 135.863C145.019 136.009 144.826 136.082 144.57 136.082C144.315 136.082 144.119 136.009 143.982 135.863C143.85 135.717 143.784 135.54 143.784 135.33ZM143.791 129.294C143.791 129.08 143.857 128.9 143.989 128.754C144.126 128.604 144.322 128.528 144.577 128.528C144.832 128.528 145.026 128.604 145.158 128.754C145.295 128.9 145.363 129.08 145.363 129.294C145.363 129.504 145.295 129.681 145.158 129.827C145.026 129.973 144.832 130.046 144.577 130.046C144.322 130.046 144.126 129.973 143.989 129.827C143.857 129.681 143.791 129.504 143.791 129.294ZM148.938 130.401H149.841C150.283 130.401 150.647 130.328 150.935 130.183C151.226 130.032 151.443 129.829 151.584 129.574C151.73 129.314 151.803 129.023 151.803 128.699C151.803 128.316 151.739 127.995 151.611 127.735C151.484 127.476 151.292 127.28 151.037 127.147C150.782 127.015 150.458 126.949 150.066 126.949C149.711 126.949 149.396 127.02 149.123 127.161C148.854 127.298 148.642 127.494 148.487 127.749C148.337 128.004 148.262 128.305 148.262 128.651H146.997C146.997 128.146 147.125 127.685 147.38 127.271C147.635 126.856 147.993 126.525 148.453 126.279C148.918 126.033 149.456 125.91 150.066 125.91C150.668 125.91 151.194 126.017 151.646 126.231C152.097 126.441 152.448 126.756 152.698 127.175C152.949 127.59 153.074 128.107 153.074 128.727C153.074 128.977 153.015 129.246 152.896 129.533C152.783 129.816 152.603 130.08 152.356 130.326C152.115 130.572 151.8 130.775 151.413 130.935C151.026 131.09 150.561 131.167 150.019 131.167H148.938V130.401ZM148.938 131.44V130.682H150.019C150.652 130.682 151.176 130.757 151.591 130.907C152.006 131.058 152.331 131.258 152.568 131.509C152.81 131.759 152.979 132.035 153.074 132.336C153.174 132.632 153.225 132.928 153.225 133.225C153.225 133.689 153.145 134.102 152.985 134.462C152.83 134.822 152.609 135.127 152.322 135.378C152.04 135.629 151.707 135.818 151.324 135.945C150.941 136.073 150.524 136.137 150.073 136.137C149.64 136.137 149.232 136.075 148.85 135.952C148.471 135.829 148.136 135.651 147.845 135.419C147.553 135.182 147.325 134.893 147.161 134.551C146.997 134.204 146.915 133.81 146.915 133.368H148.18C148.18 133.715 148.255 134.018 148.405 134.277C148.56 134.537 148.779 134.74 149.062 134.886C149.349 135.027 149.686 135.098 150.073 135.098C150.461 135.098 150.793 135.032 151.071 134.899C151.354 134.763 151.57 134.558 151.721 134.284C151.876 134.011 151.953 133.667 151.953 133.252C151.953 132.837 151.867 132.498 151.693 132.233C151.52 131.965 151.274 131.766 150.955 131.639C150.641 131.507 150.269 131.44 149.841 131.44H148.938ZM161.216 130.23V131.748C161.216 132.564 161.143 133.252 160.997 133.812C160.851 134.373 160.642 134.824 160.368 135.166C160.095 135.508 159.764 135.756 159.377 135.911C158.994 136.062 158.561 136.137 158.078 136.137C157.695 136.137 157.342 136.089 157.019 135.993C156.695 135.897 156.403 135.745 156.144 135.535C155.888 135.321 155.67 135.043 155.487 134.701C155.305 134.359 155.166 133.945 155.07 133.457C154.975 132.969 154.927 132.4 154.927 131.748V130.23C154.927 129.415 155 128.731 155.146 128.18C155.296 127.628 155.508 127.186 155.781 126.854C156.055 126.516 156.383 126.275 156.766 126.129C157.153 125.983 157.586 125.91 158.064 125.91C158.452 125.91 158.807 125.958 159.131 126.054C159.459 126.145 159.751 126.293 160.006 126.498C160.261 126.699 160.478 126.967 160.655 127.305C160.838 127.637 160.977 128.045 161.072 128.528C161.168 129.011 161.216 129.579 161.216 130.23ZM159.944 131.953V130.019C159.944 129.572 159.917 129.18 159.862 128.843C159.812 128.501 159.737 128.209 159.637 127.968C159.536 127.726 159.409 127.53 159.254 127.38C159.104 127.229 158.928 127.12 158.728 127.052C158.532 126.979 158.311 126.942 158.064 126.942C157.764 126.942 157.497 126.999 157.265 127.113C157.032 127.223 156.836 127.398 156.677 127.64C156.522 127.881 156.403 128.198 156.321 128.59C156.239 128.982 156.198 129.458 156.198 130.019V131.953C156.198 132.4 156.223 132.794 156.273 133.136C156.328 133.478 156.408 133.774 156.513 134.024C156.618 134.271 156.745 134.473 156.896 134.633C157.046 134.792 157.219 134.911 157.415 134.988C157.616 135.061 157.837 135.098 158.078 135.098C158.388 135.098 158.659 135.038 158.892 134.92C159.124 134.801 159.318 134.617 159.473 134.366C159.632 134.111 159.751 133.785 159.828 133.389C159.906 132.988 159.944 132.509 159.944 131.953ZM170.314 132.097H167.655V131.023H170.314C170.829 131.023 171.246 130.941 171.565 130.777C171.884 130.613 172.117 130.385 172.263 130.094C172.413 129.802 172.488 129.469 172.488 129.096C172.488 128.754 172.413 128.433 172.263 128.132C172.117 127.831 171.884 127.59 171.565 127.407C171.246 127.22 170.829 127.127 170.314 127.127H167.963V136H166.644V126.047H170.314C171.066 126.047 171.702 126.177 172.222 126.437C172.741 126.696 173.135 127.056 173.404 127.517C173.673 127.972 173.808 128.494 173.808 129.082C173.808 129.72 173.673 130.265 173.404 130.716C173.135 131.167 172.741 131.511 172.222 131.748C171.702 131.98 171.066 132.097 170.314 132.097ZM175.893 126.047H177.171L180.432 134.161L183.686 126.047H184.971L180.924 136H179.926L175.893 126.047ZM175.476 126.047H176.604L176.788 132.117V136H175.476V126.047ZM184.253 126.047H185.381V136H184.068V132.117L184.253 126.047Z" fill="white"/>
<path d="M460.021 128.515L459.686 129.725H453.287L453.622 128.515H460.021ZM456.924 136L453.485 131.946L453.479 130.928H455.112C455.536 130.928 455.885 130.853 456.158 130.702C456.436 130.547 456.644 130.34 456.78 130.08C456.917 129.816 456.985 129.522 456.985 129.198C456.985 128.847 456.922 128.537 456.794 128.269C456.666 128 456.464 127.79 456.186 127.64C455.908 127.489 455.541 127.414 455.085 127.414H453.294L453.663 126.047H455.085C455.892 126.047 456.562 126.168 457.095 126.409C457.628 126.651 458.027 127.002 458.291 127.462C458.56 127.922 458.694 128.478 458.694 129.13C458.694 129.7 458.596 130.203 458.4 130.641C458.204 131.074 457.888 131.424 457.45 131.693C457.013 131.958 456.432 132.122 455.707 132.186L458.852 135.911V136H456.924ZM460.027 126.047L459.686 127.257H454.456L454.791 126.047H460.027ZM469.051 126.013V136H467.403V127.968L464.963 128.795V127.435L468.853 126.013H469.051ZM479.182 134.688V136H472.51V134.872L475.75 131.338C476.105 130.937 476.386 130.59 476.591 130.299C476.796 130.007 476.939 129.745 477.021 129.513C477.108 129.276 477.151 129.046 477.151 128.822C477.151 128.508 477.092 128.232 476.974 127.995C476.86 127.754 476.691 127.564 476.468 127.428C476.244 127.286 475.973 127.216 475.654 127.216C475.285 127.216 474.975 127.296 474.725 127.455C474.474 127.615 474.285 127.836 474.157 128.118C474.03 128.396 473.966 128.715 473.966 129.075H472.318C472.318 128.496 472.451 127.968 472.715 127.489C472.979 127.006 473.362 126.623 473.863 126.341C474.365 126.054 474.968 125.91 475.675 125.91C476.34 125.91 476.905 126.022 477.37 126.245C477.835 126.468 478.188 126.785 478.43 127.195C478.676 127.605 478.799 128.091 478.799 128.651C478.799 128.961 478.749 129.269 478.648 129.574C478.548 129.88 478.405 130.185 478.218 130.49C478.035 130.791 477.819 131.094 477.568 131.399C477.318 131.7 477.042 132.006 476.741 132.315L474.588 134.688H479.182ZM486.954 130.189V131.816C486.954 132.596 486.877 133.261 486.722 133.812C486.571 134.359 486.353 134.804 486.065 135.146C485.778 135.487 485.434 135.738 485.033 135.897C484.637 136.057 484.192 136.137 483.7 136.137C483.308 136.137 482.944 136.087 482.606 135.986C482.274 135.886 481.973 135.729 481.704 135.515C481.435 135.3 481.205 135.025 481.014 134.688C480.827 134.346 480.681 133.938 480.576 133.464C480.476 132.99 480.426 132.441 480.426 131.816V130.189C480.426 129.406 480.503 128.745 480.658 128.207C480.813 127.665 481.034 127.225 481.321 126.888C481.608 126.546 481.95 126.298 482.347 126.143C482.748 125.988 483.194 125.91 483.687 125.91C484.083 125.91 484.448 125.96 484.78 126.061C485.118 126.156 485.418 126.309 485.683 126.519C485.951 126.728 486.179 127.002 486.366 127.339C486.558 127.672 486.703 128.075 486.804 128.549C486.904 129.018 486.954 129.565 486.954 130.189ZM485.307 132.049V129.943C485.307 129.547 485.284 129.198 485.238 128.897C485.193 128.592 485.124 128.335 485.033 128.125C484.947 127.911 484.837 127.738 484.705 127.605C484.573 127.469 484.423 127.371 484.254 127.312C484.085 127.248 483.896 127.216 483.687 127.216C483.431 127.216 483.203 127.266 483.003 127.366C482.802 127.462 482.634 127.617 482.497 127.831C482.36 128.045 482.256 128.328 482.183 128.679C482.114 129.025 482.08 129.447 482.08 129.943V132.049C482.08 132.45 482.103 132.803 482.148 133.108C482.194 133.414 482.262 133.676 482.354 133.895C482.445 134.109 482.554 134.286 482.682 134.428C482.814 134.564 482.964 134.665 483.133 134.729C483.306 134.792 483.495 134.824 483.7 134.824C483.96 134.824 484.19 134.774 484.391 134.674C484.591 134.574 484.76 134.414 484.896 134.195C485.033 133.972 485.136 133.683 485.204 133.327C485.272 132.972 485.307 132.546 485.307 132.049ZM494.911 130.189V131.816C494.911 132.596 494.834 133.261 494.679 133.812C494.528 134.359 494.31 134.804 494.022 135.146C493.735 135.487 493.391 135.738 492.99 135.897C492.594 136.057 492.149 136.137 491.657 136.137C491.265 136.137 490.901 136.087 490.563 135.986C490.231 135.886 489.93 135.729 489.661 135.515C489.392 135.3 489.162 135.025 488.971 134.688C488.784 134.346 488.638 133.938 488.533 133.464C488.433 132.99 488.383 132.441 488.383 131.816V130.189C488.383 129.406 488.46 128.745 488.615 128.207C488.77 127.665 488.991 127.225 489.278 126.888C489.565 126.546 489.907 126.298 490.304 126.143C490.705 125.988 491.151 125.91 491.644 125.91C492.04 125.91 492.405 125.96 492.737 126.061C493.075 126.156 493.375 126.309 493.64 126.519C493.909 126.728 494.136 127.002 494.323 127.339C494.515 127.672 494.66 128.075 494.761 128.549C494.861 129.018 494.911 129.565 494.911 130.189ZM493.264 132.049V129.943C493.264 129.547 493.241 129.198 493.195 128.897C493.15 128.592 493.081 128.335 492.99 128.125C492.904 127.911 492.794 127.738 492.662 127.605C492.53 127.469 492.38 127.371 492.211 127.312C492.042 127.248 491.853 127.216 491.644 127.216C491.388 127.216 491.16 127.266 490.96 127.366C490.759 127.462 490.591 127.617 490.454 127.831C490.317 128.045 490.213 128.328 490.14 128.679C490.071 129.025 490.037 129.447 490.037 129.943V132.049C490.037 132.45 490.06 132.803 490.105 133.108C490.151 133.414 490.219 133.676 490.311 133.895C490.402 134.109 490.511 134.286 490.639 134.428C490.771 134.564 490.921 134.665 491.09 134.729C491.263 134.792 491.452 134.824 491.657 134.824C491.917 134.824 492.147 134.774 492.348 134.674C492.548 134.574 492.717 134.414 492.854 134.195C492.99 133.972 493.093 133.683 493.161 133.327C493.229 132.972 493.264 132.546 493.264 132.049Z" fill="white"/>
<rect x="105" y="158" width="391" height="1" fill="#D9D9D9" fill-opacity="0.14"/>
<g clip-path="url(#clip1_1_19904)">
<path d="M115.202 185.149C114.969 184.975 114.638 185.024 114.465 185.257C114.368 185.386 114.267 185.511 114.16 185.632C113.968 185.85 113.988 186.183 114.206 186.376C114.302 186.462 114.427 186.509 114.555 186.508C114.701 186.508 114.846 186.448 114.951 186.33C115.077 186.188 115.197 186.04 115.311 185.887C115.485 185.653 115.436 185.323 115.202 185.149ZM116.084 182.676C115.8 182.614 115.519 182.794 115.457 183.079C115.423 183.236 115.382 183.391 115.334 183.545C115.248 183.823 115.404 184.119 115.683 184.205C115.734 184.221 115.787 184.228 115.838 184.228C116.064 184.228 116.272 184.083 116.342 183.856C116.398 183.674 116.447 183.49 116.487 183.303C116.549 183.019 116.369 182.738 116.084 182.676ZM112.664 186.838C112.524 186.916 112.38 186.989 112.233 187.055C111.968 187.175 111.85 187.487 111.97 187.752C112.058 187.947 112.25 188.063 112.451 188.063C112.523 188.063 112.597 188.048 112.667 188.016C112.841 187.937 113.012 187.852 113.178 187.759C113.433 187.617 113.524 187.295 113.382 187.041C113.24 186.787 112.918 186.696 112.664 186.838ZM109.338 177.643V181.643L107.404 183.577C107.199 183.783 107.199 184.116 107.404 184.322C107.453 184.371 107.511 184.41 107.575 184.437C107.639 184.463 107.708 184.477 107.777 184.477C107.847 184.477 107.915 184.463 107.979 184.437C108.043 184.41 108.101 184.371 108.15 184.322L110.238 182.234C110.337 182.135 110.393 182.001 110.393 181.861V177.643C110.393 177.351 110.157 177.115 109.866 177.115C109.574 177.115 109.338 177.351 109.338 177.643Z" fill="#F19E06"/>
<path d="M116.082 176.245C115.791 176.245 115.555 176.481 115.555 176.772V178.237C114.327 176.312 112.184 175.111 109.859 175.111C108.056 175.111 106.361 175.813 105.086 177.088C103.812 178.363 103.109 180.058 103.109 181.861C103.109 183.664 103.812 185.359 105.086 186.634C106.361 187.909 108.056 188.611 109.859 188.611C109.864 188.611 109.868 188.611 109.873 188.611C109.877 188.611 109.881 188.611 109.886 188.611C110.076 188.611 110.268 188.603 110.456 188.588C110.746 188.563 110.962 188.308 110.938 188.018C110.913 187.728 110.659 187.512 110.368 187.537C110.209 187.55 110.047 187.557 109.886 187.557C109.881 187.557 109.877 187.557 109.873 187.557C109.868 187.557 109.864 187.557 109.859 187.557C106.719 187.557 104.164 185.002 104.164 181.861C104.164 178.721 106.719 176.166 109.859 176.166C111.883 176.166 113.745 177.245 114.762 178.961H113.312C113.021 178.961 112.785 179.197 112.785 179.488C112.785 179.78 113.021 180.016 113.312 180.016H114.922C115.232 180.016 115.535 179.931 115.799 179.769C115.816 179.76 115.831 179.75 115.847 179.739C116.306 179.437 116.609 178.917 116.609 178.328V176.772C116.609 176.481 116.373 176.245 116.082 176.245Z" fill="#F19E06"/>
</g>
<path d="M136.681 177.033H136.79V178.106H136.681C136.011 178.106 135.45 178.216 134.999 178.435C134.548 178.649 134.19 178.938 133.926 179.303C133.661 179.663 133.47 180.068 133.352 180.52C133.238 180.971 133.181 181.429 133.181 181.894V183.356C133.181 183.799 133.233 184.19 133.338 184.532C133.443 184.869 133.586 185.154 133.769 185.387C133.951 185.619 134.156 185.795 134.384 185.913C134.616 186.032 134.858 186.091 135.108 186.091C135.4 186.091 135.66 186.036 135.888 185.927C136.116 185.813 136.307 185.656 136.462 185.455C136.621 185.25 136.742 185.008 136.824 184.73C136.906 184.452 136.947 184.147 136.947 183.814C136.947 183.518 136.911 183.233 136.838 182.96C136.765 182.682 136.653 182.436 136.503 182.222C136.353 182.003 136.163 181.832 135.936 181.709C135.712 181.581 135.446 181.518 135.136 181.518C134.785 181.518 134.457 181.604 134.151 181.777C133.851 181.946 133.602 182.169 133.406 182.447C133.215 182.721 133.105 183.019 133.078 183.343L132.408 183.336C132.472 182.826 132.59 182.39 132.764 182.03C132.941 181.666 133.16 181.369 133.42 181.142C133.684 180.909 133.978 180.741 134.302 180.636C134.63 180.526 134.976 180.472 135.341 180.472C135.838 180.472 136.266 180.565 136.626 180.752C136.986 180.939 137.282 181.189 137.515 181.504C137.747 181.814 137.918 182.165 138.027 182.557C138.141 182.944 138.198 183.343 138.198 183.753C138.198 184.222 138.132 184.662 138 185.072C137.868 185.482 137.67 185.842 137.405 186.152C137.146 186.462 136.824 186.704 136.441 186.877C136.059 187.05 135.614 187.137 135.108 187.137C134.571 187.137 134.101 187.027 133.7 186.809C133.299 186.585 132.966 186.289 132.702 185.92C132.438 185.551 132.24 185.141 132.107 184.689C131.975 184.238 131.909 183.78 131.909 183.315V182.721C131.909 182.019 131.98 181.331 132.121 180.656C132.262 179.982 132.506 179.371 132.853 178.824C133.203 178.277 133.689 177.842 134.309 177.519C134.928 177.195 135.719 177.033 136.681 177.033ZM139.784 186.33C139.784 186.116 139.85 185.936 139.982 185.79C140.119 185.64 140.315 185.564 140.57 185.564C140.826 185.564 141.019 185.64 141.151 185.79C141.288 185.936 141.356 186.116 141.356 186.33C141.356 186.54 141.288 186.717 141.151 186.863C141.019 187.009 140.826 187.082 140.57 187.082C140.315 187.082 140.119 187.009 139.982 186.863C139.85 186.717 139.784 186.54 139.784 186.33ZM139.791 180.294C139.791 180.08 139.857 179.9 139.989 179.754C140.126 179.604 140.322 179.528 140.577 179.528C140.832 179.528 141.026 179.604 141.158 179.754C141.295 179.9 141.363 180.08 141.363 180.294C141.363 180.504 141.295 180.681 141.158 180.827C141.026 180.973 140.832 181.046 140.577 181.046C140.322 181.046 140.126 180.973 139.989 180.827C139.857 180.681 139.791 180.504 139.791 180.294ZM144.938 181.401H145.841C146.283 181.401 146.647 181.328 146.935 181.183C147.226 181.032 147.443 180.829 147.584 180.574C147.73 180.314 147.803 180.023 147.803 179.699C147.803 179.316 147.739 178.995 147.611 178.735C147.484 178.476 147.292 178.28 147.037 178.147C146.782 178.015 146.458 177.949 146.066 177.949C145.711 177.949 145.396 178.02 145.123 178.161C144.854 178.298 144.642 178.494 144.487 178.749C144.337 179.004 144.262 179.305 144.262 179.651H142.997C142.997 179.146 143.125 178.685 143.38 178.271C143.635 177.856 143.993 177.525 144.453 177.279C144.918 177.033 145.456 176.91 146.066 176.91C146.668 176.91 147.194 177.017 147.646 177.231C148.097 177.441 148.448 177.756 148.698 178.175C148.949 178.59 149.074 179.107 149.074 179.727C149.074 179.977 149.015 180.246 148.896 180.533C148.783 180.816 148.603 181.08 148.356 181.326C148.115 181.572 147.8 181.775 147.413 181.935C147.026 182.09 146.561 182.167 146.019 182.167H144.938V181.401ZM144.938 182.44V181.682H146.019C146.652 181.682 147.176 181.757 147.591 181.907C148.006 182.058 148.331 182.258 148.568 182.509C148.81 182.759 148.979 183.035 149.074 183.336C149.174 183.632 149.225 183.928 149.225 184.225C149.225 184.689 149.145 185.102 148.985 185.462C148.83 185.822 148.609 186.127 148.322 186.378C148.04 186.629 147.707 186.818 147.324 186.945C146.941 187.073 146.524 187.137 146.073 187.137C145.64 187.137 145.232 187.075 144.85 186.952C144.471 186.829 144.136 186.651 143.845 186.419C143.553 186.182 143.325 185.893 143.161 185.551C142.997 185.204 142.915 184.81 142.915 184.368H144.18C144.18 184.715 144.255 185.018 144.405 185.277C144.56 185.537 144.779 185.74 145.062 185.886C145.349 186.027 145.686 186.098 146.073 186.098C146.461 186.098 146.793 186.032 147.071 185.899C147.354 185.763 147.57 185.558 147.721 185.284C147.876 185.011 147.953 184.667 147.953 184.252C147.953 183.837 147.867 183.498 147.693 183.233C147.52 182.965 147.274 182.766 146.955 182.639C146.641 182.507 146.269 182.44 145.841 182.44H144.938ZM155.821 177.033H155.931V178.106H155.821C155.151 178.106 154.591 178.216 154.14 178.435C153.688 178.649 153.331 178.938 153.066 179.303C152.802 179.663 152.611 180.068 152.492 180.52C152.378 180.971 152.321 181.429 152.321 181.894V183.356C152.321 183.799 152.374 184.19 152.479 184.532C152.583 184.869 152.727 185.154 152.909 185.387C153.091 185.619 153.297 185.795 153.524 185.913C153.757 186.032 153.998 186.091 154.249 186.091C154.541 186.091 154.8 186.036 155.028 185.927C155.256 185.813 155.448 185.656 155.603 185.455C155.762 185.25 155.883 185.008 155.965 184.73C156.047 184.452 156.088 184.147 156.088 183.814C156.088 183.518 156.051 183.233 155.979 182.96C155.906 182.682 155.794 182.436 155.644 182.222C155.493 182.003 155.304 181.832 155.076 181.709C154.853 181.581 154.586 181.518 154.276 181.518C153.925 181.518 153.597 181.604 153.292 181.777C152.991 181.946 152.743 182.169 152.547 182.447C152.355 182.721 152.246 183.019 152.219 183.343L151.549 183.336C151.613 182.826 151.731 182.39 151.904 182.03C152.082 181.666 152.301 181.369 152.561 181.142C152.825 180.909 153.119 180.741 153.442 180.636C153.771 180.526 154.117 180.472 154.481 180.472C154.978 180.472 155.407 180.565 155.767 180.752C156.127 180.939 156.423 181.189 156.655 181.504C156.888 181.814 157.059 182.165 157.168 182.557C157.282 182.944 157.339 183.343 157.339 183.753C157.339 184.222 157.273 184.662 157.141 185.072C157.008 185.482 156.81 185.842 156.546 186.152C156.286 186.462 155.965 186.704 155.582 186.877C155.199 187.05 154.755 187.137 154.249 187.137C153.711 187.137 153.242 187.027 152.841 186.809C152.44 186.585 152.107 186.289 151.843 185.92C151.578 185.551 151.38 185.141 151.248 184.689C151.116 184.238 151.05 183.78 151.05 183.315V182.721C151.05 182.019 151.12 181.331 151.262 180.656C151.403 179.982 151.647 179.371 151.993 178.824C152.344 178.277 152.829 177.842 153.449 177.519C154.069 177.195 154.86 177.033 155.821 177.033ZM166.314 183.097H163.655V182.023H166.314C166.829 182.023 167.246 181.941 167.565 181.777C167.884 181.613 168.117 181.385 168.263 181.094C168.413 180.802 168.488 180.469 168.488 180.096C168.488 179.754 168.413 179.433 168.263 179.132C168.117 178.831 167.884 178.59 167.565 178.407C167.246 178.22 166.829 178.127 166.314 178.127H163.963V187H162.644V177.047H166.314C167.066 177.047 167.702 177.177 168.222 177.437C168.741 177.696 169.135 178.056 169.404 178.517C169.673 178.972 169.808 179.494 169.808 180.082C169.808 180.72 169.673 181.265 169.404 181.716C169.135 182.167 168.741 182.511 168.222 182.748C167.702 182.98 167.066 183.097 166.314 183.097ZM171.893 177.047H173.171L176.432 185.161L179.686 177.047H180.971L176.924 187H175.926L171.893 177.047ZM171.476 177.047H172.604L172.788 183.117V187H171.476V177.047ZM180.253 177.047H181.381V187H180.068V183.117L180.253 177.047Z" fill="white"/>
<path d="M460.021 182.515L459.686 183.725H453.287L453.622 182.515H460.021ZM456.924 190L453.485 185.946L453.479 184.928H455.112C455.536 184.928 455.885 184.853 456.158 184.702C456.436 184.547 456.644 184.34 456.78 184.08C456.917 183.816 456.985 183.522 456.985 183.198C456.985 182.847 456.922 182.537 456.794 182.269C456.666 182 456.464 181.79 456.186 181.64C455.908 181.489 455.541 181.414 455.085 181.414H453.294L453.663 180.047H455.085C455.892 180.047 456.562 180.168 457.095 180.409C457.628 180.651 458.027 181.002 458.291 181.462C458.56 181.922 458.694 182.478 458.694 183.13C458.694 183.7 458.596 184.203 458.4 184.641C458.204 185.074 457.888 185.424 457.45 185.693C457.013 185.958 456.432 186.122 455.707 186.186L458.852 189.911V190H456.924ZM460.027 180.047L459.686 181.257H454.456L454.791 180.047H460.027ZM469.051 180.013V190H467.403V181.968L464.963 182.795V181.435L468.853 180.013H469.051ZM477.486 179.985H477.691V181.332H477.575C476.987 181.332 476.479 181.423 476.051 181.605C475.627 181.788 475.278 182.038 475.005 182.357C474.731 182.676 474.526 183.05 474.39 183.479C474.257 183.902 474.191 184.354 474.191 184.832V186.397C474.191 186.794 474.235 187.145 474.321 187.45C474.408 187.751 474.529 188.004 474.684 188.209C474.843 188.41 475.025 188.562 475.23 188.667C475.436 188.772 475.657 188.824 475.894 188.824C476.14 188.824 476.363 188.774 476.563 188.674C476.764 188.569 476.935 188.425 477.076 188.243C477.217 188.061 477.325 187.844 477.397 187.594C477.47 187.343 477.507 187.07 477.507 186.773C477.507 186.491 477.47 186.227 477.397 185.98C477.329 185.73 477.227 185.511 477.09 185.324C476.953 185.133 476.782 184.985 476.577 184.88C476.377 184.771 476.144 184.716 475.88 184.716C475.552 184.716 475.253 184.793 474.984 184.948C474.72 185.103 474.506 185.306 474.342 185.557C474.182 185.803 474.096 186.065 474.082 186.343L473.453 186.138C473.49 185.714 473.583 185.333 473.733 184.996C473.888 184.659 474.091 184.372 474.342 184.135C474.592 183.898 474.882 183.718 475.21 183.595C475.543 183.467 475.907 183.403 476.304 183.403C476.787 183.403 477.206 183.494 477.562 183.677C477.917 183.859 478.211 184.107 478.443 184.422C478.68 184.732 478.856 185.087 478.97 185.488C479.088 185.885 479.147 186.299 479.147 186.732C479.147 187.211 479.075 187.658 478.929 188.072C478.783 188.482 478.569 188.842 478.286 189.152C478.008 189.462 477.669 189.704 477.268 189.877C476.871 190.05 476.42 190.137 475.914 190.137C475.381 190.137 474.905 190.034 474.485 189.829C474.071 189.624 473.717 189.341 473.426 188.981C473.139 188.621 472.92 188.207 472.77 187.737C472.619 187.268 472.544 186.771 472.544 186.247V185.563C472.544 184.807 472.64 184.094 472.831 183.424C473.022 182.749 473.316 182.155 473.713 181.64C474.114 181.125 474.627 180.721 475.251 180.43C475.875 180.133 476.62 179.985 477.486 179.985ZM486.954 184.189V185.816C486.954 186.596 486.877 187.261 486.722 187.812C486.571 188.359 486.353 188.804 486.065 189.146C485.778 189.487 485.434 189.738 485.033 189.897C484.637 190.057 484.192 190.137 483.7 190.137C483.308 190.137 482.944 190.087 482.606 189.986C482.274 189.886 481.973 189.729 481.704 189.515C481.435 189.3 481.205 189.025 481.014 188.688C480.827 188.346 480.681 187.938 480.576 187.464C480.476 186.99 480.426 186.441 480.426 185.816V184.189C480.426 183.406 480.503 182.745 480.658 182.207C480.813 181.665 481.034 181.225 481.321 180.888C481.608 180.546 481.95 180.298 482.347 180.143C482.748 179.988 483.194 179.91 483.687 179.91C484.083 179.91 484.448 179.96 484.78 180.061C485.118 180.156 485.418 180.309 485.683 180.519C485.951 180.728 486.179 181.002 486.366 181.339C486.558 181.672 486.703 182.075 486.804 182.549C486.904 183.018 486.954 183.565 486.954 184.189ZM485.307 186.049V183.943C485.307 183.547 485.284 183.198 485.238 182.897C485.193 182.592 485.124 182.335 485.033 182.125C484.947 181.911 484.837 181.738 484.705 181.605C484.573 181.469 484.423 181.371 484.254 181.312C484.085 181.248 483.896 181.216 483.687 181.216C483.431 181.216 483.203 181.266 483.003 181.366C482.802 181.462 482.634 181.617 482.497 181.831C482.36 182.045 482.256 182.328 482.183 182.679C482.114 183.025 482.08 183.447 482.08 183.943V186.049C482.08 186.45 482.103 186.803 482.148 187.108C482.194 187.414 482.262 187.676 482.354 187.895C482.445 188.109 482.554 188.286 482.682 188.428C482.814 188.564 482.964 188.665 483.133 188.729C483.306 188.792 483.495 188.824 483.7 188.824C483.96 188.824 484.19 188.774 484.391 188.674C484.591 188.574 484.76 188.414 484.896 188.195C485.033 187.972 485.136 187.683 485.204 187.327C485.272 186.972 485.307 186.546 485.307 186.049ZM494.911 184.189V185.816C494.911 186.596 494.834 187.261 494.679 187.812C494.528 188.359 494.31 188.804 494.022 189.146C493.735 189.487 493.391 189.738 492.99 189.897C492.594 190.057 492.149 190.137 491.657 190.137C491.265 190.137 490.901 190.087 490.563 189.986C490.231 189.886 489.93 189.729 489.661 189.515C489.392 189.3 489.162 189.025 488.971 188.688C488.784 188.346 488.638 187.938 488.533 187.464C488.433 186.99 488.383 186.441 488.383 185.816V184.189C488.383 183.406 488.46 182.745 488.615 182.207C488.77 181.665 488.991 181.225 489.278 180.888C489.565 180.546 489.907 180.298 490.304 180.143C490.705 179.988 491.151 179.91 491.644 179.91C492.04 179.91 492.405 179.96 492.737 180.061C493.075 180.156 493.375 180.309 493.64 180.519C493.909 180.728 494.136 181.002 494.323 181.339C494.515 181.672 494.66 182.075 494.761 182.549C494.861 183.018 494.911 183.565 494.911 184.189ZM493.264 186.049V183.943C493.264 183.547 493.241 183.198 493.195 182.897C493.15 182.592 493.081 182.335 492.99 182.125C492.904 181.911 492.794 181.738 492.662 181.605C492.53 181.469 492.38 181.371 492.211 181.312C492.042 181.248 491.853 181.216 491.644 181.216C491.388 181.216 491.16 181.266 490.96 181.366C490.759 181.462 490.591 181.617 490.454 181.831C490.317 182.045 490.213 182.328 490.14 182.679C490.071 183.025 490.037 183.447 490.037 183.943V186.049C490.037 186.45 490.06 186.803 490.105 187.108C490.151 187.414 490.219 187.676 490.311 187.895C490.402 188.109 490.511 188.286 490.639 188.428C490.771 188.564 490.921 188.665 491.09 188.729C491.263 188.792 491.452 188.824 491.657 188.824C491.917 188.824 492.147 188.774 492.348 188.674C492.548 188.574 492.717 188.414 492.854 188.195C492.99 187.972 493.093 187.683 493.161 187.327C493.229 186.972 493.264 186.546 493.264 186.049Z" fill="white"/>
<rect x="105" y="211" width="391" height="1" fill="#D9D9D9" fill-opacity="0.14"/>
<path fill-rule="evenodd" clip-rule="evenodd" d="M119.411 235.121C119.781 235.493 119.779 236.095 119.407 236.465L118.296 237.569L112.876 242.894C112.512 243.251 111.932 243.257 111.56 242.908L109.867 241.318L109.851 241.303L108.722 240.193C108.347 239.825 108.342 239.224 108.71 238.849C109.078 238.475 109.679 238.47 110.053 238.838L111.175 239.941L112.196 240.899L116.962 236.216L118.068 235.117C118.44 234.747 119.042 234.749 119.411 235.121Z" fill="#21C179"/>
<path d="M140.681 234.033H140.79V235.106H140.681C140.011 235.106 139.45 235.216 138.999 235.435C138.548 235.649 138.19 235.938 137.926 236.303C137.661 236.663 137.47 237.068 137.352 237.52C137.238 237.971 137.181 238.429 137.181 238.894V240.356C137.181 240.799 137.233 241.19 137.338 241.532C137.443 241.869 137.586 242.154 137.769 242.387C137.951 242.619 138.156 242.795 138.384 242.913C138.616 243.032 138.858 243.091 139.108 243.091C139.4 243.091 139.66 243.036 139.888 242.927C140.116 242.813 140.307 242.656 140.462 242.455C140.621 242.25 140.742 242.008 140.824 241.73C140.906 241.452 140.947 241.147 140.947 240.814C140.947 240.518 140.911 240.233 140.838 239.96C140.765 239.682 140.653 239.436 140.503 239.222C140.353 239.003 140.163 238.832 139.936 238.709C139.712 238.581 139.446 238.518 139.136 238.518C138.785 238.518 138.457 238.604 138.151 238.777C137.851 238.946 137.602 239.169 137.406 239.447C137.215 239.721 137.105 240.019 137.078 240.343L136.408 240.336C136.472 239.826 136.59 239.39 136.764 239.03C136.941 238.666 137.16 238.369 137.42 238.142C137.684 237.909 137.978 237.741 138.302 237.636C138.63 237.526 138.976 237.472 139.341 237.472C139.838 237.472 140.266 237.565 140.626 237.752C140.986 237.939 141.282 238.189 141.515 238.504C141.747 238.814 141.918 239.165 142.027 239.557C142.141 239.944 142.198 240.343 142.198 240.753C142.198 241.222 142.132 241.662 142 242.072C141.868 242.482 141.67 242.842 141.405 243.152C141.146 243.462 140.824 243.704 140.441 243.877C140.059 244.05 139.614 244.137 139.108 244.137C138.571 244.137 138.101 244.027 137.7 243.809C137.299 243.585 136.966 243.289 136.702 242.92C136.438 242.551 136.24 242.141 136.107 241.689C135.975 241.238 135.909 240.78 135.909 240.315V239.721C135.909 239.019 135.98 238.331 136.121 237.656C136.262 236.982 136.506 236.371 136.853 235.824C137.203 235.277 137.689 234.842 138.309 234.519C138.928 234.195 139.719 234.033 140.681 234.033ZM143.784 243.33C143.784 243.116 143.85 242.936 143.982 242.79C144.119 242.64 144.315 242.564 144.57 242.564C144.826 242.564 145.019 242.64 145.151 242.79C145.288 242.936 145.356 243.116 145.356 243.33C145.356 243.54 145.288 243.717 145.151 243.863C145.019 244.009 144.826 244.082 144.57 244.082C144.315 244.082 144.119 244.009 143.982 243.863C143.85 243.717 143.784 243.54 143.784 243.33ZM143.791 237.294C143.791 237.08 143.857 236.9 143.989 236.754C144.126 236.604 144.322 236.528 144.577 236.528C144.832 236.528 145.026 236.604 145.158 236.754C145.295 236.9 145.363 237.08 145.363 237.294C145.363 237.504 145.295 237.681 145.158 237.827C145.026 237.973 144.832 238.046 144.577 238.046C144.322 238.046 144.126 237.973 143.989 237.827C143.857 237.681 143.791 237.504 143.791 237.294ZM153.819 240.65V241.689H146.628V240.944L151.085 234.047H152.117L151.01 236.043L148.063 240.65H153.819ZM152.432 234.047V244H151.167V234.047H152.432ZM156.567 239.263L155.556 239.003L156.055 234.047H161.161V235.216H157.128L156.827 237.923C157.009 237.818 157.24 237.72 157.518 237.629C157.8 237.538 158.124 237.492 158.488 237.492C158.949 237.492 159.361 237.572 159.726 237.731C160.09 237.886 160.4 238.11 160.655 238.401C160.915 238.693 161.113 239.044 161.25 239.454C161.387 239.864 161.455 240.322 161.455 240.828C161.455 241.307 161.389 241.746 161.257 242.147C161.129 242.549 160.936 242.899 160.676 243.2C160.416 243.496 160.088 243.727 159.691 243.891C159.299 244.055 158.837 244.137 158.304 244.137C157.903 244.137 157.522 244.082 157.162 243.973C156.807 243.859 156.488 243.688 156.205 243.46C155.927 243.228 155.699 242.94 155.521 242.599C155.348 242.252 155.239 241.847 155.193 241.382H156.396C156.451 241.756 156.561 242.07 156.725 242.325C156.889 242.58 157.103 242.774 157.367 242.906C157.636 243.034 157.948 243.098 158.304 243.098C158.604 243.098 158.871 243.045 159.104 242.94C159.336 242.836 159.532 242.685 159.691 242.489C159.851 242.293 159.972 242.056 160.054 241.778C160.14 241.5 160.184 241.188 160.184 240.842C160.184 240.527 160.14 240.236 160.054 239.967C159.967 239.698 159.837 239.463 159.664 239.263C159.495 239.062 159.288 238.907 159.042 238.798C158.796 238.684 158.513 238.627 158.194 238.627C157.771 238.627 157.449 238.684 157.23 238.798C157.016 238.912 156.795 239.067 156.567 239.263ZM170.314 240.097H167.655V239.023H170.314C170.829 239.023 171.246 238.941 171.565 238.777C171.884 238.613 172.117 238.385 172.263 238.094C172.413 237.802 172.488 237.469 172.488 237.096C172.488 236.754 172.413 236.433 172.263 236.132C172.117 235.831 171.884 235.59 171.565 235.407C171.246 235.22 170.829 235.127 170.314 235.127H167.963V244H166.644V234.047H170.314C171.066 234.047 171.702 234.177 172.222 234.437C172.741 234.696 173.135 235.056 173.404 235.517C173.673 235.972 173.808 236.494 173.808 237.082C173.808 237.72 173.673 238.265 173.404 238.716C173.135 239.167 172.741 239.511 172.222 239.748C171.702 239.98 171.066 240.097 170.314 240.097ZM175.893 234.047H177.171L180.432 242.161L183.686 234.047H184.971L180.924 244H179.926L175.893 234.047ZM175.476 234.047H176.604L176.788 240.117V244H175.476V234.047ZM184.253 234.047H185.381V244H184.068V240.117L184.253 234.047Z" fill="white"/>
<path d="M460.021 236.515L459.686 237.725H453.287L453.622 236.515H460.021ZM456.924 244L453.485 239.946L453.479 238.928H455.112C455.536 238.928 455.885 238.853 456.158 238.702C456.436 238.547 456.644 238.34 456.78 238.08C456.917 237.816 456.985 237.522 456.985 237.198C456.985 236.847 456.922 236.537 456.794 236.269C456.666 236 456.464 235.79 456.186 235.64C455.908 235.489 455.541 235.414 455.085 235.414H453.294L453.663 234.047H455.085C455.892 234.047 456.562 234.168 457.095 234.409C457.628 234.651 458.027 235.002 458.291 235.462C458.56 235.922 458.694 236.478 458.694 237.13C458.694 237.7 458.596 238.203 458.4 238.641C458.204 239.074 457.888 239.424 457.45 239.693C457.013 239.958 456.432 240.122 455.707 240.186L458.852 243.911V244H456.924ZM460.027 234.047L459.686 235.257H454.456L454.791 234.047H460.027ZM469.051 234.013V244H467.403V235.968L464.963 236.795V235.435L468.853 234.013H469.051ZM479.018 241.286C479.018 241.906 478.874 242.428 478.587 242.852C478.3 243.275 477.908 243.597 477.411 243.815C476.919 244.03 476.363 244.137 475.743 244.137C475.123 244.137 474.565 244.03 474.068 243.815C473.572 243.597 473.18 243.275 472.893 242.852C472.605 242.428 472.462 241.906 472.462 241.286C472.462 240.876 472.542 240.505 472.701 240.172C472.861 239.835 473.086 239.545 473.378 239.304C473.674 239.058 474.021 238.868 474.417 238.736C474.818 238.604 475.256 238.538 475.729 238.538C476.358 238.538 476.921 238.654 477.418 238.887C477.915 239.119 478.304 239.44 478.587 239.851C478.874 240.261 479.018 240.739 479.018 241.286ZM477.363 241.204C477.363 240.871 477.295 240.58 477.158 240.329C477.021 240.078 476.83 239.885 476.584 239.748C476.338 239.611 476.053 239.543 475.729 239.543C475.401 239.543 475.117 239.611 474.875 239.748C474.633 239.885 474.444 240.078 474.308 240.329C474.175 240.58 474.109 240.871 474.109 241.204C474.109 241.541 474.175 241.833 474.308 242.079C474.44 242.321 474.629 242.505 474.875 242.633C475.121 242.76 475.41 242.824 475.743 242.824C476.076 242.824 476.363 242.76 476.604 242.633C476.846 242.505 477.033 242.321 477.165 242.079C477.297 241.833 477.363 241.541 477.363 241.204ZM478.792 236.665C478.792 237.162 478.66 237.604 478.396 237.991C478.136 238.379 477.776 238.684 477.315 238.907C476.855 239.126 476.331 239.235 475.743 239.235C475.151 239.235 474.622 239.126 474.157 238.907C473.697 238.684 473.335 238.379 473.07 237.991C472.811 237.604 472.681 237.162 472.681 236.665C472.681 236.073 472.811 235.574 473.07 235.168C473.335 234.758 473.697 234.446 474.157 234.231C474.618 234.017 475.144 233.91 475.736 233.91C476.329 233.91 476.855 234.017 477.315 234.231C477.776 234.446 478.136 234.758 478.396 235.168C478.66 235.574 478.792 236.073 478.792 236.665ZM477.145 236.72C477.145 236.424 477.085 236.164 476.967 235.94C476.853 235.713 476.691 235.535 476.481 235.407C476.272 235.28 476.023 235.216 475.736 235.216C475.449 235.216 475.201 235.277 474.991 235.4C474.782 235.523 474.62 235.697 474.506 235.92C474.392 236.143 474.335 236.41 474.335 236.72C474.335 237.025 474.392 237.292 474.506 237.52C474.62 237.743 474.782 237.918 474.991 238.046C475.205 238.174 475.456 238.237 475.743 238.237C476.03 238.237 476.279 238.174 476.488 238.046C476.698 237.918 476.86 237.743 476.974 237.52C477.088 237.292 477.145 237.025 477.145 236.72ZM486.954 238.189V239.816C486.954 240.596 486.877 241.261 486.722 241.812C486.571 242.359 486.353 242.804 486.065 243.146C485.778 243.487 485.434 243.738 485.033 243.897C484.637 244.057 484.192 244.137 483.7 244.137C483.308 244.137 482.944 244.087 482.606 243.986C482.274 243.886 481.973 243.729 481.704 243.515C481.435 243.3 481.205 243.025 481.014 242.688C480.827 242.346 480.681 241.938 480.576 241.464C480.476 240.99 480.426 240.441 480.426 239.816V238.189C480.426 237.406 480.503 236.745 480.658 236.207C480.813 235.665 481.034 235.225 481.321 234.888C481.608 234.546 481.95 234.298 482.347 234.143C482.748 233.988 483.194 233.91 483.687 233.91C484.083 233.91 484.448 233.96 484.78 234.061C485.118 234.156 485.418 234.309 485.683 234.519C485.951 234.728 486.179 235.002 486.366 235.339C486.558 235.672 486.703 236.075 486.804 236.549C486.904 237.018 486.954 237.565 486.954 238.189ZM485.307 240.049V237.943C485.307 237.547 485.284 237.198 485.238 236.897C485.193 236.592 485.124 236.335 485.033 236.125C484.947 235.911 484.837 235.738 484.705 235.605C484.573 235.469 484.423 235.371 484.254 235.312C484.085 235.248 483.896 235.216 483.687 235.216C483.431 235.216 483.203 235.266 483.003 235.366C482.802 235.462 482.634 235.617 482.497 235.831C482.36 236.045 482.256 236.328 482.183 236.679C482.114 237.025 482.08 237.447 482.08 237.943V240.049C482.08 240.45 482.103 240.803 482.148 241.108C482.194 241.414 482.262 241.676 482.354 241.895C482.445 242.109 482.554 242.286 482.682 242.428C482.814 242.564 482.964 242.665 483.133 242.729C483.306 242.792 483.495 242.824 483.7 242.824C483.96 242.824 484.19 242.774 484.391 242.674C484.591 242.574 484.76 242.414 484.896 242.195C485.033 241.972 485.136 241.683 485.204 241.327C485.272 240.972 485.307 240.546 485.307 240.049ZM494.911 238.189V239.816C494.911 240.596 494.834 241.261 494.679 241.812C494.528 242.359 494.31 242.804 494.022 243.146C493.735 243.487 493.391 243.738 492.99 243.897C492.594 244.057 492.149 244.137 491.657 244.137C491.265 244.137 490.901 244.087 490.563 243.986C490.231 243.886 489.93 243.729 489.661 243.515C489.392 243.3 489.162 243.025 488.971 242.688C488.784 242.346 488.638 241.938 488.533 241.464C488.433 240.99 488.383 240.441 488.383 239.816V238.189C488.383 237.406 488.46 236.745 488.615 236.207C488.77 235.665 488.991 235.225 489.278 234.888C489.565 234.546 489.907 234.298 490.304 234.143C490.705 233.988 491.151 233.91 491.644 233.91C492.04 233.91 492.405 233.96 492.737 234.061C493.075 234.156 493.375 234.309 493.64 234.519C493.909 234.728 494.136 235.002 494.323 235.339C494.515 235.672 494.66 236.075 494.761 236.549C494.861 237.018 494.911 237.565 494.911 238.189ZM493.264 240.049V237.943C493.264 237.547 493.241 237.198 493.195 236.897C493.15 236.592 493.081 236.335 492.99 236.125C492.904 235.911 492.794 235.738 492.662 235.605C492.53 235.469 492.38 235.371 492.211 235.312C492.042 235.248 491.853 235.216 491.644 235.216C491.388 235.216 491.16 235.266 490.96 235.366C490.759 235.462 490.591 235.617 490.454 235.831C490.317 236.045 490.213 236.328 490.14 236.679C490.071 237.025 490.037 237.447 490.037 237.943V240.049C490.037 240.45 490.06 240.803 490.105 241.108C490.151 241.414 490.219 241.676 490.311 241.895C490.402 242.109 490.511 242.286 490.639 242.428C490.771 242.564 490.921 242.665 491.09 242.729C491.263 242.792 491.452 242.824 491.657 242.824C491.917 242.824 492.147 242.774 492.348 242.674C492.548 242.574 492.717 242.414 492.854 242.195C492.99 241.972 493.093 241.683 493.161 241.327C493.229 240.972 493.264 240.546 493.264 240.049Z" fill="white"/>
<rect x="105" y="266" width="391" height="1" fill="#D9D9D9" fill-opacity="0.14"/>
<g clip-path="url(#clip2_1_19904)">
<path d="M115.202 293.149C114.969 292.975 114.638 293.024 114.465 293.257C114.368 293.386 114.267 293.511 114.16 293.632C113.968 293.85 113.988 294.183 114.206 294.376C114.302 294.462 114.427 294.509 114.555 294.508C114.701 294.508 114.846 294.448 114.951 294.33C115.077 294.188 115.197 294.04 115.311 293.887C115.485 293.653 115.436 293.323 115.202 293.149ZM116.084 290.676C115.8 290.614 115.519 290.794 115.457 291.079C115.423 291.236 115.382 291.391 115.334 291.545C115.248 291.823 115.404 292.119 115.683 292.205C115.734 292.221 115.787 292.228 115.838 292.228C116.064 292.228 116.272 292.083 116.342 291.856C116.398 291.674 116.447 291.49 116.487 291.303C116.549 291.019 116.369 290.738 116.084 290.676ZM112.664 294.838C112.524 294.916 112.38 294.989 112.233 295.055C111.968 295.175 111.85 295.487 111.97 295.752C112.058 295.947 112.25 296.063 112.451 296.063C112.523 296.063 112.597 296.048 112.667 296.016C112.841 295.937 113.012 295.852 113.178 295.759C113.433 295.617 113.524 295.295 113.382 295.041C113.24 294.787 112.918 294.696 112.664 294.838ZM109.338 285.643V289.643L107.404 291.577C107.199 291.783 107.199 292.116 107.404 292.322C107.453 292.371 107.511 292.41 107.575 292.437C107.639 292.463 107.708 292.477 107.777 292.477C107.847 292.477 107.915 292.463 107.979 292.437C108.043 292.41 108.101 292.371 108.15 292.322L110.238 290.234C110.337 290.135 110.393 290.001 110.393 289.861V285.643C110.393 285.351 110.157 285.115 109.866 285.115C109.574 285.115 109.338 285.351 109.338 285.643Z" fill="#F19E06"/>
<path d="M116.082 284.245C115.791 284.245 115.555 284.481 115.555 284.772V286.237C114.327 284.312 112.184 283.111 109.859 283.111C108.056 283.111 106.361 283.813 105.086 285.088C103.812 286.363 103.109 288.058 103.109 289.861C103.109 291.664 103.812 293.359 105.086 294.634C106.361 295.909 108.056 296.611 109.859 296.611C109.864 296.611 109.868 296.611 109.873 296.611C109.877 296.611 109.881 296.611 109.886 296.611C110.076 296.611 110.268 296.603 110.456 296.588C110.746 296.563 110.962 296.308 110.938 296.018C110.913 295.728 110.659 295.512 110.368 295.537C110.209 295.55 110.047 295.557 109.886 295.557C109.881 295.557 109.877 295.557 109.873 295.557C109.868 295.557 109.864 295.557 109.859 295.557C106.719 295.557 104.164 293.002 104.164 289.861C104.164 286.721 106.719 284.166 109.859 284.166C111.883 284.166 113.745 285.245 114.762 286.961H113.312C113.021 286.961 112.785 287.197 112.785 287.488C112.785 287.78 113.021 288.016 113.312 288.016H114.922C115.232 288.016 115.535 287.931 115.799 287.769C115.816 287.76 115.831 287.75 115.847 287.739C116.306 287.437 116.609 286.917 116.609 286.328V284.772C116.609 284.481 116.373 284.245 116.082 284.245Z" fill="#F19E06"/>
</g>
<path d="M136.681 285.033H136.79V286.106H136.681C136.011 286.106 135.45 286.216 134.999 286.435C134.548 286.649 134.19 286.938 133.926 287.303C133.661 287.663 133.47 288.068 133.352 288.52C133.238 288.971 133.181 289.429 133.181 289.894V291.356C133.181 291.799 133.233 292.19 133.338 292.532C133.443 292.869 133.586 293.154 133.769 293.387C133.951 293.619 134.156 293.795 134.384 293.913C134.616 294.032 134.858 294.091 135.108 294.091C135.4 294.091 135.66 294.036 135.888 293.927C136.116 293.813 136.307 293.656 136.462 293.455C136.621 293.25 136.742 293.008 136.824 292.73C136.906 292.452 136.947 292.147 136.947 291.814C136.947 291.518 136.911 291.233 136.838 290.96C136.765 290.682 136.653 290.436 136.503 290.222C136.353 290.003 136.163 289.832 135.936 289.709C135.712 289.581 135.446 289.518 135.136 289.518C134.785 289.518 134.457 289.604 134.151 289.777C133.851 289.946 133.602 290.169 133.406 290.447C133.215 290.721 133.105 291.019 133.078 291.343L132.408 291.336C132.472 290.826 132.59 290.39 132.764 290.03C132.941 289.666 133.16 289.369 133.42 289.142C133.684 288.909 133.978 288.741 134.302 288.636C134.63 288.526 134.976 288.472 135.341 288.472C135.838 288.472 136.266 288.565 136.626 288.752C136.986 288.939 137.282 289.189 137.515 289.504C137.747 289.814 137.918 290.165 138.027 290.557C138.141 290.944 138.198 291.343 138.198 291.753C138.198 292.222 138.132 292.662 138 293.072C137.868 293.482 137.67 293.842 137.405 294.152C137.146 294.462 136.824 294.704 136.441 294.877C136.059 295.05 135.614 295.137 135.108 295.137C134.571 295.137 134.101 295.027 133.7 294.809C133.299 294.585 132.966 294.289 132.702 293.92C132.438 293.551 132.24 293.141 132.107 292.689C131.975 292.238 131.909 291.78 131.909 291.315V290.721C131.909 290.019 131.98 289.331 132.121 288.656C132.262 287.982 132.506 287.371 132.853 286.824C133.203 286.277 133.689 285.842 134.309 285.519C134.928 285.195 135.719 285.033 136.681 285.033ZM139.784 294.33C139.784 294.116 139.85 293.936 139.982 293.79C140.119 293.64 140.315 293.564 140.57 293.564C140.826 293.564 141.019 293.64 141.151 293.79C141.288 293.936 141.356 294.116 141.356 294.33C141.356 294.54 141.288 294.717 141.151 294.863C141.019 295.009 140.826 295.082 140.57 295.082C140.315 295.082 140.119 295.009 139.982 294.863C139.85 294.717 139.784 294.54 139.784 294.33ZM139.791 288.294C139.791 288.08 139.857 287.9 139.989 287.754C140.126 287.604 140.322 287.528 140.577 287.528C140.832 287.528 141.026 287.604 141.158 287.754C141.295 287.9 141.363 288.08 141.363 288.294C141.363 288.504 141.295 288.681 141.158 288.827C141.026 288.973 140.832 289.046 140.577 289.046C140.322 289.046 140.126 288.973 139.989 288.827C139.857 288.681 139.791 288.504 139.791 288.294ZM144.938 289.401H145.841C146.283 289.401 146.647 289.328 146.935 289.183C147.226 289.032 147.443 288.829 147.584 288.574C147.73 288.314 147.803 288.023 147.803 287.699C147.803 287.316 147.739 286.995 147.611 286.735C147.484 286.476 147.292 286.28 147.037 286.147C146.782 286.015 146.458 285.949 146.066 285.949C145.711 285.949 145.396 286.02 145.123 286.161C144.854 286.298 144.642 286.494 144.487 286.749C144.337 287.004 144.262 287.305 144.262 287.651H142.997C142.997 287.146 143.125 286.685 143.38 286.271C143.635 285.856 143.993 285.525 144.453 285.279C144.918 285.033 145.456 284.91 146.066 284.91C146.668 284.91 147.194 285.017 147.646 285.231C148.097 285.441 148.448 285.756 148.698 286.175C148.949 286.59 149.074 287.107 149.074 287.727C149.074 287.977 149.015 288.246 148.896 288.533C148.783 288.816 148.603 289.08 148.356 289.326C148.115 289.572 147.8 289.775 147.413 289.935C147.026 290.09 146.561 290.167 146.019 290.167H144.938V289.401ZM144.938 290.44V289.682H146.019C146.652 289.682 147.176 289.757 147.591 289.907C148.006 290.058 148.331 290.258 148.568 290.509C148.81 290.759 148.979 291.035 149.074 291.336C149.174 291.632 149.225 291.928 149.225 292.225C149.225 292.689 149.145 293.102 148.985 293.462C148.83 293.822 148.609 294.127 148.322 294.378C148.04 294.629 147.707 294.818 147.324 294.945C146.941 295.073 146.524 295.137 146.073 295.137C145.64 295.137 145.232 295.075 144.85 294.952C144.471 294.829 144.136 294.651 143.845 294.419C143.553 294.182 143.325 293.893 143.161 293.551C142.997 293.204 142.915 292.81 142.915 292.368H144.18C144.18 292.715 144.255 293.018 144.405 293.277C144.56 293.537 144.779 293.74 145.062 293.886C145.349 294.027 145.686 294.098 146.073 294.098C146.461 294.098 146.793 294.032 147.071 293.899C147.354 293.763 147.57 293.558 147.721 293.284C147.876 293.011 147.953 292.667 147.953 292.252C147.953 291.837 147.867 291.498 147.693 291.233C147.52 290.965 147.274 290.766 146.955 290.639C146.641 290.507 146.269 290.44 145.841 290.44H144.938ZM155.821 285.033H155.931V286.106H155.821C155.151 286.106 154.591 286.216 154.14 286.435C153.688 286.649 153.331 286.938 153.066 287.303C152.802 287.663 152.611 288.068 152.492 288.52C152.378 288.971 152.321 289.429 152.321 289.894V291.356C152.321 291.799 152.374 292.19 152.479 292.532C152.583 292.869 152.727 293.154 152.909 293.387C153.091 293.619 153.297 293.795 153.524 293.913C153.757 294.032 153.998 294.091 154.249 294.091C154.541 294.091 154.8 294.036 155.028 293.927C155.256 293.813 155.448 293.656 155.603 293.455C155.762 293.25 155.883 293.008 155.965 292.73C156.047 292.452 156.088 292.147 156.088 291.814C156.088 291.518 156.051 291.233 155.979 290.96C155.906 290.682 155.794 290.436 155.644 290.222C155.493 290.003 155.304 289.832 155.076 289.709C154.853 289.581 154.586 289.518 154.276 289.518C153.925 289.518 153.597 289.604 153.292 289.777C152.991 289.946 152.743 290.169 152.547 290.447C152.355 290.721 152.246 291.019 152.219 291.343L151.549 291.336C151.613 290.826 151.731 290.39 151.904 290.03C152.082 289.666 152.301 289.369 152.561 289.142C152.825 288.909 153.119 288.741 153.442 288.636C153.771 288.526 154.117 288.472 154.481 288.472C154.978 288.472 155.407 288.565 155.767 288.752C156.127 288.939 156.423 289.189 156.655 289.504C156.888 289.814 157.059 290.165 157.168 290.557C157.282 290.944 157.339 291.343 157.339 291.753C157.339 292.222 157.273 292.662 157.141 293.072C157.008 293.482 156.81 293.842 156.546 294.152C156.286 294.462 155.965 294.704 155.582 294.877C155.199 295.05 154.755 295.137 154.249 295.137C153.711 295.137 153.242 295.027 152.841 294.809C152.44 294.585 152.107 294.289 151.843 293.92C151.578 293.551 151.38 293.141 151.248 292.689C151.116 292.238 151.05 291.78 151.05 291.315V290.721C151.05 290.019 151.12 289.331 151.262 288.656C151.403 287.982 151.647 287.371 151.993 286.824C152.344 286.277 152.829 285.842 153.449 285.519C154.069 285.195 154.86 285.033 155.821 285.033ZM166.314 291.097H163.655V290.023H166.314C166.829 290.023 167.246 289.941 167.565 289.777C167.884 289.613 168.117 289.385 168.263 289.094C168.413 288.802 168.488 288.469 168.488 288.096C168.488 287.754 168.413 287.433 168.263 287.132C168.117 286.831 167.884 286.59 167.565 286.407C167.246 286.22 166.829 286.127 166.314 286.127H163.963V295H162.644V285.047H166.314C167.066 285.047 167.702 285.177 168.222 285.437C168.741 285.696 169.135 286.056 169.404 286.517C169.673 286.972 169.808 287.494 169.808 288.082C169.808 288.72 169.673 289.265 169.404 289.716C169.135 290.167 168.741 290.511 168.222 290.748C167.702 290.98 167.066 291.097 166.314 291.097ZM171.893 285.047H173.171L176.432 293.161L179.686 285.047H180.971L176.924 295H175.926L171.893 285.047ZM171.476 285.047H172.604L172.788 291.117V295H171.476V285.047ZM180.253 285.047H181.381V295H180.068V291.117L180.253 285.047Z" fill="white"/>
<path d="M460.021 290.515L459.686 291.725H453.287L453.622 290.515H460.021ZM456.924 298L453.485 293.946L453.479 292.928H455.112C455.536 292.928 455.885 292.853 456.158 292.702C456.436 292.547 456.644 292.34 456.78 292.08C456.917 291.816 456.985 291.522 456.985 291.198C456.985 290.847 456.922 290.537 456.794 290.269C456.666 290 456.464 289.79 456.186 289.64C455.908 289.489 455.541 289.414 455.085 289.414H453.294L453.663 288.047H455.085C455.892 288.047 456.562 288.168 457.095 288.409C457.628 288.651 458.027 289.002 458.291 289.462C458.56 289.922 458.694 290.478 458.694 291.13C458.694 291.7 458.596 292.203 458.4 292.641C458.204 293.074 457.888 293.424 457.45 293.693C457.013 293.958 456.432 294.122 455.707 294.186L458.852 297.911V298H456.924ZM460.027 288.047L459.686 289.257H454.456L454.791 288.047H460.027ZM469.051 288.013V298H467.403V289.968L464.963 290.795V289.435L468.853 288.013H469.051ZM477.486 287.985H477.691V289.332H477.575C476.987 289.332 476.479 289.423 476.051 289.605C475.627 289.788 475.278 290.038 475.005 290.357C474.731 290.676 474.526 291.05 474.39 291.479C474.257 291.902 474.191 292.354 474.191 292.832V294.397C474.191 294.794 474.235 295.145 474.321 295.45C474.408 295.751 474.529 296.004 474.684 296.209C474.843 296.41 475.025 296.562 475.23 296.667C475.436 296.772 475.657 296.824 475.894 296.824C476.14 296.824 476.363 296.774 476.563 296.674C476.764 296.569 476.935 296.425 477.076 296.243C477.217 296.061 477.325 295.844 477.397 295.594C477.47 295.343 477.507 295.07 477.507 294.773C477.507 294.491 477.47 294.227 477.397 293.98C477.329 293.73 477.227 293.511 477.09 293.324C476.953 293.133 476.782 292.985 476.577 292.88C476.377 292.771 476.144 292.716 475.88 292.716C475.552 292.716 475.253 292.793 474.984 292.948C474.72 293.103 474.506 293.306 474.342 293.557C474.182 293.803 474.096 294.065 474.082 294.343L473.453 294.138C473.49 293.714 473.583 293.333 473.733 292.996C473.888 292.659 474.091 292.372 474.342 292.135C474.592 291.898 474.882 291.718 475.21 291.595C475.543 291.467 475.907 291.403 476.304 291.403C476.787 291.403 477.206 291.494 477.562 291.677C477.917 291.859 478.211 292.107 478.443 292.422C478.68 292.732 478.856 293.087 478.97 293.488C479.088 293.885 479.147 294.299 479.147 294.732C479.147 295.211 479.075 295.658 478.929 296.072C478.783 296.482 478.569 296.842 478.286 297.152C478.008 297.462 477.669 297.704 477.268 297.877C476.871 298.05 476.42 298.137 475.914 298.137C475.381 298.137 474.905 298.034 474.485 297.829C474.071 297.624 473.717 297.341 473.426 296.981C473.139 296.621 472.92 296.207 472.77 295.737C472.619 295.268 472.544 294.771 472.544 294.247V293.563C472.544 292.807 472.64 292.094 472.831 291.424C473.022 290.749 473.316 290.155 473.713 289.64C474.114 289.125 474.627 288.721 475.251 288.43C475.875 288.133 476.62 287.985 477.486 287.985ZM486.954 292.189V293.816C486.954 294.596 486.877 295.261 486.722 295.812C486.571 296.359 486.353 296.804 486.065 297.146C485.778 297.487 485.434 297.738 485.033 297.897C484.637 298.057 484.192 298.137 483.7 298.137C483.308 298.137 482.944 298.087 482.606 297.986C482.274 297.886 481.973 297.729 481.704 297.515C481.435 297.3 481.205 297.025 481.014 296.688C480.827 296.346 480.681 295.938 480.576 295.464C480.476 294.99 480.426 294.441 480.426 293.816V292.189C480.426 291.406 480.503 290.745 480.658 290.207C480.813 289.665 481.034 289.225 481.321 288.888C481.608 288.546 481.95 288.298 482.347 288.143C482.748 287.988 483.194 287.91 483.687 287.91C484.083 287.91 484.448 287.96 484.78 288.061C485.118 288.156 485.418 288.309 485.683 288.519C485.951 288.728 486.179 289.002 486.366 289.339C486.558 289.672 486.703 290.075 486.804 290.549C486.904 291.018 486.954 291.565 486.954 292.189ZM485.307 294.049V291.943C485.307 291.547 485.284 291.198 485.238 290.897C485.193 290.592 485.124 290.335 485.033 290.125C484.947 289.911 484.837 289.738 484.705 289.605C484.573 289.469 484.423 289.371 484.254 289.312C484.085 289.248 483.896 289.216 483.687 289.216C483.431 289.216 483.203 289.266 483.003 289.366C482.802 289.462 482.634 289.617 482.497 289.831C482.36 290.045 482.256 290.328 482.183 290.679C482.114 291.025 482.08 291.447 482.08 291.943V294.049C482.08 294.45 482.103 294.803 482.148 295.108C482.194 295.414 482.262 295.676 482.354 295.895C482.445 296.109 482.554 296.286 482.682 296.428C482.814 296.564 482.964 296.665 483.133 296.729C483.306 296.792 483.495 296.824 483.7 296.824C483.96 296.824 484.19 296.774 484.391 296.674C484.591 296.574 484.76 296.414 484.896 296.195C485.033 295.972 485.136 295.683 485.204 295.327C485.272 294.972 485.307 294.546 485.307 294.049ZM494.911 292.189V293.816C494.911 294.596 494.834 295.261 494.679 295.812C494.528 296.359 494.31 296.804 494.022 297.146C493.735 297.487 493.391 297.738 492.99 297.897C492.594 298.057 492.149 298.137 491.657 298.137C491.265 298.137 490.901 298.087 490.563 297.986C490.231 297.886 489.93 297.729 489.661 297.515C489.392 297.3 489.162 297.025 488.971 296.688C488.784 296.346 488.638 295.938 488.533 295.464C488.433 294.99 488.383 294.441 488.383 293.816V292.189C488.383 291.406 488.46 290.745 488.615 290.207C488.77 289.665 488.991 289.225 489.278 288.888C489.565 288.546 489.907 288.298 490.304 288.143C490.705 287.988 491.151 287.91 491.644 287.91C492.04 287.91 492.405 287.96 492.737 288.061C493.075 288.156 493.375 288.309 493.64 288.519C493.909 288.728 494.136 289.002 494.323 289.339C494.515 289.672 494.66 290.075 494.761 290.549C494.861 291.018 494.911 291.565 494.911 292.189ZM493.264 294.049V291.943C493.264 291.547 493.241 291.198 493.195 290.897C493.15 290.592 493.081 290.335 492.99 290.125C492.904 289.911 492.794 289.738 492.662 289.605C492.53 289.469 492.38 289.371 492.211 289.312C492.042 289.248 491.853 289.216 491.644 289.216C491.388 289.216 491.16 289.266 490.96 289.366C490.759 289.462 490.591 289.617 490.454 289.831C490.317 290.045 490.213 290.328 490.14 290.679C490.071 291.025 490.037 291.447 490.037 291.943V294.049C490.037 294.45 490.06 294.803 490.105 295.108C490.151 295.414 490.219 295.676 490.311 295.895C490.402 296.109 490.511 296.286 490.639 296.428C490.771 296.564 490.921 296.665 491.09 296.729C491.263 296.792 491.452 296.824 491.657 296.824C491.917 296.824 492.147 296.774 492.348 296.674C492.548 296.574 492.717 296.414 492.854 296.195C492.99 295.972 493.093 295.683 493.161 295.327C493.229 294.972 493.264 294.546 493.264 294.049Z" fill="white"/>
<g filter="url(#filter0_d_1_19904)">
<rect x="484" y="59" width="64" height="64" rx="32" fill="white"/>
<path d="M532.475 90.9072C532.475 100.028 525.095 107.408 515.975 107.408C506.855 107.408 501.305 98.2276 501.305 98.2276M501.305 98.2276H508.745M501.305 98.2276V106.478" stroke="#F19E06" stroke-width="2" stroke-linecap="round" stroke-linejoin="round"/>
<path d="M499.484 92.4256C499.484 83.3052 506.804 75.9248 515.984 75.9248C526.994 75.9248 532.484 85.1053 532.484 85.1053M532.484 85.1053V76.8548M532.484 85.1053H525.164" stroke="#0D0E15" stroke-width="2" stroke-linecap="round" stroke-linejoin="round"/>
<path d="M520.023 89.4453L519.641 90.8281H512.328L512.711 89.4453H520.023ZM516.484 98L512.555 93.3672L512.547 92.2031H514.414C514.898 92.2031 515.297 92.1172 515.609 91.9453C515.927 91.7682 516.164 91.5312 516.32 91.2344C516.477 90.9323 516.555 90.5964 516.555 90.2266C516.555 89.8255 516.482 89.4714 516.336 89.1641C516.19 88.8568 515.958 88.6172 515.641 88.4453C515.323 88.2734 514.904 88.1875 514.383 88.1875H512.336L512.758 86.625H514.383C515.305 86.625 516.07 86.763 516.68 87.0391C517.289 87.3151 517.745 87.7161 518.047 88.2422C518.354 88.7682 518.508 89.4036 518.508 90.1484C518.508 90.7995 518.396 91.375 518.172 91.875C517.948 92.3698 517.586 92.7708 517.086 93.0781C516.586 93.3802 515.922 93.5677 515.094 93.6406L518.688 97.8984V98H516.484ZM520.031 86.625L519.641 88.0078H513.664L514.047 86.625H520.031Z" fill="#0D0E15"/>
</g>
</g>
<defs>
<filter id="filter0_d_1_19904" x="440" y="27" width="152" height="152" filterUnits="userSpaceOnUse" color-interpolation-filters="sRGB">
<feFlood flood-opacity="0" result="BackgroundImageFix"/>
<feColorMatrix in="SourceAlpha" type="matrix" values="0 0 0 0 0 0 0 0 0 0 0 0 0 0 0 0 0 0 127 0" result="hardAlpha"/>
<feMorphology radius="8" operator="erode" in="SourceAlpha" result="effect1_dropShadow_1_19904"/>
<feOffset dy="12"/>
<feGaussianBlur stdDeviation="26"/>
<feComposite in2="hardAlpha" operator="out"/>
<feColorMatrix type="matrix" values="0 0 0 0 0 0 0 0 0 0 0 0 0 0 0 0 0 0 0.18 0"/>
<feBlend mode="normal" in2="BackgroundImageFix" result="effect1_dropShadow_1_19904"/>
<feBlend mode="normal" in="SourceGraphic" in2="effect1_dropShadow_1_19904" result="shape"/>
</filter>
<clipPath id="clip0_1_19904">
<rect y="0.669922" width="600" height="320" rx="8" fill="white"/>
</clipPath>
<clipPath id="clip1_1_19904">
<rect width="13.5" height="13.5" fill="white" transform="translate(103.109 175.111)"/>
</clipPath>
<clipPath id="clip2_1_19904">
<rect width="13.5" height="13.5" fill="white" transform="translate(103.109 283.111)"/>
</clipPath>
</defs>
</svg>
