<svg width="600" height="321" viewBox="0 0 600 321" fill="none" xmlns="http://www.w3.org/2000/svg">
<g clip-path="url(#clip0_1_19964)">
<rect y="0.669922" width="600" height="320" rx="8" fill="#202020"/>
<rect x="85" y="71.5" width="431" height="322" rx="8" fill="#3A3A3A"/>
<rect x="105" y="91.5" width="36" height="36" rx="18" fill="#21C179"/>
<path d="M123.387 114.401H122.076V109.251C122.076 108.513 121.863 107.884 121.416 107.375C120.97 106.866 120.407 106.607 119.718 106.607C119.029 106.607 118.466 106.866 118.019 107.365C117.572 107.874 117.359 108.503 117.359 109.251V114.401H116V105.42H117.359V106.338C117.805 105.968 118.184 105.709 118.514 105.569C118.912 105.38 119.359 105.29 119.834 105.29C120.446 105.29 121.018 105.449 121.543 105.769C122.067 106.088 122.406 106.507 122.727 107.036C123.096 106.517 123.63 106.088 124.193 105.769C124.756 105.449 125.328 105.29 125.911 105.29C126.736 105.29 127.444 105.549 128.056 106.068V101.308L129.454 100.5V118.542L128.056 119.35V109.221C128.056 108.683 127.765 107.705 127.483 107.385C127.037 106.876 126.483 106.617 125.804 106.617C125.115 106.617 124.542 106.866 124.086 107.365C123.63 107.874 123.397 108.483 123.397 109.212L123.387 114.401Z" fill="white"/>
<path d="M154.709 104.547H156.24L159.118 112.224L161.989 104.547H163.521L159.72 114.5H158.503L154.709 104.547ZM154.012 104.547H155.468L155.721 111.191V114.5H154.012V104.547ZM162.762 104.547H164.225V114.5H162.509V111.191L162.762 104.547ZM170.247 112.497C170.247 112.333 170.206 112.185 170.124 112.053C170.042 111.916 169.885 111.793 169.652 111.684C169.424 111.574 169.087 111.474 168.641 111.383C168.249 111.296 167.889 111.194 167.561 111.075C167.237 110.952 166.959 110.804 166.727 110.631C166.494 110.458 166.314 110.253 166.187 110.016C166.059 109.779 165.995 109.505 165.995 109.195C165.995 108.895 166.061 108.61 166.193 108.341C166.326 108.072 166.515 107.835 166.761 107.63C167.007 107.425 167.305 107.263 167.656 107.145C168.012 107.026 168.408 106.967 168.846 106.967C169.465 106.967 169.996 107.072 170.438 107.281C170.885 107.486 171.227 107.767 171.464 108.122C171.701 108.473 171.819 108.869 171.819 109.312H170.172C170.172 109.116 170.122 108.933 170.021 108.765C169.926 108.591 169.78 108.452 169.584 108.348C169.388 108.238 169.142 108.184 168.846 108.184C168.563 108.184 168.328 108.229 168.142 108.32C167.959 108.407 167.823 108.521 167.731 108.662C167.645 108.803 167.602 108.958 167.602 109.127C167.602 109.25 167.624 109.362 167.67 109.462C167.72 109.558 167.802 109.646 167.916 109.729C168.03 109.806 168.185 109.879 168.381 109.947C168.581 110.016 168.832 110.082 169.133 110.146C169.698 110.264 170.183 110.417 170.589 110.604C170.999 110.786 171.313 111.023 171.532 111.314C171.751 111.602 171.86 111.966 171.86 112.408C171.86 112.736 171.79 113.037 171.648 113.311C171.512 113.579 171.311 113.814 171.047 114.015C170.783 114.211 170.466 114.363 170.097 114.473C169.732 114.582 169.322 114.637 168.866 114.637C168.196 114.637 167.629 114.518 167.164 114.281C166.699 114.04 166.346 113.732 166.104 113.358C165.868 112.98 165.749 112.588 165.749 112.183H167.342C167.36 112.488 167.444 112.732 167.595 112.914C167.75 113.092 167.941 113.222 168.169 113.304C168.401 113.381 168.641 113.42 168.887 113.42C169.183 113.42 169.431 113.381 169.632 113.304C169.832 113.222 169.985 113.112 170.09 112.976C170.195 112.834 170.247 112.675 170.247 112.497ZM175.312 112.859L177.021 107.104H178.074L177.787 108.826L176.064 114.5H175.121L175.312 112.859ZM174.308 107.104L175.641 112.887L175.75 114.5H174.697L172.694 107.104H174.308ZM179.674 112.818L180.966 107.104H182.572L180.576 114.5H179.523L179.674 112.818ZM178.252 107.104L179.94 112.791L180.152 114.5H179.209L177.466 108.819L177.179 107.104H178.252ZM185.457 107.104V114.5H183.803V107.104H185.457ZM183.693 105.162C183.693 104.911 183.775 104.704 183.939 104.54C184.108 104.371 184.34 104.287 184.637 104.287C184.928 104.287 185.159 104.371 185.327 104.54C185.496 104.704 185.58 104.911 185.58 105.162C185.58 105.408 185.496 105.613 185.327 105.777C185.159 105.941 184.928 106.023 184.637 106.023C184.34 106.023 184.108 105.941 183.939 105.777C183.775 105.613 183.693 105.408 183.693 105.162ZM188.916 108.525V117.344H187.269V107.104H188.786L188.916 108.525ZM193.735 110.733V110.877C193.735 111.415 193.672 111.914 193.544 112.374C193.421 112.83 193.236 113.229 192.99 113.57C192.749 113.908 192.45 114.17 192.095 114.356C191.739 114.543 191.329 114.637 190.864 114.637C190.404 114.637 190.001 114.552 189.654 114.384C189.312 114.211 189.023 113.967 188.786 113.652C188.549 113.338 188.358 112.969 188.212 112.545C188.071 112.117 187.97 111.647 187.911 111.137V110.583C187.97 110.041 188.071 109.549 188.212 109.106C188.358 108.664 188.549 108.284 188.786 107.965C189.023 107.646 189.312 107.4 189.654 107.227C189.996 107.053 190.395 106.967 190.851 106.967C191.315 106.967 191.728 107.058 192.088 107.24C192.448 107.418 192.751 107.673 192.997 108.006C193.243 108.334 193.428 108.73 193.551 109.195C193.674 109.656 193.735 110.168 193.735 110.733ZM192.088 110.877V110.733C192.088 110.392 192.056 110.075 191.992 109.783C191.928 109.487 191.828 109.227 191.691 109.004C191.555 108.781 191.379 108.607 191.165 108.484C190.955 108.357 190.702 108.293 190.406 108.293C190.115 108.293 189.864 108.343 189.654 108.443C189.445 108.539 189.269 108.674 189.128 108.847C188.987 109.02 188.877 109.223 188.8 109.455C188.722 109.683 188.668 109.931 188.636 110.2V111.526C188.69 111.854 188.784 112.155 188.916 112.429C189.048 112.702 189.235 112.921 189.477 113.085C189.723 113.244 190.037 113.324 190.42 113.324C190.716 113.324 190.969 113.26 191.179 113.133C191.388 113.005 191.559 112.83 191.691 112.606C191.828 112.379 191.928 112.117 191.992 111.82C192.056 111.524 192.088 111.21 192.088 110.877ZM198.397 114.637C197.851 114.637 197.356 114.548 196.914 114.37C196.477 114.188 196.103 113.935 195.793 113.611C195.488 113.288 195.253 112.907 195.089 112.47C194.925 112.032 194.843 111.561 194.843 111.055V110.781C194.843 110.202 194.927 109.678 195.096 109.209C195.264 108.74 195.499 108.339 195.8 108.006C196.101 107.669 196.456 107.411 196.866 107.233C197.276 107.056 197.721 106.967 198.199 106.967C198.728 106.967 199.19 107.056 199.587 107.233C199.983 107.411 200.312 107.662 200.571 107.985C200.836 108.304 201.032 108.685 201.159 109.127C201.291 109.569 201.357 110.057 201.357 110.59V111.294H195.643V110.111H199.73V109.981C199.721 109.685 199.662 109.407 199.553 109.147C199.448 108.888 199.286 108.678 199.067 108.519C198.849 108.359 198.557 108.279 198.192 108.279C197.919 108.279 197.675 108.339 197.461 108.457C197.251 108.571 197.076 108.737 196.935 108.956C196.793 109.175 196.684 109.439 196.606 109.749C196.534 110.054 196.497 110.398 196.497 110.781V111.055C196.497 111.378 196.54 111.679 196.627 111.957C196.718 112.23 196.85 112.47 197.023 112.675C197.197 112.88 197.406 113.042 197.652 113.16C197.898 113.274 198.179 113.331 198.493 113.331C198.89 113.331 199.243 113.251 199.553 113.092C199.863 112.932 200.132 112.707 200.359 112.415L201.228 113.256C201.068 113.488 200.861 113.712 200.605 113.926C200.35 114.135 200.038 114.306 199.669 114.438C199.304 114.571 198.881 114.637 198.397 114.637ZM206.293 104.547H209.813C210.57 104.547 211.215 104.661 211.748 104.889C212.281 105.117 212.689 105.454 212.972 105.9C213.259 106.342 213.402 106.889 213.402 107.541C213.402 108.038 213.311 108.475 213.129 108.854C212.947 109.232 212.689 109.551 212.356 109.811C212.024 110.066 211.627 110.264 211.167 110.405L210.647 110.658H207.482L207.469 109.298H209.841C210.251 109.298 210.593 109.225 210.866 109.079C211.14 108.933 211.345 108.735 211.481 108.484C211.623 108.229 211.693 107.942 211.693 107.623C211.693 107.277 211.625 106.976 211.488 106.721C211.356 106.461 211.151 106.263 210.873 106.126C210.595 105.985 210.242 105.914 209.813 105.914H208.009V114.5H206.293V104.547ZM211.974 114.5L209.636 110.029L211.434 110.022L213.806 114.411V114.5H211.974ZM218.208 114.637C217.661 114.637 217.167 114.548 216.725 114.37C216.287 114.188 215.913 113.935 215.604 113.611C215.298 113.288 215.063 112.907 214.899 112.47C214.735 112.032 214.653 111.561 214.653 111.055V110.781C214.653 110.202 214.738 109.678 214.906 109.209C215.075 108.74 215.31 108.339 215.61 108.006C215.911 107.669 216.267 107.411 216.677 107.233C217.087 107.056 217.531 106.967 218.01 106.967C218.538 106.967 219.001 107.056 219.397 107.233C219.794 107.411 220.122 107.662 220.382 107.985C220.646 108.304 220.842 108.685 220.97 109.127C221.102 109.569 221.168 110.057 221.168 110.59V111.294H215.453V110.111H219.541V109.981C219.532 109.685 219.473 109.407 219.363 109.147C219.258 108.888 219.097 108.678 218.878 108.519C218.659 108.359 218.368 108.279 218.003 108.279C217.729 108.279 217.486 108.339 217.271 108.457C217.062 108.571 216.886 108.737 216.745 108.956C216.604 109.175 216.494 109.439 216.417 109.749C216.344 110.054 216.308 110.398 216.308 110.781V111.055C216.308 111.378 216.351 111.679 216.438 111.957C216.529 112.23 216.661 112.47 216.834 112.675C217.007 112.88 217.217 113.042 217.463 113.16C217.709 113.274 217.989 113.331 218.304 113.331C218.7 113.331 219.053 113.251 219.363 113.092C219.673 112.932 219.942 112.707 220.17 112.415L221.038 113.256C220.879 113.488 220.671 113.712 220.416 113.926C220.161 114.135 219.849 114.306 219.479 114.438C219.115 114.571 218.691 114.637 218.208 114.637ZM224.764 113.194L226.575 107.104H228.284L225.714 114.5H224.647L224.764 113.194ZM223.376 107.104L225.222 113.222L225.311 114.5H224.244L221.66 107.104H223.376ZM231.066 107.104V114.5H229.412V107.104H231.066ZM229.303 105.162C229.303 104.911 229.385 104.704 229.549 104.54C229.717 104.371 229.95 104.287 230.246 104.287C230.538 104.287 230.768 104.371 230.937 104.54C231.105 104.704 231.189 104.911 231.189 105.162C231.189 105.408 231.105 105.613 230.937 105.777C230.768 105.941 230.538 106.023 230.246 106.023C229.95 106.023 229.717 105.941 229.549 105.777C229.385 105.613 229.303 105.408 229.303 105.162ZM236.132 114.637C235.585 114.637 235.09 114.548 234.648 114.37C234.211 114.188 233.837 113.935 233.527 113.611C233.222 113.288 232.987 112.907 232.823 112.47C232.659 112.032 232.577 111.561 232.577 111.055V110.781C232.577 110.202 232.661 109.678 232.83 109.209C232.999 108.74 233.233 108.339 233.534 108.006C233.835 107.669 234.19 107.411 234.601 107.233C235.011 107.056 235.455 106.967 235.934 106.967C236.462 106.967 236.925 107.056 237.321 107.233C237.718 107.411 238.046 107.662 238.306 107.985C238.57 108.304 238.766 108.685 238.894 109.127C239.026 109.569 239.092 110.057 239.092 110.59V111.294H233.377V110.111H237.465V109.981C237.456 109.685 237.396 109.407 237.287 109.147C237.182 108.888 237.021 108.678 236.802 108.519C236.583 108.359 236.291 108.279 235.927 108.279C235.653 108.279 235.41 108.339 235.195 108.457C234.986 108.571 234.81 108.737 234.669 108.956C234.528 109.175 234.418 109.439 234.341 109.749C234.268 110.054 234.231 110.398 234.231 110.781V111.055C234.231 111.378 234.275 111.679 234.361 111.957C234.452 112.23 234.585 112.47 234.758 112.675C234.931 112.88 235.141 113.042 235.387 113.16C235.633 113.274 235.913 113.331 236.228 113.331C236.624 113.331 236.977 113.251 237.287 113.092C237.597 112.932 237.866 112.707 238.094 112.415L238.962 113.256C238.802 113.488 238.595 113.712 238.34 113.926C238.085 114.135 237.772 114.306 237.403 114.438C237.039 114.571 236.615 114.637 236.132 114.637ZM242.387 112.859L244.096 107.104H245.148L244.861 108.826L243.139 114.5H242.195L242.387 112.859ZM241.382 107.104L242.715 112.887L242.824 114.5H241.771L239.769 107.104H241.382ZM246.748 112.818L248.04 107.104H249.646L247.65 114.5H246.598L246.748 112.818ZM245.326 107.104L247.015 112.791L247.227 114.5H246.283L244.54 108.819L244.253 107.104H245.326Z" fill="white"/>
<rect x="456" y="106.5" width="40" height="6" rx="3" fill="#D9D9D9"/>
<rect x="124" y="134.5" width="32" height="2" rx="0.999999" transform="rotate(90 124 134.5)" fill="#D9D9D9" fill-opacity="0.14"/>
<rect x="105" y="173.5" width="36" height="36" rx="18" fill="#21C179"/>
<path d="M130.503 190.666C130.961 190.666 131.336 190.291 131.336 189.833V187.066C131.336 186.758 131.103 186.408 130.811 186.291L123.311 183.291C123.144 183.225 122.861 183.225 122.694 183.291L115.194 186.291C114.903 186.408 114.669 186.758 114.669 187.066V189.833C114.669 190.291 115.044 190.666 115.503 190.666M115.503 196.5C115.044 196.5 114.669 196.875 114.669 197.333V199.833H131.336V197.333C131.336 196.875 130.961 196.5 130.503 196.5M113.836 199.833H132.169" stroke="white" stroke-miterlimit="10" stroke-linecap="round" stroke-linejoin="round"/>
<path d="M123 188.583C123.164 188.583 123.327 188.551 123.478 188.488C123.63 188.425 123.768 188.333 123.884 188.217C124 188.101 124.092 187.963 124.155 187.811C124.218 187.66 124.25 187.497 124.25 187.333C124.25 187.169 124.218 187.006 124.155 186.855C124.092 186.703 124 186.565 123.884 186.449C123.768 186.333 123.63 186.241 123.478 186.178C123.327 186.115 123.164 186.083 123 186.083C122.668 186.083 122.351 186.215 122.116 186.449C121.882 186.684 121.75 187.001 121.75 187.333C121.75 187.665 121.882 187.982 122.116 188.217C122.351 188.451 122.668 188.583 123 188.583Z" stroke="white" stroke-miterlimit="10" stroke-linecap="round" stroke-linejoin="round"/>
<path d="M119.669 196.5V190.667M123.003 196.5V190.667M126.336 196.5V190.667M116.336 196.5C116.336 196.5 116.336 192.945 116.336 190.667H129.669V196.5H116.336Z" stroke="white" stroke-miterlimit="10" stroke-linecap="round" stroke-linejoin="round"/>
<path d="M157.744 192.002H155.208L155.194 190.751H157.409C157.783 190.751 158.1 190.696 158.359 190.587C158.624 190.473 158.824 190.311 158.961 190.102C159.098 189.887 159.166 189.63 159.166 189.329C159.166 188.996 159.102 188.725 158.975 188.516C158.847 188.306 158.651 188.153 158.387 188.058C158.127 187.962 157.794 187.914 157.389 187.914H155.728V196.5H154.012V186.547H157.389C157.936 186.547 158.423 186.599 158.852 186.704C159.285 186.809 159.651 186.973 159.952 187.196C160.257 187.415 160.488 187.693 160.643 188.03C160.802 188.368 160.882 188.769 160.882 189.233C160.882 189.644 160.784 190.02 160.588 190.361C160.392 190.699 160.103 190.974 159.72 191.188C159.337 191.403 158.861 191.53 158.291 191.571L157.744 192.002ZM157.669 196.5H154.668L155.44 195.14H157.669C158.056 195.14 158.38 195.076 158.64 194.948C158.899 194.816 159.093 194.636 159.221 194.408C159.353 194.176 159.419 193.905 159.419 193.595C159.419 193.271 159.362 192.991 159.248 192.754C159.134 192.512 158.954 192.328 158.708 192.2C158.462 192.068 158.141 192.002 157.744 192.002H155.816L155.83 190.751H158.339L158.729 191.223C159.275 191.241 159.724 191.362 160.075 191.585C160.431 191.808 160.695 192.098 160.868 192.453C161.041 192.809 161.128 193.191 161.128 193.602C161.128 194.235 160.989 194.766 160.711 195.194C160.438 195.623 160.043 195.949 159.528 196.172C159.013 196.391 158.394 196.5 157.669 196.5ZM166.863 195.017V191.489C166.863 191.225 166.815 190.997 166.72 190.806C166.624 190.614 166.478 190.466 166.282 190.361C166.091 190.257 165.849 190.204 165.558 190.204C165.289 190.204 165.056 190.25 164.86 190.341C164.664 190.432 164.512 190.555 164.402 190.71C164.293 190.865 164.238 191.04 164.238 191.236H162.598C162.598 190.945 162.668 190.662 162.81 190.389C162.951 190.115 163.156 189.871 163.425 189.657C163.694 189.443 164.015 189.274 164.389 189.151C164.762 189.028 165.182 188.967 165.646 188.967C166.202 188.967 166.695 189.06 167.123 189.247C167.556 189.434 167.896 189.716 168.142 190.095C168.392 190.468 168.518 190.938 168.518 191.503V194.791C168.518 195.128 168.54 195.431 168.586 195.7C168.636 195.965 168.707 196.195 168.798 196.391V196.5H167.109C167.032 196.322 166.97 196.097 166.925 195.823C166.884 195.545 166.863 195.276 166.863 195.017ZM167.103 192.002L167.116 193.021H165.934C165.628 193.021 165.359 193.05 165.127 193.109C164.895 193.164 164.701 193.246 164.546 193.355C164.391 193.465 164.275 193.597 164.197 193.752C164.12 193.907 164.081 194.082 164.081 194.278C164.081 194.474 164.127 194.654 164.218 194.818C164.309 194.978 164.441 195.103 164.614 195.194C164.792 195.285 165.006 195.331 165.257 195.331C165.594 195.331 165.888 195.263 166.139 195.126C166.394 194.985 166.594 194.814 166.74 194.613C166.886 194.408 166.964 194.215 166.973 194.032L167.506 194.764C167.451 194.951 167.358 195.151 167.226 195.365C167.093 195.579 166.92 195.785 166.706 195.98C166.496 196.172 166.243 196.329 165.947 196.452C165.656 196.575 165.318 196.637 164.936 196.637C164.452 196.637 164.022 196.541 163.644 196.35C163.265 196.154 162.969 195.892 162.755 195.563C162.541 195.231 162.434 194.855 162.434 194.436C162.434 194.044 162.507 193.697 162.652 193.396C162.803 193.091 163.021 192.836 163.309 192.631C163.6 192.426 163.956 192.271 164.375 192.166C164.794 192.057 165.273 192.002 165.811 192.002H167.103ZM171.874 190.683V196.5H170.227V189.104H171.778L171.874 190.683ZM171.58 192.528L171.047 192.521C171.051 191.997 171.124 191.517 171.266 191.079C171.411 190.642 171.612 190.266 171.867 189.951C172.127 189.637 172.437 189.395 172.797 189.227C173.157 189.053 173.558 188.967 174 188.967C174.355 188.967 174.677 189.017 174.964 189.117C175.256 189.213 175.504 189.37 175.709 189.589C175.919 189.808 176.078 190.092 176.188 190.443C176.297 190.79 176.352 191.216 176.352 191.722V196.5H174.697V191.715C174.697 191.359 174.645 191.079 174.54 190.874C174.44 190.664 174.292 190.516 174.096 190.43C173.904 190.339 173.665 190.293 173.378 190.293C173.095 190.293 172.842 190.352 172.619 190.471C172.396 190.589 172.207 190.751 172.052 190.956C171.901 191.161 171.785 191.398 171.703 191.667C171.621 191.936 171.58 192.223 171.58 192.528ZM179.694 186V196.5H178.04V186H179.694ZM184.288 189.104L181.068 192.672L179.305 194.477L178.874 193.082L180.207 191.435L182.299 189.104H184.288ZM182.654 196.5L180.255 193.027L181.294 191.872L184.562 196.5H182.654ZM188.984 186.547H192.505C193.261 186.547 193.906 186.661 194.439 186.889C194.973 187.117 195.381 187.454 195.663 187.9C195.95 188.342 196.094 188.889 196.094 189.541C196.094 190.038 196.003 190.475 195.82 190.854C195.638 191.232 195.381 191.551 195.048 191.811C194.715 192.066 194.319 192.264 193.858 192.405L193.339 192.658H190.174L190.16 191.298H192.532C192.942 191.298 193.284 191.225 193.558 191.079C193.831 190.933 194.036 190.735 194.173 190.484C194.314 190.229 194.385 189.942 194.385 189.623C194.385 189.277 194.316 188.976 194.18 188.721C194.048 188.461 193.842 188.263 193.564 188.126C193.286 187.985 192.933 187.914 192.505 187.914H190.7V196.5H188.984V186.547ZM194.665 196.5L192.327 192.029L194.125 192.022L196.497 196.411V196.5H194.665ZM200.899 196.637C200.353 196.637 199.858 196.548 199.416 196.37C198.979 196.188 198.605 195.935 198.295 195.611C197.99 195.288 197.755 194.907 197.591 194.47C197.427 194.032 197.345 193.561 197.345 193.055V192.781C197.345 192.202 197.429 191.678 197.598 191.209C197.766 190.74 198.001 190.339 198.302 190.006C198.603 189.669 198.958 189.411 199.368 189.233C199.778 189.056 200.223 188.967 200.701 188.967C201.23 188.967 201.692 189.056 202.089 189.233C202.485 189.411 202.813 189.662 203.073 189.985C203.338 190.304 203.534 190.685 203.661 191.127C203.793 191.569 203.859 192.057 203.859 192.59V193.294H198.145V192.111H202.232V191.981C202.223 191.685 202.164 191.407 202.055 191.147C201.95 190.888 201.788 190.678 201.569 190.519C201.351 190.359 201.059 190.279 200.694 190.279C200.421 190.279 200.177 190.339 199.963 190.457C199.753 190.571 199.578 190.737 199.437 190.956C199.295 191.175 199.186 191.439 199.108 191.749C199.035 192.054 198.999 192.398 198.999 192.781V193.055C198.999 193.378 199.042 193.679 199.129 193.957C199.22 194.23 199.352 194.47 199.525 194.675C199.699 194.88 199.908 195.042 200.154 195.16C200.4 195.274 200.681 195.331 200.995 195.331C201.392 195.331 201.745 195.251 202.055 195.092C202.365 194.932 202.633 194.707 202.861 194.415L203.729 195.256C203.57 195.488 203.363 195.712 203.107 195.926C202.852 196.135 202.54 196.306 202.171 196.438C201.806 196.571 201.382 196.637 200.899 196.637ZM207.455 195.194L209.267 189.104H210.976L208.405 196.5H207.339L207.455 195.194ZM206.067 189.104L207.913 195.222L208.002 196.5H206.936L204.352 189.104H206.067ZM213.758 189.104V196.5H212.104V189.104H213.758ZM211.994 187.162C211.994 186.911 212.076 186.704 212.24 186.54C212.409 186.371 212.641 186.287 212.938 186.287C213.229 186.287 213.459 186.371 213.628 186.54C213.797 186.704 213.881 186.911 213.881 187.162C213.881 187.408 213.797 187.613 213.628 187.777C213.459 187.941 213.229 188.023 212.938 188.023C212.641 188.023 212.409 187.941 212.24 187.777C212.076 187.613 211.994 187.408 211.994 187.162ZM218.823 196.637C218.276 196.637 217.782 196.548 217.34 196.37C216.902 196.188 216.529 195.935 216.219 195.611C215.913 195.288 215.679 194.907 215.515 194.47C215.351 194.032 215.269 193.561 215.269 193.055V192.781C215.269 192.202 215.353 191.678 215.521 191.209C215.69 190.74 215.925 190.339 216.226 190.006C216.526 189.669 216.882 189.411 217.292 189.233C217.702 189.056 218.146 188.967 218.625 188.967C219.154 188.967 219.616 189.056 220.013 189.233C220.409 189.411 220.737 189.662 220.997 189.985C221.261 190.304 221.457 190.685 221.585 191.127C221.717 191.569 221.783 192.057 221.783 192.59V193.294H216.068V192.111H220.156V191.981C220.147 191.685 220.088 191.407 219.979 191.147C219.874 190.888 219.712 190.678 219.493 190.519C219.274 190.359 218.983 190.279 218.618 190.279C218.345 190.279 218.101 190.339 217.887 190.457C217.677 190.571 217.502 190.737 217.36 190.956C217.219 191.175 217.11 191.439 217.032 191.749C216.959 192.054 216.923 192.398 216.923 192.781V193.055C216.923 193.378 216.966 193.679 217.053 193.957C217.144 194.23 217.276 194.47 217.449 194.675C217.622 194.88 217.832 195.042 218.078 195.16C218.324 195.274 218.604 195.331 218.919 195.331C219.315 195.331 219.669 195.251 219.979 195.092C220.288 194.932 220.557 194.707 220.785 194.415L221.653 195.256C221.494 195.488 221.286 195.712 221.031 195.926C220.776 196.135 220.464 196.306 220.095 196.438C219.73 196.571 219.306 196.637 218.823 196.637ZM225.078 194.859L226.787 189.104H227.84L227.553 190.826L225.83 196.5H224.887L225.078 194.859ZM224.073 189.104L225.406 194.887L225.516 196.5H224.463L222.46 189.104H224.073ZM229.439 194.818L230.731 189.104H232.338L230.342 196.5H229.289L229.439 194.818ZM228.018 189.104L229.706 194.791L229.918 196.5H228.975L227.231 190.819L226.944 189.104H228.018Z" fill="white"/>
<rect x="456" y="188.5" width="40" height="6" rx="3" fill="#D9D9D9"/>
<rect x="124" y="216.5" width="32" height="2" rx="0.999999" transform="rotate(90 124 216.5)" fill="#D9D9D9" fill-opacity="0.14"/>
<rect x="105" y="255.5" width="36" height="36" rx="18" fill="#F9D799"/>
<g clip-path="url(#clip1_1_19964)">
<path d="M117.164 273.5L121.331 277.666L129.664 269.333" stroke="#737373" stroke-width="2" stroke-linecap="round" stroke-linejoin="round"/>
</g>
<path d="M154.962 268.547L157.272 273.298L159.583 268.547H161.483L158.134 274.836V278.5H156.404V274.836L153.055 268.547H154.962ZM161.641 274.884V274.727C161.641 274.193 161.718 273.699 161.873 273.243C162.028 272.783 162.251 272.384 162.543 272.047C162.839 271.705 163.199 271.441 163.623 271.254C164.051 271.062 164.535 270.967 165.072 270.967C165.615 270.967 166.098 271.062 166.521 271.254C166.95 271.441 167.312 271.705 167.608 272.047C167.905 272.384 168.13 272.783 168.285 273.243C168.44 273.699 168.518 274.193 168.518 274.727V274.884C168.518 275.417 168.44 275.911 168.285 276.367C168.13 276.823 167.905 277.222 167.608 277.563C167.312 277.901 166.952 278.165 166.528 278.356C166.104 278.543 165.624 278.637 165.086 278.637C164.544 278.637 164.058 278.543 163.63 278.356C163.206 278.165 162.846 277.901 162.55 277.563C162.254 277.222 162.028 276.823 161.873 276.367C161.718 275.911 161.641 275.417 161.641 274.884ZM163.288 274.727V274.884C163.288 275.216 163.322 275.531 163.391 275.827C163.459 276.123 163.566 276.383 163.712 276.606C163.858 276.83 164.045 277.005 164.272 277.133C164.5 277.26 164.771 277.324 165.086 277.324C165.391 277.324 165.656 277.26 165.879 277.133C166.107 277.005 166.294 276.83 166.439 276.606C166.585 276.383 166.692 276.123 166.761 275.827C166.834 275.531 166.87 275.216 166.87 274.884V274.727C166.87 274.398 166.834 274.089 166.761 273.797C166.692 273.501 166.583 273.239 166.433 273.011C166.287 272.783 166.1 272.605 165.872 272.478C165.649 272.345 165.382 272.279 165.072 272.279C164.762 272.279 164.493 272.345 164.266 272.478C164.042 272.605 163.858 272.783 163.712 273.011C163.566 273.239 163.459 273.501 163.391 273.797C163.322 274.089 163.288 274.398 163.288 274.727ZM174.349 276.757V271.104H176.003V278.5H174.444L174.349 276.757ZM174.581 275.219L175.135 275.205C175.135 275.702 175.08 276.16 174.971 276.579C174.861 276.994 174.693 277.356 174.465 277.666C174.237 277.971 173.945 278.211 173.59 278.384C173.234 278.552 172.808 278.637 172.312 278.637C171.951 278.637 171.621 278.584 171.32 278.479C171.02 278.375 170.76 278.213 170.541 277.994C170.327 277.775 170.16 277.491 170.042 277.14C169.924 276.789 169.864 276.369 169.864 275.882V271.104H171.512V275.896C171.512 276.164 171.544 276.39 171.607 276.572C171.671 276.75 171.758 276.894 171.867 277.003C171.977 277.112 172.104 277.19 172.25 277.235C172.396 277.281 172.551 277.304 172.715 277.304C173.184 277.304 173.553 277.213 173.822 277.03C174.096 276.843 174.289 276.593 174.403 276.278C174.522 275.964 174.581 275.611 174.581 275.219ZM179.346 272.512V278.5H177.698V271.104H179.271L179.346 272.512ZM181.608 271.056L181.595 272.587C181.494 272.569 181.385 272.555 181.267 272.546C181.153 272.537 181.039 272.532 180.925 272.532C180.642 272.532 180.394 272.573 180.18 272.655C179.965 272.733 179.785 272.847 179.64 272.997C179.498 273.143 179.389 273.321 179.312 273.53C179.234 273.74 179.188 273.975 179.175 274.234L178.799 274.262C178.799 273.797 178.844 273.366 178.936 272.97C179.027 272.573 179.163 272.225 179.346 271.924C179.533 271.623 179.765 271.388 180.043 271.22C180.326 271.051 180.651 270.967 181.021 270.967C181.121 270.967 181.228 270.976 181.342 270.994C181.46 271.012 181.549 271.033 181.608 271.056ZM186.291 268.547H189.812C190.568 268.547 191.213 268.661 191.746 268.889C192.279 269.117 192.687 269.454 192.97 269.9C193.257 270.342 193.4 270.889 193.4 271.541C193.4 272.038 193.309 272.475 193.127 272.854C192.945 273.232 192.687 273.551 192.354 273.811C192.022 274.066 191.625 274.264 191.165 274.405L190.646 274.658H187.48L187.467 273.298H189.839C190.249 273.298 190.591 273.225 190.864 273.079C191.138 272.933 191.343 272.735 191.479 272.484C191.621 272.229 191.691 271.942 191.691 271.623C191.691 271.277 191.623 270.976 191.486 270.721C191.354 270.461 191.149 270.263 190.871 270.126C190.593 269.985 190.24 269.914 189.812 269.914H188.007V278.5H186.291V268.547ZM191.972 278.5L189.634 274.029L191.432 274.022L193.804 278.411V278.5H191.972ZM198.206 278.637C197.659 278.637 197.165 278.548 196.723 278.37C196.285 278.188 195.911 277.935 195.602 277.611C195.296 277.288 195.062 276.907 194.897 276.47C194.733 276.032 194.651 275.561 194.651 275.055V274.781C194.651 274.202 194.736 273.678 194.904 273.209C195.073 272.74 195.308 272.339 195.608 272.006C195.909 271.669 196.265 271.411 196.675 271.233C197.085 271.056 197.529 270.967 198.008 270.967C198.536 270.967 198.999 271.056 199.396 271.233C199.792 271.411 200.12 271.662 200.38 271.985C200.644 272.304 200.84 272.685 200.968 273.127C201.1 273.569 201.166 274.057 201.166 274.59V275.294H195.451V274.111H199.539V273.981C199.53 273.685 199.471 273.407 199.361 273.147C199.257 272.888 199.095 272.678 198.876 272.519C198.657 272.359 198.366 272.279 198.001 272.279C197.728 272.279 197.484 272.339 197.27 272.457C197.06 272.571 196.884 272.737 196.743 272.956C196.602 273.175 196.493 273.439 196.415 273.749C196.342 274.054 196.306 274.398 196.306 274.781V275.055C196.306 275.378 196.349 275.679 196.436 275.957C196.527 276.23 196.659 276.47 196.832 276.675C197.005 276.88 197.215 277.042 197.461 277.16C197.707 277.274 197.987 277.331 198.302 277.331C198.698 277.331 199.051 277.251 199.361 277.092C199.671 276.932 199.94 276.707 200.168 276.415L201.036 277.256C200.877 277.488 200.669 277.712 200.414 277.926C200.159 278.135 199.847 278.306 199.478 278.438C199.113 278.571 198.689 278.637 198.206 278.637ZM206.601 276.497C206.601 276.333 206.56 276.185 206.478 276.053C206.396 275.916 206.238 275.793 206.006 275.684C205.778 275.574 205.441 275.474 204.994 275.383C204.602 275.296 204.242 275.194 203.914 275.075C203.59 274.952 203.312 274.804 203.08 274.631C202.848 274.458 202.668 274.253 202.54 274.016C202.412 273.779 202.349 273.505 202.349 273.195C202.349 272.895 202.415 272.61 202.547 272.341C202.679 272.072 202.868 271.835 203.114 271.63C203.36 271.425 203.659 271.263 204.01 271.145C204.365 271.026 204.762 270.967 205.199 270.967C205.819 270.967 206.35 271.072 206.792 271.281C207.239 271.486 207.58 271.767 207.817 272.122C208.054 272.473 208.173 272.869 208.173 273.312H206.525C206.525 273.116 206.475 272.933 206.375 272.765C206.279 272.591 206.133 272.452 205.938 272.348C205.742 272.238 205.495 272.184 205.199 272.184C204.917 272.184 204.682 272.229 204.495 272.32C204.313 272.407 204.176 272.521 204.085 272.662C203.998 272.803 203.955 272.958 203.955 273.127C203.955 273.25 203.978 273.362 204.023 273.462C204.074 273.558 204.156 273.646 204.27 273.729C204.383 273.806 204.538 273.879 204.734 273.947C204.935 274.016 205.186 274.082 205.486 274.146C206.051 274.264 206.537 274.417 206.942 274.604C207.353 274.786 207.667 275.023 207.886 275.314C208.104 275.602 208.214 275.966 208.214 276.408C208.214 276.736 208.143 277.037 208.002 277.311C207.865 277.579 207.665 277.814 207.4 278.015C207.136 278.211 206.819 278.363 206.45 278.473C206.086 278.582 205.675 278.637 205.22 278.637C204.55 278.637 203.982 278.518 203.518 278.281C203.053 278.04 202.7 277.732 202.458 277.358C202.221 276.98 202.103 276.588 202.103 276.183H203.695C203.714 276.488 203.798 276.732 203.948 276.914C204.103 277.092 204.295 277.222 204.522 277.304C204.755 277.381 204.994 277.42 205.24 277.42C205.536 277.42 205.785 277.381 205.985 277.304C206.186 277.222 206.339 277.112 206.443 276.976C206.548 276.834 206.601 276.675 206.601 276.497ZM211.311 272.525V281.344H209.663V271.104H211.181L211.311 272.525ZM216.13 274.733V274.877C216.13 275.415 216.066 275.914 215.938 276.374C215.815 276.83 215.631 277.229 215.385 277.57C215.143 277.908 214.845 278.17 214.489 278.356C214.134 278.543 213.724 278.637 213.259 278.637C212.799 278.637 212.395 278.552 212.049 278.384C211.707 278.211 211.418 277.967 211.181 277.652C210.944 277.338 210.752 276.969 210.606 276.545C210.465 276.117 210.365 275.647 210.306 275.137V274.583C210.365 274.041 210.465 273.549 210.606 273.106C210.752 272.664 210.944 272.284 211.181 271.965C211.418 271.646 211.707 271.4 212.049 271.227C212.391 271.053 212.789 270.967 213.245 270.967C213.71 270.967 214.122 271.058 214.482 271.24C214.842 271.418 215.146 271.673 215.392 272.006C215.638 272.334 215.822 272.73 215.945 273.195C216.068 273.656 216.13 274.168 216.13 274.733ZM214.482 274.877V274.733C214.482 274.392 214.451 274.075 214.387 273.783C214.323 273.487 214.223 273.227 214.086 273.004C213.949 272.781 213.774 272.607 213.56 272.484C213.35 272.357 213.097 272.293 212.801 272.293C212.509 272.293 212.258 272.343 212.049 272.443C211.839 272.539 211.664 272.674 211.522 272.847C211.381 273.02 211.272 273.223 211.194 273.455C211.117 273.683 211.062 273.931 211.03 274.2V275.526C211.085 275.854 211.178 276.155 211.311 276.429C211.443 276.702 211.63 276.921 211.871 277.085C212.117 277.244 212.432 277.324 212.814 277.324C213.111 277.324 213.364 277.26 213.573 277.133C213.783 277.005 213.954 276.83 214.086 276.606C214.223 276.379 214.323 276.117 214.387 275.82C214.451 275.524 214.482 275.21 214.482 274.877ZM217.217 274.884V274.727C217.217 274.193 217.294 273.699 217.449 273.243C217.604 272.783 217.827 272.384 218.119 272.047C218.415 271.705 218.775 271.441 219.199 271.254C219.628 271.062 220.111 270.967 220.648 270.967C221.191 270.967 221.674 271.062 222.098 271.254C222.526 271.441 222.888 271.705 223.185 272.047C223.481 272.384 223.706 272.783 223.861 273.243C224.016 273.699 224.094 274.193 224.094 274.727V274.884C224.094 275.417 224.016 275.911 223.861 276.367C223.706 276.823 223.481 277.222 223.185 277.563C222.888 277.901 222.528 278.165 222.104 278.356C221.681 278.543 221.2 278.637 220.662 278.637C220.12 278.637 219.634 278.543 219.206 278.356C218.782 278.165 218.422 277.901 218.126 277.563C217.83 277.222 217.604 276.823 217.449 276.367C217.294 275.911 217.217 275.417 217.217 274.884ZM218.864 274.727V274.884C218.864 275.216 218.898 275.531 218.967 275.827C219.035 276.123 219.142 276.383 219.288 276.606C219.434 276.83 219.621 277.005 219.849 277.133C220.076 277.26 220.348 277.324 220.662 277.324C220.967 277.324 221.232 277.26 221.455 277.133C221.683 277.005 221.87 276.83 222.016 276.606C222.161 276.383 222.269 276.123 222.337 275.827C222.41 275.531 222.446 275.216 222.446 274.884V274.727C222.446 274.398 222.41 274.089 222.337 273.797C222.269 273.501 222.159 273.239 222.009 273.011C221.863 272.783 221.676 272.605 221.448 272.478C221.225 272.345 220.958 272.279 220.648 272.279C220.339 272.279 220.07 272.345 219.842 272.478C219.618 272.605 219.434 272.783 219.288 273.011C219.142 273.239 219.035 273.501 218.967 273.797C218.898 274.089 218.864 274.398 218.864 274.727ZM227.108 272.683V278.5H225.461V271.104H227.013L227.108 272.683ZM226.814 274.528L226.281 274.521C226.286 273.997 226.359 273.517 226.5 273.079C226.646 272.642 226.846 272.266 227.102 271.951C227.361 271.637 227.671 271.395 228.031 271.227C228.391 271.053 228.792 270.967 229.234 270.967C229.59 270.967 229.911 271.017 230.198 271.117C230.49 271.213 230.738 271.37 230.943 271.589C231.153 271.808 231.312 272.092 231.422 272.443C231.531 272.79 231.586 273.216 231.586 273.722V278.5H229.932V273.715C229.932 273.359 229.879 273.079 229.774 272.874C229.674 272.664 229.526 272.516 229.33 272.43C229.139 272.339 228.899 272.293 228.612 272.293C228.33 272.293 228.077 272.352 227.854 272.471C227.63 272.589 227.441 272.751 227.286 272.956C227.136 273.161 227.02 273.398 226.938 273.667C226.855 273.936 226.814 274.223 226.814 274.528ZM237.417 276.497C237.417 276.333 237.376 276.185 237.294 276.053C237.212 275.916 237.055 275.793 236.822 275.684C236.594 275.574 236.257 275.474 235.811 275.383C235.419 275.296 235.059 275.194 234.73 275.075C234.407 274.952 234.129 274.804 233.896 274.631C233.664 274.458 233.484 274.253 233.356 274.016C233.229 273.779 233.165 273.505 233.165 273.195C233.165 272.895 233.231 272.61 233.363 272.341C233.495 272.072 233.685 271.835 233.931 271.63C234.177 271.425 234.475 271.263 234.826 271.145C235.182 271.026 235.578 270.967 236.016 270.967C236.635 270.967 237.166 271.072 237.608 271.281C238.055 271.486 238.397 271.767 238.634 272.122C238.871 272.473 238.989 272.869 238.989 273.312H237.342C237.342 273.116 237.292 272.933 237.191 272.765C237.096 272.591 236.95 272.452 236.754 272.348C236.558 272.238 236.312 272.184 236.016 272.184C235.733 272.184 235.498 272.229 235.312 272.32C235.129 272.407 234.993 272.521 234.901 272.662C234.815 272.803 234.771 272.958 234.771 273.127C234.771 273.25 234.794 273.362 234.84 273.462C234.89 273.558 234.972 273.646 235.086 273.729C235.2 273.806 235.355 273.879 235.551 273.947C235.751 274.016 236.002 274.082 236.303 274.146C236.868 274.264 237.353 274.417 237.759 274.604C238.169 274.786 238.483 275.023 238.702 275.314C238.921 275.602 239.03 275.966 239.03 276.408C239.03 276.736 238.96 277.037 238.818 277.311C238.682 277.579 238.481 277.814 238.217 278.015C237.952 278.211 237.636 278.363 237.267 278.473C236.902 278.582 236.492 278.637 236.036 278.637C235.366 278.637 234.799 278.518 234.334 278.281C233.869 278.04 233.516 277.732 233.274 277.358C233.037 276.98 232.919 276.588 232.919 276.183H234.512C234.53 276.488 234.614 276.732 234.765 276.914C234.92 277.092 235.111 277.222 235.339 277.304C235.571 277.381 235.811 277.42 236.057 277.42C236.353 277.42 236.601 277.381 236.802 277.304C237.002 277.222 237.155 277.112 237.26 276.976C237.365 276.834 237.417 276.675 237.417 276.497ZM243.733 278.637C243.187 278.637 242.692 278.548 242.25 278.37C241.812 278.188 241.439 277.935 241.129 277.611C240.824 277.288 240.589 276.907 240.425 276.47C240.261 276.032 240.179 275.561 240.179 275.055V274.781C240.179 274.202 240.263 273.678 240.432 273.209C240.6 272.74 240.835 272.339 241.136 272.006C241.437 271.669 241.792 271.411 242.202 271.233C242.612 271.056 243.057 270.967 243.535 270.967C244.064 270.967 244.526 271.056 244.923 271.233C245.319 271.411 245.647 271.662 245.907 271.985C246.172 272.304 246.368 272.685 246.495 273.127C246.627 273.569 246.693 274.057 246.693 274.59V275.294H240.979V274.111H245.066V273.981C245.057 273.685 244.998 273.407 244.889 273.147C244.784 272.888 244.622 272.678 244.403 272.519C244.185 272.359 243.893 272.279 243.528 272.279C243.255 272.279 243.011 272.339 242.797 272.457C242.587 272.571 242.412 272.737 242.271 272.956C242.129 273.175 242.02 273.439 241.942 273.749C241.869 274.054 241.833 274.398 241.833 274.781V275.055C241.833 275.378 241.876 275.679 241.963 275.957C242.054 276.23 242.186 276.47 242.359 276.675C242.533 276.88 242.742 277.042 242.988 277.16C243.234 277.274 243.515 277.331 243.829 277.331C244.226 277.331 244.579 277.251 244.889 277.092C245.199 276.932 245.467 276.707 245.695 276.415L246.563 277.256C246.404 277.488 246.197 277.712 245.941 277.926C245.686 278.135 245.374 278.306 245.005 278.438C244.64 278.571 244.216 278.637 243.733 278.637Z" fill="white"/>
<rect x="456" y="270.5" width="40" height="6" rx="3" fill="#D9D9D9"/>
<rect x="124" y="298.5" width="32" height="2" rx="0.999999" transform="rotate(90 124 298.5)" fill="#D9D9D9" fill-opacity="0.14"/>
</g>
<defs>
<clipPath id="clip0_1_19964">
<rect y="0.669922" width="600" height="320" rx="8" fill="white"/>
</clipPath>
<clipPath id="clip1_1_19964">
<rect width="20" height="20" fill="white" transform="translate(113 263.5)"/>
</clipPath>
</defs>
</svg>
