<svg width="600" height="321" viewBox="0 0 600 321" fill="none" xmlns="http://www.w3.org/2000/svg">
<g clip-path="url(#clip0_1_20004)">
<rect y="0.669922" width="600" height="320" rx="8" fill="#202020"/>
<g opacity="0.8">
<path d="M85 159C85 151.458 85 147.686 87.3431 145.343C89.6863 143 93.4575 143 101 143H500C507.542 143 511.314 143 513.657 145.343C516 147.686 516 151.458 516 159V417H85V159Z" fill="#3A3A3A"/>
<path fill-rule="evenodd" clip-rule="evenodd" d="M119.411 168.121C119.781 168.493 119.779 169.095 119.407 169.465L118.296 170.569L112.876 175.894C112.512 176.251 111.932 176.257 111.56 175.908L109.867 174.318L109.851 174.303L108.722 173.193C108.347 172.825 108.342 172.224 108.71 171.849C109.078 171.475 109.679 171.47 110.053 171.838L111.175 172.941L112.196 173.899L116.962 169.216L118.068 168.117C118.44 167.747 119.042 167.749 119.411 168.121Z" fill="#21C179"/>
<path d="M140.681 167.033H140.79V168.106H140.681C140.011 168.106 139.45 168.216 138.999 168.435C138.548 168.649 138.19 168.938 137.926 169.303C137.661 169.663 137.47 170.068 137.352 170.52C137.238 170.971 137.181 171.429 137.181 171.894V173.356C137.181 173.799 137.233 174.19 137.338 174.532C137.443 174.869 137.586 175.154 137.769 175.387C137.951 175.619 138.156 175.795 138.384 175.913C138.616 176.032 138.858 176.091 139.108 176.091C139.4 176.091 139.66 176.036 139.888 175.927C140.116 175.813 140.307 175.656 140.462 175.455C140.621 175.25 140.742 175.008 140.824 174.73C140.906 174.452 140.947 174.147 140.947 173.814C140.947 173.518 140.911 173.233 140.838 172.96C140.765 172.682 140.653 172.436 140.503 172.222C140.353 172.003 140.163 171.832 139.936 171.709C139.712 171.581 139.446 171.518 139.136 171.518C138.785 171.518 138.457 171.604 138.151 171.777C137.851 171.946 137.602 172.169 137.406 172.447C137.215 172.721 137.105 173.019 137.078 173.343L136.408 173.336C136.472 172.826 136.59 172.39 136.764 172.03C136.941 171.666 137.16 171.369 137.42 171.142C137.684 170.909 137.978 170.741 138.302 170.636C138.63 170.526 138.976 170.472 139.341 170.472C139.838 170.472 140.266 170.565 140.626 170.752C140.986 170.939 141.282 171.189 141.515 171.504C141.747 171.814 141.918 172.165 142.027 172.557C142.141 172.944 142.198 173.343 142.198 173.753C142.198 174.222 142.132 174.662 142 175.072C141.868 175.482 141.67 175.842 141.405 176.152C141.146 176.462 140.824 176.704 140.441 176.877C140.059 177.05 139.614 177.137 139.108 177.137C138.571 177.137 138.101 177.027 137.7 176.809C137.299 176.585 136.966 176.289 136.702 175.92C136.438 175.551 136.24 175.141 136.107 174.689C135.975 174.238 135.909 173.78 135.909 173.315V172.721C135.909 172.019 135.98 171.331 136.121 170.656C136.262 169.982 136.506 169.371 136.853 168.824C137.203 168.277 137.689 167.842 138.309 167.519C138.928 167.195 139.719 167.033 140.681 167.033ZM143.784 176.33C143.784 176.116 143.85 175.936 143.982 175.79C144.119 175.64 144.315 175.564 144.57 175.564C144.826 175.564 145.019 175.64 145.151 175.79C145.288 175.936 145.356 176.116 145.356 176.33C145.356 176.54 145.288 176.717 145.151 176.863C145.019 177.009 144.826 177.082 144.57 177.082C144.315 177.082 144.119 177.009 143.982 176.863C143.85 176.717 143.784 176.54 143.784 176.33ZM143.791 170.294C143.791 170.08 143.857 169.9 143.989 169.754C144.126 169.604 144.322 169.528 144.577 169.528C144.832 169.528 145.026 169.604 145.158 169.754C145.295 169.9 145.363 170.08 145.363 170.294C145.363 170.504 145.295 170.681 145.158 170.827C145.026 170.973 144.832 171.046 144.577 171.046C144.322 171.046 144.126 170.973 143.989 170.827C143.857 170.681 143.791 170.504 143.791 170.294ZM151.249 166.992V177H149.984V168.571L147.435 169.501V168.359L151.051 166.992H151.249ZM156.567 172.263L155.556 172.003L156.055 167.047H161.161V168.216H157.128L156.827 170.923C157.009 170.818 157.24 170.72 157.518 170.629C157.8 170.538 158.124 170.492 158.488 170.492C158.949 170.492 159.361 170.572 159.726 170.731C160.09 170.886 160.4 171.11 160.655 171.401C160.915 171.693 161.113 172.044 161.25 172.454C161.387 172.864 161.455 173.322 161.455 173.828C161.455 174.307 161.389 174.746 161.257 175.147C161.129 175.549 160.936 175.899 160.676 176.2C160.416 176.496 160.088 176.727 159.691 176.891C159.299 177.055 158.837 177.137 158.304 177.137C157.903 177.137 157.522 177.082 157.162 176.973C156.807 176.859 156.488 176.688 156.205 176.46C155.927 176.228 155.699 175.94 155.521 175.599C155.348 175.252 155.239 174.847 155.193 174.382H156.396C156.451 174.756 156.561 175.07 156.725 175.325C156.889 175.58 157.103 175.774 157.367 175.906C157.636 176.034 157.948 176.098 158.304 176.098C158.604 176.098 158.871 176.045 159.104 175.94C159.336 175.836 159.532 175.685 159.691 175.489C159.851 175.293 159.972 175.056 160.054 174.778C160.14 174.5 160.184 174.188 160.184 173.842C160.184 173.527 160.14 173.236 160.054 172.967C159.967 172.698 159.837 172.463 159.664 172.263C159.495 172.062 159.288 171.907 159.042 171.798C158.796 171.684 158.513 171.627 158.194 171.627C157.771 171.627 157.449 171.684 157.23 171.798C157.016 171.912 156.795 172.067 156.567 172.263ZM170.314 173.097H167.655V172.023H170.314C170.829 172.023 171.246 171.941 171.565 171.777C171.884 171.613 172.117 171.385 172.263 171.094C172.413 170.802 172.488 170.469 172.488 170.096C172.488 169.754 172.413 169.433 172.263 169.132C172.117 168.831 171.884 168.59 171.565 168.407C171.246 168.22 170.829 168.127 170.314 168.127H167.963V177H166.644V167.047H170.314C171.066 167.047 171.702 167.177 172.222 167.437C172.741 167.696 173.135 168.056 173.404 168.517C173.673 168.972 173.808 169.494 173.808 170.082C173.808 170.72 173.673 171.265 173.404 171.716C173.135 172.167 172.741 172.511 172.222 172.748C171.702 172.98 171.066 173.097 170.314 173.097ZM175.893 167.047H177.171L180.432 175.161L183.686 167.047H184.971L180.924 177H179.926L175.893 167.047ZM175.476 167.047H176.604L176.788 173.117V177H175.476V167.047ZM184.253 167.047H185.381V177H184.068V173.117L184.253 167.047Z" fill="white"/>
<path d="M468.021 169.515L467.686 170.725H461.287L461.622 169.515H468.021ZM464.924 177L461.485 172.946L461.479 171.928H463.112C463.536 171.928 463.885 171.853 464.158 171.702C464.436 171.547 464.644 171.34 464.78 171.08C464.917 170.816 464.985 170.522 464.985 170.198C464.985 169.847 464.922 169.537 464.794 169.269C464.666 169 464.464 168.79 464.186 168.64C463.908 168.489 463.541 168.414 463.085 168.414H461.294L461.663 167.047H463.085C463.892 167.047 464.562 167.168 465.095 167.409C465.628 167.651 466.027 168.002 466.291 168.462C466.56 168.922 466.694 169.478 466.694 170.13C466.694 170.7 466.596 171.203 466.4 171.641C466.204 172.074 465.888 172.424 465.45 172.693C465.013 172.958 464.432 173.122 463.707 173.186L466.852 176.911V177H464.924ZM468.027 167.047L467.686 168.257H462.456L462.791 167.047H468.027ZM473.879 175.701H474.016C474.645 175.701 475.169 175.619 475.588 175.455C476.012 175.286 476.349 175.054 476.6 174.758C476.85 174.462 477.03 174.113 477.14 173.712C477.249 173.311 477.304 172.876 477.304 172.406V170.69C477.304 170.285 477.26 169.929 477.174 169.624C477.092 169.314 476.973 169.057 476.818 168.852C476.668 168.642 476.493 168.485 476.292 168.38C476.096 168.275 475.884 168.223 475.656 168.223C475.406 168.223 475.18 168.28 474.979 168.394C474.784 168.503 474.617 168.656 474.48 168.852C474.348 169.043 474.246 169.269 474.173 169.528C474.104 169.784 474.07 170.057 474.07 170.349C474.07 170.622 474.102 170.886 474.166 171.142C474.234 171.392 474.335 171.616 474.467 171.812C474.599 172.007 474.765 172.162 474.966 172.276C475.166 172.39 475.401 172.447 475.67 172.447C475.925 172.447 476.16 172.399 476.374 172.304C476.588 172.203 476.775 172.069 476.935 171.9C477.094 171.732 477.219 171.543 477.311 171.333C477.402 171.123 477.452 170.909 477.461 170.69L478.09 170.882C478.09 171.228 478.017 171.57 477.871 171.907C477.73 172.24 477.532 172.545 477.276 172.823C477.026 173.097 476.732 173.315 476.395 173.479C476.062 173.644 475.7 173.726 475.308 173.726C474.834 173.726 474.414 173.637 474.05 173.459C473.69 173.277 473.389 173.031 473.147 172.721C472.91 172.411 472.733 172.055 472.614 171.654C472.496 171.253 472.437 170.832 472.437 170.39C472.437 169.911 472.509 169.462 472.655 169.043C472.801 168.624 473.013 168.255 473.291 167.936C473.569 167.612 473.906 167.361 474.303 167.184C474.704 167.001 475.157 166.91 475.663 166.91C476.201 166.91 476.673 167.015 477.078 167.225C477.484 167.434 477.826 167.724 478.104 168.093C478.382 168.462 478.591 168.89 478.732 169.378C478.874 169.866 478.944 170.39 478.944 170.95V171.531C478.944 172.119 478.892 172.687 478.787 173.233C478.682 173.776 478.511 174.279 478.274 174.744C478.042 175.204 477.734 175.61 477.352 175.961C476.973 176.307 476.508 176.578 475.957 176.774C475.41 176.966 474.768 177.062 474.029 177.062H473.879V175.701ZM486.997 171.189V172.816C486.997 173.596 486.92 174.261 486.765 174.812C486.614 175.359 486.396 175.804 486.108 176.146C485.821 176.487 485.477 176.738 485.076 176.897C484.68 177.057 484.235 177.137 483.743 177.137C483.351 177.137 482.987 177.087 482.649 176.986C482.317 176.886 482.016 176.729 481.747 176.515C481.478 176.3 481.248 176.025 481.057 175.688C480.87 175.346 480.724 174.938 480.619 174.464C480.519 173.99 480.469 173.441 480.469 172.816V171.189C480.469 170.406 480.546 169.745 480.701 169.207C480.856 168.665 481.077 168.225 481.364 167.888C481.651 167.546 481.993 167.298 482.39 167.143C482.791 166.988 483.237 166.91 483.729 166.91C484.126 166.91 484.491 166.96 484.823 167.061C485.16 167.156 485.461 167.309 485.726 167.519C485.994 167.728 486.222 168.002 486.409 168.339C486.601 168.672 486.746 169.075 486.847 169.549C486.947 170.018 486.997 170.565 486.997 171.189ZM485.35 173.049V170.943C485.35 170.547 485.327 170.198 485.281 169.897C485.236 169.592 485.167 169.335 485.076 169.125C484.99 168.911 484.88 168.738 484.748 168.605C484.616 168.469 484.465 168.371 484.297 168.312C484.128 168.248 483.939 168.216 483.729 168.216C483.474 168.216 483.246 168.266 483.046 168.366C482.845 168.462 482.677 168.617 482.54 168.831C482.403 169.045 482.299 169.328 482.226 169.679C482.157 170.025 482.123 170.447 482.123 170.943V173.049C482.123 173.45 482.146 173.803 482.191 174.108C482.237 174.414 482.305 174.676 482.396 174.895C482.488 175.109 482.597 175.286 482.725 175.428C482.857 175.564 483.007 175.665 483.176 175.729C483.349 175.792 483.538 175.824 483.743 175.824C484.003 175.824 484.233 175.774 484.434 175.674C484.634 175.574 484.803 175.414 484.939 175.195C485.076 174.972 485.179 174.683 485.247 174.327C485.315 173.972 485.35 173.546 485.35 173.049ZM494.954 171.189V172.816C494.954 173.596 494.877 174.261 494.722 174.812C494.571 175.359 494.353 175.804 494.065 176.146C493.778 176.487 493.434 176.738 493.033 176.897C492.637 177.057 492.192 177.137 491.7 177.137C491.308 177.137 490.944 177.087 490.606 176.986C490.274 176.886 489.973 176.729 489.704 176.515C489.435 176.3 489.205 176.025 489.014 175.688C488.827 175.346 488.681 174.938 488.576 174.464C488.476 173.99 488.426 173.441 488.426 172.816V171.189C488.426 170.406 488.503 169.745 488.658 169.207C488.813 168.665 489.034 168.225 489.321 167.888C489.608 167.546 489.95 167.298 490.347 167.143C490.748 166.988 491.194 166.91 491.687 166.91C492.083 166.91 492.448 166.96 492.78 167.061C493.118 167.156 493.418 167.309 493.683 167.519C493.951 167.728 494.179 168.002 494.366 168.339C494.558 168.672 494.703 169.075 494.804 169.549C494.904 170.018 494.954 170.565 494.954 171.189ZM493.307 173.049V170.943C493.307 170.547 493.284 170.198 493.238 169.897C493.193 169.592 493.124 169.335 493.033 169.125C492.947 168.911 492.837 168.738 492.705 168.605C492.573 168.469 492.423 168.371 492.254 168.312C492.085 168.248 491.896 168.216 491.687 168.216C491.431 168.216 491.203 168.266 491.003 168.366C490.802 168.462 490.634 168.617 490.497 168.831C490.36 169.045 490.256 169.328 490.183 169.679C490.114 170.025 490.08 170.447 490.08 170.943V173.049C490.08 173.45 490.103 173.803 490.148 174.108C490.194 174.414 490.262 174.676 490.354 174.895C490.445 175.109 490.554 175.286 490.682 175.428C490.814 175.564 490.964 175.665 491.133 175.729C491.306 175.792 491.495 175.824 491.7 175.824C491.96 175.824 492.19 175.774 492.391 175.674C492.591 175.574 492.76 175.414 492.896 175.195C493.033 174.972 493.136 174.683 493.204 174.327C493.272 173.972 493.307 173.546 493.307 173.049Z" fill="white"/>
<rect x="105" y="199" width="391" height="1" fill="#D9D9D9" fill-opacity="0.14"/>
<path fill-rule="evenodd" clip-rule="evenodd" d="M119.411 223.121C119.781 223.493 119.779 224.095 119.407 224.465L118.296 225.569L112.876 230.894C112.512 231.251 111.932 231.257 111.56 230.908L109.867 229.318L109.851 229.303L108.722 228.193C108.347 227.825 108.342 227.224 108.71 226.849C109.078 226.475 109.679 226.47 110.053 226.838L111.175 227.941L112.196 228.899L116.962 224.216L118.068 223.117C118.44 222.747 119.042 222.749 119.411 223.121Z" fill="#21C179"/>
<path d="M140.681 222.033H140.79V223.106H140.681C140.011 223.106 139.45 223.216 138.999 223.435C138.548 223.649 138.19 223.938 137.926 224.303C137.661 224.663 137.47 225.068 137.352 225.52C137.238 225.971 137.181 226.429 137.181 226.894V228.356C137.181 228.799 137.233 229.19 137.338 229.532C137.443 229.869 137.586 230.154 137.769 230.387C137.951 230.619 138.156 230.795 138.384 230.913C138.616 231.032 138.858 231.091 139.108 231.091C139.4 231.091 139.66 231.036 139.888 230.927C140.116 230.813 140.307 230.656 140.462 230.455C140.621 230.25 140.742 230.008 140.824 229.73C140.906 229.452 140.947 229.147 140.947 228.814C140.947 228.518 140.911 228.233 140.838 227.96C140.765 227.682 140.653 227.436 140.503 227.222C140.353 227.003 140.163 226.832 139.936 226.709C139.712 226.581 139.446 226.518 139.136 226.518C138.785 226.518 138.457 226.604 138.151 226.777C137.851 226.946 137.602 227.169 137.406 227.447C137.215 227.721 137.105 228.019 137.078 228.343L136.408 228.336C136.472 227.826 136.59 227.39 136.764 227.03C136.941 226.666 137.16 226.369 137.42 226.142C137.684 225.909 137.978 225.741 138.302 225.636C138.63 225.526 138.976 225.472 139.341 225.472C139.838 225.472 140.266 225.565 140.626 225.752C140.986 225.939 141.282 226.189 141.515 226.504C141.747 226.814 141.918 227.165 142.027 227.557C142.141 227.944 142.198 228.343 142.198 228.753C142.198 229.222 142.132 229.662 142 230.072C141.868 230.482 141.67 230.842 141.405 231.152C141.146 231.462 140.824 231.704 140.441 231.877C140.059 232.05 139.614 232.137 139.108 232.137C138.571 232.137 138.101 232.027 137.7 231.809C137.299 231.585 136.966 231.289 136.702 230.92C136.438 230.551 136.24 230.141 136.107 229.689C135.975 229.238 135.909 228.78 135.909 228.315V227.721C135.909 227.019 135.98 226.331 136.121 225.656C136.262 224.982 136.506 224.371 136.853 223.824C137.203 223.277 137.689 222.842 138.309 222.519C138.928 222.195 139.719 222.033 140.681 222.033ZM143.784 231.33C143.784 231.116 143.85 230.936 143.982 230.79C144.119 230.64 144.315 230.564 144.57 230.564C144.826 230.564 145.019 230.64 145.151 230.79C145.288 230.936 145.356 231.116 145.356 231.33C145.356 231.54 145.288 231.717 145.151 231.863C145.019 232.009 144.826 232.082 144.57 232.082C144.315 232.082 144.119 232.009 143.982 231.863C143.85 231.717 143.784 231.54 143.784 231.33ZM143.791 225.294C143.791 225.08 143.857 224.9 143.989 224.754C144.126 224.604 144.322 224.528 144.577 224.528C144.832 224.528 145.026 224.604 145.158 224.754C145.295 224.9 145.363 225.08 145.363 225.294C145.363 225.504 145.295 225.681 145.158 225.827C145.026 225.973 144.832 226.046 144.577 226.046C144.322 226.046 144.126 225.973 143.989 225.827C143.857 225.681 143.791 225.504 143.791 225.294ZM148.938 226.401H149.841C150.283 226.401 150.647 226.328 150.935 226.183C151.226 226.032 151.443 225.829 151.584 225.574C151.73 225.314 151.803 225.023 151.803 224.699C151.803 224.316 151.739 223.995 151.611 223.735C151.484 223.476 151.292 223.28 151.037 223.147C150.782 223.015 150.458 222.949 150.066 222.949C149.711 222.949 149.396 223.02 149.123 223.161C148.854 223.298 148.642 223.494 148.487 223.749C148.337 224.004 148.262 224.305 148.262 224.651H146.997C146.997 224.146 147.125 223.685 147.38 223.271C147.635 222.856 147.993 222.525 148.453 222.279C148.918 222.033 149.456 221.91 150.066 221.91C150.668 221.91 151.194 222.017 151.646 222.231C152.097 222.441 152.448 222.756 152.698 223.175C152.949 223.59 153.074 224.107 153.074 224.727C153.074 224.977 153.015 225.246 152.896 225.533C152.783 225.816 152.603 226.08 152.356 226.326C152.115 226.572 151.8 226.775 151.413 226.935C151.026 227.09 150.561 227.167 150.019 227.167H148.938V226.401ZM148.938 227.44V226.682H150.019C150.652 226.682 151.176 226.757 151.591 226.907C152.006 227.058 152.331 227.258 152.568 227.509C152.81 227.759 152.979 228.035 153.074 228.336C153.174 228.632 153.225 228.928 153.225 229.225C153.225 229.689 153.145 230.102 152.985 230.462C152.83 230.822 152.609 231.127 152.322 231.378C152.04 231.629 151.707 231.818 151.324 231.945C150.941 232.073 150.524 232.137 150.073 232.137C149.64 232.137 149.232 232.075 148.85 231.952C148.471 231.829 148.136 231.651 147.845 231.419C147.553 231.182 147.325 230.893 147.161 230.551C146.997 230.204 146.915 229.81 146.915 229.368H148.18C148.18 229.715 148.255 230.018 148.405 230.277C148.56 230.537 148.779 230.74 149.062 230.886C149.349 231.027 149.686 231.098 150.073 231.098C150.461 231.098 150.793 231.032 151.071 230.899C151.354 230.763 151.57 230.558 151.721 230.284C151.876 230.011 151.953 229.667 151.953 229.252C151.953 228.837 151.867 228.498 151.693 228.233C151.52 227.965 151.274 227.766 150.955 227.639C150.641 227.507 150.269 227.44 149.841 227.44H148.938ZM161.216 226.23V227.748C161.216 228.564 161.143 229.252 160.997 229.812C160.851 230.373 160.642 230.824 160.368 231.166C160.095 231.508 159.764 231.756 159.377 231.911C158.994 232.062 158.561 232.137 158.078 232.137C157.695 232.137 157.342 232.089 157.019 231.993C156.695 231.897 156.403 231.745 156.144 231.535C155.888 231.321 155.67 231.043 155.487 230.701C155.305 230.359 155.166 229.945 155.07 229.457C154.975 228.969 154.927 228.4 154.927 227.748V226.23C154.927 225.415 155 224.731 155.146 224.18C155.296 223.628 155.508 223.186 155.781 222.854C156.055 222.516 156.383 222.275 156.766 222.129C157.153 221.983 157.586 221.91 158.064 221.91C158.452 221.91 158.807 221.958 159.131 222.054C159.459 222.145 159.751 222.293 160.006 222.498C160.261 222.699 160.478 222.967 160.655 223.305C160.838 223.637 160.977 224.045 161.072 224.528C161.168 225.011 161.216 225.579 161.216 226.23ZM159.944 227.953V226.019C159.944 225.572 159.917 225.18 159.862 224.843C159.812 224.501 159.737 224.209 159.637 223.968C159.536 223.726 159.409 223.53 159.254 223.38C159.104 223.229 158.928 223.12 158.728 223.052C158.532 222.979 158.311 222.942 158.064 222.942C157.764 222.942 157.497 222.999 157.265 223.113C157.032 223.223 156.836 223.398 156.677 223.64C156.522 223.881 156.403 224.198 156.321 224.59C156.239 224.982 156.198 225.458 156.198 226.019V227.953C156.198 228.4 156.223 228.794 156.273 229.136C156.328 229.478 156.408 229.774 156.513 230.024C156.618 230.271 156.745 230.473 156.896 230.633C157.046 230.792 157.219 230.911 157.415 230.988C157.616 231.061 157.837 231.098 158.078 231.098C158.388 231.098 158.659 231.038 158.892 230.92C159.124 230.801 159.318 230.617 159.473 230.366C159.632 230.111 159.751 229.785 159.828 229.389C159.906 228.988 159.944 228.509 159.944 227.953ZM170.314 228.097H167.655V227.023H170.314C170.829 227.023 171.246 226.941 171.565 226.777C171.884 226.613 172.117 226.385 172.263 226.094C172.413 225.802 172.488 225.469 172.488 225.096C172.488 224.754 172.413 224.433 172.263 224.132C172.117 223.831 171.884 223.59 171.565 223.407C171.246 223.22 170.829 223.127 170.314 223.127H167.963V232H166.644V222.047H170.314C171.066 222.047 171.702 222.177 172.222 222.437C172.741 222.696 173.135 223.056 173.404 223.517C173.673 223.972 173.808 224.494 173.808 225.082C173.808 225.72 173.673 226.265 173.404 226.716C173.135 227.167 172.741 227.511 172.222 227.748C171.702 227.98 171.066 228.097 170.314 228.097ZM175.893 222.047H177.171L180.432 230.161L183.686 222.047H184.971L180.924 232H179.926L175.893 222.047ZM175.476 222.047H176.604L176.788 228.117V232H175.476V222.047ZM184.253 222.047H185.381V232H184.068V228.117L184.253 222.047Z" fill="white"/>
<path d="M460.021 224.515L459.686 225.725H453.287L453.622 224.515H460.021ZM456.924 232L453.485 227.946L453.479 226.928H455.112C455.536 226.928 455.885 226.853 456.158 226.702C456.436 226.547 456.644 226.34 456.78 226.08C456.917 225.816 456.985 225.522 456.985 225.198C456.985 224.847 456.922 224.537 456.794 224.269C456.666 224 456.464 223.79 456.186 223.64C455.908 223.489 455.541 223.414 455.085 223.414H453.294L453.663 222.047H455.085C455.892 222.047 456.562 222.168 457.095 222.409C457.628 222.651 458.027 223.002 458.291 223.462C458.56 223.922 458.694 224.478 458.694 225.13C458.694 225.7 458.596 226.203 458.4 226.641C458.204 227.074 457.888 227.424 457.45 227.693C457.013 227.958 456.432 228.122 455.707 228.186L458.852 231.911V232H456.924ZM460.027 222.047L459.686 223.257H454.456L454.791 222.047H460.027ZM469.051 222.013V232H467.403V223.968L464.963 224.795V223.435L468.853 222.013H469.051ZM479.182 230.688V232H472.51V230.872L475.75 227.338C476.105 226.937 476.386 226.59 476.591 226.299C476.796 226.007 476.939 225.745 477.021 225.513C477.108 225.276 477.151 225.046 477.151 224.822C477.151 224.508 477.092 224.232 476.974 223.995C476.86 223.754 476.691 223.564 476.468 223.428C476.244 223.286 475.973 223.216 475.654 223.216C475.285 223.216 474.975 223.296 474.725 223.455C474.474 223.615 474.285 223.836 474.157 224.118C474.03 224.396 473.966 224.715 473.966 225.075H472.318C472.318 224.496 472.451 223.968 472.715 223.489C472.979 223.006 473.362 222.623 473.863 222.341C474.365 222.054 474.968 221.91 475.675 221.91C476.34 221.91 476.905 222.022 477.37 222.245C477.835 222.468 478.188 222.785 478.43 223.195C478.676 223.605 478.799 224.091 478.799 224.651C478.799 224.961 478.749 225.269 478.648 225.574C478.548 225.88 478.405 226.185 478.218 226.49C478.035 226.791 477.819 227.094 477.568 227.399C477.318 227.7 477.042 228.006 476.741 228.315L474.588 230.688H479.182ZM486.954 226.189V227.816C486.954 228.596 486.877 229.261 486.722 229.812C486.571 230.359 486.353 230.804 486.065 231.146C485.778 231.487 485.434 231.738 485.033 231.897C484.637 232.057 484.192 232.137 483.7 232.137C483.308 232.137 482.944 232.087 482.606 231.986C482.274 231.886 481.973 231.729 481.704 231.515C481.435 231.3 481.205 231.025 481.014 230.688C480.827 230.346 480.681 229.938 480.576 229.464C480.476 228.99 480.426 228.441 480.426 227.816V226.189C480.426 225.406 480.503 224.745 480.658 224.207C480.813 223.665 481.034 223.225 481.321 222.888C481.608 222.546 481.95 222.298 482.347 222.143C482.748 221.988 483.194 221.91 483.687 221.91C484.083 221.91 484.448 221.96 484.78 222.061C485.118 222.156 485.418 222.309 485.683 222.519C485.951 222.728 486.179 223.002 486.366 223.339C486.558 223.672 486.703 224.075 486.804 224.549C486.904 225.018 486.954 225.565 486.954 226.189ZM485.307 228.049V225.943C485.307 225.547 485.284 225.198 485.238 224.897C485.193 224.592 485.124 224.335 485.033 224.125C484.947 223.911 484.837 223.738 484.705 223.605C484.573 223.469 484.423 223.371 484.254 223.312C484.085 223.248 483.896 223.216 483.687 223.216C483.431 223.216 483.203 223.266 483.003 223.366C482.802 223.462 482.634 223.617 482.497 223.831C482.36 224.045 482.256 224.328 482.183 224.679C482.114 225.025 482.08 225.447 482.08 225.943V228.049C482.08 228.45 482.103 228.803 482.148 229.108C482.194 229.414 482.262 229.676 482.354 229.895C482.445 230.109 482.554 230.286 482.682 230.428C482.814 230.564 482.964 230.665 483.133 230.729C483.306 230.792 483.495 230.824 483.7 230.824C483.96 230.824 484.19 230.774 484.391 230.674C484.591 230.574 484.76 230.414 484.896 230.195C485.033 229.972 485.136 229.683 485.204 229.327C485.272 228.972 485.307 228.546 485.307 228.049ZM494.911 226.189V227.816C494.911 228.596 494.834 229.261 494.679 229.812C494.528 230.359 494.31 230.804 494.022 231.146C493.735 231.487 493.391 231.738 492.99 231.897C492.594 232.057 492.149 232.137 491.657 232.137C491.265 232.137 490.901 232.087 490.563 231.986C490.231 231.886 489.93 231.729 489.661 231.515C489.392 231.3 489.162 231.025 488.971 230.688C488.784 230.346 488.638 229.938 488.533 229.464C488.433 228.99 488.383 228.441 488.383 227.816V226.189C488.383 225.406 488.46 224.745 488.615 224.207C488.77 223.665 488.991 223.225 489.278 222.888C489.565 222.546 489.907 222.298 490.304 222.143C490.705 221.988 491.151 221.91 491.644 221.91C492.04 221.91 492.405 221.96 492.737 222.061C493.075 222.156 493.375 222.309 493.64 222.519C493.909 222.728 494.136 223.002 494.323 223.339C494.515 223.672 494.66 224.075 494.761 224.549C494.861 225.018 494.911 225.565 494.911 226.189ZM493.264 228.049V225.943C493.264 225.547 493.241 225.198 493.195 224.897C493.15 224.592 493.081 224.335 492.99 224.125C492.904 223.911 492.794 223.738 492.662 223.605C492.53 223.469 492.38 223.371 492.211 223.312C492.042 223.248 491.853 223.216 491.644 223.216C491.388 223.216 491.16 223.266 490.96 223.366C490.759 223.462 490.591 223.617 490.454 223.831C490.317 224.045 490.213 224.328 490.14 224.679C490.071 225.025 490.037 225.447 490.037 225.943V228.049C490.037 228.45 490.06 228.803 490.105 229.108C490.151 229.414 490.219 229.676 490.311 229.895C490.402 230.109 490.511 230.286 490.639 230.428C490.771 230.564 490.921 230.665 491.09 230.729C491.263 230.792 491.452 230.824 491.657 230.824C491.917 230.824 492.147 230.774 492.348 230.674C492.548 230.574 492.717 230.414 492.854 230.195C492.99 229.972 493.093 229.683 493.161 229.327C493.229 228.972 493.264 228.546 493.264 228.049Z" fill="white"/>
<rect x="105" y="254" width="391" height="1" fill="#D9D9D9" fill-opacity="0.14"/>
<g clip-path="url(#clip1_1_20004)">
<path d="M115.202 281.149C114.969 280.975 114.638 281.024 114.465 281.257C114.368 281.386 114.267 281.511 114.16 281.632C113.968 281.85 113.988 282.183 114.206 282.376C114.302 282.462 114.427 282.509 114.555 282.508C114.701 282.508 114.846 282.448 114.951 282.33C115.077 282.188 115.197 282.04 115.311 281.887C115.485 281.653 115.436 281.323 115.202 281.149ZM116.084 278.676C115.8 278.614 115.519 278.794 115.457 279.079C115.423 279.236 115.382 279.391 115.334 279.545C115.248 279.823 115.404 280.119 115.683 280.205C115.734 280.221 115.787 280.228 115.838 280.228C116.064 280.228 116.272 280.083 116.342 279.856C116.398 279.674 116.447 279.49 116.487 279.303C116.549 279.019 116.369 278.738 116.084 278.676ZM112.664 282.838C112.524 282.916 112.38 282.989 112.233 283.055C111.968 283.175 111.85 283.487 111.97 283.752C112.058 283.947 112.25 284.063 112.451 284.063C112.523 284.063 112.597 284.048 112.667 284.016C112.841 283.937 113.012 283.852 113.178 283.759C113.433 283.617 113.524 283.295 113.382 283.041C113.24 282.787 112.918 282.696 112.664 282.838ZM109.338 273.643V277.643L107.404 279.577C107.199 279.783 107.199 280.116 107.404 280.322C107.453 280.371 107.511 280.41 107.575 280.437C107.639 280.463 107.708 280.477 107.777 280.477C107.847 280.477 107.915 280.463 107.979 280.437C108.043 280.41 108.101 280.371 108.15 280.322L110.238 278.234C110.337 278.135 110.393 278.001 110.393 277.861V273.643C110.393 273.351 110.157 273.115 109.866 273.115C109.574 273.115 109.338 273.351 109.338 273.643Z" fill="#F19E06"/>
<path d="M116.082 272.245C115.791 272.245 115.555 272.481 115.555 272.772V274.237C114.327 272.312 112.184 271.111 109.859 271.111C108.056 271.111 106.361 271.813 105.086 273.088C103.812 274.363 103.109 276.058 103.109 277.861C103.109 279.664 103.812 281.359 105.086 282.634C106.361 283.909 108.056 284.611 109.859 284.611C109.864 284.611 109.868 284.611 109.873 284.611C109.877 284.611 109.881 284.611 109.886 284.611C110.076 284.611 110.268 284.603 110.456 284.588C110.746 284.563 110.962 284.308 110.938 284.018C110.913 283.728 110.659 283.512 110.368 283.537C110.209 283.55 110.047 283.557 109.886 283.557C109.881 283.557 109.877 283.557 109.873 283.557C109.868 283.557 109.864 283.557 109.859 283.557C106.719 283.557 104.164 281.002 104.164 277.861C104.164 274.721 106.719 272.166 109.859 272.166C111.883 272.166 113.745 273.245 114.762 274.961H113.312C113.021 274.961 112.785 275.197 112.785 275.488C112.785 275.78 113.021 276.016 113.312 276.016H114.922C115.232 276.016 115.535 275.931 115.799 275.769C115.816 275.76 115.831 275.75 115.847 275.739C116.306 275.437 116.609 274.917 116.609 274.328V272.772C116.609 272.481 116.373 272.245 116.082 272.245Z" fill="#F19E06"/>
</g>
<path d="M136.681 273.033H136.79V274.106H136.681C136.011 274.106 135.45 274.216 134.999 274.435C134.548 274.649 134.19 274.938 133.926 275.303C133.661 275.663 133.47 276.068 133.352 276.52C133.238 276.971 133.181 277.429 133.181 277.894V279.356C133.181 279.799 133.233 280.19 133.338 280.532C133.443 280.869 133.586 281.154 133.769 281.387C133.951 281.619 134.156 281.795 134.384 281.913C134.616 282.032 134.858 282.091 135.108 282.091C135.4 282.091 135.66 282.036 135.888 281.927C136.116 281.813 136.307 281.656 136.462 281.455C136.621 281.25 136.742 281.008 136.824 280.73C136.906 280.452 136.947 280.147 136.947 279.814C136.947 279.518 136.911 279.233 136.838 278.96C136.765 278.682 136.653 278.436 136.503 278.222C136.353 278.003 136.163 277.832 135.936 277.709C135.712 277.581 135.446 277.518 135.136 277.518C134.785 277.518 134.457 277.604 134.151 277.777C133.851 277.946 133.602 278.169 133.406 278.447C133.215 278.721 133.105 279.019 133.078 279.343L132.408 279.336C132.472 278.826 132.59 278.39 132.764 278.03C132.941 277.666 133.16 277.369 133.42 277.142C133.684 276.909 133.978 276.741 134.302 276.636C134.63 276.526 134.976 276.472 135.341 276.472C135.838 276.472 136.266 276.565 136.626 276.752C136.986 276.939 137.282 277.189 137.515 277.504C137.747 277.814 137.918 278.165 138.027 278.557C138.141 278.944 138.198 279.343 138.198 279.753C138.198 280.222 138.132 280.662 138 281.072C137.868 281.482 137.67 281.842 137.405 282.152C137.146 282.462 136.824 282.704 136.441 282.877C136.059 283.05 135.614 283.137 135.108 283.137C134.571 283.137 134.101 283.027 133.7 282.809C133.299 282.585 132.966 282.289 132.702 281.92C132.438 281.551 132.24 281.141 132.107 280.689C131.975 280.238 131.909 279.78 131.909 279.315V278.721C131.909 278.019 131.98 277.331 132.121 276.656C132.262 275.982 132.506 275.371 132.853 274.824C133.203 274.277 133.689 273.842 134.309 273.519C134.928 273.195 135.719 273.033 136.681 273.033ZM139.784 282.33C139.784 282.116 139.85 281.936 139.982 281.79C140.119 281.64 140.315 281.564 140.57 281.564C140.826 281.564 141.019 281.64 141.151 281.79C141.288 281.936 141.356 282.116 141.356 282.33C141.356 282.54 141.288 282.717 141.151 282.863C141.019 283.009 140.826 283.082 140.57 283.082C140.315 283.082 140.119 283.009 139.982 282.863C139.85 282.717 139.784 282.54 139.784 282.33ZM139.791 276.294C139.791 276.08 139.857 275.9 139.989 275.754C140.126 275.604 140.322 275.528 140.577 275.528C140.832 275.528 141.026 275.604 141.158 275.754C141.295 275.9 141.363 276.08 141.363 276.294C141.363 276.504 141.295 276.681 141.158 276.827C141.026 276.973 140.832 277.046 140.577 277.046C140.322 277.046 140.126 276.973 139.989 276.827C139.857 276.681 139.791 276.504 139.791 276.294ZM144.938 277.401H145.841C146.283 277.401 146.647 277.328 146.935 277.183C147.226 277.032 147.443 276.829 147.584 276.574C147.73 276.314 147.803 276.023 147.803 275.699C147.803 275.316 147.739 274.995 147.611 274.735C147.484 274.476 147.292 274.28 147.037 274.147C146.782 274.015 146.458 273.949 146.066 273.949C145.711 273.949 145.396 274.02 145.123 274.161C144.854 274.298 144.642 274.494 144.487 274.749C144.337 275.004 144.262 275.305 144.262 275.651H142.997C142.997 275.146 143.125 274.685 143.38 274.271C143.635 273.856 143.993 273.525 144.453 273.279C144.918 273.033 145.456 272.91 146.066 272.91C146.668 272.91 147.194 273.017 147.646 273.231C148.097 273.441 148.448 273.756 148.698 274.175C148.949 274.59 149.074 275.107 149.074 275.727C149.074 275.977 149.015 276.246 148.896 276.533C148.783 276.816 148.603 277.08 148.356 277.326C148.115 277.572 147.8 277.775 147.413 277.935C147.026 278.09 146.561 278.167 146.019 278.167H144.938V277.401ZM144.938 278.44V277.682H146.019C146.652 277.682 147.176 277.757 147.591 277.907C148.006 278.058 148.331 278.258 148.568 278.509C148.81 278.759 148.979 279.035 149.074 279.336C149.174 279.632 149.225 279.928 149.225 280.225C149.225 280.689 149.145 281.102 148.985 281.462C148.83 281.822 148.609 282.127 148.322 282.378C148.04 282.629 147.707 282.818 147.324 282.945C146.941 283.073 146.524 283.137 146.073 283.137C145.64 283.137 145.232 283.075 144.85 282.952C144.471 282.829 144.136 282.651 143.845 282.419C143.553 282.182 143.325 281.893 143.161 281.551C142.997 281.204 142.915 280.81 142.915 280.368H144.18C144.18 280.715 144.255 281.018 144.405 281.277C144.56 281.537 144.779 281.74 145.062 281.886C145.349 282.027 145.686 282.098 146.073 282.098C146.461 282.098 146.793 282.032 147.071 281.899C147.354 281.763 147.57 281.558 147.721 281.284C147.876 281.011 147.953 280.667 147.953 280.252C147.953 279.837 147.867 279.498 147.693 279.233C147.52 278.965 147.274 278.766 146.955 278.639C146.641 278.507 146.269 278.44 145.841 278.44H144.938ZM155.821 273.033H155.931V274.106H155.821C155.151 274.106 154.591 274.216 154.14 274.435C153.688 274.649 153.331 274.938 153.066 275.303C152.802 275.663 152.611 276.068 152.492 276.52C152.378 276.971 152.321 277.429 152.321 277.894V279.356C152.321 279.799 152.374 280.19 152.479 280.532C152.583 280.869 152.727 281.154 152.909 281.387C153.091 281.619 153.297 281.795 153.524 281.913C153.757 282.032 153.998 282.091 154.249 282.091C154.541 282.091 154.8 282.036 155.028 281.927C155.256 281.813 155.448 281.656 155.603 281.455C155.762 281.25 155.883 281.008 155.965 280.73C156.047 280.452 156.088 280.147 156.088 279.814C156.088 279.518 156.051 279.233 155.979 278.96C155.906 278.682 155.794 278.436 155.644 278.222C155.493 278.003 155.304 277.832 155.076 277.709C154.853 277.581 154.586 277.518 154.276 277.518C153.925 277.518 153.597 277.604 153.292 277.777C152.991 277.946 152.743 278.169 152.547 278.447C152.355 278.721 152.246 279.019 152.219 279.343L151.549 279.336C151.613 278.826 151.731 278.39 151.904 278.03C152.082 277.666 152.301 277.369 152.561 277.142C152.825 276.909 153.119 276.741 153.442 276.636C153.771 276.526 154.117 276.472 154.481 276.472C154.978 276.472 155.407 276.565 155.767 276.752C156.127 276.939 156.423 277.189 156.655 277.504C156.888 277.814 157.059 278.165 157.168 278.557C157.282 278.944 157.339 279.343 157.339 279.753C157.339 280.222 157.273 280.662 157.141 281.072C157.008 281.482 156.81 281.842 156.546 282.152C156.286 282.462 155.965 282.704 155.582 282.877C155.199 283.05 154.755 283.137 154.249 283.137C153.711 283.137 153.242 283.027 152.841 282.809C152.44 282.585 152.107 282.289 151.843 281.92C151.578 281.551 151.38 281.141 151.248 280.689C151.116 280.238 151.05 279.78 151.05 279.315V278.721C151.05 278.019 151.12 277.331 151.262 276.656C151.403 275.982 151.647 275.371 151.993 274.824C152.344 274.277 152.829 273.842 153.449 273.519C154.069 273.195 154.86 273.033 155.821 273.033ZM166.314 279.097H163.655V278.023H166.314C166.829 278.023 167.246 277.941 167.565 277.777C167.884 277.613 168.117 277.385 168.263 277.094C168.413 276.802 168.488 276.469 168.488 276.096C168.488 275.754 168.413 275.433 168.263 275.132C168.117 274.831 167.884 274.59 167.565 274.407C167.246 274.22 166.829 274.127 166.314 274.127H163.963V283H162.644V273.047H166.314C167.066 273.047 167.702 273.177 168.222 273.437C168.741 273.696 169.135 274.056 169.404 274.517C169.673 274.972 169.808 275.494 169.808 276.082C169.808 276.72 169.673 277.265 169.404 277.716C169.135 278.167 168.741 278.511 168.222 278.748C167.702 278.98 167.066 279.097 166.314 279.097ZM171.893 273.047H173.171L176.432 281.161L179.686 273.047H180.971L176.924 283H175.926L171.893 273.047ZM171.476 273.047H172.604L172.788 279.117V283H171.476V273.047ZM180.253 273.047H181.381V283H180.068V279.117L180.253 273.047Z" fill="white"/>
<path d="M460.021 278.515L459.686 279.725H453.287L453.622 278.515H460.021ZM456.924 286L453.485 281.946L453.479 280.928H455.112C455.536 280.928 455.885 280.853 456.158 280.702C456.436 280.547 456.644 280.34 456.78 280.08C456.917 279.816 456.985 279.522 456.985 279.198C456.985 278.847 456.922 278.537 456.794 278.269C456.666 278 456.464 277.79 456.186 277.64C455.908 277.489 455.541 277.414 455.085 277.414H453.294L453.663 276.047H455.085C455.892 276.047 456.562 276.168 457.095 276.409C457.628 276.651 458.027 277.002 458.291 277.462C458.56 277.922 458.694 278.478 458.694 279.13C458.694 279.7 458.596 280.203 458.4 280.641C458.204 281.074 457.888 281.424 457.45 281.693C457.013 281.958 456.432 282.122 455.707 282.186L458.852 285.911V286H456.924ZM460.027 276.047L459.686 277.257H454.456L454.791 276.047H460.027ZM469.051 276.013V286H467.403V277.968L464.963 278.795V277.435L468.853 276.013H469.051ZM477.486 275.985H477.691V277.332H477.575C476.987 277.332 476.479 277.423 476.051 277.605C475.627 277.788 475.278 278.038 475.005 278.357C474.731 278.676 474.526 279.05 474.39 279.479C474.257 279.902 474.191 280.354 474.191 280.832V282.397C474.191 282.794 474.235 283.145 474.321 283.45C474.408 283.751 474.529 284.004 474.684 284.209C474.843 284.41 475.025 284.562 475.23 284.667C475.436 284.772 475.657 284.824 475.894 284.824C476.14 284.824 476.363 284.774 476.563 284.674C476.764 284.569 476.935 284.425 477.076 284.243C477.217 284.061 477.325 283.844 477.397 283.594C477.47 283.343 477.507 283.07 477.507 282.773C477.507 282.491 477.47 282.227 477.397 281.98C477.329 281.73 477.227 281.511 477.09 281.324C476.953 281.133 476.782 280.985 476.577 280.88C476.377 280.771 476.144 280.716 475.88 280.716C475.552 280.716 475.253 280.793 474.984 280.948C474.72 281.103 474.506 281.306 474.342 281.557C474.182 281.803 474.096 282.065 474.082 282.343L473.453 282.138C473.49 281.714 473.583 281.333 473.733 280.996C473.888 280.659 474.091 280.372 474.342 280.135C474.592 279.898 474.882 279.718 475.21 279.595C475.543 279.467 475.907 279.403 476.304 279.403C476.787 279.403 477.206 279.494 477.562 279.677C477.917 279.859 478.211 280.107 478.443 280.422C478.68 280.732 478.856 281.087 478.97 281.488C479.088 281.885 479.147 282.299 479.147 282.732C479.147 283.211 479.075 283.658 478.929 284.072C478.783 284.482 478.569 284.842 478.286 285.152C478.008 285.462 477.669 285.704 477.268 285.877C476.871 286.05 476.42 286.137 475.914 286.137C475.381 286.137 474.905 286.034 474.485 285.829C474.071 285.624 473.717 285.341 473.426 284.981C473.139 284.621 472.92 284.207 472.77 283.737C472.619 283.268 472.544 282.771 472.544 282.247V281.563C472.544 280.807 472.64 280.094 472.831 279.424C473.022 278.749 473.316 278.155 473.713 277.64C474.114 277.125 474.627 276.721 475.251 276.43C475.875 276.133 476.62 275.985 477.486 275.985ZM486.954 280.189V281.816C486.954 282.596 486.877 283.261 486.722 283.812C486.571 284.359 486.353 284.804 486.065 285.146C485.778 285.487 485.434 285.738 485.033 285.897C484.637 286.057 484.192 286.137 483.7 286.137C483.308 286.137 482.944 286.087 482.606 285.986C482.274 285.886 481.973 285.729 481.704 285.515C481.435 285.3 481.205 285.025 481.014 284.688C480.827 284.346 480.681 283.938 480.576 283.464C480.476 282.99 480.426 282.441 480.426 281.816V280.189C480.426 279.406 480.503 278.745 480.658 278.207C480.813 277.665 481.034 277.225 481.321 276.888C481.608 276.546 481.95 276.298 482.347 276.143C482.748 275.988 483.194 275.91 483.687 275.91C484.083 275.91 484.448 275.96 484.78 276.061C485.118 276.156 485.418 276.309 485.683 276.519C485.951 276.728 486.179 277.002 486.366 277.339C486.558 277.672 486.703 278.075 486.804 278.549C486.904 279.018 486.954 279.565 486.954 280.189ZM485.307 282.049V279.943C485.307 279.547 485.284 279.198 485.238 278.897C485.193 278.592 485.124 278.335 485.033 278.125C484.947 277.911 484.837 277.738 484.705 277.605C484.573 277.469 484.423 277.371 484.254 277.312C484.085 277.248 483.896 277.216 483.687 277.216C483.431 277.216 483.203 277.266 483.003 277.366C482.802 277.462 482.634 277.617 482.497 277.831C482.36 278.045 482.256 278.328 482.183 278.679C482.114 279.025 482.08 279.447 482.08 279.943V282.049C482.08 282.45 482.103 282.803 482.148 283.108C482.194 283.414 482.262 283.676 482.354 283.895C482.445 284.109 482.554 284.286 482.682 284.428C482.814 284.564 482.964 284.665 483.133 284.729C483.306 284.792 483.495 284.824 483.7 284.824C483.96 284.824 484.19 284.774 484.391 284.674C484.591 284.574 484.76 284.414 484.896 284.195C485.033 283.972 485.136 283.683 485.204 283.327C485.272 282.972 485.307 282.546 485.307 282.049ZM494.911 280.189V281.816C494.911 282.596 494.834 283.261 494.679 283.812C494.528 284.359 494.31 284.804 494.022 285.146C493.735 285.487 493.391 285.738 492.99 285.897C492.594 286.057 492.149 286.137 491.657 286.137C491.265 286.137 490.901 286.087 490.563 285.986C490.231 285.886 489.93 285.729 489.661 285.515C489.392 285.3 489.162 285.025 488.971 284.688C488.784 284.346 488.638 283.938 488.533 283.464C488.433 282.99 488.383 282.441 488.383 281.816V280.189C488.383 279.406 488.46 278.745 488.615 278.207C488.77 277.665 488.991 277.225 489.278 276.888C489.565 276.546 489.907 276.298 490.304 276.143C490.705 275.988 491.151 275.91 491.644 275.91C492.04 275.91 492.405 275.96 492.737 276.061C493.075 276.156 493.375 276.309 493.64 276.519C493.909 276.728 494.136 277.002 494.323 277.339C494.515 277.672 494.66 278.075 494.761 278.549C494.861 279.018 494.911 279.565 494.911 280.189ZM493.264 282.049V279.943C493.264 279.547 493.241 279.198 493.195 278.897C493.15 278.592 493.081 278.335 492.99 278.125C492.904 277.911 492.794 277.738 492.662 277.605C492.53 277.469 492.38 277.371 492.211 277.312C492.042 277.248 491.853 277.216 491.644 277.216C491.388 277.216 491.16 277.266 490.96 277.366C490.759 277.462 490.591 277.617 490.454 277.831C490.317 278.045 490.213 278.328 490.14 278.679C490.071 279.025 490.037 279.447 490.037 279.943V282.049C490.037 282.45 490.06 282.803 490.105 283.108C490.151 283.414 490.219 283.676 490.311 283.895C490.402 284.109 490.511 284.286 490.639 284.428C490.771 284.564 490.921 284.665 491.09 284.729C491.263 284.792 491.452 284.824 491.657 284.824C491.917 284.824 492.147 284.774 492.348 284.674C492.548 284.574 492.717 284.414 492.854 284.195C492.99 283.972 493.093 283.683 493.161 283.327C493.229 282.972 493.264 282.546 493.264 282.049Z" fill="white"/>
<rect x="105" y="307" width="391" height="1" fill="#D9D9D9" fill-opacity="0.14"/>
</g>
<g filter="url(#filter0_d_1_20004)">
<rect x="189" y="85" width="222" height="78.1707" rx="39.0853" fill="#F6F8F8"/>
<rect x="189.5" y="85.5" width="221" height="77.1707" rx="38.5853" stroke="#EAEEF0"/>
<path d="M209.664 142.512L212.256 133.05C210.657 130.281 209.816 127.139 209.817 123.922C209.821 113.854 218.015 105.663 228.083 105.663C232.969 105.665 237.555 107.567 241.003 111.018C244.452 114.47 246.35 119.057 246.348 123.936C246.344 134.004 238.149 142.196 228.083 142.196C228.083 142.196 228.084 142.196 228.083 142.196H228.075C225.019 142.195 222.015 141.427 219.347 139.973L209.664 142.512Z" fill="url(#paint0_linear_1_20004)"/>
<path fill-rule="evenodd" clip-rule="evenodd" d="M241.464 110.547C237.891 106.972 233.141 105.002 228.08 105C217.651 105 209.163 113.484 209.159 123.913C209.158 127.247 210.029 130.501 211.684 133.369L209 143.171L219.03 140.541C221.794 142.048 224.905 142.842 228.072 142.843H228.08C238.507 142.843 246.996 134.357 247 123.928C247.002 118.875 245.036 114.123 241.464 110.547ZM228.08 139.649H228.073C225.251 139.647 222.484 138.889 220.07 137.457L219.495 137.116L213.543 138.677L215.132 132.876L214.758 132.281C213.183 129.778 212.352 126.885 212.353 123.915C212.357 115.247 219.411 108.195 228.086 108.195C232.286 108.196 236.234 109.834 239.204 112.805C242.173 115.777 243.807 119.726 243.806 123.927C243.802 132.595 236.747 139.649 228.08 139.649H228.08Z" fill="white"/>
<path fill-rule="evenodd" clip-rule="evenodd" d="M236.701 127.874C236.228 127.637 233.904 126.493 233.47 126.335C233.037 126.178 232.722 126.099 232.407 126.573C232.092 127.045 231.186 128.11 230.91 128.425C230.634 128.741 230.359 128.78 229.886 128.544C229.413 128.307 227.891 127.808 226.084 126.198C224.679 124.945 223.73 123.397 223.454 122.924C223.178 122.451 223.424 122.195 223.662 121.959C223.874 121.748 224.134 121.407 224.371 121.131C224.607 120.855 224.686 120.658 224.843 120.343C225.001 120.027 224.922 119.751 224.804 119.515C224.686 119.278 223.767 116.941 223.347 116.006C222.992 115.219 222.619 115.203 222.282 115.189C222.007 115.177 221.691 115.178 221.377 115.178C221.061 115.178 220.549 115.296 220.116 115.769C219.682 116.242 218.461 117.386 218.461 119.712C218.461 122.038 220.156 124.286 220.391 124.601C220.628 124.917 223.662 129.842 228.467 131.737C232.461 133.312 233.274 132.999 234.141 132.92C235.007 132.841 236.937 131.777 237.331 130.673C237.725 129.569 237.725 128.623 237.607 128.425C237.489 128.228 237.174 128.11 236.701 127.874Z" fill="white"/>
<path d="M307.922 137.543H292.089C287.339 137.543 284.172 135.168 284.172 129.626V118.543C284.172 113.001 287.339 110.626 292.089 110.626H307.922C312.672 110.626 315.839 113.001 315.839 118.543V129.626C315.839 135.168 312.672 137.543 307.922 137.543Z" stroke="#0D0E15" stroke-width="2.375" stroke-miterlimit="10" stroke-linecap="round" stroke-linejoin="round"/>
<path d="M307.911 119.335L302.956 123.293C301.325 124.592 298.649 124.592 297.018 123.293L292.078 119.335" stroke="#43BAF9" stroke-width="2.375" stroke-miterlimit="10" stroke-linecap="round" stroke-linejoin="round"/>
<path d="M387.791 134.107C387.791 134.677 387.664 135.263 387.395 135.833C387.126 136.403 386.778 136.941 386.319 137.448C385.543 138.303 384.688 138.92 383.722 139.316C382.772 139.712 381.743 139.918 380.634 139.918C379.019 139.918 377.294 139.538 375.473 138.762C373.652 137.986 371.831 136.941 370.026 135.627C368.205 134.297 366.479 132.824 364.833 131.193C363.202 129.547 361.729 127.821 360.415 126.016C359.117 124.211 358.072 122.406 357.312 120.617C356.552 118.812 356.172 117.086 356.172 115.439C356.172 114.363 356.362 113.333 356.742 112.383C357.122 111.418 357.724 110.531 358.563 109.739C359.576 108.742 360.684 108.251 361.856 108.251C362.299 108.251 362.743 108.346 363.139 108.536C363.55 108.726 363.914 109.011 364.199 109.423L367.873 114.6C368.158 114.996 368.364 115.36 368.506 115.708C368.649 116.041 368.728 116.373 368.728 116.674C368.728 117.054 368.617 117.434 368.395 117.798C368.189 118.163 367.889 118.543 367.509 118.923L366.305 120.173C366.131 120.348 366.052 120.553 366.052 120.807C366.052 120.933 366.068 121.044 366.099 121.171C366.147 121.298 366.194 121.393 366.226 121.488C366.511 122.01 367.002 122.691 367.699 123.514C368.411 124.338 369.171 125.177 369.994 126.016C370.849 126.855 371.673 127.631 372.512 128.343C373.335 129.04 374.016 129.515 374.554 129.8C374.634 129.832 374.729 129.879 374.839 129.927C374.966 129.974 375.093 129.99 375.235 129.99C375.504 129.99 375.71 129.895 375.884 129.721L377.088 128.533C377.484 128.138 377.864 127.837 378.228 127.647C378.592 127.425 378.956 127.314 379.352 127.314C379.653 127.314 379.969 127.378 380.318 127.52C380.666 127.663 381.03 127.868 381.426 128.138L386.667 131.858C387.079 132.143 387.364 132.476 387.538 132.872C387.696 133.268 387.791 133.663 387.791 134.107Z" stroke="#383F41" stroke-width="2.375" stroke-miterlimit="10"/>
<path d="M382.292 119.336C382.292 118.386 381.547 116.929 380.439 115.741C379.426 114.649 378.08 113.794 376.75 113.794" stroke="#23AFD4" stroke-width="2.375" stroke-linecap="round" stroke-linejoin="round"/>
<path d="M387.833 119.334C387.833 113.207 382.877 108.251 376.75 108.251" stroke="#23AFD4" stroke-width="2.375" stroke-linecap="round" stroke-linejoin="round"/>
</g>
</g>
<defs>
<filter id="filter0_d_1_20004" x="169" y="85" width="262" height="118.171" filterUnits="userSpaceOnUse" color-interpolation-filters="sRGB">
<feFlood flood-opacity="0" result="BackgroundImageFix"/>
<feColorMatrix in="SourceAlpha" type="matrix" values="0 0 0 0 0 0 0 0 0 0 0 0 0 0 0 0 0 0 127 0" result="hardAlpha"/>
<feMorphology radius="8" operator="erode" in="SourceAlpha" result="effect1_dropShadow_1_20004"/>
<feOffset dy="20"/>
<feGaussianBlur stdDeviation="14"/>
<feComposite in2="hardAlpha" operator="out"/>
<feColorMatrix type="matrix" values="0 0 0 0 0 0 0 0 0 0 0 0 0 0 0 0 0 0 0.25 0"/>
<feBlend mode="normal" in2="BackgroundImageFix" result="effect1_dropShadow_1_20004"/>
<feBlend mode="normal" in="SourceGraphic" in2="effect1_dropShadow_1_20004" result="shape"/>
</filter>
<linearGradient id="paint0_linear_1_20004" x1="228.006" y1="142.512" x2="228.006" y2="105.663" gradientUnits="userSpaceOnUse">
<stop stop-color="#20B038"/>
<stop offset="1" stop-color="#60D66A"/>
</linearGradient>
<clipPath id="clip0_1_20004">
<rect y="0.669922" width="600" height="320" rx="8" fill="white"/>
</clipPath>
<clipPath id="clip1_1_20004">
<rect width="13.5" height="13.5" fill="white" transform="translate(103.109 271.111)"/>
</clipPath>
</defs>
</svg>
