<svg width="404" height="353" viewBox="0 0 404 353" fill="none" xmlns="http://www.w3.org/2000/svg">
<path d="M1 13.582H0.5625V14.0195V352V352.438H1H403H403.438V352V14.0001V13.5626H403C400.888 13.5626 399.424 12.8225 398.27 11.7106C397.095 10.5792 396.235 9.05946 395.357 7.47054L395.261 7.29652C394.427 5.78596 393.565 4.22242 392.399 3.03228C391.166 1.77401 389.592 0.926527 387.367 0.926527C385.142 0.926527 383.566 1.77387 382.342 3.03346C381.147 4.26301 380.285 5.88881 379.459 7.44589L379.443 7.47712C378.598 9.06959 377.789 10.5893 376.689 11.7208C375.61 12.8304 374.254 13.5626 372.292 13.5626C370.33 13.5626 368.972 12.8307 367.875 11.7184C366.82 10.65 366.012 9.23992 365.155 7.74561C365.102 7.6521 365.048 7.55826 364.994 7.46415C364.09 5.89067 363.117 4.25165 361.75 3.01407C360.364 1.75944 358.586 0.926527 356.1 0.926527C353.615 0.926527 351.835 1.75915 350.465 3.01604C349.113 4.2568 348.176 5.89805 347.338 7.47711C347.224 7.69215 347.112 7.90566 347.002 8.11692C346.285 9.48345 345.617 10.7561 344.775 11.7415C343.826 12.8523 342.684 13.5626 341.025 13.5626C339.358 13.5626 338.066 12.844 336.927 11.715C335.812 10.6093 334.87 9.13931 333.887 7.60309L333.786 7.44604C332.779 5.87436 331.722 4.24724 330.41 3.01908C329.084 1.77742 327.482 0.926527 325.392 0.926527C323.298 0.926527 321.761 1.78051 320.519 3.02996C319.343 4.21302 318.416 5.76697 317.517 7.27566L317.409 7.45794C315.503 10.6531 313.665 13.5626 309.758 13.5626C305.859 13.5626 304.16 10.6655 302.321 7.46415L302.28 7.39237C300.501 4.29514 298.566 0.926527 294.125 0.926527C289.671 0.926527 287.319 4.31248 285.312 7.44605C285.199 7.62288 285.086 7.79891 284.975 7.97372C284.079 9.3791 283.235 10.7048 282.266 11.7244C281.191 12.8563 280.007 13.5626 278.492 13.5626C276.982 13.5626 275.872 12.8614 274.906 11.7401C274.031 10.725 273.307 9.40446 272.535 7.99808C272.439 7.82342 272.342 7.64743 272.244 7.47054C270.513 4.33655 268.447 0.926527 263.975 0.926527C259.552 0.926527 256.502 4.26611 254.067 7.41444C253.676 7.92105 253.301 8.42132 252.938 8.9055C252.151 9.95673 251.42 10.9321 250.696 11.732C249.627 12.9113 248.695 13.5626 247.783 13.5626C245.969 13.5626 244.644 12.8371 243.531 11.7173C242.433 10.6125 241.556 9.14218 240.636 7.59961L240.552 7.45794C238.689 4.33508 236.618 0.926527 232.15 0.926527C227.707 0.926527 225.078 4.29284 222.992 7.44036C222.717 7.85402 222.453 8.26309 222.195 8.66229C221.451 9.81394 220.76 10.8835 220.038 11.7444C219.065 12.9031 218.13 13.5626 217.075 13.5626C213.161 13.5626 211.185 10.6415 209.212 7.4519C209.14 7.33624 209.069 7.22021 208.997 7.10401C208.1 5.65029 207.187 4.16956 206.082 3.03346C204.873 1.78944 203.406 0.926527 201.442 0.926527C199.488 0.926527 197.854 1.78024 196.443 3.00842C195.039 4.23097 193.826 5.84964 192.709 7.4295C192.501 7.72485 192.295 8.01835 192.093 8.3079C191.2 9.58559 190.361 10.7865 189.498 11.7307C188.436 12.8937 187.43 13.5626 186.367 13.5626C182.169 13.5626 180.191 10.6311 178.224 7.4519C178.157 7.34325 178.09 7.23427 178.022 7.12511C177.121 5.66447 176.201 4.17234 175.055 3.02882C173.805 1.78062 172.269 0.926527 170.175 0.926527C168.093 0.926527 166.325 1.77056 164.79 2.99658C163.261 4.21784 161.942 5.83529 160.752 7.4193C160.414 7.87007 160.087 8.31619 159.769 8.75055C158.955 9.8614 158.197 10.8953 157.444 11.7333C156.386 12.9114 155.453 13.5626 154.542 13.5626C152.729 13.5626 151.442 12.8387 150.374 11.7232C149.354 10.658 148.549 9.2537 147.697 7.76723C147.639 7.66656 147.581 7.5655 147.523 7.46415C145.72 4.32473 143.652 0.926527 138.908 0.926527C134.17 0.926527 131.963 4.31411 130.154 7.46415C130.021 7.69515 129.891 7.92455 129.762 8.15144C128.995 9.50008 128.279 10.7601 127.429 11.7387C126.453 12.8615 125.343 13.5626 123.833 13.5626C121.723 13.5626 120.336 12.8243 119.281 11.7232C118.203 10.5972 117.464 9.08446 116.689 7.49081L116.673 7.45688C115.917 5.90168 115.124 4.27021 113.942 3.03587C112.728 1.76776 111.115 0.926527 108.758 0.926527C104.042 0.926527 101.413 4.28359 99.2547 7.43485C99.0476 7.73724 98.8451 8.03724 98.6458 8.33273C97.788 9.60386 96.9867 10.7915 96.1118 11.7269C95.0444 12.8682 93.9305 13.5626 92.5667 13.5626C90.7501 13.5626 89.3888 12.8355 88.2301 11.7117C87.055 10.5719 86.106 9.04243 85.1221 7.4519L85.1054 7.42501C84.1403 5.86481 83.1394 4.24683 81.8791 3.02437C80.595 1.77894 79.0251 0.926527 76.9333 0.926527C72.7368 0.926527 70.6672 4.34743 68.8769 7.46415C68.8086 7.58305 68.7407 7.70158 68.6731 7.81961C67.8324 9.28697 67.0364 10.6764 66.0868 11.7333C65.0757 12.8587 63.929 13.5626 62.4167 13.5626C57.6386 13.5626 55.3798 10.5936 53.3632 7.44605C53.2028 7.19567 53.0434 6.94328 52.884 6.6909C52.0545 5.37714 51.2251 4.06365 50.2499 3.03709C49.0667 1.79168 47.633 0.926527 45.6667 0.926527C43.7051 0.926527 42.2033 1.7872 40.9758 3.03111C39.7612 4.26193 38.7935 5.89024 37.8894 7.46415C37.8148 7.59395 37.7407 7.72334 37.667 7.85213C36.8333 9.3076 36.0431 10.6873 35.1294 11.7387C34.1452 12.8713 33.0689 13.5626 31.7083 13.5626C28.6431 13.5626 27.1305 13.2037 26.0793 12.193C25.5436 11.6779 25.1001 10.9673 24.6478 9.96945C24.1948 8.96997 23.7477 7.71698 23.1875 6.13229C22.0154 2.81656 19.2175 0.763233 16.1716 0.576418C13.1102 0.388657 9.88874 2.08797 7.86798 6.08053C6.31836 9.14225 4.90349 11.03 3.71538 12.1466C2.52367 13.2666 1.59272 13.582 1 13.582Z" fill="#0E2330" stroke="url(#paint0_linear_40_15453)" stroke-width="0.875"/>
<defs>
<linearGradient id="paint0_linear_40_15453" x1="206.37" y1="-61.6197" x2="196.49" y2="30.0683" gradientUnits="userSpaceOnUse">
<stop stop-color="white"/>
<stop offset="1" stop-color="white" stop-opacity="0"/>
</linearGradient>
</defs>
</svg>
