<svg width="315" height="145" viewBox="0 0 315 145" fill="none" xmlns="http://www.w3.org/2000/svg">
<path d="M38.014 45.1204C38.014 51.1336 35.8914 56.1401 31.6462 60.1534C27.4009 64.1666 22.2774 66.1733 16.2756 66.1733H1.19771C0.53897 66.1733 0 65.6297 0 64.9653V14.1753C0 13.5109 0.53897 12.9673 1.19771 12.9673H5.26993C5.92867 12.9673 6.46764 13.5109 6.46764 14.1753V22.8595C6.46764 23.5239 7.0066 24.0675 7.66535 24.0675H16.6083C20.7004 24.0675 24.4333 25.0541 27.8068 27.0271C31.187 29.0002 33.7887 31.7786 35.6119 35.3691C37.2155 38.4629 38.014 41.7111 38.014 45.1204ZM6.46764 58.1669C6.46764 58.8313 7.0066 59.3749 7.66535 59.3749H15.9362C20.208 59.3749 23.7812 58.0528 26.6757 55.4086C29.5635 52.7644 31.0074 49.3283 31.0074 45.1204C31.0074 40.9125 29.5302 37.2952 26.5759 34.4228C23.6149 31.5504 20.0084 30.1143 15.7366 30.1143H7.66535C7.0066 30.1143 6.46764 30.6579 6.46764 31.3223V58.1669Z" fill="white"/>
<path d="M61.6022 66.7773C55.4673 66.7773 50.1774 64.6901 45.7259 60.5225C41.2811 56.3481 39.0587 51.241 39.0587 45.1875C39.0587 39.134 41.2811 34 45.7259 29.7854C50.1774 25.5708 55.4673 23.4635 61.6022 23.4635C67.7372 23.4635 73.1136 25.5708 77.6116 29.7854C82.103 34 84.3454 39.134 84.3454 45.1875C84.3454 51.241 82.0964 56.3549 77.6116 60.5225C73.1202 64.6968 67.7838 66.7773 61.6022 66.7773ZM61.0433 29.725C56.8779 29.8458 53.2848 31.3491 50.2639 34.2215C47.1033 37.2281 45.5263 40.8789 45.5263 45.1875C45.5729 49.4961 47.1698 53.1067 50.3238 56.0126C53.4778 58.9319 57.2372 60.3883 61.5956 60.3883C65.9539 60.3883 69.7866 58.9319 72.9672 56.0126C76.1478 53.1 77.758 49.4894 77.8046 45.1875C77.8445 41.0266 76.3673 37.4764 73.3598 34.5369C70.0993 31.3424 65.588 29.5908 61.0433 29.725Z" fill="white"/>
<path d="M102.604 66.7773C96.4689 66.7773 91.179 64.6901 86.7275 60.5225C82.2827 56.3481 80.0603 51.241 80.0603 45.1875C80.0603 39.134 82.2827 34 86.7275 29.7854C91.179 25.5708 96.4689 23.4635 102.604 23.4635C108.739 23.4635 114.115 25.5708 118.613 29.7854C123.105 34 125.347 39.134 125.347 45.1875C125.347 51.241 123.098 56.3549 118.613 60.5225C114.122 64.6968 108.785 66.7773 102.604 66.7773ZM102.045 29.725C97.8795 29.8458 94.2864 31.3491 91.2589 34.2215C88.0983 37.2281 86.5213 40.8789 86.5213 45.1875C86.5678 49.4961 88.1648 53.1067 91.3188 56.0126C94.4727 58.9319 98.2322 60.3883 102.591 60.3883C106.949 60.3883 110.782 58.9319 113.962 56.0126C117.143 53.1 118.753 49.4894 118.8 45.1875C118.839 41.0266 117.362 37.4764 114.355 34.5369C111.094 31.3424 106.583 29.5908 102.038 29.725H102.045Z" fill="white"/>
<path d="M231.344 45.1204C231.344 51.1336 229.222 56.1401 224.977 60.1534C220.731 64.1666 215.608 66.1733 209.599 66.1733H194.521C193.863 66.1733 193.324 65.6297 193.324 64.9653V14.1753C193.324 13.5109 193.863 12.9673 194.521 12.9673H198.594C199.252 12.9673 199.791 13.5109 199.791 14.1753V22.8595C199.791 23.5239 200.33 24.0675 200.989 24.0675H209.932C214.024 24.0675 217.757 25.0541 221.137 27.0271C224.517 29.0002 227.119 31.7786 228.942 35.3691C230.546 38.4629 231.344 41.7111 231.344 45.1204ZM199.798 58.1669C199.798 58.8313 200.337 59.3749 200.996 59.3749H209.267C213.538 59.3749 217.112 58.0528 220.006 55.4086C222.894 52.7644 224.338 49.3283 224.338 45.1204C224.338 40.9125 222.861 37.2952 219.906 34.4228C216.945 31.5504 213.339 30.1143 209.067 30.1143H200.996C200.337 30.1143 199.798 30.6579 199.798 31.3223V58.1669Z" fill="white"/>
<path d="M254.926 66.7773C248.791 66.7773 243.495 64.6901 239.05 60.5225C234.605 56.3481 232.382 51.241 232.382 45.1875C232.382 39.134 234.605 34 239.05 29.7854C243.495 25.5708 248.791 23.4635 254.926 23.4635C261.061 23.4635 266.437 25.5708 270.935 29.7854C275.427 34 277.669 39.134 277.669 45.1875C277.669 51.241 275.42 56.3549 270.935 60.5225C266.444 64.6968 261.108 66.7773 254.926 66.7773ZM254.374 29.725C250.208 29.8458 246.615 31.3491 243.588 34.2215C240.427 37.2281 238.85 40.8789 238.85 45.1875C238.897 49.4961 240.494 53.1067 243.648 56.0126C246.802 58.9319 250.561 60.3883 254.919 60.3883C259.278 60.3883 263.11 58.9319 266.291 56.0126C269.472 53.1 271.082 49.4894 271.128 45.1875C271.168 41.0266 269.691 37.4764 266.684 34.5369C263.423 31.3424 258.912 29.5908 254.367 29.725H254.374Z" fill="white"/>
<path d="M313.747 66.1733H308.929C308.577 66.1733 308.244 66.0189 308.018 65.7505L296.872 52.61C296.393 52.0463 295.528 52.0463 295.049 52.61L283.984 65.7438C283.758 66.0122 283.425 66.1666 283.072 66.1666H278.182C277.183 66.1666 276.618 65.0055 277.237 64.2069L291.543 45.8586C291.882 45.4224 291.882 44.805 291.543 44.362L277.283 26.0809C276.664 25.2889 277.223 24.1212 278.228 24.1212H282.886C283.239 24.1212 283.571 24.2756 283.797 24.544L295.023 37.812C295.502 38.3757 296.367 38.3757 296.846 37.812L308.144 24.5373C308.371 24.2689 308.703 24.1145 309.056 24.1145H313.8C314.798 24.1145 315.357 25.2755 314.745 26.0674L300.506 44.4224C300.166 44.8587 300.166 45.4761 300.506 45.9123L314.705 64.2002C315.324 64.9921 314.758 66.1531 313.76 66.1531L313.747 66.1733Z" fill="white"/>
<path d="M46.9902 117.52C46.9902 124.95 44.3619 131.144 39.1186 136.103C33.8686 141.063 27.534 143.546 20.1149 143.546H0V77.7702H7.99804V91.4878H20.5274C25.5844 91.4878 30.2023 92.7092 34.3809 95.1453C38.5596 97.5882 41.7735 101.024 44.0292 105.454C46.0054 109.279 46.9968 113.299 46.9968 117.514L46.9902 117.52ZM7.99804 135.15H19.7023C24.9789 135.15 29.4038 133.513 32.977 130.245C36.5501 126.976 38.3334 122.735 38.3334 117.52C38.3334 112.306 36.5035 107.85 32.8505 104.299C29.1975 100.749 24.7327 98.9774 19.4561 98.9774H7.99804V135.15Z" fill="white"/>
<path d="M80.7523 144.217H71.0109V96.7225L56.6384 101.662V93.3803L79.5014 84.8974H80.7523V144.217Z" fill="white"/>
<path d="M162.2 66.9563H155.943V42.3704C155.943 38.8445 154.923 35.8428 152.791 33.4128C150.659 30.9828 147.971 29.7439 144.68 29.7439C141.389 29.7439 138.701 30.9828 136.569 33.3651C134.437 35.7951 133.417 38.7969 133.417 42.3704V66.9563H126.929V24.074H133.417V28.4575C135.549 26.6945 137.357 25.4557 138.933 24.7887C140.833 23.8834 142.965 23.4545 145.236 23.4545C148.156 23.4545 150.891 24.2169 153.393 25.7416C155.896 27.2663 157.518 29.2675 159.048 31.7928C160.809 29.3151 163.358 27.2663 166.046 25.7416C168.735 24.2169 171.469 23.4545 174.25 23.4545C178.19 23.4545 181.573 24.6934 184.493 27.171V4.44339L191.167 0.583984V86.7298L184.493 90.5892V42.2275C184.493 39.6545 183.103 34.9851 181.758 33.4604C179.626 31.0304 176.985 29.7916 173.74 29.7916C170.45 29.7916 167.715 30.9828 165.537 33.3651C163.358 35.7951 162.246 38.7016 162.246 42.1798L162.2 66.9563Z" fill="#03B1E4"/>
</svg>
