<svg width="117" height="49" viewBox="0 0 117 49" fill="none" xmlns="http://www.w3.org/2000/svg">
<g id="Vector">
<path d="M19.0962 48.7111H14.8351L9.97172 40.8461L5.15081 48.7111H0.847226L7.88241 37.4029L0.869718 26.1295H5.04584L9.94923 34.0617L14.8951 26.1295H19.1137L12.121 37.4377L19.0937 48.7136L19.0962 48.7111Z" fill="#FAFAFA"/>
<path d="M32.3493 49H28.5855V30.8774L23.0348 32.7621V29.6027L31.8669 26.3636H32.3493V49Z" fill="#FAFAFA"/>
<path d="M59.9903 19.5193H57.6811V11.2485C57.6811 10.041 57.2912 9.01773 56.5115 8.18119C55.7317 7.34465 54.7346 6.92637 53.5175 6.92637C52.3004 6.92637 51.3032 7.34216 50.5234 8.16874C49.7437 8.99781 49.3538 10.0236 49.3538 11.2485V19.5193H46.9746V4.97444H49.3538V6.4857C50.1336 5.8807 50.8083 5.46243 51.3857 5.23088C52.0854 4.92216 52.8652 4.76531 53.7199 4.76531C54.8095 4.76531 55.8142 5.02424 56.7314 5.54459C57.6486 6.06245 58.3883 6.75707 58.9507 7.62349C59.588 6.77201 60.4027 6.08236 61.3899 5.55454C62.3795 5.02922 63.3867 4.76531 64.4139 4.76531C66.1733 4.76531 67.6603 5.39022 68.8724 6.63508C70.087 7.88242 70.6943 9.38123 70.6943 11.1315V19.5193H68.3626V11.2485C68.3626 10.041 67.9727 9.01773 67.1954 8.18119C66.4182 7.34465 65.431 6.92637 64.2339 6.92637C63.0368 6.92637 62.0097 7.33718 61.2024 8.15878C60.3927 8.98038 59.9903 9.98623 59.9903 11.1788V19.5218V19.5193Z" fill="#FAFAFA"/>
<path d="M14.1229 11.7963C14.1229 14.0022 13.3331 15.8396 11.7561 17.3135C10.1791 18.7849 8.27478 19.5219 6.04551 19.5219H0.444853C0.199934 19.5219 0 19.3227 0 19.0787V0.443224C0 0.199232 0.199934 5.54852e-05 0.444853 5.54852e-05H1.95686C2.20177 5.54852e-05 2.40171 0.199232 2.40171 0.443224V3.62756C2.40171 3.87155 2.60164 4.07073 2.84656 4.07073H6.16797C7.68747 4.07073 9.07451 4.43174 10.3291 5.15624C11.5837 5.88075 12.5509 6.90153 13.2281 8.2161C13.8229 9.3514 14.1204 10.544 14.1204 11.7938M2.40421 16.584C2.40421 16.828 2.60414 17.0272 2.84906 17.0272H5.92305C7.50753 17.0272 8.83709 16.5417 9.91174 15.5707C10.9864 14.5997 11.5212 13.3399 11.5212 11.7938C11.5212 10.2477 10.9714 8.92317 9.87425 7.87003C8.77461 6.81688 7.43255 6.29155 5.84807 6.29155H2.84906C2.60414 6.29155 2.40421 6.49073 2.40421 6.73472V16.584Z" fill="#FAFAFA"/>
<path d="M22.8826 19.7434C20.6033 19.7434 18.639 18.979 16.9845 17.4479C15.3325 15.9167 14.5078 14.042 14.5078 11.8211C14.5078 9.60031 15.3325 7.7156 16.9845 6.16949C18.6365 4.62338 20.6033 3.84908 22.8826 3.84908C25.1618 3.84908 27.1587 4.62338 28.8281 6.16949C30.4951 7.7156 31.3298 9.60031 31.3298 11.8211C31.3298 14.042 30.4951 15.9167 28.8281 17.4479C27.1587 18.979 25.1768 19.7434 22.8826 19.7434ZM22.6751 6.14708C21.1281 6.1919 19.7936 6.74212 18.6715 7.79776C17.4968 8.9007 16.912 10.2402 16.912 11.8211C16.927 13.3996 17.5243 14.7266 18.6939 15.7947C19.8661 16.8653 21.2631 17.4006 22.8826 17.4006C24.502 17.4006 25.9241 16.8653 27.1062 15.7947C28.2858 14.7266 28.8856 13.4021 28.9031 11.8211C28.9181 10.2949 28.3683 8.99282 27.2511 7.91229C26.039 6.73963 24.3646 6.09729 22.6751 6.14708Z" fill="#FAFAFA"/>
<path d="M38.1125 19.7434C35.8333 19.7434 33.8689 18.979 32.2145 17.4479C30.5625 15.9167 29.7378 14.042 29.7378 11.8211C29.7378 9.60031 30.5625 7.7156 32.2145 6.16949C33.8664 4.62338 35.8333 3.84908 38.1125 3.84908C40.3918 3.84908 42.3886 4.62338 44.0581 6.16949C45.725 7.7156 46.5598 9.60031 46.5598 11.8211C46.5598 14.042 45.725 15.9167 44.0581 17.4479C42.3886 18.979 40.4068 19.7434 38.1125 19.7434ZM37.9051 6.14708C36.3581 6.1919 35.0236 6.74212 33.8989 7.79776C32.7243 8.9007 32.1395 10.2402 32.1395 11.8211C32.1545 13.3996 32.7493 14.7266 33.9214 15.7947C35.0935 16.8653 36.4906 17.4006 38.11 17.4006C39.7295 17.4006 41.1515 16.8653 42.3336 15.7947C43.5133 14.7266 44.1131 13.4021 44.1306 11.8211C44.1455 10.2949 43.5957 8.99282 42.4786 7.91229C41.2665 6.73963 39.592 6.09729 37.9026 6.14708H37.9051Z" fill="#FAFAFA"/>
<path d="M85.9343 11.7962C85.9343 14.0021 85.1446 15.8395 83.5676 17.3134C81.9906 18.7849 80.0862 19.5218 77.857 19.5218H72.2563C72.0114 19.5218 71.8115 19.3226 71.8115 19.0786V0.443168C71.8115 0.199177 72.0114 0 72.2563 0H73.7683C74.0132 0 74.2132 0.199177 74.2132 0.443168V3.62751C74.2132 3.8715 74.4131 4.07068 74.658 4.07068H77.9794C79.4989 4.07068 80.886 4.43168 82.1406 5.15619C83.3951 5.88069 84.3623 6.90147 85.0396 8.21604C85.6344 9.35135 85.9318 10.5439 85.9318 11.7938M74.2157 16.584C74.2157 16.8279 74.4156 17.0271 74.6605 17.0271H77.7345C79.319 17.0271 80.6486 16.5416 81.7232 15.5706C82.7978 14.5997 83.3327 13.3399 83.3327 11.7938C83.3327 10.2476 82.7828 8.92312 81.6857 7.86997C80.5861 6.81682 79.244 6.2915 77.6595 6.2915H74.6605C74.4156 6.2915 74.2157 6.49067 74.2157 6.73466V16.584Z" fill="#FAFAFA"/>
<path d="M94.6939 19.7434C92.4146 19.7434 90.4478 18.979 88.7958 17.4479C87.1439 15.9167 86.3191 14.042 86.3191 11.8211C86.3191 9.60031 87.1439 7.7156 88.7958 6.16949C90.4478 4.62338 92.4146 3.84908 94.6939 3.84908C96.9731 3.84908 98.97 4.62338 100.639 6.16949C102.306 7.7156 103.141 9.60031 103.141 11.8211C103.141 14.042 102.306 15.9167 100.639 17.4479C98.97 18.979 96.9881 19.7434 94.6939 19.7434ZM94.4865 6.14708C92.9395 6.1919 91.6049 6.74212 90.4803 7.79776C89.3057 8.9007 88.7208 10.2402 88.7208 11.8211C88.7358 13.3996 89.3306 14.7266 90.5028 15.7947C91.6749 16.8653 93.0719 17.4006 94.6914 17.4006C96.3109 17.4006 97.7329 16.8653 98.915 15.7947C100.095 14.7266 100.694 13.4021 100.712 11.8211C100.727 10.2949 100.177 8.99282 99.06 7.91229C97.8478 6.73963 96.1734 6.09729 94.484 6.14708H94.4865Z" fill="#FAFAFA"/>
<path d="M116.542 19.5193H114.752C114.622 19.5193 114.497 19.462 114.415 19.3649L110.274 14.5449C110.096 14.3382 109.774 14.3382 109.597 14.5449L105.485 19.3625C105.4 19.462 105.278 19.5193 105.145 19.5193H103.329C102.956 19.5193 102.749 19.0936 102.979 18.8023L108.292 12.0701C108.419 11.9083 108.419 11.6817 108.292 11.5224L102.994 4.81509C102.764 4.52379 102.971 4.09805 103.344 4.09805H105.073C105.203 4.09805 105.328 4.15531 105.413 4.2549L109.582 9.12228C109.759 9.32893 110.079 9.32893 110.259 9.12228L114.455 4.25241C114.54 4.15531 114.662 4.09805 114.792 4.09805H116.554C116.924 4.09805 117.134 4.52379 116.904 4.81509L111.616 11.5498C111.491 11.7116 111.491 11.9357 111.616 12.0975L116.889 18.8073C117.119 19.0985 116.909 19.5243 116.539 19.5243L116.542 19.5193Z" fill="#FAFAFA"/>
</g>
</svg>
