<svg width="315" height="144" viewBox="0 0 315 144" fill="none" xmlns="http://www.w3.org/2000/svg">
<path d="M38.014 44.5364C38.014 50.5496 35.8914 55.5561 31.6462 59.5694C27.4009 63.5826 22.2774 65.5893 16.2756 65.5893H1.19771C0.53897 65.5893 0 65.0457 0 64.3813V13.5913C0 12.9269 0.53897 12.3833 1.19771 12.3833H5.26993C5.92867 12.3833 6.46764 12.9269 6.46764 13.5913V22.2755C6.46764 22.9399 7.0066 23.4835 7.66535 23.4835H16.6083C20.7004 23.4835 24.4333 24.4701 27.8068 26.4431C31.187 28.4162 33.7887 31.1946 35.6119 34.7851C37.2155 37.879 38.014 41.1271 38.014 44.5364ZM6.46764 57.5829C6.46764 58.2473 7.0066 58.7909 7.66535 58.7909H15.9362C20.208 58.7909 23.7812 57.4688 26.6757 54.8246C29.5635 52.1804 31.0074 48.7443 31.0074 44.5364C31.0074 40.3285 29.5302 36.7112 26.5759 33.8388C23.6149 30.9665 20.0084 29.5303 15.7366 29.5303H7.66535C7.0066 29.5303 6.46764 30.0739 6.46764 30.7383V57.5829Z" fill="white"/>
<path d="M61.6022 66.1933C55.4673 66.1933 50.1774 64.1061 45.7259 59.9385C41.2811 55.7642 39.0587 50.657 39.0587 44.6035C39.0587 38.5501 41.2811 33.416 45.7259 29.2014C50.1774 24.9868 55.4673 22.8795 61.6022 22.8795C67.7372 22.8795 73.1136 24.9868 77.6116 29.2014C82.103 33.416 84.3454 38.5501 84.3454 44.6035C84.3454 50.657 82.0964 55.7709 77.6116 59.9385C73.1202 64.1128 67.7838 66.1933 61.6022 66.1933ZM61.0433 29.141C56.8779 29.2618 53.2848 30.7651 50.2639 33.6375C47.1033 36.6441 45.5263 40.295 45.5263 44.6035C45.5729 48.9121 47.1698 52.5227 50.3238 55.4286C53.4778 58.348 57.2372 59.8043 61.5956 59.8043C65.9539 59.8043 69.7866 58.348 72.9672 55.4286C76.1478 52.516 77.758 48.9054 77.8046 44.6035C77.8445 40.4426 76.3673 36.8924 73.3598 33.9529C70.0993 30.7584 65.588 29.0068 61.0433 29.141Z" fill="white"/>
<path d="M102.604 66.1933C96.4689 66.1933 91.179 64.1061 86.7275 59.9385C82.2827 55.7642 80.0603 50.657 80.0603 44.6035C80.0603 38.5501 82.2827 33.416 86.7275 29.2014C91.179 24.9868 96.4689 22.8795 102.604 22.8795C108.739 22.8795 114.115 24.9868 118.613 29.2014C123.105 33.416 125.347 38.5501 125.347 44.6035C125.347 50.657 123.098 55.7709 118.613 59.9385C114.122 64.1128 108.785 66.1933 102.604 66.1933ZM102.045 29.141C97.8795 29.2618 94.2864 30.7651 91.2589 33.6375C88.0983 36.6441 86.5213 40.295 86.5213 44.6035C86.5678 48.9121 88.1648 52.5227 91.3188 55.4286C94.4727 58.348 98.2322 59.8043 102.591 59.8043C106.949 59.8043 110.782 58.348 113.962 55.4286C117.143 52.516 118.753 48.9054 118.8 44.6035C118.839 40.4426 117.362 36.8924 114.355 33.9529C111.094 30.7584 106.583 29.0068 102.038 29.141H102.045Z" fill="white"/>
<path d="M231.344 44.5364C231.344 50.5496 229.222 55.5561 224.977 59.5694C220.731 63.5826 215.608 65.5893 209.599 65.5893H194.521C193.863 65.5893 193.324 65.0457 193.324 64.3813V13.5913C193.324 12.9269 193.863 12.3833 194.521 12.3833H198.594C199.252 12.3833 199.791 12.9269 199.791 13.5913V22.2755C199.791 22.9399 200.33 23.4835 200.989 23.4835H209.932C214.024 23.4835 217.757 24.4701 221.137 26.4431C224.517 28.4162 227.119 31.1946 228.942 34.7851C230.546 37.879 231.344 41.1271 231.344 44.5364ZM199.798 57.5829C199.798 58.2473 200.337 58.7909 200.996 58.7909H209.267C213.538 58.7909 217.112 57.4688 220.006 54.8246C222.894 52.1804 224.338 48.7443 224.338 44.5364C224.338 40.3285 222.861 36.7112 219.906 33.8388C216.945 30.9665 213.339 29.5303 209.067 29.5303H200.996C200.337 29.5303 199.798 30.0739 199.798 30.7383V57.5829Z" fill="white"/>
<path d="M254.926 66.1933C248.791 66.1933 243.495 64.1061 239.05 59.9385C234.605 55.7642 232.382 50.657 232.382 44.6035C232.382 38.5501 234.605 33.416 239.05 29.2014C243.495 24.9868 248.791 22.8795 254.926 22.8795C261.061 22.8795 266.437 24.9868 270.935 29.2014C275.427 33.416 277.669 38.5501 277.669 44.6035C277.669 50.657 275.42 55.7709 270.935 59.9385C266.444 64.1128 261.108 66.1933 254.926 66.1933ZM254.374 29.141C250.208 29.2618 246.615 30.7651 243.588 33.6375C240.427 36.6441 238.85 40.295 238.85 44.6035C238.897 48.9121 240.494 52.5227 243.648 55.4286C246.802 58.348 250.561 59.8043 254.919 59.8043C259.278 59.8043 263.11 58.348 266.291 55.4286C269.472 52.516 271.082 48.9054 271.128 44.6035C271.168 40.4426 269.691 36.8924 266.684 33.9529C263.423 30.7584 258.912 29.0068 254.367 29.141H254.374Z" fill="white"/>
<path d="M313.747 65.5893H308.929C308.577 65.5893 308.244 65.4349 308.018 65.1665L296.872 52.0261C296.393 51.4623 295.528 51.4623 295.049 52.0261L283.984 65.1598C283.758 65.4282 283.425 65.5826 283.072 65.5826H278.182C277.183 65.5826 276.618 64.4215 277.237 63.6229L291.543 45.2746C291.882 44.8384 291.882 44.221 291.543 43.778L277.283 25.4969C276.664 24.705 277.223 23.5372 278.228 23.5372H282.886C283.239 23.5372 283.571 23.6916 283.797 23.96L295.023 37.228C295.502 37.7917 296.367 37.7917 296.846 37.228L308.144 23.9533C308.37 23.6849 308.703 23.5305 309.056 23.5305H313.8C314.798 23.5305 315.357 24.6915 314.745 25.4835L300.506 43.8385C300.166 44.2747 300.166 44.8921 300.506 45.3283L314.705 63.6162C315.324 64.4081 314.758 65.5692 313.76 65.5692L313.747 65.5893Z" fill="white"/>
<path d="M80.7523 143.633H71.0109V96.1385L56.6384 101.078V92.7963L79.5014 84.3134H80.7523V143.633Z" fill="white"/>
<path d="M162.2 66.3723H155.943V41.7864C155.943 38.2605 154.923 35.2588 152.791 32.8288C150.659 30.3988 147.971 29.16 144.68 29.16C141.389 29.16 138.701 30.3988 136.569 32.7811C134.437 35.2111 133.417 38.2129 133.417 41.7864V66.3723H126.929V23.49H133.417V27.8735C135.549 26.1106 137.357 24.8717 138.933 24.2047C140.833 23.2994 142.965 22.8706 145.236 22.8706C148.156 22.8706 150.891 23.6329 153.393 25.1576C155.896 26.6823 157.518 28.6835 159.048 31.2088C160.809 28.7311 163.358 26.6823 166.046 25.1576C168.735 23.6329 171.469 22.8706 174.25 22.8706C178.19 22.8706 181.573 24.1094 184.493 26.587V3.8594L191.167 0V86.1458L184.493 90.0052V41.6435C184.493 39.0705 183.103 34.4011 181.758 32.8764C179.626 30.4464 176.985 29.2076 173.74 29.2076C170.45 29.2076 167.715 30.3988 165.537 32.7811C163.358 35.2111 162.246 38.1176 162.246 41.5958L162.2 66.3723Z" fill="#03B1E4"/>
<path d="M47.4941 142.994H36.4044L23.7471 122.447L11.2003 142.994H0L18.3095 113.451L0.0585385 84H10.9272L23.6885 104.723L36.5605 84H47.5397L29.3407 113.542L47.4876 143L47.4941 142.994Z" fill="white"/>
</svg>
