<svg width="1166" height="458" viewBox="0 0 1166 458" fill="none" xmlns="http://www.w3.org/2000/svg">
<g style="mix-blend-mode:soft-light" opacity="0.7">
<path d="M27.6316 1H1.18555V23.8233M27.6316 1V23.8233M27.6316 1H54.0777M27.6316 23.8233H1.18555M27.6316 23.8233V46.6466M27.6316 23.8233H54.0777M1.18555 23.8233V46.6466M27.6316 46.6466H1.18555M27.6316 46.6466V69.4699M27.6316 46.6466H54.0777M1.18555 46.6466V69.4699M27.6316 69.4699H1.18555M27.6316 69.4699V92.2932M27.6316 69.4699H54.0777M1.18555 69.4699V92.2932M27.6316 92.2932H1.18555M27.6316 92.2932V115.117M27.6316 92.2932H54.0777M1.18555 92.2932V115.117M27.6316 115.117H1.18555M27.6316 115.117V137.94M27.6316 115.117H54.0777M1.18555 115.117V137.94M27.6316 137.94H1.18555M27.6316 137.94V160.763M27.6316 137.94H54.0777M1.18555 137.94V160.763M27.6316 160.763H1.18555M27.6316 160.763V183.586M27.6316 160.763H54.0777M1.18555 160.763V183.586M27.6316 183.586H1.18555M27.6316 183.586V206.41M27.6316 183.586H54.0777M1.18555 183.586V206.41M27.6316 206.41H1.18555M27.6316 206.41V229.233M27.6316 206.41H54.0777M1.18555 206.41V229.233M27.6316 229.233H1.18555M27.6316 229.233V252.056M27.6316 229.233H54.0777M1.18555 229.233V252.056M27.6316 252.056H1.18555M27.6316 252.056V274.88M27.6316 252.056H54.0777M1.18555 252.056V274.88M27.6316 274.88H1.18555M27.6316 274.88V297.703M27.6316 274.88H54.0777M1.18555 274.88V297.703M27.6316 297.703H1.18555M27.6316 297.703V320.526M27.6316 297.703H54.0777M1.18555 297.703V320.526M27.6316 320.526H1.18555M27.6316 320.526V343.35M27.6316 320.526H54.0777M1.18555 320.526V343.35M27.6316 343.35H1.18555M27.6316 343.35V366.173M27.6316 343.35H54.0777M1.18555 343.35V366.173M27.6316 366.173H1.18555M27.6316 366.173V388.996M27.6316 366.173H54.0777M1.18555 366.173V388.996M27.6316 388.996H1.18555M27.6316 388.996V411.819M27.6316 388.996H54.0777M1.18555 388.996V411.819M27.6316 411.819H1.18555M27.6316 411.819V434.643M27.6316 411.819H54.0777M1.18555 411.819V434.643M27.6316 434.643H1.18555M27.6316 434.643V457.466M27.6316 434.643H54.0777M1.18555 434.643V457.466H27.6316M27.6316 457.466H54.0777M54.0777 1V23.8233M54.0777 1H80.5238M54.0777 23.8233V46.6466M54.0777 23.8233H80.5238M54.0777 46.6466V69.4699M54.0777 46.6466H80.5238M54.0777 69.4699V92.2932M54.0777 69.4699H80.5238M54.0777 92.2932V115.117M54.0777 92.2932H80.5238M54.0777 115.117V137.94M54.0777 115.117H80.5238M54.0777 137.94V160.763M54.0777 137.94H80.5238M54.0777 160.763V183.586M54.0777 160.763H80.5238M54.0777 183.586V206.41M54.0777 183.586H80.5238M54.0777 206.41V229.233M54.0777 206.41H80.5238M54.0777 229.233V252.056M54.0777 229.233H80.5238M54.0777 252.056V274.88M54.0777 252.056H80.5238M54.0777 274.88V297.703M54.0777 274.88H80.5238M54.0777 297.703V320.526M54.0777 297.703H80.5238M54.0777 320.526V343.35M54.0777 320.526H80.5238M54.0777 343.35V366.173M54.0777 343.35H80.5238M54.0777 366.173V388.996M54.0777 366.173H80.5238M54.0777 388.996V411.819M54.0777 388.996H80.5238M54.0777 411.819V434.643M54.0777 411.819H80.5238M54.0777 434.643V457.466M54.0777 434.643H80.5238M54.0777 457.466H80.5238M80.5238 1V23.8233M80.5238 1H106.97M80.5238 23.8233V46.6466M80.5238 23.8233H106.97M80.5238 46.6466V69.4699M80.5238 46.6466H106.97M80.5238 69.4699V92.2932M80.5238 69.4699H106.97M80.5238 92.2932V115.117M80.5238 92.2932H106.97M80.5238 115.117V137.94M80.5238 115.117H106.97M80.5238 137.94V160.763M80.5238 137.94H106.97M80.5238 160.763V183.586M80.5238 160.763H106.97M80.5238 183.586V206.41M80.5238 183.586H106.97M80.5238 206.41V229.233M80.5238 206.41H106.97M80.5238 229.233V252.056M80.5238 229.233H106.97M80.5238 252.056V274.88M80.5238 252.056H106.97M80.5238 274.88V297.703M80.5238 274.88H106.97M80.5238 297.703V320.526M80.5238 297.703H106.97M80.5238 320.526V343.35M80.5238 320.526H106.97M80.5238 343.35V366.173M80.5238 343.35H106.97M80.5238 366.173V388.996M80.5238 366.173H106.97M80.5238 388.996V411.819M80.5238 388.996H106.97M80.5238 411.819V434.643M80.5238 411.819H106.97M80.5238 434.643V457.466M80.5238 434.643H106.97M80.5238 457.466H106.97M106.97 1V23.8233M106.97 1H133.416M106.97 23.8233V46.6466M106.97 23.8233H133.416M106.97 46.6466V69.4699M106.97 46.6466H133.416M106.97 69.4699V92.2932M106.97 69.4699H133.416M106.97 92.2932V115.117M106.97 92.2932H133.416M106.97 115.117V137.94M106.97 115.117H133.416M106.97 137.94V160.763M106.97 137.94H133.416M106.97 160.763V183.586M106.97 160.763H133.416M106.97 183.586V206.41M106.97 183.586H133.416M106.97 206.41V229.233M106.97 206.41H133.416M106.97 229.233V252.056M106.97 229.233H133.416M106.97 252.056V274.88M106.97 252.056H133.416M106.97 274.88V297.703M106.97 274.88H133.416M106.97 297.703V320.526M106.97 297.703H133.416M106.97 320.526V343.35M106.97 320.526H133.416M106.97 343.35V366.173M106.97 343.35H133.416M106.97 366.173V388.996M106.97 366.173H133.416M106.97 388.996V411.819M106.97 388.996H133.416M106.97 411.819V434.643M106.97 411.819H133.416M106.97 434.643V457.466M106.97 434.643H133.416M106.97 457.466H133.416M133.416 1V23.8233M133.416 1H159.862M133.416 23.8233V46.6466M133.416 23.8233H159.862M133.416 46.6466V69.4699M133.416 46.6466H159.862M133.416 69.4699V92.2932M133.416 69.4699H159.862M133.416 92.2932V115.117M133.416 92.2932H159.862M133.416 115.117V137.94M133.416 115.117H159.862M133.416 137.94V160.763M133.416 137.94H159.862M133.416 160.763V183.586M133.416 160.763H159.862M133.416 183.586V206.41M133.416 183.586H159.862M133.416 206.41V229.233M133.416 206.41H159.862M133.416 229.233V252.056M133.416 229.233H159.862M133.416 252.056V274.88M133.416 252.056H159.862M133.416 274.88V297.703M133.416 274.88H159.862M133.416 297.703V320.526M133.416 297.703H159.862M133.416 320.526V343.35M133.416 320.526H159.862M133.416 343.35V366.173M133.416 343.35H159.862M133.416 366.173V388.996M133.416 366.173H159.862M133.416 388.996V411.819M133.416 388.996H159.862M133.416 411.819V434.643M133.416 411.819H159.862M133.416 434.643V457.466M133.416 434.643H159.862M133.416 457.466H159.862M159.862 1V23.8233M159.862 1H186.308M159.862 23.8233V46.6466M159.862 23.8233H186.308M159.862 46.6466V69.4699M159.862 46.6466H186.308M159.862 69.4699V92.2932M159.862 69.4699H186.308M159.862 92.2932V115.117M159.862 92.2932H186.308M159.862 115.117V137.94M159.862 115.117H186.308M159.862 137.94V160.763M159.862 137.94H186.308M159.862 160.763V183.586M159.862 160.763H186.308M159.862 183.586V206.41M159.862 183.586H186.308M159.862 206.41V229.233M159.862 206.41H186.308M159.862 229.233V252.056M159.862 229.233H186.308M159.862 252.056V274.88M159.862 252.056H186.308M159.862 274.88V297.703M159.862 274.88H186.308M159.862 297.703V320.526M159.862 297.703H186.308M159.862 320.526V343.35M159.862 320.526H186.308M159.862 343.35V366.173M159.862 343.35H186.308M159.862 366.173V388.996M159.862 366.173H186.308M159.862 388.996V411.819M159.862 388.996H186.308M159.862 411.819V434.643M159.862 411.819H186.308M159.862 434.643V457.466M159.862 434.643H186.308M159.862 457.466H186.308M186.308 1V23.8233M186.308 1H212.754M186.308 23.8233V46.6466M186.308 23.8233H212.754M186.308 46.6466V69.4699M186.308 46.6466H212.754M186.308 69.4699V92.2932M186.308 69.4699H212.754M186.308 92.2932V115.117M186.308 92.2932H212.754M186.308 115.117V137.94M186.308 115.117H212.754M186.308 137.94V160.763M186.308 137.94H212.754M186.308 160.763V183.586M186.308 160.763H212.754M186.308 183.586V206.41M186.308 183.586H212.754M186.308 206.41V229.233M186.308 206.41H212.754M186.308 229.233V252.056M186.308 229.233H212.754M186.308 252.056V274.88M186.308 252.056H212.754M186.308 274.88V297.703M186.308 274.88H212.754M186.308 297.703V320.526M186.308 297.703H212.754M186.308 320.526V343.35M186.308 320.526H212.754M186.308 343.35V366.173M186.308 343.35H212.754M186.308 366.173V388.996M186.308 366.173H212.754M186.308 388.996V411.819M186.308 388.996H212.754M186.308 411.819V434.643M186.308 411.819H212.754M186.308 434.643V457.466M186.308 434.643H212.754M186.308 457.466H212.754M212.754 1V23.8233M212.754 1H239.2M212.754 23.8233V46.6466M212.754 23.8233H239.2M212.754 46.6466V69.4699M212.754 46.6466H239.2M212.754 69.4699V92.2932M212.754 69.4699H239.2M212.754 92.2932V115.117M212.754 92.2932H239.2M212.754 115.117V137.94M212.754 115.117H239.2M212.754 137.94V160.763M212.754 137.94H239.2M212.754 160.763V183.586M212.754 160.763H239.2M212.754 183.586V206.41M212.754 183.586H239.2M212.754 206.41V229.233M212.754 206.41H239.2M212.754 229.233V252.056M212.754 229.233H239.2M212.754 252.056V274.88M212.754 252.056H239.2M212.754 274.88V297.703M212.754 274.88H239.2M212.754 297.703V320.526M212.754 297.703H239.2M212.754 320.526V343.35M212.754 320.526H239.2M212.754 343.35V366.173M212.754 343.35H239.2M212.754 366.173V388.996M212.754 366.173H239.2M212.754 388.996V411.819M212.754 388.996H239.2M212.754 411.819V434.643M212.754 411.819H239.2M212.754 434.643V457.466M212.754 434.643H239.2M212.754 457.466H239.2M239.2 1V23.8233M239.2 1H265.646M239.2 23.8233V46.6466M239.2 23.8233H265.646M239.2 46.6466V69.4699M239.2 46.6466H265.646M239.2 69.4699V92.2932M239.2 69.4699H265.646M239.2 92.2932V115.117M239.2 92.2932H265.646M239.2 115.117V137.94M239.2 115.117H265.646M239.2 137.94V160.763M239.2 137.94H265.646M239.2 160.763V183.586M239.2 160.763H265.646M239.2 183.586V206.41M239.2 183.586H265.646M239.2 206.41V229.233M239.2 206.41H265.646M239.2 229.233V252.056M239.2 229.233H265.646M239.2 252.056V274.88M239.2 252.056H265.646M239.2 274.88V297.703M239.2 274.88H265.646M239.2 297.703V320.526M239.2 297.703H265.646M239.2 320.526V343.35M239.2 320.526H265.646M239.2 343.35V366.173M239.2 343.35H265.646M239.2 366.173V388.996M239.2 366.173H265.646M239.2 388.996V411.819M239.2 388.996H265.646M239.2 411.819V434.643M239.2 411.819H265.646M239.2 434.643V457.466M239.2 434.643H265.646M239.2 457.466H265.646M265.646 1V23.8233M265.646 1H292.093M265.646 23.8233V46.6466M265.646 23.8233H292.093M265.646 46.6466V69.4699M265.646 46.6466H292.093M265.646 69.4699V92.2932M265.646 69.4699H292.093M265.646 92.2932V115.117M265.646 92.2932H292.093M265.646 115.117V137.94M265.646 115.117H292.093M265.646 137.94V160.763M265.646 137.94H292.093M265.646 160.763V183.586M265.646 160.763H292.093M265.646 183.586V206.41M265.646 183.586H292.093M265.646 206.41V229.233M265.646 206.41H292.093M265.646 229.233V252.056M265.646 229.233H292.093M265.646 252.056V274.88M265.646 252.056H292.093M265.646 274.88V297.703M265.646 274.88H292.093M265.646 297.703V320.526M265.646 297.703H292.093M265.646 320.526V343.35M265.646 320.526H292.093M265.646 343.35V366.173M265.646 343.35H292.093M265.646 366.173V388.996M265.646 366.173H292.093M265.646 388.996V411.819M265.646 388.996H292.093M265.646 411.819V434.643M265.646 411.819H292.093M265.646 434.643V457.466M265.646 434.643H292.093M265.646 457.466H292.093M292.093 1V23.8233M292.093 1H318.539M292.093 23.8233V46.6466M292.093 23.8233H318.539M292.093 46.6466V69.4699M292.093 46.6466H318.539M292.093 69.4699V92.2932M292.093 69.4699H318.539M292.093 92.2932V115.117M292.093 92.2932H318.539M292.093 115.117V137.94M292.093 115.117H318.539M292.093 137.94V160.763M292.093 137.94H318.539M292.093 160.763V183.586M292.093 160.763H318.539M292.093 183.586V206.41M292.093 183.586H318.539M292.093 206.41V229.233M292.093 206.41H318.539M292.093 229.233V252.056M292.093 229.233H318.539M292.093 252.056V274.88M292.093 252.056H318.539M292.093 274.88V297.703M292.093 274.88H318.539M292.093 297.703V320.526M292.093 297.703H318.539M292.093 320.526V343.35M292.093 320.526H318.539M292.093 343.35V366.173M292.093 343.35H318.539M292.093 366.173V388.996M292.093 366.173H318.539M292.093 388.996V411.819M292.093 388.996H318.539M292.093 411.819V434.643M292.093 411.819H318.539M292.093 434.643V457.466M292.093 434.643H318.539M292.093 457.466H318.539M318.539 1V23.8233M318.539 1H344.985M318.539 23.8233V46.6466M318.539 23.8233H344.985M318.539 46.6466V69.4699M318.539 46.6466H344.985M318.539 69.4699V92.2932M318.539 69.4699H344.985M318.539 92.2932V115.117M318.539 92.2932H344.985M318.539 115.117V137.94M318.539 115.117H344.985M318.539 137.94V160.763M318.539 137.94H344.985M318.539 160.763V183.586M318.539 160.763H344.985M318.539 183.586V206.41M318.539 183.586H344.985M318.539 206.41V229.233M318.539 206.41H344.985M318.539 229.233V252.056M318.539 229.233H344.985M318.539 252.056V274.88M318.539 252.056H344.985M318.539 274.88V297.703M318.539 274.88H344.985M318.539 297.703V320.526M318.539 297.703H344.985M318.539 320.526V343.35M318.539 320.526H344.985M318.539 343.35V366.173M318.539 343.35H344.985M318.539 366.173V388.996M318.539 366.173H344.985M318.539 388.996V411.819M318.539 388.996H344.985M318.539 411.819V434.643M318.539 411.819H344.985M318.539 434.643V457.466M318.539 434.643H344.985M318.539 457.466H344.985M344.985 1V23.8233M344.985 1H371.431M344.985 23.8233V46.6466M344.985 23.8233H371.431M344.985 46.6466V69.4699M344.985 46.6466H371.431M344.985 69.4699V92.2932M344.985 69.4699H371.431M344.985 92.2932V115.117M344.985 92.2932H371.431M344.985 115.117V137.94M344.985 115.117H371.431M344.985 137.94V160.763M344.985 137.94H371.431M344.985 160.763V183.586M344.985 160.763H371.431M344.985 183.586V206.41M344.985 183.586H371.431M344.985 206.41V229.233M344.985 206.41H371.431M344.985 229.233V252.056M344.985 229.233H371.431M344.985 252.056V274.88M344.985 252.056H371.431M344.985 274.88V297.703M344.985 274.88H371.431M344.985 297.703V320.526M344.985 297.703H371.431M344.985 320.526V343.35M344.985 320.526H371.431M344.985 343.35V366.173M344.985 343.35H371.431M344.985 366.173V388.996M344.985 366.173H371.431M344.985 388.996V411.819M344.985 388.996H371.431M344.985 411.819V434.643M344.985 411.819H371.431M344.985 434.643V457.466M344.985 434.643H371.431M344.985 457.466H371.431M371.431 1V23.8233M371.431 1H397.877M371.431 23.8233V46.6466M371.431 23.8233H397.877M371.431 46.6466V69.4699M371.431 46.6466H397.877M371.431 69.4699V92.2932M371.431 69.4699H397.877M371.431 92.2932V115.117M371.431 92.2932H397.877M371.431 115.117V137.94M371.431 115.117H397.877M371.431 137.94V160.763M371.431 137.94H397.877M371.431 160.763V183.586M371.431 160.763H397.877M371.431 183.586V206.41M371.431 183.586H397.877M371.431 206.41V229.233M371.431 206.41H397.877M371.431 229.233V252.056M371.431 229.233H397.877M371.431 252.056V274.88M371.431 252.056H397.877M371.431 274.88V297.703M371.431 274.88H397.877M371.431 297.703V320.526M371.431 297.703H397.877M371.431 320.526V343.35M371.431 320.526H397.877M371.431 343.35V366.173M371.431 343.35H397.877M371.431 366.173V388.996M371.431 366.173H397.877M371.431 388.996V411.819M371.431 388.996H397.877M371.431 411.819V434.643M371.431 411.819H397.877M371.431 434.643V457.466M371.431 434.643H397.877M371.431 457.466H397.877M397.877 1V23.8233M397.877 1H424.323M397.877 23.8233V46.6466M397.877 23.8233H424.323M397.877 46.6466V69.4699M397.877 46.6466H424.323M397.877 69.4699V92.2932M397.877 69.4699H424.323M397.877 92.2932V115.117M397.877 92.2932H424.323M397.877 115.117V137.94M397.877 115.117H424.323M397.877 137.94V160.763M397.877 137.94H424.323M397.877 160.763V183.586M397.877 160.763H424.323M397.877 183.586V206.41M397.877 183.586H424.323M397.877 206.41V229.233M397.877 206.41H424.323M397.877 229.233V252.056M397.877 229.233H424.323M397.877 252.056V274.88M397.877 252.056H424.323M397.877 274.88V297.703M397.877 274.88H424.323M397.877 297.703V320.526M397.877 297.703H424.323M397.877 320.526V343.35M397.877 320.526H424.323M397.877 343.35V366.173M397.877 343.35H424.323M397.877 366.173V388.996M397.877 366.173H424.323M397.877 388.996V411.819M397.877 388.996H424.323M397.877 411.819V434.643M397.877 411.819H424.323M397.877 434.643V457.466M397.877 434.643H424.323M397.877 457.466H424.323M424.323 1V23.8233M424.323 1H450.769M424.323 23.8233V46.6466M424.323 23.8233H450.769M424.323 46.6466V69.4699M424.323 46.6466H450.769M424.323 69.4699V92.2932M424.323 69.4699H450.769M424.323 92.2932V115.117M424.323 92.2932H450.769M424.323 115.117V137.94M424.323 115.117H450.769M424.323 137.94V160.763M424.323 137.94H450.769M424.323 160.763V183.586M424.323 160.763H450.769M424.323 183.586V206.41M424.323 183.586H450.769M424.323 206.41V229.233M424.323 206.41H450.769M424.323 229.233V252.056M424.323 229.233H450.769M424.323 252.056V274.88M424.323 252.056H450.769M424.323 274.88V297.703M424.323 274.88H450.769M424.323 297.703V320.526M424.323 297.703H450.769M424.323 320.526V343.35M424.323 320.526H450.769M424.323 343.35V366.173M424.323 343.35H450.769M424.323 366.173V388.996M424.323 366.173H450.769M424.323 388.996V411.819M424.323 388.996H450.769M424.323 411.819V434.643M424.323 411.819H450.769M424.323 434.643V457.466M424.323 434.643H450.769M424.323 457.466H450.769M450.769 1V23.8233M450.769 1H477.215M450.769 23.8233V46.6466M450.769 23.8233H477.215M450.769 46.6466V69.4699M450.769 46.6466H477.215M450.769 69.4699V92.2932M450.769 69.4699H477.215M450.769 92.2932V115.117M450.769 92.2932H477.215M450.769 115.117V137.94M450.769 115.117H477.215M450.769 137.94V160.763M450.769 137.94H477.215M450.769 160.763V183.586M450.769 160.763H477.215M450.769 183.586V206.41M450.769 183.586H477.215M450.769 206.41V229.233M450.769 206.41H477.215M450.769 229.233V252.056M450.769 229.233H477.215M450.769 252.056V274.88M450.769 252.056H477.215M450.769 274.88V297.703M450.769 274.88H477.215M450.769 297.703V320.526M450.769 297.703H477.215M450.769 320.526V343.35M450.769 320.526H477.215M450.769 343.35V366.173M450.769 343.35H477.215M450.769 366.173V388.996M450.769 366.173H477.215M450.769 388.996V411.819M450.769 388.996H477.215M450.769 411.819V434.643M450.769 411.819H477.215M450.769 434.643V457.466M450.769 434.643H477.215M450.769 457.466H477.215M477.215 1V23.8233M477.215 1H503.661M477.215 23.8233V46.6466M477.215 23.8233H503.661M477.215 46.6466V69.4699M477.215 46.6466H503.661M477.215 69.4699V92.2932M477.215 69.4699H503.661M477.215 92.2932V115.117M477.215 92.2932H503.661M477.215 115.117V137.94M477.215 115.117H503.661M477.215 137.94V160.763M477.215 137.94H503.661M477.215 160.763V183.586M477.215 160.763H503.661M477.215 183.586V206.41M477.215 183.586H503.661M477.215 206.41V229.233M477.215 206.41H503.661M477.215 229.233V252.056M477.215 229.233H503.661M477.215 252.056V274.88M477.215 252.056H503.661M477.215 274.88V297.703M477.215 274.88H503.661M477.215 297.703V320.526M477.215 297.703H503.661M477.215 320.526V343.35M477.215 320.526H503.661M477.215 343.35V366.173M477.215 343.35H503.661M477.215 366.173V388.996M477.215 366.173H503.661M477.215 388.996V411.819M477.215 388.996H503.661M477.215 411.819V434.643M477.215 411.819H503.661M477.215 434.643V457.466M477.215 434.643H503.661M477.215 457.466H503.661M503.661 1V23.8233M503.661 1H530.107M503.661 23.8233V46.6466M503.661 23.8233H530.107M503.661 46.6466V69.4699M503.661 46.6466H530.107M503.661 69.4699V92.2932M503.661 69.4699H530.107M503.661 92.2932V115.117M503.661 92.2932H530.107M503.661 115.117V137.94M503.661 115.117H530.107M503.661 137.94V160.763M503.661 137.94H530.107M503.661 160.763V183.586M503.661 160.763H530.107M503.661 183.586V206.41M503.661 183.586H530.107M503.661 206.41V229.233M503.661 206.41H530.107M503.661 229.233V252.056M503.661 229.233H530.107M503.661 252.056V274.88M503.661 252.056H530.107M503.661 274.88V297.703M503.661 274.88H530.107M503.661 297.703V320.526M503.661 297.703H530.107M503.661 320.526V343.35M503.661 320.526H530.107M503.661 343.35V366.173M503.661 343.35H530.107M503.661 366.173V388.996M503.661 366.173H530.107M503.661 388.996V411.819M503.661 388.996H530.107M503.661 411.819V434.643M503.661 411.819H530.107M503.661 434.643V457.466M503.661 434.643H530.107M503.661 457.466H530.107M530.107 1V23.8233M530.107 1H556.553M530.107 23.8233V46.6466M530.107 23.8233H556.553M530.107 46.6466V69.4699M530.107 46.6466H556.553M530.107 69.4699V92.2932M530.107 69.4699H556.553M530.107 92.2932V115.117M530.107 92.2932H556.553M530.107 115.117V137.94M530.107 115.117H556.553M530.107 137.94V160.763M530.107 137.94H556.553M530.107 160.763V183.586M530.107 160.763H556.553M530.107 183.586V206.41M530.107 183.586H556.553M530.107 206.41V229.233M530.107 206.41H556.553M530.107 229.233V252.056M530.107 229.233H556.553M530.107 252.056V274.88M530.107 252.056H556.553M530.107 274.88V297.703M530.107 274.88H556.553M530.107 297.703V320.526M530.107 297.703H556.553M530.107 320.526V343.35M530.107 320.526H556.553M530.107 343.35V366.173M530.107 343.35H556.553M530.107 366.173V388.996M530.107 366.173H556.553M530.107 388.996V411.819M530.107 388.996H556.553M530.107 411.819V434.643M530.107 411.819H556.553M530.107 434.643V457.466M530.107 434.643H556.553M530.107 457.466H556.553M556.553 1V23.8233M556.553 1H583M556.553 23.8233V46.6466M556.553 23.8233H583M556.553 46.6466V69.4699M556.553 46.6466H583M556.553 69.4699V92.2932M556.553 69.4699H583M556.553 92.2932V115.117M556.553 92.2932H583M556.553 115.117V137.94M556.553 115.117H583M556.553 137.94V160.763M556.553 137.94H583M556.553 160.763V183.586M556.553 160.763H583M556.553 183.586V206.41M556.553 183.586H583M556.553 206.41V229.233M556.553 206.41H583M556.553 229.233V252.056M556.553 229.233H583M556.553 252.056V274.88M556.553 252.056H583M556.553 274.88V297.703M556.553 274.88H583M556.553 297.703V320.526M556.553 297.703H583M556.553 320.526V343.35M556.553 320.526H583M556.553 343.35V366.173M556.553 343.35H583M556.553 366.173V388.996M556.553 366.173H583M556.553 388.996V411.819M556.553 388.996H583M556.553 411.819V434.643M556.553 411.819H583M556.553 434.643V457.466M556.553 434.643H583M556.553 457.466H583M583 1V23.8233M583 1H609.446M583 23.8233V46.6466M583 23.8233H609.446M583 46.6466V69.4699M583 46.6466H609.446M583 69.4699V92.2932M583 69.4699H609.446M583 92.2932V115.117M583 92.2932H609.446M583 115.117V137.94M583 115.117H609.446M583 137.94V160.763M583 137.94H609.446M583 160.763V183.586M583 160.763H609.446M583 183.586V206.41M583 183.586H609.446M583 206.41V229.233M583 206.41H609.446M583 229.233V252.056M583 229.233H609.446M583 252.056V274.88M583 252.056H609.446M583 274.88V297.703M583 274.88H609.446M583 297.703V320.526M583 297.703H609.446M583 320.526V343.35M583 320.526H609.446M583 343.35V366.173M583 343.35H609.446M583 366.173V388.996M583 366.173H609.446M583 388.996V411.819M583 388.996H609.446M583 411.819V434.643M583 411.819H609.446M583 434.643V457.466M583 434.643H609.446M583 457.466H609.446M609.446 1V23.8233M609.446 1H635.892M609.446 23.8233V46.6466M609.446 23.8233H635.892M609.446 46.6466V69.4699M609.446 46.6466H635.892M609.446 69.4699V92.2932M609.446 69.4699H635.892M609.446 92.2932V115.117M609.446 92.2932H635.892M609.446 115.117V137.94M609.446 115.117H635.892M609.446 137.94V160.763M609.446 137.94H635.892M609.446 160.763V183.586M609.446 160.763H635.892M609.446 183.586V206.41M609.446 183.586H635.892M609.446 206.41V229.233M609.446 206.41H635.892M609.446 229.233V252.056M609.446 229.233H635.892M609.446 252.056V274.88M609.446 252.056H635.892M609.446 274.88V297.703M609.446 274.88H635.892M609.446 297.703V320.526M609.446 297.703H635.892M609.446 320.526V343.35M609.446 320.526H635.892M609.446 343.35V366.173M609.446 343.35H635.892M609.446 366.173V388.996M609.446 366.173H635.892M609.446 388.996V411.819M609.446 388.996H635.892M609.446 411.819V434.643M609.446 411.819H635.892M609.446 434.643V457.466M609.446 434.643H635.892M609.446 457.466H635.892M635.892 1V23.8233M635.892 1H662.338M635.892 23.8233V46.6466M635.892 23.8233H662.338M635.892 46.6466V69.4699M635.892 46.6466H662.338M635.892 69.4699V92.2932M635.892 69.4699H662.338M635.892 92.2932V115.117M635.892 92.2932H662.338M635.892 115.117V137.94M635.892 115.117H662.338M635.892 137.94V160.763M635.892 137.94H662.338M635.892 160.763V183.586M635.892 160.763H662.338M635.892 183.586V206.41M635.892 183.586H662.338M635.892 206.41V229.233M635.892 206.41H662.338M635.892 229.233V252.056M635.892 229.233H662.338M635.892 252.056V274.88M635.892 252.056H662.338M635.892 274.88V297.703M635.892 274.88H662.338M635.892 297.703V320.526M635.892 297.703H662.338M635.892 320.526V343.35M635.892 320.526H662.338M635.892 343.35V366.173M635.892 343.35H662.338M635.892 366.173V388.996M635.892 366.173H662.338M635.892 388.996V411.819M635.892 388.996H662.338M635.892 411.819V434.643M635.892 411.819H662.338M635.892 434.643V457.466M635.892 434.643H662.338M635.892 457.466H662.338M662.338 1V23.8233M662.338 1H688.784M662.338 23.8233V46.6466M662.338 23.8233H688.784M662.338 46.6466V69.4699M662.338 46.6466H688.784M662.338 69.4699V92.2932M662.338 69.4699H688.784M662.338 92.2932V115.117M662.338 92.2932H688.784M662.338 115.117V137.94M662.338 115.117H688.784M662.338 137.94V160.763M662.338 137.94H688.784M662.338 160.763V183.586M662.338 160.763H688.784M662.338 183.586V206.41M662.338 183.586H688.784M662.338 206.41V229.233M662.338 206.41H688.784M662.338 229.233V252.056M662.338 229.233H688.784M662.338 252.056V274.88M662.338 252.056H688.784M662.338 274.88V297.703M662.338 274.88H688.784M662.338 297.703V320.526M662.338 297.703H688.784M662.338 320.526V343.35M662.338 320.526H688.784M662.338 343.35V366.173M662.338 343.35H688.784M662.338 366.173V388.996M662.338 366.173H688.784M662.338 388.996V411.819M662.338 388.996H688.784M662.338 411.819V434.643M662.338 411.819H688.784M662.338 434.643V457.466M662.338 434.643H688.784M662.338 457.466H688.784M688.784 1V23.8233M688.784 1H715.23M688.784 23.8233V46.6466M688.784 23.8233H715.23M688.784 46.6466V69.4699M688.784 46.6466H715.23M688.784 69.4699V92.2932M688.784 69.4699H715.23M688.784 92.2932V115.117M688.784 92.2932H715.23M688.784 115.117V137.94M688.784 115.117H715.23M688.784 137.94V160.763M688.784 137.94H715.23M688.784 160.763V183.586M688.784 160.763H715.23M688.784 183.586V206.41M688.784 183.586H715.23M688.784 206.41V229.233M688.784 206.41H715.23M688.784 229.233V252.056M688.784 229.233H715.23M688.784 252.056V274.88M688.784 252.056H715.23M688.784 274.88V297.703M688.784 274.88H715.23M688.784 297.703V320.526M688.784 297.703H715.23M688.784 320.526V343.35M688.784 320.526H715.23M688.784 343.35V366.173M688.784 343.35H715.23M688.784 366.173V388.996M688.784 366.173H715.23M688.784 388.996V411.819M688.784 388.996H715.23M688.784 411.819V434.643M688.784 411.819H715.23M688.784 434.643V457.466M688.784 434.643H715.23M688.784 457.466H715.23M715.23 1V23.8233M715.23 1H741.676M715.23 23.8233V46.6466M715.23 23.8233H741.676M715.23 46.6466V69.4699M715.23 46.6466H741.676M715.23 69.4699V92.2932M715.23 69.4699H741.676M715.23 92.2932V115.117M715.23 92.2932H741.676M715.23 115.117V137.94M715.23 115.117H741.676M715.23 137.94V160.763M715.23 137.94H741.676M715.23 160.763V183.586M715.23 160.763H741.676M715.23 183.586V206.41M715.23 183.586H741.676M715.23 206.41V229.233M715.23 206.41H741.676M715.23 229.233V252.056M715.23 229.233H741.676M715.23 252.056V274.88M715.23 252.056H741.676M715.23 274.88V297.703M715.23 274.88H741.676M715.23 297.703V320.526M715.23 297.703H741.676M715.23 320.526V343.35M715.23 320.526H741.676M715.23 343.35V366.173M715.23 343.35H741.676M715.23 366.173V388.996M715.23 366.173H741.676M715.23 388.996V411.819M715.23 388.996H741.676M715.23 411.819V434.643M715.23 411.819H741.676M715.23 434.643V457.466M715.23 434.643H741.676M715.23 457.466H741.676M741.676 1V23.8233M741.676 1H768.122M741.676 23.8233V46.6466M741.676 23.8233H768.122M741.676 46.6466V69.4699M741.676 46.6466H768.122M741.676 69.4699V92.2932M741.676 69.4699H768.122M741.676 92.2932V115.117M741.676 92.2932H768.122M741.676 115.117V137.94M741.676 115.117H768.122M741.676 137.94V160.763M741.676 137.94H768.122M741.676 160.763V183.586M741.676 160.763H768.122M741.676 183.586V206.41M741.676 183.586H768.122M741.676 206.41V229.233M741.676 206.41H768.122M741.676 229.233V252.056M741.676 229.233H768.122M741.676 252.056V274.88M741.676 252.056H768.122M741.676 274.88V297.703M741.676 274.88H768.122M741.676 297.703V320.526M741.676 297.703H768.122M741.676 320.526V343.35M741.676 320.526H768.122M741.676 343.35V366.173M741.676 343.35H768.122M741.676 366.173V388.996M741.676 366.173H768.122M741.676 388.996V411.819M741.676 388.996H768.122M741.676 411.819V434.643M741.676 411.819H768.122M741.676 434.643V457.466M741.676 434.643H768.122M741.676 457.466H768.122M768.122 1V23.8233M768.122 1H794.568M768.122 23.8233V46.6466M768.122 23.8233H794.568M768.122 46.6466V69.4699M768.122 46.6466H794.568M768.122 69.4699V92.2932M768.122 69.4699H794.568M768.122 92.2932V115.117M768.122 92.2932H794.568M768.122 115.117V137.94M768.122 115.117H794.568M768.122 137.94V160.763M768.122 137.94H794.568M768.122 160.763V183.586M768.122 160.763H794.568M768.122 183.586V206.41M768.122 183.586H794.568M768.122 206.41V229.233M768.122 206.41H794.568M768.122 229.233V252.056M768.122 229.233H794.568M768.122 252.056V274.88M768.122 252.056H794.568M768.122 274.88V297.703M768.122 274.88H794.568M768.122 297.703V320.526M768.122 297.703H794.568M768.122 320.526V343.35M768.122 320.526H794.568M768.122 343.35V366.173M768.122 343.35H794.568M768.122 366.173V388.996M768.122 366.173H794.568M768.122 388.996V411.819M768.122 388.996H794.568M768.122 411.819V434.643M768.122 411.819H794.568M768.122 434.643V457.466M768.122 434.643H794.568M768.122 457.466H794.568M794.568 1V23.8233M794.568 1H821.014M794.568 23.8233V46.6466M794.568 23.8233H821.014M794.568 46.6466V69.4699M794.568 46.6466H821.014M794.568 69.4699V92.2932M794.568 69.4699H821.014M794.568 92.2932V115.117M794.568 92.2932H821.014M794.568 115.117V137.94M794.568 115.117H821.014M794.568 137.94V160.763M794.568 137.94H821.014M794.568 160.763V183.586M794.568 160.763H821.014M794.568 183.586V206.41M794.568 183.586H821.014M794.568 206.41V229.233M794.568 206.41H821.014M794.568 229.233V252.056M794.568 229.233H821.014M794.568 252.056V274.88M794.568 252.056H821.014M794.568 274.88V297.703M794.568 274.88H821.014M794.568 297.703V320.526M794.568 297.703H821.014M794.568 320.526V343.35M794.568 320.526H821.014M794.568 343.35V366.173M794.568 343.35H821.014M794.568 366.173V388.996M794.568 366.173H821.014M794.568 388.996V411.819M794.568 388.996H821.014M794.568 411.819V434.643M794.568 411.819H821.014M794.568 434.643V457.466M794.568 434.643H821.014M794.568 457.466H821.014M821.014 1V23.8233M821.014 1H847.46M821.014 23.8233V46.6466M821.014 23.8233H847.46M821.014 46.6466V69.4699M821.014 46.6466H847.46M821.014 69.4699V92.2932M821.014 69.4699H847.46M821.014 92.2932V115.117M821.014 92.2932H847.46M821.014 115.117V137.94M821.014 115.117H847.46M821.014 137.94V160.763M821.014 137.94H847.46M821.014 160.763V183.586M821.014 160.763H847.46M821.014 183.586V206.41M821.014 183.586H847.46M821.014 206.41V229.233M821.014 206.41H847.46M821.014 229.233V252.056M821.014 229.233H847.46M821.014 252.056V274.88M821.014 252.056H847.46M821.014 274.88V297.703M821.014 274.88H847.46M821.014 297.703V320.526M821.014 297.703H847.46M821.014 320.526V343.35M821.014 320.526H847.46M821.014 343.35V366.173M821.014 343.35H847.46M821.014 366.173V388.996M821.014 366.173H847.46M821.014 388.996V411.819M821.014 388.996H847.46M821.014 411.819V434.643M821.014 411.819H847.46M821.014 434.643V457.466M821.014 434.643H847.46M821.014 457.466H847.46M847.46 1V23.8233M847.46 1H873.907M847.46 23.8233V46.6466M847.46 23.8233H873.907M847.46 46.6466V69.4699M847.46 46.6466H873.907M847.46 69.4699V92.2932M847.46 69.4699H873.907M847.46 92.2932V115.117M847.46 92.2932H873.907M847.46 115.117V137.94M847.46 115.117H873.907M847.46 137.94V160.763M847.46 137.94H873.907M847.46 160.763V183.586M847.46 160.763H873.907M847.46 183.586V206.41M847.46 183.586H873.907M847.46 206.41V229.233M847.46 206.41H873.907M847.46 229.233V252.056M847.46 229.233H873.907M847.46 252.056V274.88M847.46 252.056H873.907M847.46 274.88V297.703M847.46 274.88H873.907M847.46 297.703V320.526M847.46 297.703H873.907M847.46 320.526V343.35M847.46 320.526H873.907M847.46 343.35V366.173M847.46 343.35H873.907M847.46 366.173V388.996M847.46 366.173H873.907M847.46 388.996V411.819M847.46 388.996H873.907M847.46 411.819V434.643M847.46 411.819H873.907M847.46 434.643V457.466M847.46 434.643H873.907M847.46 457.466H873.907M873.907 1V23.8233M873.907 1H900.353M873.907 23.8233V46.6466M873.907 23.8233H900.353M873.907 46.6466V69.4699M873.907 46.6466H900.353M873.907 69.4699V92.2932M873.907 69.4699H900.353M873.907 92.2932V115.117M873.907 92.2932H900.353M873.907 115.117V137.94M873.907 115.117H900.353M873.907 137.94V160.763M873.907 137.94H900.353M873.907 160.763V183.586M873.907 160.763H900.353M873.907 183.586V206.41M873.907 183.586H900.353M873.907 206.41V229.233M873.907 206.41H900.353M873.907 229.233V252.056M873.907 229.233H900.353M873.907 252.056V274.88M873.907 252.056H900.353M873.907 274.88V297.703M873.907 274.88H900.353M873.907 297.703V320.526M873.907 297.703H900.353M873.907 320.526V343.35M873.907 320.526H900.353M873.907 343.35V366.173M873.907 343.35H900.353M873.907 366.173V388.996M873.907 366.173H900.353M873.907 388.996V411.819M873.907 388.996H900.353M873.907 411.819V434.643M873.907 411.819H900.353M873.907 434.643V457.466M873.907 434.643H900.353M873.907 457.466H900.353M900.353 1V23.8233M900.353 1H926.799M900.353 23.8233V46.6466M900.353 23.8233H926.799M900.353 46.6466V69.4699M900.353 46.6466H926.799M900.353 69.4699V92.2932M900.353 69.4699H926.799M900.353 92.2932V115.117M900.353 92.2932H926.799M900.353 115.117V137.94M900.353 115.117H926.799M900.353 137.94V160.763M900.353 137.94H926.799M900.353 160.763V183.586M900.353 160.763H926.799M900.353 183.586V206.41M900.353 183.586H926.799M900.353 206.41V229.233M900.353 206.41H926.799M900.353 229.233V252.056M900.353 229.233H926.799M900.353 252.056V274.88M900.353 252.056H926.799M900.353 274.88V297.703M900.353 274.88H926.799M900.353 297.703V320.526M900.353 297.703H926.799M900.353 320.526V343.35M900.353 320.526H926.799M900.353 343.35V366.173M900.353 343.35H926.799M900.353 366.173V388.996M900.353 366.173H926.799M900.353 388.996V411.819M900.353 388.996H926.799M900.353 411.819V434.643M900.353 411.819H926.799M900.353 434.643V457.466M900.353 434.643H926.799M900.353 457.466H926.799M926.799 1V23.8233M926.799 1H953.245M926.799 23.8233V46.6466M926.799 23.8233H953.245M926.799 46.6466V69.4699M926.799 46.6466H953.245M926.799 69.4699V92.2932M926.799 69.4699H953.245M926.799 92.2932V115.117M926.799 92.2932H953.245M926.799 115.117V137.94M926.799 115.117H953.245M926.799 137.94V160.763M926.799 137.94H953.245M926.799 160.763V183.586M926.799 160.763H953.245M926.799 183.586V206.41M926.799 183.586H953.245M926.799 206.41V229.233M926.799 206.41H953.245M926.799 229.233V252.056M926.799 229.233H953.245M926.799 252.056V274.88M926.799 252.056H953.245M926.799 274.88V297.703M926.799 274.88H953.245M926.799 297.703V320.526M926.799 297.703H953.245M926.799 320.526V343.35M926.799 320.526H953.245M926.799 343.35V366.173M926.799 343.35H953.245M926.799 366.173V388.996M926.799 366.173H953.245M926.799 388.996V411.819M926.799 388.996H953.245M926.799 411.819V434.643M926.799 411.819H953.245M926.799 434.643V457.466M926.799 434.643H953.245M926.799 457.466H953.245M953.245 1V23.8233M953.245 1H979.691M953.245 23.8233V46.6466M953.245 23.8233H979.691M953.245 46.6466V69.4699M953.245 46.6466H979.691M953.245 69.4699V92.2932M953.245 69.4699H979.691M953.245 92.2932V115.117M953.245 92.2932H979.691M953.245 115.117V137.94M953.245 115.117H979.691M953.245 137.94V160.763M953.245 137.94H979.691M953.245 160.763V183.586M953.245 160.763H979.691M953.245 183.586V206.41M953.245 183.586H979.691M953.245 206.41V229.233M953.245 206.41H979.691M953.245 229.233V252.056M953.245 229.233H979.691M953.245 252.056V274.88M953.245 252.056H979.691M953.245 274.88V297.703M953.245 274.88H979.691M953.245 297.703V320.526M953.245 297.703H979.691M953.245 320.526V343.35M953.245 320.526H979.691M953.245 343.35V366.173M953.245 343.35H979.691M953.245 366.173V388.996M953.245 366.173H979.691M953.245 388.996V411.819M953.245 388.996H979.691M953.245 411.819V434.643M953.245 411.819H979.691M953.245 434.643V457.466M953.245 434.643H979.691M953.245 457.466H979.691M979.691 1V23.8233M979.691 1H1006.14M979.691 23.8233V46.6466M979.691 23.8233H1006.14M979.691 46.6466V69.4699M979.691 46.6466H1006.14M979.691 69.4699V92.2932M979.691 69.4699H1006.14M979.691 92.2932V115.117M979.691 92.2932H1006.14M979.691 115.117V137.94M979.691 115.117H1006.14M979.691 137.94V160.763M979.691 137.94H1006.14M979.691 160.763V183.586M979.691 160.763H1006.14M979.691 183.586V206.41M979.691 183.586H1006.14M979.691 206.41V229.233M979.691 206.41H1006.14M979.691 229.233V252.056M979.691 229.233H1006.14M979.691 252.056V274.88M979.691 252.056H1006.14M979.691 274.88V297.703M979.691 274.88H1006.14M979.691 297.703V320.526M979.691 297.703H1006.14M979.691 320.526V343.35M979.691 320.526H1006.14M979.691 343.35V366.173M979.691 343.35H1006.14M979.691 366.173V388.996M979.691 366.173H1006.14M979.691 388.996V411.819M979.691 388.996H1006.14M979.691 411.819V434.643M979.691 411.819H1006.14M979.691 434.643V457.466M979.691 434.643H1006.14M979.691 457.466H1006.14M1006.14 1V23.8233M1006.14 1H1032.58M1006.14 23.8233V46.6466M1006.14 23.8233H1032.58M1006.14 46.6466V69.4699M1006.14 46.6466H1032.58M1006.14 69.4699V92.2932M1006.14 69.4699H1032.58M1006.14 92.2932V115.117M1006.14 92.2932H1032.58M1006.14 115.117V137.94M1006.14 115.117H1032.58M1006.14 137.94V160.763M1006.14 137.94H1032.58M1006.14 160.763V183.586M1006.14 160.763H1032.58M1006.14 183.586V206.41M1006.14 183.586H1032.58M1006.14 206.41V229.233M1006.14 206.41H1032.58M1006.14 229.233V252.056M1006.14 229.233H1032.58M1006.14 252.056V274.88M1006.14 252.056H1032.58M1006.14 274.88V297.703M1006.14 274.88H1032.58M1006.14 297.703V320.526M1006.14 297.703H1032.58M1006.14 320.526V343.35M1006.14 320.526H1032.58M1006.14 343.35V366.173M1006.14 343.35H1032.58M1006.14 366.173V388.996M1006.14 366.173H1032.58M1006.14 388.996V411.819M1006.14 388.996H1032.58M1006.14 411.819V434.643M1006.14 411.819H1032.58M1006.14 434.643V457.466M1006.14 434.643H1032.58M1006.14 457.466H1032.58M1032.58 1V23.8233M1032.58 1H1059.03M1032.58 23.8233V46.6466M1032.58 23.8233H1059.03M1032.58 46.6466V69.4699M1032.58 46.6466H1059.03M1032.58 69.4699V92.2932M1032.58 69.4699H1059.03M1032.58 92.2932V115.117M1032.58 92.2932H1059.03M1032.58 115.117V137.94M1032.58 115.117H1059.03M1032.58 137.94V160.763M1032.58 137.94H1059.03M1032.58 160.763V183.586M1032.58 160.763H1059.03M1032.58 183.586V206.41M1032.58 183.586H1059.03M1032.58 206.41V229.233M1032.58 206.41H1059.03M1032.58 229.233V252.056M1032.58 229.233H1059.03M1032.58 252.056V274.88M1032.58 252.056H1059.03M1032.58 274.88V297.703M1032.58 274.88H1059.03M1032.58 297.703V320.526M1032.58 297.703H1059.03M1032.58 320.526V343.35M1032.58 320.526H1059.03M1032.58 343.35V366.173M1032.58 343.35H1059.03M1032.58 366.173V388.996M1032.58 366.173H1059.03M1032.58 388.996V411.819M1032.58 388.996H1059.03M1032.58 411.819V434.643M1032.58 411.819H1059.03M1032.58 434.643V457.466M1032.58 434.643H1059.03M1032.58 457.466H1059.03M1059.03 1V23.8233M1059.03 1H1085.48M1059.03 23.8233V46.6466M1059.03 23.8233H1085.48M1059.03 46.6466V69.4699M1059.03 46.6466H1085.48M1059.03 69.4699V92.2932M1059.03 69.4699H1085.48M1059.03 92.2932V115.117M1059.03 92.2932H1085.48M1059.03 115.117V137.94M1059.03 115.117H1085.48M1059.03 137.94V160.763M1059.03 137.94H1085.48M1059.03 160.763V183.586M1059.03 160.763H1085.48M1059.03 183.586V206.41M1059.03 183.586H1085.48M1059.03 206.41V229.233M1059.03 206.41H1085.48M1059.03 229.233V252.056M1059.03 229.233H1085.48M1059.03 252.056V274.88M1059.03 252.056H1085.48M1059.03 274.88V297.703M1059.03 274.88H1085.48M1059.03 297.703V320.526M1059.03 297.703H1085.48M1059.03 320.526V343.35M1059.03 320.526H1085.48M1059.03 343.35V366.173M1059.03 343.35H1085.48M1059.03 366.173V388.996M1059.03 366.173H1085.48M1059.03 388.996V411.819M1059.03 388.996H1085.48M1059.03 411.819V434.643M1059.03 411.819H1085.48M1059.03 434.643V457.466M1059.03 434.643H1085.48M1059.03 457.466H1085.48M1085.48 1V23.8233M1085.48 1H1111.92M1085.48 23.8233V46.6466M1085.48 23.8233H1111.92M1085.48 46.6466V69.4699M1085.48 46.6466H1111.92M1085.48 69.4699V92.2932M1085.48 69.4699H1111.92M1085.48 92.2932V115.117M1085.48 92.2932H1111.92M1085.48 115.117V137.94M1085.48 115.117H1111.92M1085.48 137.94V160.763M1085.48 137.94H1111.92M1085.48 160.763V183.586M1085.48 160.763H1111.92M1085.48 183.586V206.41M1085.48 183.586H1111.92M1085.48 206.41V229.233M1085.48 206.41H1111.92M1085.48 229.233V252.056M1085.48 229.233H1111.92M1085.48 252.056V274.88M1085.48 252.056H1111.92M1085.48 274.88V297.703M1085.48 274.88H1111.92M1085.48 297.703V320.526M1085.48 297.703H1111.92M1085.48 320.526V343.35M1085.48 320.526H1111.92M1085.48 343.35V366.173M1085.48 343.35H1111.92M1085.48 366.173V388.996M1085.48 366.173H1111.92M1085.48 388.996V411.819M1085.48 388.996H1111.92M1085.48 411.819V434.643M1085.48 411.819H1111.92M1085.48 434.643V457.466M1085.48 434.643H1111.92M1085.48 457.466H1111.92M1111.92 1V23.8233M1111.92 1H1138.37M1111.92 23.8233V46.6466M1111.92 23.8233H1138.37M1111.92 46.6466V69.4699M1111.92 46.6466H1138.37M1111.92 69.4699V92.2932M1111.92 69.4699H1138.37M1111.92 92.2932V115.117M1111.92 92.2932H1138.37M1111.92 115.117V137.94M1111.92 115.117H1138.37M1111.92 137.94V160.763M1111.92 137.94H1138.37M1111.92 160.763V183.586M1111.92 160.763H1138.37M1111.92 183.586V206.41M1111.92 183.586H1138.37M1111.92 206.41V229.233M1111.92 206.41H1138.37M1111.92 229.233V252.056M1111.92 229.233H1138.37M1111.92 252.056V274.88M1111.92 252.056H1138.37M1111.92 274.88V297.703M1111.92 274.88H1138.37M1111.92 297.703V320.526M1111.92 297.703H1138.37M1111.92 320.526V343.35M1111.92 320.526H1138.37M1111.92 343.35V366.173M1111.92 343.35H1138.37M1111.92 366.173V388.996M1111.92 366.173H1138.37M1111.92 388.996V411.819M1111.92 388.996H1138.37M1111.92 411.819V434.643M1111.92 411.819H1138.37M1111.92 434.643V457.466M1111.92 434.643H1138.37M1111.92 457.466H1138.37M1138.37 1V23.8233M1138.37 1H1164.81V23.8233M1138.37 23.8233V46.6466M1138.37 23.8233H1164.81M1138.37 46.6466V69.4699M1138.37 46.6466H1164.81M1138.37 69.4699V92.2932M1138.37 69.4699H1164.81M1138.37 92.2932V115.117M1138.37 92.2932H1164.81M1138.37 115.117V137.94M1138.37 115.117H1164.81M1138.37 137.94V160.763M1138.37 137.94H1164.81M1138.37 160.763V183.586M1138.37 160.763H1164.81M1138.37 183.586V206.41M1138.37 183.586H1164.81M1138.37 206.41V229.233M1138.37 206.41H1164.81M1138.37 229.233V252.056M1138.37 229.233H1164.81M1138.37 252.056V274.88M1138.37 252.056H1164.81M1138.37 274.88V297.703M1138.37 274.88H1164.81M1138.37 297.703V320.526M1138.37 297.703H1164.81M1138.37 320.526V343.35M1138.37 320.526H1164.81M1138.37 343.35V366.173M1138.37 343.35H1164.81M1138.37 366.173V388.996M1138.37 366.173H1164.81M1138.37 388.996V411.819M1138.37 388.996H1164.81M1138.37 411.819V434.643M1138.37 411.819H1164.81M1138.37 434.643V457.466M1138.37 434.643H1164.81M1138.37 457.466H1164.81V434.643M1164.81 23.8233V46.6466M1164.81 46.6466V69.4699M1164.81 69.4699V92.2932M1164.81 92.2932V115.117M1164.81 115.117V137.94M1164.81 137.94V160.763M1164.81 160.763V183.586M1164.81 183.586V206.41M1164.81 206.41V229.233M1164.81 229.233V252.056M1164.81 252.056V274.88M1164.81 274.88V297.703M1164.81 297.703V320.526M1164.81 320.526V343.35M1164.81 343.35V366.173M1164.81 366.173V388.996M1164.81 388.996V411.819M1164.81 411.819V434.643" stroke="url(#paint0_radial_1_10298)" stroke-opacity="0.6" stroke-width="0.659775"/>
</g>
<defs>
<radialGradient id="paint0_radial_1_10298" cx="0" cy="0" r="1" gradientUnits="userSpaceOnUse" gradientTransform="translate(583 229.233) rotate(90) scale(299.939 764.608)">
<stop stop-color="#02B1E4"/>
<stop offset="1" stop-color="#02B1E4" stop-opacity="0"/>
</radialGradient>
</defs>
</svg>
