<svg width="52" height="52" viewBox="0 0 52 52" fill="none" xmlns="http://www.w3.org/2000/svg">
<path d="M45.6308 31.2462C45.1231 33.1077 45.9692 35.3077 45.1231 37C44.1077 38.6923 41.7385 39.0308 40.3846 40.3846C39.0308 41.7385 38.6923 44.1077 37 45.1231C35.4769 45.9692 33.1077 45.1231 31.2462 45.6308C29.5538 46.1385 27.8615 48 26 48C24.1385 48 22.4462 46.1385 20.7538 45.6308C18.8923 45.1231 16.6923 45.9692 15 45.1231C13.4769 44.2769 12.9692 41.7385 11.6154 40.3846C10.2615 39.0308 7.89231 38.6923 6.87692 37C6.03077 35.4769 6.87692 33.1077 6.36923 31.2462C5.86154 29.5538 4 27.8615 4 26C4 24.1385 5.86154 22.4462 6.36923 20.7538C6.87692 18.8923 6.03077 16.6923 6.87692 15C7.72308 13.4769 10.2615 12.9692 11.6154 11.6154C12.9692 10.2615 13.3077 7.89231 15 6.87692C16.5231 6.03077 18.8923 6.87692 20.7538 6.36923C22.4462 5.86154 24.1385 4 26 4C27.8615 4 29.5538 5.86154 31.2462 6.36923C33.1077 6.87692 35.3077 6.03077 37 6.87692C38.5231 7.72308 39.0308 10.2615 40.3846 11.6154C41.7385 12.9692 44.1077 13.3077 45.1231 15C45.9692 16.5231 45.1231 18.8923 45.6308 20.7538C46.1385 22.4462 48 24.1385 48 26C48 27.8615 46.1385 29.5538 45.6308 31.2462Z" fill="#03B1E4"/>
<path opacity="0.4" d="M42.5847 25.9994C42.5847 34.9686 35.3078 42.4148 26.1693 42.4148C17.2001 42.4148 9.75391 35.1378 9.75391 25.9994C9.75391 17.0301 17.0308 9.58398 26.1693 9.58398C35.1385 9.58398 42.5847 17.0301 42.5847 25.9994Z" fill="white"/>
<path d="M40.8915 26.0004C40.8915 34.1235 34.2915 40.7235 26.1684 40.7235C18.0453 40.7235 11.4453 34.1235 11.4453 26.0004C11.4453 17.8773 18.0453 11.2773 26.1684 11.2773C34.2915 11.2773 40.8915 17.8773 40.8915 26.0004Z" fill="#28819B"/>
<path d="M40.8917 27.0149C40.384 19.2302 33.9532 13.1379 26.1686 13.1379C18.384 13.1379 11.9532 19.2302 11.4456 27.0149C10.9379 18.2149 18.0456 11.1072 26.1686 11.2764C34.4609 11.4456 41.3994 18.0456 40.8917 27.0149Z" fill="#045A73"/>
<path d="M30.9077 28.1989L31.7538 33.445C31.923 34.2912 31.0769 34.7989 30.4 34.4604L25.8307 32.0912C25.4923 31.9219 25.1538 31.9219 24.9846 32.0912L20.4154 34.4604C19.7384 34.7989 18.8923 34.2912 19.0615 33.445L19.9077 28.1989C19.9077 27.8604 19.9077 27.5219 19.5692 27.3527L15.8461 23.6296C15.3384 23.1219 15.5077 22.1065 16.3538 21.9373L21.6 21.0912C21.9384 21.0912 22.1077 20.9219 22.2769 20.5835L24.4769 16.1835C24.8154 15.5066 25.8307 15.5066 26.1692 16.1835L28.5384 20.9219C28.7077 21.2604 28.8769 21.4296 29.2154 21.4296L34.4615 22.2758C35.3077 22.445 35.6461 23.2912 34.9692 23.9681L31.2461 27.3527C31.0769 27.6912 30.9077 27.8604 30.9077 28.1989Z" fill="#048BB3"/>
<path d="M31.7546 29.0451L32.6008 34.2913C32.77 35.1374 31.9239 35.6451 31.2469 35.3067L26.6777 32.9374C26.3392 32.7682 26.0008 32.7682 25.8315 32.9374L21.0931 35.3067C20.4162 35.6451 19.57 35.1374 19.7392 34.2913L20.5854 29.0451C20.5854 28.7067 20.5854 28.3682 20.2469 28.199L16.5239 24.4759C16.0162 23.9682 16.1854 22.9528 17.0316 22.7836L22.2777 21.9374C22.6162 21.9374 22.7854 21.7682 22.9546 21.4297L25.3239 16.6913C25.6623 16.0144 26.6777 16.0144 27.0162 16.6913L29.3854 21.4297C29.5546 21.7682 29.7239 21.9374 30.0623 21.9374L35.3085 22.7836C36.1546 22.9528 36.4931 23.799 35.8162 24.4759L32.0931 28.199C31.7546 28.3682 31.7546 28.7067 31.7546 29.0451Z" fill="#68D0EF"/>
<path opacity="0.5" d="M17.5394 24.6454C17.0317 24.1377 17.3701 23.2915 18.0471 23.1223L22.6163 22.4454C22.9548 22.4454 23.124 22.2761 23.2932 21.9377L25.324 17.7069C25.6624 17.03 26.5086 17.03 26.8471 17.7069L28.8778 21.9377C29.0471 22.2761 29.2163 22.4454 29.5548 22.4454L34.124 23.1223C34.8009 23.2915 35.1394 24.1377 34.6317 24.6454C34.6317 24.6454 31.7548 27.8608 25.8317 27.8608C21.4317 27.8608 17.5394 24.6454 17.5394 24.6454Z" fill="white"/>
<path opacity="0.7" d="M24.8148 22.2777C23.9686 21.9393 25.3225 18.3854 26.1686 18.7239C26.6763 18.8931 25.8302 22.6162 24.8148 22.2777Z" fill="white"/>
</svg>
