<svg width="1200" height="676" viewBox="0 0 1200 676" fill="none" xmlns="http://www.w3.org/2000/svg">
<path fill-rule="evenodd" clip-rule="evenodd" d="M19.2084 -271.858H1177.59V-270.041H19.2084V-271.858ZM654.445 -161.138V-241.409H656.263V-161.138H765.161V-241.409H766.977V-161.138H875.878V-241.408H877.694V-161.138H986.597V-241.408H988.414V-161.138H1097.32V-241.408H1099.13V-161.138H1177.59V-159.32L1099.13 -159.322V-50.4193H1177.59V-48.6025H1099.13V60.2995H1177.59V62.1163H1099.13V171.018H1177.59V172.835H1099.13V281.735H1177.59V283.553H1099.13V392.453H1177.59V394.27H1099.13V503.17H1177.59V504.987H1099.13V613.883H1177.59V615.7H1099.13V724.6H1177.59V726.417H1099.13V835.323H1177.59V837.141H1099.13V916.977H1097.32V837.141H988.414V916.977H986.597V837.141H877.694V916.977H875.878V837.141H766.977V916.977H765.16V837.141H656.263V916.977H654.445V837.141H545.545V916.977H543.728V837.141H434.829V916.977H433.011V837.141H324.111V916.977H322.295V837.141H213.395V916.977H211.577V837.141H102.678V916.977H100.861V837.141H19.2106V835.323H100.861V726.417H19.2106V724.6H100.861V615.699H19.2084V613.883H100.861V504.987H19.2094V503.17H100.861V394.27H19.2106V392.453H100.861V283.553H19.2094V281.735H100.861V172.834H19.2094V171.018H100.861V62.1162H19.2106V60.2994H100.861V-48.6026H19.2106V-50.4194H100.861L100.861 -159.322H19.2094V-161.138H100.861V-241.409H102.678V-161.138H211.577V-241.409H213.395V-161.138H322.295V-241.409H324.111V-161.138H433.011V-241.408H434.829V-161.138H543.728V-241.408H545.545V-161.138H654.445ZM1097.32 726.417V835.323H988.414V726.417H1097.32ZM986.597 726.417V835.323H877.694V726.417H986.597ZM875.878 726.417V835.323H766.977V726.417H875.878ZM765.161 726.417L765.16 835.323H656.263V726.417H765.161ZM654.445 726.417V835.323H545.545V726.417H654.445ZM543.728 726.417V835.323H434.829V726.417H543.728ZM433.011 726.417V835.323H324.111V726.417H433.011ZM322.295 726.417V835.323H213.395V726.417H322.295ZM211.577 726.417V835.323H102.678V726.417H211.577ZM102.678 724.6H211.577V615.699H102.678V724.6ZM213.395 724.6H322.295V615.7L213.395 615.699V724.6ZM324.111 724.6H433.011V615.7H324.111V724.6ZM434.829 724.6H543.728V615.7H434.829V724.6ZM545.545 724.6H654.445V615.7H545.545V724.6ZM656.263 724.6H765.161V615.7H656.263V724.6ZM766.977 724.6H875.878V615.7H766.977V724.6ZM877.694 724.6H986.597V615.7H877.694V724.6ZM988.414 724.6H1097.32V615.7H988.414V724.6ZM1097.32 504.987V613.883H988.414V504.987H1097.32ZM986.597 504.987V613.883H877.694V504.987H986.597ZM875.878 504.987V613.883H766.977V504.987H875.878ZM765.161 504.987V613.883H656.263V504.987H765.161ZM654.445 504.987V613.883H545.545V504.987H654.445ZM543.728 504.987V613.883H434.829V504.987H543.728ZM433.011 504.987V613.883H324.111V504.987H433.011ZM322.295 504.987V613.883H213.395V504.987H322.295ZM211.577 504.987V613.883H102.678V504.987H211.577ZM102.678 503.17H211.577V394.27H102.678V503.17ZM213.395 503.17H322.295V394.27H213.395V503.17ZM324.111 503.17H433.011V394.27H324.111V503.17ZM434.829 503.17H543.728V394.27H434.829V503.17ZM545.545 503.17H654.445V394.27H545.545V503.17ZM656.263 503.17H765.161V394.27H656.263V503.17ZM766.977 503.17H875.878V394.27H766.977V503.17ZM877.694 503.17H986.597V394.27H877.694V503.17ZM988.414 503.17H1097.32V394.27H988.414V503.17ZM1097.32 283.553V392.453H988.414V283.553H1097.32ZM986.597 283.553V392.453H877.694V283.553H986.597ZM875.878 283.553V392.453H766.977V283.553H875.878ZM765.161 283.553V392.453H656.263V283.553H765.161ZM654.445 283.553V392.453H545.545V283.553H654.445ZM543.728 283.553V392.453H434.829V283.553H543.728ZM433.011 283.553V392.453H324.111V283.553H433.011ZM322.295 283.553V392.453H213.395V283.553H322.295ZM211.577 283.553V392.453H102.678V283.553H211.577ZM102.678 281.735H211.577V172.834H102.678V281.735ZM213.395 281.735H322.295V172.834H213.395V281.735ZM324.111 281.735H433.011V172.834H324.111V281.735ZM434.829 281.735H543.728V172.834H434.829V281.735ZM545.545 281.735H654.445V172.834H545.545V281.735ZM656.263 281.735H765.161V172.834H656.263V281.735ZM766.977 281.735H875.878V172.834H766.977V281.735ZM877.694 281.735H986.597V172.835L877.694 172.834V281.735ZM988.414 281.735H1097.32V172.835H988.414V281.735ZM1097.32 62.1163V171.018H988.414V62.1163H1097.32ZM986.597 62.1163V171.018H877.694V62.1162L986.597 62.1163ZM875.878 62.1162V171.018H766.977V62.1162H875.878ZM765.161 62.1162V171.018H656.263V62.1162H765.161ZM654.445 62.1162V171.018H545.545V62.1162H654.445ZM543.728 62.1162V171.018H434.829V62.1162H543.728ZM433.011 62.1162V171.018H324.111V62.1162H433.011ZM322.295 62.1162V171.018H213.395V62.1162H322.295ZM211.577 62.1162V171.018H102.678V62.1162H211.577ZM102.678 60.2994H211.577V-48.6026L102.678 -48.6026V60.2994ZM213.395 60.2994H322.295V-48.6026H213.395V60.2994ZM324.111 60.2994H433.011V-48.6026L324.111 -48.6026V60.2994ZM434.829 60.2994H543.728V-48.6026H434.829V60.2994ZM545.545 60.2994H654.445V-48.6026L545.545 -48.6026V60.2994ZM656.263 60.2994H765.161V-48.6026H656.263V60.2994ZM766.977 60.2994H875.878V-48.6026L766.977 -48.6026V60.2994ZM877.694 60.2994L986.597 60.2995V-48.6026H877.694V60.2994ZM988.414 60.2995H1097.32V-48.6025L988.414 -48.6026V60.2995ZM1097.32 -159.322V-50.4193L988.414 -50.4194V-159.322H1097.32ZM986.597 -159.322V-50.4194L877.694 -50.4194V-159.322H986.597ZM875.878 -159.322V-50.4194H766.977V-159.322H875.878ZM765.161 -159.322V-50.4194L656.263 -50.4194V-159.322H765.161ZM654.445 -159.322V-50.4194H545.545V-159.322H654.445ZM543.728 -159.322V-50.4194L434.829 -50.4194V-159.322H543.728ZM433.011 -159.322V-50.4194H324.111V-159.322H433.011ZM322.295 -159.322V-50.4194L213.395 -50.4194V-159.322H322.295ZM211.577 -159.322V-50.4194L102.678 -50.4194V-159.322H211.577ZM-9.85542 -241.409L-9.85547 916.977H-8.03869L-8.03864 -241.409H-9.85542ZM1208.03 -241.408V916.977H1209.86V-241.408H1208.03ZM1177.59 946.043H19.2094V947.859H1177.59V946.043Z" fill="url(#paint0_radial_1_15117)" fill-opacity="0.05"/>
<defs>
<radialGradient id="paint0_radial_1_15117" cx="0" cy="0" r="1" gradientUnits="userSpaceOnUse" gradientTransform="translate(599.999 338) rotate(90) scale(609.859 609.855)">
<stop stop-color="white"/>
<stop offset="1" stop-color="white" stop-opacity="0"/>
</radialGradient>
</defs>
</svg>
