<svg width="104" height="34" viewBox="0 0 104 34" fill="none" xmlns="http://www.w3.org/2000/svg">
<g clip-path="url(#clip0_391_6730)">
<path d="M13.2742 24.9831H10.9381V15.8038C10.9381 14.4873 10.5574 13.3666 9.76137 12.4593C8.96536 11.5521 7.9617 11.0895 6.73309 11.0895C5.50447 11.0895 4.50081 11.5521 3.7048 12.4415C2.90879 13.3488 2.5281 14.4695 2.5281 15.8038V24.9831H0.105469V8.9726H2.5281V10.6092C3.3241 9.95102 3.99898 9.4885 4.58733 9.23944C5.29681 8.90144 6.09282 8.74134 6.94074 8.74134C8.03092 8.74134 9.05188 9.02597 9.98633 9.59523C10.9208 10.1645 11.5264 10.9117 12.0975 11.8545C12.755 10.9294 13.7068 10.1645 14.7105 9.59523C15.7141 9.02597 16.7351 8.74134 17.7733 8.74134C19.2442 8.74134 20.5075 9.20386 21.5976 10.1289V1.64334L24.0895 0.202393V32.3658L21.5976 33.8067V15.7504C21.5976 14.7898 21.0785 13.0464 20.5767 12.4771C19.7807 11.5699 18.7943 11.1073 17.583 11.1073C16.3544 11.1073 15.3334 11.5521 14.5201 12.4415C13.7068 13.3488 13.2915 14.434 13.2915 15.7326L13.2742 24.9831Z" fill="#03B1E4"/>
<path d="M67.1631 11.3406L70.6932 11.3762C73.6523 11.4829 75.9711 13.9557 75.9711 16.9977C75.9711 20.0397 73.6523 22.5124 70.6932 22.6191L67.1631 22.6547V11.3406ZM70.7797 8.9924H70.6932H64.8789V30.2864H67.1631V25.0207H70.6932C72.7351 24.9673 74.6386 24.1135 76.0749 22.6013C77.5112 21.0892 78.2899 19.1146 78.2899 16.9977C78.2899 14.8985 77.4939 12.9061 76.0749 11.394C74.6559 9.91745 72.787 9.08134 70.7797 8.9924ZM95.3867 15.788L95.3694 15.6812C94.7291 11.5719 91.6143 8.72555 87.7727 8.72555C83.3255 8.72555 79.7261 12.4436 79.7261 16.9977C79.7261 21.5696 83.3428 25.2698 87.7727 25.2698C88.5168 25.2698 89.1225 25.1986 89.5724 25.0563C91.8739 24.5226 93.8293 22.9571 94.9195 20.8046L94.9541 20.7512L93.1544 18.8478L93.1025 18.9901C92.2892 21.2849 90.1607 22.8326 87.7727 22.8326C84.6406 22.8326 82.0968 20.2176 82.0968 16.9977C82.0968 13.7778 84.6406 11.1627 87.7727 11.1627C90.2473 11.1627 92.2027 12.7993 92.8948 15.4678H84.8829V17.8871H95.4386V17.7982L95.4559 17.5847C95.4732 17.4068 95.4732 17.1578 95.4732 16.9977C95.4732 16.6063 95.4386 16.1971 95.3867 15.788ZM57.2995 8.9924H57.213V9.08134V18.0294C57.213 19.5416 57.1092 20.6445 56.9188 21.2493C56.5554 22.2989 55.6556 22.9216 54.4962 22.9216C53.7175 22.9216 52.9042 22.548 52.4196 21.9965C51.9351 21.4095 51.6583 20.6267 51.6583 19.7906V9.09913V8.9924H51.5717H49.4433H49.3568V9.08134V19.7728C49.3568 20.5911 49.0799 21.3739 48.5954 21.9609C48.1281 22.5302 47.3148 22.9038 46.5361 22.9038C45.7574 22.9038 44.9787 22.548 44.5115 21.9787C44.0616 21.445 43.8193 20.7868 43.8193 18.8656V9.06355V8.9924H43.7328H41.6043H41.5178V9.08134V19.5949C41.5178 21.1426 42.0023 22.4946 42.9887 23.5976C43.9578 24.6827 45.1691 25.252 46.6226 25.252C48.232 25.252 49.5125 24.5938 50.5335 23.2418C51.5371 24.576 52.8523 25.252 54.4616 25.252C55.9152 25.252 57.1265 24.7005 58.0955 23.6153C59.0473 22.5302 59.5318 21.196 59.5318 19.6305V9.08134V8.9924H59.4453H57.2995ZM61.0373 8.9924V24.9318V25.0207H61.1238H63.235H63.3215V24.9318V8.9924H61.0373ZM62.1794 5.13208C61.4699 5.13208 60.8988 5.71913 60.8988 6.4485C60.8988 7.17787 61.4699 7.76492 62.1794 7.76492C62.8889 7.76492 63.4599 7.17787 63.4599 6.4485C63.4599 5.71913 62.8889 5.13208 62.1794 5.13208ZM35.9112 15.8413H34.5268H29.8027C29.1797 15.8413 28.5741 15.6101 28.2107 15.2187C27.8473 14.8451 27.6742 14.3648 27.6742 13.7066C27.6742 12.9594 27.8473 12.4258 28.1761 12.07C28.5914 11.643 29.2835 11.3406 29.8373 11.3406H39.9777V8.9924H38.1608H30.1315C28.799 8.9924 27.6915 9.43713 26.7571 10.3622C25.8227 11.2872 25.4766 12.1589 25.4766 13.6177C25.4766 14.436 25.5631 15.023 25.9784 15.8236C26.809 17.4068 28.1415 18.1718 30.0276 18.1718H32.3637H36.1361C36.7591 18.1718 37.3647 18.403 37.7281 18.7944C38.0915 19.168 38.2646 19.6483 38.2646 20.3065C38.2646 21.0537 38.0915 21.5873 37.7627 21.9431C37.3474 22.3701 36.6553 22.6725 36.1015 22.6725H25.615V25.0029H35.8073C37.1398 25.0029 38.2473 24.5582 39.1817 23.6331C40.1162 22.7081 40.4622 21.8364 40.4622 20.3777C40.4622 19.5593 40.3757 18.9723 39.9604 18.1718C39.1298 16.6063 37.7974 15.8413 35.9112 15.8413Z" fill="white"/>
</g>
<defs>
<clipPath id="clip0_391_6730">
<rect width="104" height="33.8" fill="white" transform="translate(0 0.100098)"/>
</clipPath>
</defs>
</svg>
