<svg width="253" height="182" viewBox="0 0 253 182" fill="none" xmlns="http://www.w3.org/2000/svg">
<path fill-rule="evenodd" clip-rule="evenodd" d="M8.98893 0.5H362.778V1.055H8.98893V0.5ZM203.002 34.3161V9.79973H203.557V34.3161H236.816V9.79973H237.371V34.3161H270.631V9.80009H271.186V34.3161H304.447V9.80009H305.002V34.3161H338.263V9.80009H338.818V34.3161H362.778V34.8711L338.818 34.8708V68.1314H362.778V68.6863H338.818V101.947H362.778V102.502H338.818V135.762H362.778V136.317H338.818V169.577H362.778V170.132H338.818V203.392H362.778V203.947H338.818V237.208H362.778V237.763H338.818V271.021H362.778V271.576H338.818V304.836H362.778V305.391H338.818V338.653H362.778V339.208H338.818V363.591H338.263V339.208H305.002V363.591H304.447V339.208H271.186V363.591H270.631V339.208H237.371V363.591H236.816V339.208H203.557V363.591H203.002V339.208H169.742V363.591H169.187V339.208H135.927V363.591H135.372V339.208H102.112V363.591H101.557V339.208H68.2968V363.591H67.7418V339.208H34.482V363.591H33.9271V339.208H8.98961V338.653H33.9271V305.391H8.98961V304.836H33.9271V271.576H8.98893V271.021H33.9271V237.763H8.98925V237.208H33.9271V203.947H8.98961V203.392H33.9271V170.132H8.98925V169.577H33.9271V136.317H8.98925V135.762H33.9271V102.502H8.98961V101.947H33.9271V68.6863H8.98961V68.1314H33.9271L33.9271 34.8708H8.98925V34.3161H33.9271V9.79973H34.482V34.3161H67.7418V9.79973H68.2968V34.3161H101.557V9.79973H102.112V34.3161H135.372V9.80009H135.927V34.3161H169.187V9.80009H169.742V34.3161H203.002ZM338.263 305.391V338.653H305.002V305.391H338.263ZM304.447 305.391V338.653H271.186V305.391H304.447ZM270.631 305.391V338.653H237.371V305.391H270.631ZM236.816 305.391L236.816 338.653H203.557V305.391H236.816ZM203.002 305.391V338.653H169.742V305.391H203.002ZM169.187 305.391V338.653H135.927V305.391H169.187ZM135.372 305.391V338.653H102.112V305.391H135.372ZM101.557 305.391V338.653H68.2968V305.391H101.557ZM67.7418 305.391V338.653H34.482V305.391H67.7418ZM34.482 304.836H67.7418V271.576H34.482V304.836ZM68.2968 304.836H101.557V271.576L68.2968 271.576V304.836ZM102.112 304.836H135.372V271.576H102.112V304.836ZM135.927 304.836H169.187V271.576H135.927V304.836ZM169.742 304.836H203.002V271.576H169.742V304.836ZM203.557 304.836H236.816V271.576H203.557V304.836ZM237.371 304.836H270.631V271.576H237.371V304.836ZM271.186 304.836H304.447V271.576H271.186V304.836ZM305.002 304.836H338.263V271.576H305.002V304.836ZM338.263 237.763V271.021H305.002V237.763H338.263ZM304.447 237.763V271.021H271.186V237.763H304.447ZM270.631 237.763V271.021H237.371V237.763H270.631ZM236.816 237.763V271.021H203.557V237.763H236.816ZM203.002 237.763V271.021H169.742V237.763H203.002ZM169.187 237.763V271.021H135.927V237.763H169.187ZM135.372 237.763V271.021H102.112V237.763H135.372ZM101.557 237.763V271.021H68.2968V237.763H101.557ZM67.7418 237.763V271.021H34.482V237.763H67.7418ZM34.482 237.208H67.7418V203.947H34.482V237.208ZM68.2968 237.208H101.557V203.947H68.2968V237.208ZM102.112 237.208H135.372V203.947H102.112V237.208ZM135.927 237.208H169.187V203.947H135.927V237.208ZM169.742 237.208H203.002V203.947H169.742V237.208ZM203.557 237.208H236.816V203.947H203.557V237.208ZM237.371 237.208H270.631V203.947H237.371V237.208ZM271.186 237.208H304.447V203.947H271.186V237.208ZM305.002 237.208H338.263V203.947H305.002V237.208ZM338.263 170.132V203.392H305.002V170.132H338.263ZM304.447 170.132V203.392H271.186V170.132H304.447ZM270.631 170.132V203.392H237.371V170.132H270.631ZM236.816 170.132V203.392H203.557V170.132H236.816ZM203.002 170.132V203.392H169.742V170.132H203.002ZM169.187 170.132V203.392H135.927V170.132H169.187ZM135.372 170.132V203.392H102.112V170.132H135.372ZM101.557 170.132V203.392H68.2968V170.132H101.557ZM67.7418 170.132V203.392H34.482V170.132H67.7418ZM34.482 169.577H67.7418V136.317H34.482V169.577ZM68.2968 169.577H101.557V136.317H68.2968V169.577ZM102.112 169.577H135.372V136.317H102.112V169.577ZM135.927 169.577H169.187V136.317H135.927V169.577ZM169.742 169.577H203.002V136.317H169.742V169.577ZM203.557 169.577H236.816V136.317H203.557V169.577ZM237.371 169.577H270.631V136.317H237.371V169.577ZM271.186 169.577H304.447V136.317L271.186 136.317V169.577ZM305.002 169.577H338.263V136.317H305.002V169.577ZM338.263 102.502V135.762H305.002V102.502H338.263ZM304.447 102.502V135.762H271.186V102.502L304.447 102.502ZM270.631 102.502V135.762H237.371V102.502H270.631ZM236.816 102.502V135.762H203.557V102.502H236.816ZM203.002 102.502V135.762H169.742V102.502H203.002ZM169.187 102.502V135.762H135.927V102.502H169.187ZM135.372 102.502V135.762H102.112V102.502H135.372ZM101.557 102.502V135.762H68.2968V102.502H101.557ZM67.7418 102.502V135.762H34.482V102.502H67.7418ZM34.482 101.947H67.7418V68.6863L34.482 68.6863V101.947ZM68.2968 101.947H101.557V68.6863H68.2968V101.947ZM102.112 101.947H135.372V68.6863L102.112 68.6863V101.947ZM135.927 101.947H169.187V68.6863H135.927V101.947ZM169.742 101.947H203.002V68.6863L169.742 68.6863V101.947ZM203.557 101.947H236.816V68.6863H203.557V101.947ZM237.371 101.947H270.631V68.6863L237.371 68.6863V101.947ZM271.186 101.947L304.447 101.947V68.6863H271.186V101.947ZM305.002 101.947H338.263V68.6863L305.002 68.6863V101.947ZM338.263 34.8708V68.1314L305.002 68.1314V34.8708H338.263ZM304.447 34.8708V68.1314L271.186 68.1314V34.8708H304.447ZM270.631 34.8708V68.1314H237.371V34.8708H270.631ZM236.816 34.8708V68.1314L203.557 68.1314V34.8708H236.816ZM203.002 34.8708V68.1314H169.742V34.8708H203.002ZM169.187 34.8708V68.1314L135.927 68.1314V34.8708H169.187ZM135.372 34.8708V68.1314H102.112V34.8708H135.372ZM101.557 34.8708V68.1314L68.2968 68.1314V34.8708H101.557ZM67.7418 34.8708V68.1314L34.482 68.1314V34.8708H67.7418ZM0.11232 9.79973L0.112305 363.591H0.667182L0.667196 9.79973H0.11232ZM372.077 9.80009V363.591H372.634V9.80009H372.077ZM362.778 372.469H8.98925V373.023H362.778V372.469Z" fill="url(#paint0_radial_90_14764)" fill-opacity="0.1"/>
<defs>
<radialGradient id="paint0_radial_90_14764" cx="0" cy="0" r="1" gradientUnits="userSpaceOnUse" gradientTransform="translate(186.373 186.762) rotate(90) scale(186.262 186.261)">
<stop stop-color="#00BDFF"/>
<stop offset="1" stop-color="white" stop-opacity="0"/>
</radialGradient>
</defs>
</svg>
