<svg width="72" height="55" viewBox="0 0 72 55" fill="none" xmlns="http://www.w3.org/2000/svg">
<g id="Vector">
<path d="M1.63894 3.34195V9.16255C1.63894 10.1665 1.71008 10.8647 1.85501 11.2521C2.12114 11.9609 2.67184 12.314 3.51503 12.314C4.07891 12.314 4.53738 12.1216 4.89047 11.7343C5.24355 11.3469 5.42009 10.8726 5.42009 10.3088V3.34722H7.08011V10.3088C7.08011 10.8621 7.25402 11.3338 7.60183 11.7264C7.94965 12.119 8.40022 12.3166 8.95356 12.3166C9.5069 12.3166 9.98383 12.1269 10.3211 11.7448C10.6584 11.3627 10.827 10.8858 10.827 10.3088V3.34722H12.5187V10.1928C12.5187 11.1994 12.1814 12.0531 11.5068 12.754C10.8323 13.4549 9.99963 13.808 9.00362 13.808C7.86533 13.808 6.94046 13.36 6.23429 12.4641C5.53603 13.36 4.62697 13.808 3.49921 13.808C2.4953 13.808 1.66002 13.4602 0.996011 12.7619C0.332003 12.0663 0 11.2152 0 10.2086V3.34458H1.64158L1.63894 3.34195Z" fill="#FAFAFA"/>
<path d="M15.3644 13.721H13.6727V3.19175H15.3644V13.721ZM13.7228 1.4685C13.7228 1.24716 13.8018 1.05481 13.9626 0.896712C14.1233 0.73598 14.313 0.654297 14.5344 0.654297C14.7557 0.654297 14.9639 0.73598 15.122 0.896712C15.2827 1.05744 15.3644 1.24716 15.3644 1.4685C15.3644 1.68983 15.2827 1.89799 15.122 2.05609C14.9612 2.21682 14.7662 2.29587 14.5344 2.29587C14.3025 2.29587 14.1207 2.21682 13.9626 2.05609C13.8018 1.89536 13.7228 1.70037 13.7228 1.4685Z" fill="#FAFAFA"/>
<path d="M16.4105 11.9978H23.4906C23.899 11.9978 24.2521 11.8555 24.5525 11.5735C24.8502 11.2916 25.0004 10.9464 25.0004 10.538C25.0004 10.1296 24.8529 9.78439 24.5604 9.50245C24.2679 9.22051 23.9122 9.08086 23.4906 9.08086H19.1956C18.0784 9.08086 17.2458 8.61184 16.6924 7.6738C16.4263 7.22058 16.2946 6.73312 16.2946 6.21403C16.2946 5.42882 16.5739 4.75427 17.1325 4.19303C17.6911 3.62915 18.3683 3.34721 19.164 3.34721H26.3759V5.0204H19.2273C18.8847 5.0204 18.5922 5.13634 18.3498 5.37085C18.1074 5.60536 17.9862 5.8873 17.9862 6.22194C17.9862 6.55658 18.1074 6.85696 18.3498 7.08884C18.5922 7.32335 18.8847 7.43929 19.2273 7.43929H23.596C24.8529 7.43929 25.7804 7.96364 26.3759 9.01499C26.6525 9.49982 26.7896 10.0189 26.7896 10.5722C26.7896 11.5024 26.4734 12.2586 25.8357 12.8436C25.2007 13.4285 24.4234 13.7236 23.5064 13.7236H16.4105V11.9978Z" fill="#FAFAFA"/>
<path d="M36.5863 7.73704C36.278 5.73711 35.0264 4.73583 32.8394 4.73583C31.7459 4.73583 30.8026 5.10472 30.0121 5.84778C29.2216 6.5882 28.8316 7.48935 28.8448 8.55124C28.8554 9.58941 29.2295 10.4747 29.9647 11.2046C30.6998 11.9345 31.5878 12.2981 32.626 12.2981C33.5087 12.2981 34.3492 12.1321 35.145 11.8001C36.0751 11.4023 36.6654 10.8674 36.9209 10.1928L38.0329 11.2705C37.5797 12.1216 36.8551 12.7751 35.8617 13.2283C34.9553 13.6578 33.9487 13.8738 32.8447 13.8738C31.298 13.8738 29.9752 13.3627 28.8738 12.3403C27.7724 11.3179 27.2243 10.0558 27.2243 8.55387C27.2243 7.05195 27.7777 5.79508 28.8817 4.75691C29.9857 3.71874 31.3085 3.19965 32.8447 3.19965C34.5047 3.21019 35.8011 3.58699 36.7418 4.32741C37.859 5.19958 38.4176 6.55394 38.4176 8.3905C38.4176 8.61184 38.4123 8.84372 38.3991 9.08613H30.4416V7.76075H36.5758L36.5916 7.74231L36.5863 7.73704Z" fill="#FAFAFA"/>
<path d="M48.1774 10.9201C47.7242 11.8054 47.076 12.4931 46.2381 12.9832C45.3976 13.476 44.4701 13.721 43.453 13.721H40.9313V17.1702H39.324V3.34195H43.3686C44.86 3.34195 46.1353 3.84259 47.1893 4.84124C48.2459 5.84252 48.7729 7.08358 48.7729 8.56442C48.7729 9.38126 48.5753 10.1665 48.1774 10.9174V10.9201ZM40.9313 12.2138H43.2369C44.2962 12.2138 45.1947 11.8686 45.9298 11.1783C46.665 10.4879 47.0339 9.6184 47.0339 8.56706C47.0339 7.51571 46.6755 6.67516 45.9562 6.00588C45.2368 5.33661 44.3489 5.00197 43.287 5.00197H40.9313V12.2138Z" fill="#FAFAFA"/>
<path d="M55.471 13.8712C53.9453 13.8712 52.6305 13.3574 51.5238 12.3298C50.4171 11.3021 49.8638 10.0426 49.8638 8.55125C49.8638 7.05987 50.4171 5.79246 51.5238 4.75429C52.6279 3.71612 53.9453 3.19703 55.471 3.19703C56.9966 3.19703 58.3325 3.71612 59.4497 4.75429C60.5643 5.79509 61.1229 7.05987 61.1229 8.55125C61.1229 10.0426 60.5643 11.3021 59.4497 12.3298C58.3325 13.3574 57.0071 13.8712 55.471 13.8712ZM55.471 4.73584C54.3775 4.73584 53.4368 5.10473 52.6516 5.84779C51.8664 6.58821 51.4737 7.48936 51.4737 8.55125C51.4843 9.6105 51.8822 10.5011 52.6674 11.2205C53.4526 11.9398 54.3854 12.2981 55.4683 12.2981C56.5513 12.2981 57.5052 11.9398 58.2956 11.2205C59.0861 10.5037 59.4866 9.61313 59.4972 8.55125C59.5077 7.48936 59.1125 6.58821 58.3114 5.84779C57.5104 5.10737 56.5618 4.73584 55.4683 4.73584H55.471Z" fill="#FAFAFA"/>
<path d="M61.6209 11.9978H68.701C69.1095 11.9978 69.4625 11.8555 69.7629 11.5735C70.0607 11.2916 70.2109 10.9464 70.2109 10.538C70.2109 10.1296 70.0633 9.78439 69.7708 9.50245C69.4783 9.22051 69.1226 9.08086 68.701 9.08086H64.4061C63.2889 9.08086 62.4562 8.61184 61.9029 7.6738C61.6367 7.22058 61.505 6.73312 61.505 6.21403C61.505 5.42882 61.7843 4.75427 62.3429 4.19303C62.9015 3.62915 63.5787 3.34721 64.3745 3.34721H71.5863V5.0204H64.4377C64.0951 5.0204 63.8027 5.13634 63.5603 5.37085C63.3178 5.60536 63.1966 5.8873 63.1966 6.22194C63.1966 6.55658 63.3178 6.85696 63.5603 7.08884C63.8027 7.32335 64.0951 7.43929 64.4377 7.43929H68.8064C70.0633 7.43929 70.9908 7.96364 71.5863 9.01499C71.863 9.49982 72 10.0189 72 10.5722C72 11.5024 71.6838 12.2586 71.0461 12.8436C70.4111 13.4285 69.6338 13.7236 68.7168 13.7236H61.6209V11.9978Z" fill="#FAFAFA"/>
<path d="M22.4234 39.0271C21.3115 41.1956 19.7279 42.882 17.67 44.0862C15.6094 45.2904 13.3355 45.8938 10.8428 45.8938H4.6665V54.3467H0.724611V20.456H10.6399C14.2972 20.456 17.4197 21.6812 20.0072 24.1343C22.5947 26.5875 23.8885 29.6282 23.8885 33.2565C23.8885 35.2617 23.401 37.1853 22.4261 39.0271H22.4234ZM4.6665 42.1969H10.3158C12.9165 42.1969 15.1167 41.3511 16.919 39.6568C18.7213 37.9626 19.6225 35.8309 19.6225 33.2565C19.6225 30.6822 18.7424 28.6164 16.9796 26.9775C15.2195 25.3385 13.0377 24.519 10.437 24.519H4.6665V42.1969Z" fill="#FAFAFA"/>
<path d="M37.9248 23.8708C35.8327 23.8708 34.1015 24.5955 32.7313 26.0447C31.3585 27.4939 30.6734 29.2883 30.6734 31.4279V45.8938H26.5287V20.4559H30.6734V23.0962C32.0304 22.0396 33.2109 21.3097 34.2174 20.9013C35.4401 20.3585 36.7971 20.0871 38.2911 20.0871C41.7402 20.0871 44.5649 21.4414 46.7651 24.1501L43.1789 26.1C41.7929 24.6113 40.0407 23.8656 37.9248 23.8656V23.8708Z" fill="#FAFAFA"/>
<path d="M58.0611 46.26C54.3221 46.26 51.0996 45.0005 48.3909 42.4815C45.6821 39.9599 44.3278 36.8743 44.3278 33.217C44.3278 29.5597 45.6821 26.4584 48.3909 23.913C51.0996 21.365 54.3248 20.0923 58.0611 20.0923C61.7975 20.0923 65.078 21.365 67.8131 23.913C70.5482 26.4584 71.9183 29.5623 71.9183 33.217C71.9183 36.8717 70.5508 39.9625 67.8131 42.4815C65.078 45.0005 61.8265 46.26 58.0611 46.26ZM58.0611 23.8708C55.3787 23.8708 53.0758 24.7799 51.1523 26.5928C49.2288 28.4082 48.267 30.6163 48.267 33.217C48.2934 35.8177 49.2683 37.9995 51.1918 39.7596C53.1153 41.5224 55.4051 42.4025 58.0585 42.4025C60.7119 42.4025 63.0491 41.5224 64.9858 39.7596C66.9225 37.9995 67.9053 35.8177 67.9316 33.217C67.958 30.6163 66.991 28.4082 65.0253 26.5928C63.0623 24.7799 60.7382 23.8708 58.0559 23.8708H58.0611Z" fill="#FAFAFA"/>
</g>
</svg>
