<svg width="419" height="108" viewBox="0 0 419 108" fill="none" xmlns="http://www.w3.org/2000/svg">
<path fill-rule="evenodd" clip-rule="evenodd" d="M61.7869 99.9484L68.7015 96.1425V73.7498V62.1551V59.5883V7.81055L61.6983 12.7671C61.6983 28.1676 61.6983 43.3027 61.6983 58.7032V59.4998V61.9781C61.185 63.9731 60.2138 65.8215 58.8615 67.3771C56.7752 69.781 53.7126 71.1147 50.5286 71.006C47.1734 71.2134 43.9076 69.8765 41.6638 67.3771C39.412 64.9819 38.1735 61.8111 38.2066 58.5262V33.9207H31.8239V58.3492C31.8785 61.6054 30.7082 64.7636 28.5439 67.2001C26.5095 69.7029 23.4392 71.1379 20.211 71.0945C16.8412 71.2798 13.5729 69.9093 11.3462 67.3771C9.18947 64.9362 8.0202 61.7809 8.06625 58.5262V33.9207H1.68359V76.8476H8.42084V72.3336C10.152 73.8006 12.0575 75.0491 14.0943 76.051C16.1788 76.998 18.4539 77.4524 20.7429 77.3786C23.8585 77.4827 26.9375 76.6834 29.6077 75.0774C32.1694 73.6105 34.3072 71.5066 35.8131 68.9703C37.6337 71.4946 39.9961 73.5811 42.7276 75.0774C45.4181 76.6346 48.4829 77.4302 51.5924 77.3786C55.4935 77.4312 59.2894 76.1157 62.3188 73.6613V100.214L61.7869 99.9484Z" fill="#02B1E4"/>
<path d="M82.2691 77.5548H75V33.9198H82.2691V77.5548ZM75.1773 26.7506C75.1896 25.8599 75.5378 25.0066 76.1524 24.3609C76.7942 23.7396 77.652 23.3906 78.5459 23.3873C79.4436 23.371 80.3087 23.7229 80.9394 24.3609C81.611 24.9754 81.9964 25.8411 82.0032 26.7506C82.0103 27.6887 81.6246 28.587 80.9394 29.2289C80.3087 29.8668 79.4436 30.2187 78.5459 30.2024C77.652 30.1991 76.7942 29.8501 76.1524 29.2289C75.5246 28.556 75.1761 27.6702 75.1773 26.7506ZM86.3469 77.5548V70.4741H115.778C117.402 70.4743 118.962 69.8388 120.122 68.7039C121.316 67.5776 121.99 66.0074 121.983 64.3669C122.01 62.7481 121.331 61.1976 120.122 60.1185C118.945 58.9534 117.346 58.3146 115.689 58.3483H97.9598C93.6533 58.507 89.618 56.2535 87.4994 52.5067C86.4559 50.6397 85.9066 48.5377 85.9037 46.3996C85.8107 43.2602 87.0693 40.2314 89.361 38.0798C91.629 35.6239 94.887 34.3228 98.2258 34.5394H128.189V41.4431H97.9598C96.5904 41.4126 95.2713 41.9587 94.3253 42.9478C93.3192 43.8444 92.7666 45.1426 92.8182 46.4881C92.7765 47.8575 93.3252 49.1789 94.3253 50.117C95.2944 51.0717 96.5983 51.6115 97.9598 51.6216H115.689C120.466 51.3399 124.968 53.8643 127.214 58.0828C128.363 60.0435 128.975 62.2721 128.987 64.5439C129.128 68.135 127.667 71.6038 124.997 74.0144C122.349 76.4537 118.847 77.7569 115.246 77.6433H85.9923L86.3469 77.5548ZM170.208 52.7723C169.854 49.0273 167.994 45.5857 165.054 43.2337C162.113 40.8818 158.344 39.8206 154.606 40.2925C150.208 40.322 145.989 42.0323 142.816 45.072C139.658 47.9522 137.884 52.0426 137.94 56.3126C138.086 64.8466 145.082 71.6744 153.631 71.6247C157.217 71.6341 160.771 70.9425 164.091 69.589C167.384 68.4339 170.049 65.9657 171.449 62.7738L176.147 67.1992C174.157 70.803 171.045 73.6614 167.283 75.342C163.335 77.146 159.036 78.0529 154.695 77.9973C148.513 78.164 142.518 75.8717 138.029 71.6247C133.539 67.6345 131.041 61.8695 131.203 55.8701C131.137 49.9153 133.621 44.2158 138.029 40.204C142.449 35.9518 148.38 33.6276 154.517 33.7428C160.383 33.4266 166.177 35.1465 170.917 38.6108C175.775 42.7952 178.344 49.0419 177.832 55.4275C177.832 56.3126 177.832 57.3747 177.832 58.3483H144.323V52.8608H170.031L170.208 52.7723ZM187.938 41.4431H197.777C201.902 41.3181 205.912 42.8114 208.947 45.603C211.882 48.3444 213.497 52.2128 213.379 56.2241C213.456 60.3153 211.779 64.2445 208.77 67.0222C205.79 70.0056 201.731 71.6646 197.511 71.6247H188.647V41.3546L187.938 41.4431ZM220.56 56.2241C220.677 50.365 218.292 44.7329 214 40.735C209.711 36.6444 203.974 34.4167 198.043 34.5394H181.555V91.8932H188.647V77.5548H199.107C203.19 77.61 207.209 76.538 210.72 74.457C214.223 72.3635 217.029 69.2846 218.787 65.6061C220.423 62.5896 221.277 59.212 221.269 55.7816L220.56 56.2241ZM248.395 40.2925C244.112 40.3672 240.019 42.0776 236.96 45.072C233.851 47.968 232.085 52.0229 232.085 56.2684C232.085 60.5138 233.851 64.5687 236.96 67.4647C240.156 70.3698 244.34 71.952 248.661 71.8902C253.001 71.9056 257.196 70.331 260.452 67.4647C263.628 64.6279 265.436 60.568 265.416 56.3126C265.521 52.0143 263.701 47.8931 260.452 45.072C257.299 42.0008 253.066 40.2851 248.661 40.2925H248.395ZM248.395 78.1743C242.368 78.1726 236.58 75.8227 232.261 71.6247C227.856 67.585 225.349 61.8864 225.349 55.9143C225.349 49.9422 227.856 44.2436 232.261 40.204C236.638 35.9401 242.548 33.6118 248.661 33.7428C254.798 33.6276 260.73 35.9518 265.15 40.204C269.605 44.2152 272.149 49.9243 272.149 55.9143C272.149 61.9043 269.605 67.6135 265.15 71.6247C260.723 75.8763 254.804 78.2274 248.661 78.1743H248.395ZM273.926 77.5548V70.4741H303.889C305.544 70.4977 307.14 69.8605 308.321 68.7039C309.516 67.5776 310.19 66.0074 310.183 64.3669C310.21 62.7481 309.53 61.1976 308.321 60.1185C307.145 58.9534 305.546 58.3146 303.889 58.3483H286.159C281.843 58.5486 277.787 56.2837 275.699 52.5067C274.589 50.6629 274.007 48.5507 274.015 46.3996C274 43.2573 275.282 40.2477 277.561 38.0798C279.74 35.7641 282.8 34.4779 285.982 34.5394H315.945V41.4431H286.159C284.794 41.4338 283.483 41.9765 282.525 42.9478C281.548 43.865 281.001 45.1493 281.018 46.4881C281.018 47.8494 281.561 49.1547 282.525 50.117C283.504 51.0564 284.802 51.5936 286.159 51.6216H303.889C308.686 51.3492 313.21 53.8661 315.502 58.0828C316.584 60.0665 317.163 62.2851 317.186 64.5439C317.328 68.135 315.867 71.6038 313.197 74.0144C310.68 76.3783 307.345 77.6786 303.889 77.6433H274.192L273.926 77.5548Z" fill="white"/>
<path d="M342.794 51.8025L338.275 77.9228H331.137L336.997 44.1971H343.667L342.794 51.8025ZM340.207 59.9067L338.243 59.9378C338.451 58.1508 338.815 56.291 339.334 54.3584C339.875 52.4259 340.644 50.6388 341.641 48.9972C342.659 47.3348 343.937 45.9945 345.475 44.9763C347.013 43.9581 348.872 43.4802 351.054 43.5425C352.779 43.6048 354.15 44.0308 355.169 44.8205C356.187 45.6101 356.925 46.6283 357.382 47.8751C357.86 49.1011 358.14 50.4414 358.223 51.896C358.306 53.3506 358.275 54.774 358.13 56.1663L354.514 77.9228H347.439L351.054 56.0728C351.158 55.1169 351.179 54.161 351.117 53.2051C351.075 52.2493 350.815 51.4389 350.337 50.7739C349.859 50.0882 349.018 49.7349 347.813 49.7141C346.545 49.6518 345.454 49.9635 344.54 50.6492C343.646 51.335 342.909 52.2077 342.327 53.2675C341.745 54.3273 341.288 55.4494 340.955 56.6338C340.623 57.8183 340.373 58.9092 340.207 59.9067Z" fill="white"/>
<path d="M374.463 78.5462C372.239 78.5047 370.359 78.0683 368.821 77.2371C367.283 76.4059 366.068 75.2734 365.174 73.8396C364.301 72.4058 363.709 70.7849 363.397 68.9771C363.107 67.1484 363.055 65.2263 363.242 63.2107L363.647 59.969C363.896 57.891 364.374 55.865 365.081 53.8909C365.808 51.896 366.774 50.1089 367.979 48.5297C369.185 46.9504 370.66 45.714 372.406 44.8205C374.172 43.9269 376.239 43.5009 378.608 43.5425C380.894 43.6048 382.733 44.1243 384.125 45.101C385.538 46.0569 386.577 47.3141 387.242 48.8725C387.928 50.431 388.344 52.1558 388.489 54.0467C388.635 55.9377 388.583 57.8287 388.333 59.7196L387.803 63.3665H366.514L367.481 57.8806L381.538 57.9118L381.663 57.0702C381.829 56.0104 381.871 54.9195 381.788 53.7974C381.725 52.6753 381.414 51.7194 380.853 50.9298C380.292 50.1401 379.346 49.7037 378.016 49.6206C376.624 49.5583 375.481 49.8492 374.587 50.4934C373.694 51.1376 372.987 51.9999 372.468 53.0805C371.948 54.161 371.564 55.3143 371.315 56.5403C371.065 57.7456 370.878 58.8884 370.754 59.969L370.348 63.2418C370.224 64.2808 370.172 65.3302 370.193 66.39C370.234 67.4498 370.4 68.4368 370.691 69.3511C371.003 70.2446 371.512 70.9719 372.219 71.533C372.946 72.0941 373.964 72.3954 375.273 72.4369C376.811 72.4785 378.214 72.1876 379.481 71.5642C380.749 70.92 381.912 70.0888 382.972 69.0706L385.746 73.559C384.894 74.7227 383.855 75.6786 382.629 76.4267C381.403 77.154 380.084 77.6942 378.671 78.0475C377.278 78.4008 375.876 78.567 374.463 78.5462Z" fill="white"/>
<path d="M392.572 62.4314L392.915 59.7508C393.165 57.6728 393.663 55.6572 394.411 53.7039C395.16 51.7506 396.157 50.005 397.404 48.4673C398.671 46.9088 400.188 45.6932 401.955 44.8205C403.742 43.9269 405.809 43.5113 408.157 43.5737C410.381 43.6152 412.23 44.114 413.706 45.0698C415.202 46.0257 416.355 47.2829 417.165 48.8414C417.997 50.3999 418.537 52.1246 418.786 54.0156C419.036 55.8858 419.067 57.7871 418.88 59.7196L418.537 62.4314C418.288 64.4886 417.789 66.5043 417.041 68.4784C416.293 70.4317 415.285 72.1772 414.017 73.7149C412.77 75.2526 411.254 76.4578 409.466 77.3306C407.7 78.2033 405.653 78.6086 403.326 78.5462C401.082 78.5047 399.222 78.0059 397.747 77.0501C396.271 76.0942 395.118 74.8474 394.287 73.3097C393.476 71.7512 392.936 70.0265 392.666 68.1355C392.417 66.2445 392.385 64.3432 392.572 62.4314ZM400.022 59.7196L399.71 62.4626C399.627 63.3146 399.575 64.3016 399.554 65.4237C399.534 66.5251 399.638 67.6056 399.866 68.6654C400.095 69.7252 400.521 70.6187 401.144 71.346C401.788 72.0525 402.703 72.4265 403.887 72.4681C405.238 72.5512 406.37 72.2811 407.285 71.6577C408.199 71.0135 408.937 70.1719 409.498 69.1329C410.079 68.0939 410.516 66.9822 410.807 65.7978C411.118 64.6133 411.347 63.4808 411.493 62.4002L411.804 59.6885C411.867 58.8365 411.908 57.8598 411.929 56.7585C411.95 55.6364 411.835 54.5455 411.586 53.4857C411.357 52.4259 410.931 51.5428 410.308 50.8362C409.685 50.1089 408.77 49.7141 407.565 49.6518C406.277 49.5687 405.175 49.8492 404.261 50.4934C403.368 51.1376 402.63 51.9895 402.048 53.0493C401.466 54.1091 401.009 55.2312 400.677 56.4156C400.365 57.6001 400.147 58.7014 400.022 59.7196Z" fill="white"/>
</svg>
