<svg width="417" height="108" viewBox="0 0 417 108" fill="none" xmlns="http://www.w3.org/2000/svg">
<path fill-rule="evenodd" clip-rule="evenodd" d="M61.7869 99.9484L68.7015 96.1425V73.7498V62.1551V59.5883V7.81055L61.6983 12.7671C61.6983 28.1676 61.6983 43.3027 61.6983 58.7032V59.4998V61.9781C61.185 63.9731 60.2138 65.8215 58.8615 67.3771C56.7752 69.781 53.7126 71.1147 50.5286 71.006C47.1734 71.2134 43.9076 69.8765 41.6638 67.3771C39.412 64.9819 38.1735 61.8111 38.2066 58.5262V33.9207H31.8239V58.3492C31.8785 61.6054 30.7082 64.7636 28.5439 67.2001C26.5095 69.7029 23.4392 71.1379 20.211 71.0945C16.8412 71.2798 13.5729 69.9093 11.3462 67.3771C9.18947 64.9362 8.0202 61.7809 8.06625 58.5262V33.9207H1.68359V76.8476H8.42084V72.3336C10.152 73.8006 12.0575 75.0491 14.0943 76.051C16.1788 76.998 18.4539 77.4524 20.7429 77.3786C23.8585 77.4827 26.9375 76.6834 29.6077 75.0774C32.1694 73.6105 34.3072 71.5066 35.8131 68.9703C37.6337 71.4946 39.9961 73.5811 42.7276 75.0774C45.4181 76.6346 48.4829 77.4302 51.5924 77.3786C55.4935 77.4312 59.2894 76.1157 62.3188 73.6613V100.214L61.7869 99.9484Z" fill="#02B1E4"/>
<path d="M82.2691 77.5558H75V33.9208H82.2691V77.5558ZM75.1773 26.7516C75.1896 25.8609 75.5378 25.0076 76.1524 24.3618C76.7942 23.7406 77.652 23.3916 78.5459 23.3882C79.4436 23.372 80.3087 23.7239 80.9394 24.3618C81.611 24.9764 81.9964 25.8421 82.0032 26.7516C82.0103 27.6896 81.6246 28.588 80.9394 29.2298C80.3087 29.8677 79.4436 30.2196 78.5459 30.2034C77.652 30.2 76.7942 29.8511 76.1524 29.2298C75.5246 28.5569 75.1761 27.6712 75.1773 26.7516ZM86.3469 77.5558V70.475H115.778C117.402 70.4753 118.962 69.8397 120.122 68.7049C121.316 67.5785 121.99 66.0084 121.983 64.3679C122.01 62.7491 121.331 61.1986 120.122 60.1195C118.945 58.9544 117.346 58.3156 115.689 58.3493H97.9598C93.6533 58.508 89.618 56.2545 87.4994 52.5077C86.4559 50.6406 85.9066 48.5387 85.9037 46.4006C85.8107 43.2611 87.0693 40.2323 89.361 38.0807C91.629 35.6249 94.887 34.3238 98.2258 34.5404H128.189V41.4441H97.9598C96.5904 41.4136 95.2713 41.9597 94.3253 42.9487C93.3192 43.8454 92.7666 45.1436 92.8182 46.4891C92.7765 47.8585 93.3252 49.1799 94.3253 50.118C95.2944 51.0727 96.5983 51.6125 97.9598 51.6226H115.689C120.466 51.3409 124.968 53.8652 127.214 58.0838C128.363 60.0444 128.975 62.273 128.987 64.5449C129.128 68.136 127.667 71.6048 124.997 74.0154C122.349 76.4547 118.847 77.7579 115.246 77.6443H85.9923L86.3469 77.5558ZM170.208 52.7732C169.854 49.0283 167.994 45.5866 165.054 43.2347C162.113 40.8828 158.344 39.8216 154.606 40.2935C150.208 40.3229 145.989 42.0333 142.816 45.0729C139.658 47.9532 137.884 52.0436 137.94 56.3136C138.086 64.8475 145.082 71.6754 153.631 71.6256C157.217 71.6351 160.771 70.9435 164.091 69.5899C167.384 68.4348 170.049 65.9666 171.449 62.7747L176.147 67.2002C174.157 70.8039 171.045 73.6624 167.283 75.343C163.335 77.147 159.036 78.0539 154.695 77.9983C148.513 78.165 142.518 75.8726 138.029 71.6256C133.539 67.6355 131.041 61.8704 131.203 55.871C131.137 49.9163 133.621 44.2167 138.029 40.2049C142.449 35.9528 148.38 33.6285 154.517 33.7438C160.383 33.4275 166.177 35.1475 170.917 38.6118C175.775 42.7962 178.344 49.0429 177.832 55.4285C177.832 56.3136 177.832 57.3757 177.832 58.3493H144.323V52.8617H170.031L170.208 52.7732ZM187.938 41.4441H197.777C201.902 41.3191 205.912 42.8124 208.947 45.604C211.882 48.3454 213.497 52.2137 213.379 56.2251C213.456 60.3163 211.779 64.2454 208.77 67.0232C205.79 70.0065 201.731 71.6656 197.511 71.6256H188.647V41.3556L187.938 41.4441ZM220.56 56.2251C220.677 50.366 218.292 44.7339 214 40.736C209.711 36.6453 203.974 34.4176 198.043 34.5404H181.555V91.8942H188.647V77.5558H199.107C203.19 77.611 207.209 76.539 210.72 74.4579C214.223 72.3645 217.029 69.2856 218.787 65.607C220.423 62.5906 221.277 59.213 221.269 55.7825L220.56 56.2251ZM248.395 40.2934C244.112 40.3682 240.019 42.0786 236.96 45.0729C233.851 47.969 232.085 52.0239 232.085 56.2693C232.085 60.5148 233.851 64.5697 236.96 67.4657C240.156 70.3708 244.34 71.953 248.661 71.8912C253.001 71.9066 257.196 70.332 260.452 67.4657C263.628 64.6288 265.436 60.5689 265.416 56.3136C265.521 52.0153 263.701 47.8941 260.452 45.0729C257.299 42.0018 253.066 40.2861 248.661 40.2934H248.395ZM248.395 78.1753C242.368 78.1735 236.58 75.8237 232.261 71.6256C227.856 67.586 225.349 61.8874 225.349 55.9153C225.349 49.9432 227.856 44.2446 232.261 40.2049C236.638 35.941 242.548 33.6128 248.661 33.7438C254.798 33.6285 260.73 35.9528 265.15 40.2049C269.605 44.2161 272.149 49.9253 272.149 55.9153C272.149 61.9053 269.605 67.6145 265.15 71.6256C260.723 75.8773 254.804 78.2284 248.661 78.1753H248.395ZM273.926 77.5558V70.475H303.889C305.544 70.4987 307.14 69.8614 308.321 68.7049C309.516 67.5785 310.19 66.0084 310.183 64.3679C310.21 62.7491 309.53 61.1986 308.321 60.1195C307.145 58.9544 305.546 58.3156 303.889 58.3493H286.159C281.843 58.5496 277.787 56.2847 275.699 52.5077C274.589 50.6639 274.007 48.5517 274.015 46.4006C274 43.2583 275.282 40.2487 277.561 38.0807C279.74 35.7651 282.8 34.4789 285.982 34.5404H315.945V41.4441H286.159C284.794 41.4347 283.483 41.9775 282.525 42.9487C281.548 43.866 281.001 45.1503 281.018 46.4891C281.018 47.8504 281.561 49.1557 282.525 50.118C283.504 51.0574 284.802 51.5945 286.159 51.6226H303.889C308.686 51.3502 313.21 53.8671 315.502 58.0838C316.584 60.0675 317.163 62.2861 317.186 64.5449C317.328 68.136 315.867 71.6048 313.197 74.0154C310.68 76.3793 307.345 77.6796 303.889 77.6443H274.192L273.926 77.5558Z" fill="white"/>
<path d="M328.176 87.026H334.027L336.686 74.1036C337.22 76.7435 339.677 78.5451 342.359 78.2636C346.349 78.2636 351.933 75.6083 354.504 63.4826C357.075 53.9236 355.213 47.8165 348.21 47.8165C345.144 47.8786 342.327 49.5189 340.764 52.1534L341.473 48.613H336.065L328.176 87.026ZM338.814 62.7745C340.143 56.5789 341.916 52.5074 345.905 52.5074C349.895 52.5074 349.983 56.6674 348.565 63.1285C346.792 71.1828 344.842 73.6611 341.384 73.6611C337.927 73.6611 337.307 69.6782 338.814 62.7745ZM356.543 77.5555H362.394L370.638 39.1426H364.787L356.543 77.5555ZM383.138 77.5555H388.545L394.662 48.5245H388.9L384.556 68.7931C384.048 71.5824 381.633 73.6223 378.794 73.6611C376.223 73.6611 375.071 72.599 375.691 69.3242L380.123 48.5245H374.273L369.929 68.7931C368.422 76.3164 370.815 78.2636 375.159 78.2636C378.502 78.3273 381.67 76.7786 383.669 74.1036L382.96 77.5555H383.138ZM416.558 57.0214V55.6938C417.267 52.1534 416.558 47.8165 409.111 47.8165C403.782 47.0863 398.779 50.5451 397.587 55.7823C396.888 57.4547 396.969 59.3507 397.808 60.9577C398.647 62.5647 400.157 63.7167 401.931 64.1021L406.275 65.7838C407.168 66.0064 407.926 66.5933 408.364 67.4013C408.802 68.2093 408.881 69.1639 408.579 70.0322C408.127 72.6945 405.686 74.5515 402.995 74.2807C399.626 74.2807 398.828 72.5105 399.537 69.1471V68.262H394.396V69.3242C393.155 74.9002 394.396 78.1751 402.02 78.1751C407.79 78.8059 413.106 74.987 414.342 69.3242C414.956 67.6951 414.865 65.8847 414.093 64.3246C413.32 62.7644 411.933 61.5941 410.264 61.0928L406.807 59.7652C403.97 58.7031 403.172 57.7295 403.704 55.5167C404.11 53.1979 406.232 51.5796 408.579 51.7994C411.682 51.7994 411.948 53.9236 411.505 56.2248V57.0214H416.558Z" fill="white"/>
</svg>
