<svg width="255" height="190" viewBox="0 0 255 190" fill="none" xmlns="http://www.w3.org/2000/svg">
<path d="M5.80458 9.90562V30.3916C5.80458 33.9249 6.05655 36.3825 6.56982 37.7457C7.51236 40.2404 9.46278 41.4831 12.4491 41.4831C14.4461 41.4831 16.0699 40.8061 17.3204 39.4428C18.5709 38.0796 19.1962 36.4103 19.1962 34.4257V9.92417H25.0754V34.4257C25.0754 36.3732 25.6913 38.0332 26.9232 39.415C28.155 40.7968 29.7508 41.4924 31.7105 41.4924C33.6703 41.4924 35.3594 40.8246 36.5539 39.4799C37.7484 38.1352 38.3457 36.4566 38.3457 34.4257V9.92417H44.3369V34.0176C44.3369 37.5602 43.1424 40.565 40.7533 43.0318C38.3643 45.4986 35.4154 46.7413 31.8878 46.7413C27.8564 46.7413 24.5808 45.1648 22.0798 42.0117C19.6068 45.1648 16.3872 46.7413 12.393 46.7413C8.83751 46.7413 5.87923 45.5172 3.52754 43.0596C1.17585 40.6113 0 37.6159 0 34.0733V9.9149H5.81392L5.80458 9.90562Z" fill="#FAFAFA"/>
<path d="M54.4155 46.4353H48.4242V9.377H54.4155V46.4353ZM48.6016 3.31191C48.6016 2.53291 48.8815 1.85591 49.4508 1.29948C50.02 0.733778 50.692 0.446289 51.4759 0.446289C52.2598 0.446289 52.997 0.733778 53.5569 1.29948C54.1262 1.86519 54.4155 2.53291 54.4155 3.31191C54.4155 4.09091 54.1262 4.82354 53.5569 5.37998C52.9876 5.94568 52.2971 6.22389 51.4759 6.22389C50.6546 6.22389 50.0107 5.94568 49.4508 5.37998C48.8815 4.81427 48.6016 4.12801 48.6016 3.31191Z" fill="#FAFAFA"/>
<path d="M58.1205 40.3702H83.1959C84.6424 40.3702 85.8929 39.8694 86.9567 38.8771C88.0113 37.8848 88.5432 36.6699 88.5432 35.2325C88.5432 33.795 88.0206 32.5801 86.9847 31.5878C85.9489 30.5955 84.689 30.104 83.1959 30.104H67.9845C64.0277 30.104 61.0788 28.4533 59.119 25.1518C58.1765 23.5567 57.7099 21.841 57.7099 20.0141C57.7099 17.2505 58.6991 14.8764 60.6775 12.901C62.6559 10.9164 65.0543 9.92413 67.8726 9.92413H93.4146V15.813H68.0965C66.8833 15.813 65.8475 16.2211 64.9889 17.0464C64.1304 17.8718 63.7011 18.8641 63.7011 20.0419C63.7011 21.2197 64.1304 22.2769 64.9889 23.093C65.8475 23.9184 66.8833 24.3264 68.0965 24.3264H83.5692C88.0206 24.3264 91.3055 26.1719 93.4146 29.8722C94.3944 31.5786 94.8797 33.4055 94.8797 35.353C94.8797 38.6267 93.7598 41.2883 91.5015 43.3471C89.2524 45.4059 86.4995 46.4445 83.2519 46.4445H58.1205V40.3702Z" fill="#FAFAFA"/>
<path d="M129.576 25.3744C128.485 18.3355 124.052 14.8115 116.306 14.8115C112.433 14.8115 109.092 16.1098 106.293 18.725C103.493 21.331 102.112 24.5026 102.159 28.24C102.196 31.8939 103.521 35.0099 106.125 37.5788C108.729 40.1476 111.873 41.4274 115.55 41.4274C118.677 41.4274 121.654 40.8431 124.472 39.6746C127.766 38.2743 129.856 36.3917 130.762 34.0176L134.7 37.8106C133.095 40.806 130.528 43.106 127.01 44.7011C123.8 46.2127 120.235 46.9732 116.325 46.9732C110.847 46.9732 106.162 45.174 102.261 41.5758C98.3606 37.9775 96.4195 33.5354 96.4195 28.2493C96.4195 22.9632 98.3792 18.5395 102.289 14.8856C106.2 11.2317 110.884 9.4048 116.325 9.4048C122.204 9.4419 126.796 10.7681 130.127 13.374C134.084 16.4437 136.062 21.2104 136.062 27.6743C136.062 28.4533 136.044 29.2694 135.997 30.1226H107.814V25.4578H129.539L129.595 25.3929L129.576 25.3744Z" fill="#FAFAFA"/>
<path d="M170.628 36.5772C169.023 39.6932 166.728 42.1137 163.76 43.8386C160.783 45.5728 157.498 46.4353 153.896 46.4353H144.965V58.5748H139.272V9.90562H153.597C158.879 9.90562 163.396 11.6677 167.129 15.1824C170.871 18.7065 172.737 23.0745 172.737 28.2864C172.737 31.1613 172.038 33.9249 170.628 36.5679V36.5772ZM144.965 41.1307H153.131C156.882 41.1307 160.064 39.9158 162.668 37.486C165.272 35.0563 166.578 31.9959 166.578 28.2957C166.578 24.5954 165.309 21.637 162.761 19.2815C160.214 16.9259 157.069 15.7481 153.308 15.7481H144.965V41.1307Z" fill="#FAFAFA"/>
<path d="M196.46 46.9639C191.056 46.9639 186.4 45.1555 182.48 41.5387C178.561 37.9219 176.601 33.489 176.601 28.24C176.601 22.991 178.561 18.5303 182.48 14.8764C186.39 11.2225 191.056 9.39557 196.46 9.39557C201.863 9.39557 206.594 11.2225 210.551 14.8764C214.499 18.5396 216.477 22.991 216.477 28.24C216.477 33.489 214.499 37.9219 210.551 41.5387C206.594 45.1555 201.9 46.9639 196.46 46.9639ZM196.46 14.8115C192.587 14.8115 189.255 16.1098 186.474 18.7251C183.693 21.331 182.303 24.5027 182.303 28.24C182.34 31.9681 183.749 35.1027 186.53 37.6344C189.311 40.1662 192.615 41.4274 196.45 41.4274C200.286 41.4274 203.664 40.1662 206.464 37.6344C209.263 35.1119 210.682 31.9774 210.719 28.24C210.757 24.5027 209.357 21.331 206.52 18.7251C203.683 16.1191 200.323 14.8115 196.45 14.8115H196.46Z" fill="#FAFAFA"/>
<path d="M218.241 40.3702H243.316C244.763 40.3702 246.013 39.8694 247.077 38.8771C248.132 37.8848 248.663 36.6699 248.663 35.2325C248.663 33.795 248.141 32.5801 247.105 31.5878C246.069 30.5955 244.809 30.104 243.316 30.104H228.105C224.148 30.104 221.199 28.4533 219.239 25.1518C218.297 23.5567 217.83 21.841 217.83 20.0141C217.83 17.2505 218.819 14.8764 220.798 12.901C222.776 10.9164 225.175 9.92413 227.993 9.92413H253.535V15.813H228.217C227.004 15.813 225.968 16.2211 225.109 17.0464C224.251 17.8718 223.821 18.8641 223.821 20.0419C223.821 21.2197 224.251 22.2769 225.109 23.093C225.968 23.9184 227.004 24.3264 228.217 24.3264H243.689C248.141 24.3264 251.426 26.1719 253.535 29.8722C254.515 31.5786 255 33.4055 255 35.353C255 38.6267 253.88 41.2883 251.622 43.3471C249.373 45.4059 246.62 46.4445 243.372 46.4445H218.241V40.3702Z" fill="#FAFAFA"/>
<path d="M79.4163 135.501C75.4782 143.134 69.8696 149.069 62.5812 153.307C55.2835 157.545 47.2298 159.669 38.4017 159.669H16.5272V189.419H2.56633V70.1393H37.6831C50.6361 70.1393 61.6946 74.4516 70.8588 83.0856C80.0229 91.7195 84.605 102.422 84.605 115.192C84.605 122.249 82.8785 129.019 79.4256 135.501H79.4163ZM16.5272 146.658H36.5352C45.746 146.658 53.5384 143.681 59.9215 137.718C66.3047 131.755 69.4963 124.252 69.4963 115.192C69.4963 106.131 66.3793 98.8604 60.1362 93.092C53.9023 87.3237 46.1753 84.4395 36.9645 84.4395H16.5272V146.658Z" fill="#FAFAFA"/>
<path d="M134.317 82.1582C126.907 82.1582 120.776 84.7085 115.923 89.8091C111.061 94.9097 108.635 101.225 108.635 108.756V159.669H93.9557V70.1393H108.635V79.4316C113.441 75.7128 117.622 73.144 121.187 71.7065C125.517 69.7961 130.323 68.8409 135.614 68.8409C147.83 68.8409 157.834 73.6077 165.626 83.1412L152.925 90.0038C148.017 84.7641 141.811 82.1396 134.317 82.1396V82.1582Z" fill="#FAFAFA"/>
<path d="M205.633 160.958C192.391 160.958 180.978 156.525 171.384 147.659C161.791 138.784 156.994 127.925 156.994 115.053C156.994 102.18 161.791 91.2651 171.384 82.3066C180.978 73.3388 192.4 68.8595 205.633 68.8595C218.866 68.8595 230.485 73.3388 240.171 82.3066C249.858 91.2651 254.711 102.19 254.711 115.053C254.711 127.915 249.867 138.794 240.171 147.659C230.485 156.525 218.969 160.958 205.633 160.958ZM205.633 82.1582C196.133 82.1582 187.977 85.3577 181.164 91.7381C174.352 98.1277 170.946 105.899 170.946 115.053C171.039 124.206 174.492 131.885 181.304 138.079C188.117 144.284 196.226 147.381 205.624 147.381C215.021 147.381 223.299 144.284 230.158 138.079C237.017 131.885 240.498 124.206 240.591 115.053C240.685 105.899 237.26 98.1277 230.298 91.7381C223.346 85.3577 215.115 82.1582 205.614 82.1582H205.633Z" fill="#FAFAFA"/>
<mask id="mask0_1_13953" style="mask-type:alpha" maskUnits="userSpaceOnUse" x="0" y="0" width="255" height="190">
<path d="M5.80458 9.90562V30.3916C5.80458 33.9249 6.05655 36.3825 6.56982 37.7457C7.51236 40.2404 9.46277 41.4831 12.4491 41.4831C14.4461 41.4831 16.0699 40.8061 17.3204 39.4428C18.5709 38.0796 19.1962 36.4103 19.1962 34.4257V9.92417H25.0754V34.4257C25.0754 36.3732 25.6913 38.0332 26.9232 39.415C28.155 40.7968 29.7508 41.4924 31.7105 41.4924C33.6703 41.4924 35.3594 40.8246 36.5539 39.4799C37.7484 38.1352 38.3457 36.4566 38.3457 34.4257V9.92417H44.3369V34.0176C44.3369 37.5602 43.1424 40.565 40.7533 43.0318C38.3643 45.4986 35.4154 46.7413 31.8878 46.7413C27.8564 46.7413 24.5808 45.1648 22.0798 42.0117C19.6068 45.1648 16.3872 46.7413 12.393 46.7413C8.83751 46.7413 5.87923 45.5172 3.52754 43.0596C1.17585 40.6113 0 37.6159 0 34.0733V9.9149H5.81392L5.80458 9.90562Z" fill="#FAFAFA"/>
<path d="M54.4155 46.4353H48.4242V9.377H54.4155V46.4353ZM48.6016 3.31191C48.6016 2.53291 48.8815 1.85591 49.4508 1.29948C50.02 0.733778 50.692 0.446289 51.4759 0.446289C52.2598 0.446289 52.997 0.733778 53.5569 1.29948C54.1262 1.86519 54.4155 2.53291 54.4155 3.31191C54.4155 4.09091 54.1262 4.82354 53.5569 5.37998C52.9876 5.94568 52.2971 6.22389 51.4759 6.22389C50.6546 6.22389 50.0107 5.94568 49.4508 5.37998C48.8815 4.81427 48.6016 4.12801 48.6016 3.31191Z" fill="#FAFAFA"/>
<path d="M58.1205 40.3702H83.1959C84.6424 40.3702 85.8929 39.8694 86.9567 38.8771C88.0113 37.8848 88.5432 36.6699 88.5432 35.2325C88.5432 33.795 88.0206 32.5801 86.9847 31.5878C85.9489 30.5955 84.689 30.104 83.1959 30.104H67.9845C64.0277 30.104 61.0788 28.4533 59.119 25.1518C58.1765 23.5567 57.7099 21.841 57.7099 20.0141C57.7099 17.2505 58.6991 14.8764 60.6775 12.901C62.6559 10.9164 65.0543 9.92413 67.8726 9.92413H93.4146V15.813H68.0965C66.8833 15.813 65.8475 16.2211 64.9889 17.0464C64.1304 17.8718 63.7011 18.8641 63.7011 20.0419C63.7011 21.2197 64.1304 22.2769 64.9889 23.093C65.8475 23.9184 66.8833 24.3264 68.0965 24.3264H83.5692C88.0206 24.3264 91.3055 26.1719 93.4146 29.8722C94.3944 31.5786 94.8797 33.4055 94.8797 35.353C94.8797 38.6267 93.7598 41.2883 91.5015 43.3471C89.2524 45.4059 86.4995 46.4445 83.2519 46.4445H58.1205V40.3702Z" fill="#FAFAFA"/>
<path d="M129.576 25.3744C128.485 18.3355 124.052 14.8115 116.306 14.8115C112.433 14.8115 109.093 16.1098 106.293 18.725C103.493 21.331 102.112 24.5026 102.159 28.24C102.196 31.8939 103.521 35.0099 106.125 37.5788C108.729 40.1476 111.873 41.4274 115.55 41.4274C118.677 41.4274 121.654 40.8432 124.472 39.6746C127.766 38.2743 129.856 36.3917 130.762 34.0176L134.7 37.8106C133.095 40.806 130.528 43.106 127.01 44.7011C123.8 46.2127 120.235 46.9732 116.325 46.9732C110.847 46.9732 106.162 45.174 102.261 41.5758C98.3606 37.9775 96.4195 33.5354 96.4195 28.2493C96.4195 22.9632 98.3792 18.5395 102.289 14.8856C106.2 11.2317 110.884 9.4048 116.325 9.4048C122.204 9.4419 126.796 10.7681 130.127 13.374C134.084 16.4437 136.062 21.2104 136.062 27.6743C136.062 28.4533 136.044 29.2694 135.997 30.1226H107.814V25.4578H129.539L129.595 25.3929L129.576 25.3744Z" fill="#FAFAFA"/>
<path d="M170.628 36.5772C169.023 39.6932 166.728 42.1137 163.76 43.8386C160.783 45.5728 157.498 46.4353 153.896 46.4353H144.965V58.5748H139.272V9.90562H153.597C158.879 9.90562 163.396 11.6677 167.129 15.1824C170.871 18.7065 172.737 23.0745 172.737 28.2864C172.737 31.1613 172.038 33.9249 170.628 36.5679V36.5772ZM144.965 41.1307H153.131C156.882 41.1307 160.064 39.9158 162.668 37.486C165.272 35.0563 166.578 31.9959 166.578 28.2957C166.578 24.5954 165.309 21.637 162.761 19.2815C160.214 16.9259 157.069 15.7481 153.308 15.7481H144.965V41.1307Z" fill="#FAFAFA"/>
<path d="M196.46 46.9639C191.056 46.9639 186.4 45.1555 182.48 41.5387C178.561 37.9219 176.601 33.489 176.601 28.24C176.601 22.991 178.561 18.5303 182.48 14.8764C186.39 11.2225 191.056 9.39557 196.46 9.39557C201.863 9.39557 206.594 11.2225 210.551 14.8764C214.499 18.5396 216.477 22.991 216.477 28.24C216.477 33.489 214.499 37.9219 210.551 41.5387C206.594 45.1555 201.9 46.9639 196.46 46.9639ZM196.46 14.8115C192.587 14.8115 189.255 16.1098 186.474 18.7251C183.693 21.331 182.303 24.5027 182.303 28.24C182.34 31.9681 183.749 35.1027 186.53 37.6344C189.311 40.1662 192.615 41.4274 196.45 41.4274C200.286 41.4274 203.664 40.1662 206.464 37.6344C209.263 35.1119 210.682 31.9774 210.719 28.24C210.756 24.5027 209.357 21.331 206.52 18.7251C203.683 16.1191 200.323 14.8115 196.45 14.8115H196.46Z" fill="#FAFAFA"/>
<path d="M218.241 40.3702H243.316C244.763 40.3702 246.013 39.8694 247.077 38.8771C248.132 37.8848 248.663 36.6699 248.663 35.2325C248.663 33.795 248.141 32.5801 247.105 31.5878C246.069 30.5955 244.809 30.104 243.316 30.104H228.105C224.148 30.104 221.199 28.4533 219.239 25.1518C218.297 23.5567 217.83 21.841 217.83 20.0141C217.83 17.2505 218.819 14.8764 220.798 12.901C222.776 10.9164 225.175 9.92413 227.993 9.92413H253.535V15.813H228.217C227.004 15.813 225.968 16.2211 225.109 17.0464C224.251 17.8718 223.821 18.8641 223.821 20.0419C223.821 21.2197 224.251 22.2769 225.109 23.093C225.968 23.9184 227.004 24.3264 228.217 24.3264H243.689C248.141 24.3264 251.426 26.1719 253.535 29.8722C254.515 31.5786 255 33.4055 255 35.353C255 38.6267 253.88 41.2883 251.622 43.3471C249.373 45.4059 246.62 46.4445 243.372 46.4445H218.241V40.3702Z" fill="#FAFAFA"/>
<path d="M79.4163 135.501C75.4782 143.134 69.8696 149.069 62.5812 153.307C55.2835 157.545 47.2298 159.669 38.4017 159.669H16.5272V189.419H2.56633V70.1393H37.6831C50.6361 70.1393 61.6946 74.4516 70.8588 83.0856C80.0229 91.7195 84.605 102.422 84.605 115.192C84.605 122.249 82.8785 129.019 79.4256 135.501H79.4163ZM16.5272 146.658H36.5352C45.746 146.658 53.5384 143.681 59.9215 137.718C66.3047 131.755 69.4963 124.252 69.4963 115.192C69.4963 106.131 66.3793 98.8604 60.1362 93.092C53.9023 87.3237 46.1753 84.4395 36.9645 84.4395H16.5272V146.658Z" fill="#FAFAFA"/>
<path d="M134.317 82.1582C126.907 82.1582 120.776 84.7085 115.923 89.8091C111.061 94.9097 108.635 101.225 108.635 108.756V159.669H93.9557V70.1393H108.635V79.4316C113.441 75.7128 117.622 73.144 121.187 71.7065C125.517 69.7961 130.323 68.8409 135.614 68.8409C147.83 68.8409 157.834 73.6077 165.626 83.1412L152.925 90.0038C148.017 84.7641 141.811 82.1396 134.317 82.1396V82.1582Z" fill="#FAFAFA"/>
<path d="M205.633 160.958C192.391 160.958 180.978 156.525 171.384 147.659C161.791 138.784 156.994 127.925 156.994 115.053C156.994 102.18 161.791 91.2651 171.384 82.3066C180.978 73.3388 192.4 68.8595 205.633 68.8595C218.866 68.8595 230.485 73.3388 240.171 82.3066C249.858 91.2651 254.711 102.19 254.711 115.053C254.711 127.915 249.867 138.794 240.171 147.659C230.485 156.525 218.969 160.958 205.633 160.958ZM205.633 82.1582C196.133 82.1582 187.977 85.3577 181.164 91.7381C174.352 98.1277 170.946 105.899 170.946 115.053C171.039 124.206 174.492 131.885 181.304 138.079C188.117 144.284 196.226 147.381 205.624 147.381C215.021 147.381 223.299 144.284 230.158 138.079C237.017 131.885 240.498 124.206 240.591 115.053C240.685 105.899 237.26 98.1277 230.298 91.7381C223.346 85.3577 215.115 82.1582 205.614 82.1582H205.633Z" fill="#FAFAFA"/>
</mask>
<g mask="url(#mask0_1_13953)">
<rect x="-2" y="6" width="48" height="48" fill="#43BAF9"/>
</g>
</svg>
