<svg width="52" height="53" viewBox="0 0 52 53" fill="none" xmlns="http://www.w3.org/2000/svg">
<rect y="0.669922" width="52" height="52" rx="26" fill="#E6F7FC"/>
<g clip-path="url(#clip0_1_19882)">
<path d="M25.9985 38.6699C23.9228 38.1315 21.9765 37.1814 20.2752 35.8759C18.574 34.5704 17.1525 32.9363 16.0953 31.0706C15.0381 29.2049 14.3667 27.1458 14.121 25.0155C13.8753 22.8852 14.0604 20.7273 14.6651 18.6699C18.8192 18.86 22.884 17.4254 25.9985 14.6699C29.1129 17.4254 33.1778 18.86 37.3318 18.6699C38.0505 21.1126 38.1678 23.6659 37.7091 26.1206" stroke="#0D0E15" stroke-width="2" stroke-linecap="round" stroke-linejoin="round"/>
<path d="M30 34.6699C30 35.7308 30.4214 36.7482 31.1716 37.4983C31.9217 38.2485 32.9391 38.6699 34 38.6699C35.0609 38.6699 36.0783 38.2485 36.8284 37.4983C37.5786 36.7482 38 35.7308 38 34.6699C38 33.6091 37.5786 32.5916 36.8284 31.8415C36.0783 31.0913 35.0609 30.6699 34 30.6699C32.9391 30.6699 31.9217 31.0913 31.1716 31.8415C30.4214 32.5916 30 33.6091 30 34.6699Z" stroke="#02B1E4" stroke-width="2" stroke-linecap="round" stroke-linejoin="round"/>
<path d="M36.9297 37.6035L39.3297 40.0035" stroke="#02B1E4" stroke-width="2" stroke-linecap="round" stroke-linejoin="round"/>
</g>
<defs>
<clipPath id="clip0_1_19882">
<rect width="32" height="32" fill="white" transform="translate(10 10.6699)"/>
</clipPath>
</defs>
</svg>
