<svg width="52" height="53" viewBox="0 0 52 53" fill="none" xmlns="http://www.w3.org/2000/svg">
<rect y="0.669922" width="52" height="52" rx="26" fill="#E6F7FC"/>
<path d="M25.0026 25.0003C28.6845 25.0003 31.6693 22.0156 31.6693 18.3337C31.6693 14.6518 28.6845 11.667 25.0026 11.667C21.3207 11.667 18.3359 14.6518 18.3359 18.3337C18.3359 22.0156 21.3207 25.0003 25.0026 25.0003Z" stroke="#0D0E15" stroke-width="2" stroke-linecap="round" stroke-linejoin="round"/>
<path d="M13.5391 38.3333C13.5391 33.1733 18.6724 29 24.9924 29C26.2724 29 27.5124 29.1733 28.6724 29.4933" stroke="#0D0E15" stroke-width="2" stroke-linecap="round" stroke-linejoin="round"/>
<path d="M38.3385 33.0003C38.3385 34.0003 38.0586 34.947 37.5652 35.747C37.2852 36.227 36.9252 36.6537 36.5119 37.0003C35.5785 37.8403 34.3519 38.3337 33.0052 38.3337C31.0585 38.3337 29.3652 37.2937 28.4452 35.747C27.9519 34.947 27.6719 34.0003 27.6719 33.0003C27.6719 31.3203 28.4452 29.8137 29.6719 28.8403C30.5919 28.107 31.7519 27.667 33.0052 27.667C35.9519 27.667 38.3385 30.0537 38.3385 33.0003Z" stroke="#43BAF9" stroke-width="2" stroke-miterlimit="10" stroke-linecap="round" stroke-linejoin="round"/>
<path d="M30.9219 33L32.2419 34.32L35.0819 31.6934" stroke="#43BAF9" stroke-width="2" stroke-linecap="round" stroke-linejoin="round"/>
</svg>
