<svg width="153" height="142" viewBox="0 0 153 142" fill="none" xmlns="http://www.w3.org/2000/svg">
<g clip-path="url(#clip0_22_15148)">
<rect width="153" height="142" rx="10" fill="#1E1F2C"/>
<path d="M31.5786 32.7251L31.0171 34.8027H20.4604L21.0332 32.7251H31.5786ZM26.3228 45L20.7861 38.4639L20.7749 36.667H23.4478C24.0991 36.667 24.6344 36.5472 25.0537 36.3076C25.4805 36.0605 25.7987 35.7274 26.0083 35.3081C26.2254 34.8888 26.334 34.4172 26.334 33.8931C26.334 33.3465 26.2367 32.8636 26.042 32.4443C25.8473 32.0176 25.5366 31.6844 25.1099 31.4448C24.6831 31.2052 24.1178 31.0854 23.4141 31.0854H20.4717L21.1118 28.6484H23.4141C24.7467 28.6484 25.8548 28.8506 26.7383 29.2549C27.6292 29.6517 28.2956 30.2319 28.7373 30.9956C29.1865 31.7518 29.4111 32.6652 29.4111 33.7358C29.4111 34.6717 29.2539 35.499 28.9395 36.2178C28.6325 36.929 28.1346 37.5093 27.4458 37.9585C26.757 38.4077 25.8511 38.7072 24.728 38.8569L29.748 44.8428V45H26.3228ZM31.5898 28.6484L31.0171 30.7261H22.3359L22.9087 28.6484H31.5898Z" fill="#FAFAFA"/>
<path d="M52.2524 42.6641V45H41.1792V43.001L46.4912 37.2622C47.0452 36.6333 47.4832 36.0868 47.8052 35.6226C48.1271 35.1584 48.3555 34.7391 48.4902 34.3647C48.6325 33.9829 48.7036 33.6198 48.7036 33.2754C48.7036 32.7738 48.6138 32.3358 48.4341 31.9614C48.2544 31.5796 47.9924 31.2839 47.6479 31.0742C47.311 30.8646 46.8955 30.7598 46.4014 30.7598C45.8548 30.7598 45.3869 30.887 44.9976 31.1416C44.6157 31.3887 44.3237 31.7331 44.1216 32.1748C43.9269 32.6165 43.8296 33.1219 43.8296 33.6909H40.8535C40.8535 32.7251 41.0781 31.8454 41.5273 31.0518C41.9766 30.2507 42.6204 29.6105 43.459 29.1313C44.2975 28.6522 45.2933 28.4126 46.4463 28.4126C47.5693 28.4126 48.5202 28.5998 49.2988 28.9741C50.0775 29.341 50.6689 29.8651 51.0732 30.5464C51.4775 31.2277 51.6797 32.04 51.6797 32.9834C51.6797 33.5075 51.5936 34.0241 51.4214 34.5332C51.2492 35.0423 51.0059 35.5477 50.6914 36.0493C50.3844 36.5435 50.0176 37.0451 49.5908 37.5542C49.1641 38.0633 48.6886 38.5837 48.1646 39.1152L44.9751 42.6641H52.2524ZM57.2725 42.3271L57.25 44.3823C57.25 45.1834 57.0516 45.9958 56.6548 46.8193C56.258 47.6429 55.7451 48.3242 55.1162 48.8633L53.5439 47.9985C53.7461 47.6616 53.9333 47.321 54.1055 46.9766C54.2852 46.6322 54.4274 46.2578 54.5322 45.8535C54.6445 45.4567 54.7007 45.0112 54.7007 44.5171V42.3271H57.2725ZM70.5581 35.4204V38.1719C70.5581 39.4297 70.4308 40.5041 70.1763 41.395C69.9217 42.286 69.5549 43.016 69.0757 43.585C68.5965 44.1465 68.0238 44.562 67.3574 44.8315C66.6911 45.0936 65.9499 45.2246 65.1338 45.2246C64.4824 45.2246 63.876 45.1423 63.3145 44.9775C62.7529 44.8053 62.2476 44.5433 61.7983 44.1914C61.3566 43.832 60.9748 43.3753 60.6528 42.8213C60.3384 42.2673 60.0951 41.6047 59.9229 40.8335C59.7581 40.0623 59.6758 39.1751 59.6758 38.1719V35.4204C59.6758 34.1626 59.8031 33.092 60.0576 32.2085C60.3197 31.325 60.6903 30.6025 61.1694 30.041C61.6486 29.4795 62.2214 29.0715 62.8877 28.8169C63.554 28.5549 64.2952 28.4238 65.1113 28.4238C65.7702 28.4238 66.3766 28.5062 66.9307 28.6709C67.4922 28.8356 67.9938 29.0939 68.4355 29.4458C68.8848 29.7902 69.2666 30.2394 69.5811 30.7935C69.8955 31.34 70.1351 31.9989 70.2998 32.77C70.472 33.5337 70.5581 34.4172 70.5581 35.4204ZM67.5933 38.5762V35.0049C67.5933 34.376 67.5558 33.8294 67.481 33.3652C67.4136 32.8936 67.3125 32.493 67.1777 32.1636C67.043 31.8341 66.8745 31.5684 66.6724 31.3662C66.4702 31.1566 66.2381 31.0031 65.9761 30.9058C65.714 30.8084 65.4258 30.7598 65.1113 30.7598C64.722 30.7598 64.3739 30.8384 64.0669 30.9956C63.7599 31.1453 63.5016 31.3849 63.292 31.7144C63.0824 32.0438 62.9214 32.4818 62.8091 33.0283C62.7043 33.5674 62.6519 34.2262 62.6519 35.0049V38.5762C62.6519 39.2051 62.6855 39.7554 62.7529 40.2271C62.8278 40.6987 62.9326 41.103 63.0674 41.4399C63.2096 41.7769 63.3781 42.0539 63.5728 42.271C63.7749 42.4806 64.007 42.6379 64.269 42.7427C64.5311 42.84 64.8193 42.8887 65.1338 42.8887C65.5306 42.8887 65.8787 42.8101 66.1782 42.6528C66.4852 42.4956 66.7435 42.2485 66.9531 41.9116C67.1628 41.5672 67.32 41.1217 67.4248 40.5752C67.5371 40.0212 67.5933 39.3548 67.5933 38.5762ZM83.6978 35.4204V38.1719C83.6978 39.4297 83.5705 40.5041 83.3159 41.395C83.0614 42.286 82.6945 43.016 82.2153 43.585C81.7362 44.1465 81.1634 44.562 80.4971 44.8315C79.8307 45.0936 79.0895 45.2246 78.2734 45.2246C77.6221 45.2246 77.0156 45.1423 76.4541 44.9775C75.8926 44.8053 75.3872 44.5433 74.938 44.1914C74.4963 43.832 74.1144 43.3753 73.7925 42.8213C73.478 42.2673 73.2347 41.6047 73.0625 40.8335C72.8978 40.0623 72.8154 39.1751 72.8154 38.1719V35.4204C72.8154 34.1626 72.9427 33.092 73.1973 32.2085C73.4593 31.325 73.8299 30.6025 74.3091 30.041C74.7882 29.4795 75.361 29.0715 76.0273 28.8169C76.6937 28.5549 77.4349 28.4238 78.251 28.4238C78.9098 28.4238 79.5163 28.5062 80.0703 28.6709C80.6318 28.8356 81.1335 29.0939 81.5752 29.4458C82.0244 29.7902 82.4062 30.2394 82.7207 30.7935C83.0352 31.34 83.2747 31.9989 83.4395 32.77C83.6117 33.5337 83.6978 34.4172 83.6978 35.4204ZM80.7329 38.5762V35.0049C80.7329 34.376 80.6955 33.8294 80.6206 33.3652C80.5532 32.8936 80.4521 32.493 80.3174 32.1636C80.1826 31.8341 80.0142 31.5684 79.812 31.3662C79.6099 31.1566 79.3778 31.0031 79.1157 30.9058C78.8537 30.8084 78.5654 30.7598 78.251 30.7598C77.8617 30.7598 77.5135 30.8384 77.2065 30.9956C76.8996 31.1453 76.6413 31.3849 76.4316 31.7144C76.222 32.0438 76.061 32.4818 75.9487 33.0283C75.8439 33.5674 75.7915 34.2262 75.7915 35.0049V38.5762C75.7915 39.2051 75.8252 39.7554 75.8926 40.2271C75.9674 40.6987 76.0723 41.103 76.207 41.4399C76.3493 41.7769 76.5177 42.0539 76.7124 42.271C76.9146 42.4806 77.1466 42.6379 77.4087 42.7427C77.6707 42.84 77.959 42.8887 78.2734 42.8887C78.6702 42.8887 79.0184 42.8101 79.3179 42.6528C79.6248 42.4956 79.8831 42.2485 80.0928 41.9116C80.3024 41.5672 80.4596 41.1217 80.5645 40.5752C80.6768 40.0212 80.7329 39.3548 80.7329 38.5762ZM96.8374 35.4204V38.1719C96.8374 39.4297 96.7101 40.5041 96.4556 41.395C96.201 42.286 95.8341 43.016 95.355 43.585C94.8758 44.1465 94.3031 44.562 93.6367 44.8315C92.9704 45.0936 92.2292 45.2246 91.4131 45.2246C90.7617 45.2246 90.1553 45.1423 89.5938 44.9775C89.0322 44.8053 88.5269 44.5433 88.0776 44.1914C87.6359 43.832 87.2541 43.3753 86.9321 42.8213C86.6177 42.2673 86.3743 41.6047 86.2021 40.8335C86.0374 40.0623 85.9551 39.1751 85.9551 38.1719V35.4204C85.9551 34.1626 86.0824 33.092 86.3369 32.2085C86.599 31.325 86.9696 30.6025 87.4487 30.041C87.9279 29.4795 88.5007 29.0715 89.167 28.8169C89.8333 28.5549 90.5745 28.4238 91.3906 28.4238C92.0495 28.4238 92.6559 28.5062 93.21 28.6709C93.7715 28.8356 94.2731 29.0939 94.7148 29.4458C95.1641 29.7902 95.5459 30.2394 95.8604 30.7935C96.1748 31.34 96.4144 31.9989 96.5791 32.77C96.7513 33.5337 96.8374 34.4172 96.8374 35.4204ZM93.8726 38.5762V35.0049C93.8726 34.376 93.8351 33.8294 93.7603 33.3652C93.6929 32.8936 93.5918 32.493 93.457 32.1636C93.3223 31.8341 93.1538 31.5684 92.9517 31.3662C92.7495 31.1566 92.5174 31.0031 92.2554 30.9058C91.9933 30.8084 91.7051 30.7598 91.3906 30.7598C91.0013 30.7598 90.6532 30.8384 90.3462 30.9956C90.0392 31.1453 89.7809 31.3849 89.5713 31.7144C89.3617 32.0438 89.2007 32.4818 89.0884 33.0283C88.9836 33.5674 88.9312 34.2262 88.9312 35.0049V38.5762C88.9312 39.2051 88.9648 39.7554 89.0322 40.2271C89.1071 40.6987 89.2119 41.103 89.3467 41.4399C89.4889 41.7769 89.6574 42.0539 89.8521 42.271C90.0542 42.4806 90.2863 42.6379 90.5483 42.7427C90.8104 42.84 91.0986 42.8887 91.4131 42.8887C91.8099 42.8887 92.158 42.8101 92.4575 42.6528C92.7645 42.4956 93.0228 42.2485 93.2324 41.9116C93.4421 41.5672 93.5993 41.1217 93.7041 40.5752C93.8164 40.0212 93.8726 39.3548 93.8726 38.5762Z" fill="#FAFAFA"/>
<rect x="20" y="67" width="24" height="3" rx="1.5" fill="#00BDFF"/>
<rect x="20.5" y="90.5" width="159" height="30" rx="4.5" stroke="#03B1E4"/>
<path d="M41.7998 105.004V107.99C41.6888 108.137 41.5151 108.298 41.2788 108.474C41.0461 108.646 40.7363 108.794 40.3496 108.919C39.9629 109.045 39.4813 109.107 38.9048 109.107C38.4142 109.107 37.9648 109.025 37.5566 108.86C37.1484 108.692 36.7957 108.447 36.4985 108.125C36.2049 107.802 35.9775 107.41 35.8164 106.948C35.6553 106.483 35.5747 105.953 35.5747 105.358V104.816C35.5747 104.225 35.6481 103.699 35.7949 103.237C35.9453 102.771 36.1602 102.377 36.4395 102.055C36.7188 101.733 37.0553 101.489 37.4492 101.325C37.8467 101.156 38.2961 101.072 38.7974 101.072C39.4383 101.072 39.9683 101.18 40.3872 101.395C40.8097 101.606 41.1356 101.899 41.3647 102.275C41.5939 102.651 41.7389 103.081 41.7998 103.564H40.4785C40.4355 103.292 40.3514 103.049 40.2261 102.834C40.1043 102.619 39.9289 102.451 39.6997 102.329C39.4741 102.204 39.1805 102.141 38.8188 102.141C38.5073 102.141 38.2334 102.2 37.9971 102.318C37.7607 102.437 37.5638 102.61 37.4062 102.839C37.2523 103.069 37.1359 103.348 37.0571 103.677C36.9784 104.007 36.939 104.383 36.939 104.805V105.358C36.939 105.788 36.9837 106.169 37.0732 106.502C37.1663 106.835 37.2988 107.117 37.4707 107.346C37.6462 107.575 37.8592 107.749 38.1099 107.867C38.3605 107.981 38.6434 108.039 38.9585 108.039C39.2664 108.039 39.5189 108.014 39.7158 107.963C39.9128 107.91 40.0685 107.847 40.1831 107.775C40.3013 107.7 40.3926 107.629 40.457 107.561V106.008H38.8296V105.004H41.7998ZM45.7261 109.107C45.2964 109.107 44.9079 109.038 44.5605 108.898C44.2168 108.755 43.9232 108.556 43.6797 108.302C43.4398 108.048 43.2554 107.749 43.1265 107.405C42.9976 107.061 42.9331 106.69 42.9331 106.293V106.078C42.9331 105.623 42.9993 105.212 43.1318 104.843C43.2643 104.474 43.4487 104.159 43.6851 103.897C43.9214 103.632 44.2007 103.43 44.5229 103.291C44.8452 103.151 45.1943 103.081 45.5703 103.081C45.9857 103.081 46.3491 103.151 46.6606 103.291C46.9722 103.43 47.23 103.627 47.4341 103.881C47.6418 104.132 47.7957 104.431 47.896 104.778C47.9998 105.126 48.0518 105.509 48.0518 105.928V106.481H43.5615V105.552H46.7734V105.45C46.7663 105.217 46.7197 104.999 46.6338 104.794C46.5514 104.59 46.4243 104.426 46.2524 104.3C46.0806 104.175 45.8514 104.112 45.5649 104.112C45.3501 104.112 45.1585 104.159 44.9902 104.252C44.8255 104.341 44.6877 104.472 44.5767 104.644C44.4657 104.816 44.3797 105.024 44.3188 105.267C44.2616 105.507 44.2329 105.777 44.2329 106.078V106.293C44.2329 106.547 44.2669 106.784 44.335 107.002C44.4066 107.217 44.5104 107.405 44.6465 107.566C44.7826 107.727 44.9473 107.854 45.1406 107.947C45.334 108.037 45.5542 108.082 45.8013 108.082C46.1128 108.082 46.3903 108.019 46.6338 107.894C46.8773 107.768 47.0885 107.591 47.2676 107.362L47.9497 108.022C47.8244 108.205 47.6615 108.381 47.4609 108.549C47.2604 108.714 47.0151 108.848 46.7251 108.952C46.4386 109.056 46.1056 109.107 45.7261 109.107ZM50.3452 104.429V109H49.0508V103.188H50.27L50.3452 104.429ZM50.1143 105.879L49.6953 105.874C49.6989 105.462 49.7562 105.084 49.8672 104.741C49.9818 104.397 50.1393 104.102 50.3398 103.854C50.5439 103.607 50.7874 103.418 51.0703 103.285C51.3532 103.149 51.6683 103.081 52.0156 103.081C52.2949 103.081 52.5474 103.12 52.7729 103.199C53.0021 103.274 53.1973 103.398 53.3584 103.57C53.5231 103.742 53.6484 103.965 53.7344 104.241C53.8203 104.513 53.8633 104.848 53.8633 105.246V109H52.5635V105.24C52.5635 104.961 52.5223 104.741 52.4399 104.58C52.3612 104.415 52.2448 104.299 52.0908 104.23C51.9404 104.159 51.7524 104.123 51.5269 104.123C51.3049 104.123 51.1061 104.17 50.9307 104.263C50.7552 104.356 50.6066 104.483 50.4849 104.644C50.3667 104.805 50.2754 104.991 50.2109 105.203C50.1465 105.414 50.1143 105.639 50.1143 105.879ZM57.7466 109.107C57.3169 109.107 56.9284 109.038 56.5811 108.898C56.2373 108.755 55.9437 108.556 55.7002 108.302C55.4603 108.048 55.2759 107.749 55.147 107.405C55.0181 107.061 54.9536 106.69 54.9536 106.293V106.078C54.9536 105.623 55.0199 105.212 55.1523 104.843C55.2848 104.474 55.4692 104.159 55.7056 103.897C55.9419 103.632 56.2212 103.43 56.5435 103.291C56.8657 103.151 57.2148 103.081 57.5908 103.081C58.0062 103.081 58.3696 103.151 58.6812 103.291C58.9927 103.43 59.2505 103.627 59.4546 103.881C59.6623 104.132 59.8162 104.431 59.9165 104.778C60.0203 105.126 60.0723 105.509 60.0723 105.928V106.481H55.582V105.552H58.7939V105.45C58.7868 105.217 58.7402 104.999 58.6543 104.794C58.5719 104.59 58.4448 104.426 58.2729 104.3C58.1011 104.175 57.8719 104.112 57.5854 104.112C57.3706 104.112 57.179 104.159 57.0107 104.252C56.846 104.341 56.7082 104.472 56.5972 104.644C56.4862 104.816 56.4002 105.024 56.3394 105.267C56.2821 105.507 56.2534 105.777 56.2534 106.078V106.293C56.2534 106.547 56.2874 106.784 56.3555 107.002C56.4271 107.217 56.5309 107.405 56.667 107.566C56.8031 107.727 56.9678 107.854 57.1611 107.947C57.3545 108.037 57.5747 108.082 57.8218 108.082C58.1333 108.082 58.4108 108.019 58.6543 107.894C58.8978 107.768 59.109 107.591 59.2881 107.362L59.9702 108.022C59.8449 108.205 59.682 108.381 59.4814 108.549C59.2809 108.714 59.0356 108.848 58.7456 108.952C58.4591 109.056 58.1261 109.107 57.7466 109.107ZM62.3818 104.295V109H61.0874V103.188H62.3228L62.3818 104.295ZM64.1597 103.151L64.1489 104.354C64.0701 104.34 63.9842 104.329 63.8911 104.322C63.8016 104.315 63.7121 104.311 63.6226 104.311C63.4006 104.311 63.2054 104.343 63.0371 104.408C62.8688 104.469 62.7274 104.558 62.6128 104.676C62.5018 104.791 62.4159 104.931 62.355 105.095C62.2941 105.26 62.2583 105.444 62.2476 105.648L61.9521 105.67C61.9521 105.305 61.988 104.966 62.0596 104.655C62.1312 104.343 62.2386 104.069 62.3818 103.833C62.5286 103.597 62.7113 103.412 62.9297 103.28C63.1517 103.147 63.4077 103.081 63.6978 103.081C63.7765 103.081 63.8607 103.088 63.9502 103.103C64.0433 103.117 64.1131 103.133 64.1597 103.151ZM68.0537 107.834V105.063C68.0537 104.855 68.0161 104.676 67.9409 104.526C67.8657 104.375 67.7511 104.259 67.5972 104.177C67.4468 104.094 67.257 104.053 67.0278 104.053C66.8166 104.053 66.634 104.089 66.48 104.161C66.326 104.232 66.2061 104.329 66.1201 104.451C66.0342 104.572 65.9912 104.71 65.9912 104.864H64.7021C64.7021 104.635 64.7576 104.413 64.8687 104.198C64.9797 103.983 65.1408 103.792 65.3521 103.624C65.5633 103.455 65.8158 103.323 66.1094 103.226C66.403 103.129 66.7324 103.081 67.0977 103.081C67.5345 103.081 67.9212 103.154 68.2578 103.301C68.598 103.448 68.8647 103.67 69.0581 103.967C69.255 104.261 69.3535 104.63 69.3535 105.074V107.657C69.3535 107.922 69.3714 108.16 69.4072 108.372C69.4466 108.579 69.5021 108.76 69.5737 108.914V109H68.2471C68.1862 108.86 68.1379 108.683 68.1021 108.468C68.0698 108.25 68.0537 108.039 68.0537 107.834ZM68.2417 105.466L68.2524 106.266H67.3232C67.0833 106.266 66.8721 106.289 66.6895 106.336C66.5068 106.379 66.3547 106.443 66.2329 106.529C66.1112 106.615 66.0199 106.719 65.959 106.841C65.8981 106.963 65.8677 107.1 65.8677 107.254C65.8677 107.408 65.9035 107.55 65.9751 107.679C66.0467 107.804 66.1506 107.903 66.2866 107.974C66.4263 108.046 66.5946 108.082 66.7915 108.082C67.0565 108.082 67.2874 108.028 67.4844 107.92C67.6849 107.809 67.8424 107.675 67.957 107.518C68.0716 107.356 68.1325 107.204 68.1396 107.061L68.5586 107.636C68.5156 107.783 68.4422 107.94 68.3384 108.108C68.2345 108.277 68.0985 108.438 67.9302 108.592C67.7655 108.742 67.5667 108.866 67.334 108.962C67.1048 109.059 66.8398 109.107 66.5391 109.107C66.1595 109.107 65.8211 109.032 65.5239 108.882C65.2267 108.728 64.994 108.522 64.8257 108.264C64.6574 108.003 64.5732 107.707 64.5732 107.378C64.5732 107.07 64.6305 106.798 64.7451 106.562C64.8633 106.322 65.0352 106.121 65.2607 105.96C65.4899 105.799 65.7692 105.677 66.0986 105.595C66.4281 105.509 66.804 105.466 67.2266 105.466H68.2417ZM73.3711 103.188V104.134H70.0947V103.188H73.3711ZM71.04 101.765H72.3345V107.394C72.3345 107.573 72.3595 107.711 72.4097 107.808C72.4634 107.901 72.5368 107.963 72.6299 107.996C72.723 108.028 72.8322 108.044 72.9575 108.044C73.047 108.044 73.133 108.039 73.2153 108.028C73.2977 108.017 73.3639 108.006 73.4141 107.996L73.4194 108.984C73.312 109.016 73.1867 109.045 73.0435 109.07C72.9038 109.095 72.7427 109.107 72.5601 109.107C72.2629 109.107 71.9997 109.056 71.7705 108.952C71.5413 108.844 71.3623 108.671 71.2334 108.431C71.1045 108.191 71.04 107.872 71.04 107.475V101.765ZM76.9321 109.107C76.5024 109.107 76.1139 109.038 75.7666 108.898C75.4229 108.755 75.1292 108.556 74.8857 108.302C74.6458 108.048 74.4614 107.749 74.3325 107.405C74.2036 107.061 74.1392 106.69 74.1392 106.293V106.078C74.1392 105.623 74.2054 105.212 74.3379 104.843C74.4704 104.474 74.6548 104.159 74.8911 103.897C75.1274 103.632 75.4067 103.43 75.729 103.291C76.0513 103.151 76.4004 103.081 76.7764 103.081C77.1917 103.081 77.5552 103.151 77.8667 103.291C78.1782 103.43 78.436 103.627 78.6401 103.881C78.8478 104.132 79.0018 104.431 79.1021 104.778C79.2059 105.126 79.2578 105.509 79.2578 105.928V106.481H74.7676V105.552H77.9795V105.45C77.9723 105.217 77.9258 104.999 77.8398 104.794C77.7575 104.59 77.6304 104.426 77.4585 104.3C77.2866 104.175 77.0575 104.112 76.771 104.112C76.5562 104.112 76.3646 104.159 76.1963 104.252C76.0316 104.341 75.8937 104.472 75.7827 104.644C75.6717 104.816 75.5858 105.024 75.5249 105.267C75.4676 105.507 75.439 105.777 75.439 106.078V106.293C75.439 106.547 75.473 106.784 75.541 107.002C75.6126 107.217 75.7165 107.405 75.8525 107.566C75.9886 107.727 76.1533 107.854 76.3467 107.947C76.54 108.037 76.7603 108.082 77.0073 108.082C77.3188 108.082 77.5964 108.019 77.8398 107.894C78.0833 107.768 78.2946 107.591 78.4736 107.362L79.1558 108.022C79.0304 108.205 78.8675 108.381 78.667 108.549C78.4665 108.714 78.2212 108.848 77.9312 108.952C77.6447 109.056 77.3117 109.107 76.9321 109.107ZM84.3066 104.306V111.234H83.0122V103.188H84.2046L84.3066 104.306ZM88.0933 106.041V106.153C88.0933 106.576 88.0431 106.968 87.9429 107.33C87.8462 107.688 87.7012 108.001 87.5078 108.27C87.318 108.535 87.0835 108.74 86.8042 108.887C86.5249 109.034 86.2026 109.107 85.8374 109.107C85.4757 109.107 85.1589 109.041 84.8867 108.909C84.6182 108.773 84.3908 108.581 84.2046 108.334C84.0184 108.087 83.868 107.797 83.7534 107.464C83.6424 107.127 83.5636 106.758 83.5171 106.357V105.922C83.5636 105.496 83.6424 105.11 83.7534 104.762C83.868 104.415 84.0184 104.116 84.2046 103.865C84.3908 103.615 84.6182 103.421 84.8867 103.285C85.1553 103.149 85.4686 103.081 85.8267 103.081C86.1919 103.081 86.516 103.153 86.7988 103.296C87.0817 103.436 87.3198 103.636 87.5132 103.897C87.7065 104.155 87.8516 104.467 87.9482 104.832C88.0449 105.194 88.0933 105.597 88.0933 106.041ZM86.7988 106.153V106.041C86.7988 105.772 86.7738 105.523 86.7236 105.294C86.6735 105.061 86.5947 104.857 86.4873 104.682C86.3799 104.506 86.242 104.37 86.0737 104.273C85.909 104.173 85.7103 104.123 85.4775 104.123C85.2484 104.123 85.0514 104.162 84.8867 104.241C84.722 104.316 84.5841 104.422 84.4731 104.558C84.3621 104.694 84.2762 104.854 84.2153 105.036C84.1545 105.215 84.1115 105.41 84.0864 105.622V106.664C84.1294 106.921 84.2028 107.158 84.3066 107.373C84.4105 107.587 84.5573 107.759 84.7471 107.888C84.9404 108.014 85.1875 108.076 85.4883 108.076C85.721 108.076 85.9198 108.026 86.0845 107.926C86.2492 107.826 86.3835 107.688 86.4873 107.512C86.5947 107.333 86.6735 107.127 86.7236 106.895C86.7738 106.662 86.7988 106.415 86.7988 106.153ZM92.4707 107.834V105.063C92.4707 104.855 92.4331 104.676 92.3579 104.526C92.2827 104.375 92.1681 104.259 92.0142 104.177C91.8638 104.094 91.674 104.053 91.4448 104.053C91.2336 104.053 91.0509 104.089 90.897 104.161C90.743 104.232 90.623 104.329 90.5371 104.451C90.4512 104.572 90.4082 104.71 90.4082 104.864H89.1191C89.1191 104.635 89.1746 104.413 89.2856 104.198C89.3966 103.983 89.5578 103.792 89.769 103.624C89.9803 103.455 90.2327 103.323 90.5264 103.226C90.82 103.129 91.1494 103.081 91.5146 103.081C91.9515 103.081 92.3382 103.154 92.6748 103.301C93.015 103.448 93.2817 103.67 93.4751 103.967C93.672 104.261 93.7705 104.63 93.7705 105.074V107.657C93.7705 107.922 93.7884 108.16 93.8242 108.372C93.8636 108.579 93.9191 108.76 93.9907 108.914V109H92.6641C92.6032 108.86 92.5549 108.683 92.519 108.468C92.4868 108.25 92.4707 108.039 92.4707 107.834ZM92.6587 105.466L92.6694 106.266H91.7402C91.5003 106.266 91.2891 106.289 91.1064 106.336C90.9238 106.379 90.7716 106.443 90.6499 106.529C90.5282 106.615 90.4368 106.719 90.376 106.841C90.3151 106.963 90.2847 107.1 90.2847 107.254C90.2847 107.408 90.3205 107.55 90.3921 107.679C90.4637 107.804 90.5675 107.903 90.7036 107.974C90.8433 108.046 91.0116 108.082 91.2085 108.082C91.4735 108.082 91.7044 108.028 91.9014 107.92C92.1019 107.809 92.2594 107.675 92.374 107.518C92.4886 107.356 92.5495 107.204 92.5566 107.061L92.9756 107.636C92.9326 107.783 92.8592 107.94 92.7554 108.108C92.6515 108.277 92.5155 108.438 92.3472 108.592C92.1825 108.742 91.9837 108.866 91.751 108.962C91.5218 109.059 91.2568 109.107 90.9561 109.107C90.5765 109.107 90.2381 109.032 89.9409 108.882C89.6437 108.728 89.411 108.522 89.2427 108.264C89.0744 108.003 88.9902 107.707 88.9902 107.378C88.9902 107.07 89.0475 106.798 89.1621 106.562C89.2803 106.322 89.4521 106.121 89.6777 105.96C89.9069 105.799 90.1862 105.677 90.5156 105.595C90.8451 105.509 91.221 105.466 91.6436 105.466H92.6587ZM96.7246 108.366L98.3037 103.188H99.6895L97.3584 109.886C97.3047 110.029 97.2349 110.185 97.1489 110.354C97.063 110.522 96.9502 110.681 96.8105 110.832C96.6745 110.986 96.5044 111.109 96.3003 111.202C96.0962 111.299 95.8491 111.347 95.5591 111.347C95.4445 111.347 95.3335 111.336 95.2261 111.315C95.1222 111.297 95.0238 111.277 94.9307 111.256L94.9253 110.268C94.9611 110.271 95.0041 110.275 95.0542 110.278C95.1079 110.282 95.1509 110.284 95.1831 110.284C95.3979 110.284 95.577 110.257 95.7202 110.203C95.8634 110.153 95.9798 110.071 96.0693 109.956C96.1624 109.841 96.2412 109.688 96.3057 109.494L96.7246 108.366ZM95.833 103.188L97.2134 107.539L97.4443 108.903L96.5474 109.134L94.4365 103.188H95.833ZM101.725 104.37V109H100.431V103.188H101.65L101.725 104.37ZM101.516 105.879L101.075 105.874C101.075 105.473 101.125 105.102 101.226 104.762C101.326 104.422 101.473 104.127 101.666 103.876C101.859 103.622 102.099 103.427 102.386 103.291C102.676 103.151 103.011 103.081 103.39 103.081C103.655 103.081 103.897 103.12 104.115 103.199C104.337 103.274 104.529 103.394 104.69 103.559C104.855 103.724 104.98 103.935 105.066 104.193C105.155 104.451 105.2 104.762 105.2 105.127V109H103.906V105.24C103.906 104.957 103.863 104.735 103.777 104.574C103.694 104.413 103.575 104.299 103.417 104.23C103.263 104.159 103.079 104.123 102.864 104.123C102.62 104.123 102.413 104.17 102.241 104.263C102.072 104.356 101.935 104.483 101.827 104.644C101.72 104.805 101.641 104.991 101.591 105.203C101.541 105.414 101.516 105.639 101.516 105.879ZM105.12 105.536L104.513 105.67C104.513 105.319 104.561 104.988 104.658 104.676C104.758 104.361 104.903 104.085 105.093 103.849C105.286 103.609 105.524 103.421 105.807 103.285C106.09 103.149 106.414 103.081 106.779 103.081C107.076 103.081 107.341 103.122 107.574 103.205C107.811 103.283 108.011 103.409 108.176 103.581C108.34 103.752 108.466 103.976 108.552 104.252C108.638 104.524 108.681 104.854 108.681 105.24V109H107.381V105.235C107.381 104.941 107.338 104.714 107.252 104.553C107.17 104.392 107.051 104.281 106.897 104.22C106.743 104.155 106.559 104.123 106.344 104.123C106.144 104.123 105.966 104.161 105.812 104.236C105.662 104.307 105.535 104.41 105.431 104.542C105.327 104.671 105.249 104.819 105.195 104.988C105.145 105.156 105.12 105.339 105.12 105.536ZM112.575 109.107C112.145 109.107 111.757 109.038 111.409 108.898C111.065 108.755 110.772 108.556 110.528 108.302C110.288 108.048 110.104 107.749 109.975 107.405C109.846 107.061 109.782 106.69 109.782 106.293V106.078C109.782 105.623 109.848 105.212 109.98 104.843C110.113 104.474 110.297 104.159 110.534 103.897C110.77 103.632 111.049 103.43 111.372 103.291C111.694 103.151 112.043 103.081 112.419 103.081C112.834 103.081 113.198 103.151 113.509 103.291C113.821 103.43 114.079 103.627 114.283 103.881C114.49 104.132 114.644 104.431 114.745 104.778C114.848 105.126 114.9 105.509 114.9 105.928V106.481H110.41V105.552H113.622V105.45C113.615 105.217 113.568 104.999 113.482 104.794C113.4 104.59 113.273 104.426 113.101 104.3C112.929 104.175 112.7 104.112 112.414 104.112C112.199 104.112 112.007 104.159 111.839 104.252C111.674 104.341 111.536 104.472 111.425 104.644C111.314 104.816 111.228 105.024 111.167 105.267C111.11 105.507 111.082 105.777 111.082 106.078V106.293C111.082 106.547 111.116 106.784 111.184 107.002C111.255 107.217 111.359 107.405 111.495 107.566C111.631 107.727 111.796 107.854 111.989 107.947C112.183 108.037 112.403 108.082 112.65 108.082C112.961 108.082 113.239 108.019 113.482 107.894C113.726 107.768 113.937 107.591 114.116 107.362L114.798 108.022C114.673 108.205 114.51 108.381 114.31 108.549C114.109 108.714 113.864 108.848 113.574 108.952C113.287 109.056 112.954 109.107 112.575 109.107ZM117.194 104.429V109H115.899V103.188H117.119L117.194 104.429ZM116.963 105.879L116.544 105.874C116.548 105.462 116.605 105.084 116.716 104.741C116.83 104.397 116.988 104.102 117.188 103.854C117.393 103.607 117.636 103.418 117.919 103.285C118.202 103.149 118.517 103.081 118.864 103.081C119.144 103.081 119.396 103.12 119.622 103.199C119.851 103.274 120.046 103.398 120.207 103.57C120.372 103.742 120.497 103.965 120.583 104.241C120.669 104.513 120.712 104.848 120.712 105.246V109H119.412V105.24C119.412 104.961 119.371 104.741 119.289 104.58C119.21 104.415 119.093 104.299 118.939 104.23C118.789 104.159 118.601 104.123 118.375 104.123C118.153 104.123 117.955 104.17 117.779 104.263C117.604 104.356 117.455 104.483 117.333 104.644C117.215 104.805 117.124 104.991 117.06 105.203C116.995 105.414 116.963 105.639 116.963 105.879ZM124.697 103.188V104.134H121.421V103.188H124.697ZM122.366 101.765H123.661V107.394C123.661 107.573 123.686 107.711 123.736 107.808C123.79 107.901 123.863 107.963 123.956 107.996C124.049 108.028 124.158 108.044 124.284 108.044C124.373 108.044 124.459 108.039 124.542 108.028C124.624 108.017 124.69 108.006 124.74 107.996L124.746 108.984C124.638 109.016 124.513 109.045 124.37 109.07C124.23 109.095 124.069 109.107 123.886 109.107C123.589 109.107 123.326 109.056 123.097 108.952C122.868 108.844 122.688 108.671 122.56 108.431C122.431 108.191 122.366 107.872 122.366 107.475V101.765ZM129.821 100.75V109H128.521V100.75H129.821ZM132.625 103.188V109H131.325V103.188H132.625ZM131.239 101.663C131.239 101.466 131.304 101.303 131.433 101.174C131.565 101.042 131.748 100.976 131.98 100.976C132.21 100.976 132.39 101.042 132.523 101.174C132.655 101.303 132.722 101.466 132.722 101.663C132.722 101.856 132.655 102.018 132.523 102.146C132.39 102.275 132.21 102.34 131.98 102.34C131.748 102.34 131.565 102.275 131.433 102.146C131.304 102.018 131.239 101.856 131.239 101.663ZM135.327 104.429V109H134.032V103.188H135.251L135.327 104.429ZM135.096 105.879L134.677 105.874C134.68 105.462 134.738 105.084 134.849 104.741C134.963 104.397 135.121 104.102 135.321 103.854C135.525 103.607 135.769 103.418 136.052 103.285C136.335 103.149 136.65 103.081 136.997 103.081C137.276 103.081 137.529 103.12 137.754 103.199C137.984 103.274 138.179 103.398 138.34 103.57C138.505 103.742 138.63 103.965 138.716 104.241C138.802 104.513 138.845 104.848 138.845 105.246V109H137.545V105.24C137.545 104.961 137.504 104.741 137.421 104.58C137.343 104.415 137.226 104.299 137.072 104.23C136.922 104.159 136.734 104.123 136.508 104.123C136.286 104.123 136.088 104.17 135.912 104.263C135.737 104.356 135.588 104.483 135.466 104.644C135.348 104.805 135.257 104.991 135.192 105.203C135.128 105.414 135.096 105.639 135.096 105.879ZM141.471 100.75V109H140.171V100.75H141.471ZM145.081 103.188L142.551 105.992L141.165 107.41L140.827 106.314L141.874 105.02L143.518 103.188H145.081ZM143.797 109L141.912 106.271L142.728 105.364L145.295 109H143.797Z" fill="white"/>
</g>
<defs>
<clipPath id="clip0_22_15148">
<rect width="153" height="142" rx="10" fill="white"/>
</clipPath>
</defs>
</svg>
