<svg width="16" height="16" viewBox="0 0 16 16" fill="none" xmlns="http://www.w3.org/2000/svg">
<path d="M7.99154 15.3307C12.0415 15.3307 15.3249 12.0474 15.3249 7.9974C15.3249 3.9474 12.0415 0.664062 7.99154 0.664062M7.99154 15.3307C3.94154 15.3307 0.658203 12.0474 0.658203 7.9974C0.658203 3.9474 3.94154 0.664062 7.99154 0.664062M7.99154 15.3307C7.99154 15.3307 5.32487 13.1307 5.32487 7.9974C5.32487 2.86406 7.99154 0.664062 7.99154 0.664062M7.99154 15.3307C7.99154 15.3307 10.6582 13.1307 10.6582 7.9974C10.6582 2.86406 7.99154 0.664062 7.99154 0.664062M0.658203 5.9974H15.3249M0.658203 9.9974H15.3249" stroke="white"/>
</svg>
