<svg width="380" height="281" viewBox="0 0 380 281" fill="none" xmlns="http://www.w3.org/2000/svg">
<g clip-path="url(#clip0_1_20103)">
<path d="M0 8.66992C0 4.25164 3.58172 0.669922 8 0.669922H372C376.418 0.669922 380 4.25164 380 8.66992V280.67H0V8.66992Z" fill="#1E1E1E"/>
<g filter="url(#filter0_d_1_20103)">
<g clip-path="url(#clip1_1_20103)">
<rect x="331.528" y="160.794" width="444.55" height="283.05" rx="18.275" transform="rotate(90 331.528 160.794)" fill="url(#paint0_linear_1_20103)" stroke="white" stroke-width="0.85"/>
<path d="M272.453 417.574L217.157 472.87L55.2781 313.37L55.2781 238.995L272.453 417.574Z" fill="url(#paint1_linear_1_20103)"/>
<path d="M273.305 351.447L218.009 406.743L56.1297 247.243L56.1297 172.868L273.305 351.447Z" fill="url(#paint2_linear_1_20103)"/>
<g filter="url(#filter1_d_1_20103)">
<path d="M156.211 217.034V214.205H151.805V211.893H156.211V202.591H158.251L171.334 211.73V214.205H158.36V217.034H156.211ZM164.48 211.893C164.951 211.893 165.377 211.893 165.758 211.893C166.157 211.911 166.529 211.929 166.873 211.948C167.218 211.966 167.544 211.975 167.853 211.975C168.179 211.993 168.487 212.011 168.777 212.029V211.92C168.433 211.775 168.061 211.594 167.662 211.376C167.263 211.159 166.928 210.95 166.656 210.751L158.36 204.93V211.893H164.48ZM161.542 234.531C159.965 234.531 158.559 234.413 157.326 234.177C156.093 233.941 155.041 233.561 154.171 233.035C153.319 232.527 152.666 231.856 152.213 231.022C151.759 230.206 151.533 229.218 151.533 228.057C151.533 226.606 151.932 225.401 152.729 224.44C153.527 223.497 154.67 222.789 156.157 222.318C157.662 221.865 159.457 221.638 161.542 221.638C163.646 221.638 165.441 221.846 166.928 222.264C168.415 222.699 169.548 223.388 170.328 224.331C171.126 225.274 171.525 226.516 171.525 228.057C171.525 229.508 171.126 230.714 170.328 231.675C169.548 232.636 168.415 233.352 166.928 233.824C165.441 234.295 163.646 234.531 161.542 234.531ZM161.542 224.032C159.765 224.032 158.287 224.158 157.109 224.412C155.93 224.684 155.041 225.11 154.443 225.691C153.863 226.289 153.573 227.078 153.573 228.057C153.573 229.036 153.863 229.816 154.443 230.396C155.023 230.995 155.903 231.43 157.081 231.702C158.278 231.974 159.765 232.11 161.542 232.11C163.319 232.11 164.788 231.974 165.949 231.702C167.127 231.43 168.007 230.995 168.587 230.396C169.185 229.816 169.485 229.036 169.485 228.057C169.485 227.078 169.185 226.289 168.587 225.691C168.007 225.11 167.127 224.684 165.949 224.412C164.788 224.158 163.319 224.032 161.542 224.032ZM161.542 252.816C159.965 252.816 158.559 252.699 157.326 252.463C156.093 252.227 155.041 251.846 154.171 251.32C153.319 250.813 152.666 250.142 152.213 249.308C151.759 248.492 151.533 247.503 151.533 246.343C151.533 244.892 151.932 243.686 152.729 242.725C153.527 241.782 154.67 241.075 156.157 240.604C157.662 240.15 159.457 239.924 161.542 239.924C163.646 239.924 165.441 240.132 166.928 240.549C168.415 240.984 169.548 241.673 170.328 242.616C171.126 243.559 171.525 244.801 171.525 246.343C171.525 247.793 171.126 248.999 170.328 249.96C169.548 250.921 168.415 251.638 166.928 252.109C165.441 252.581 163.646 252.816 161.542 252.816ZM161.542 242.317C159.765 242.317 158.287 242.444 157.109 242.698C155.93 242.97 155.041 243.396 154.443 243.976C153.863 244.575 153.573 245.364 153.573 246.343C153.573 247.322 153.863 248.102 154.443 248.682C155.023 249.28 155.903 249.716 157.081 249.988C158.278 250.26 159.765 250.396 161.542 250.396C163.319 250.396 164.788 250.26 165.949 249.988C167.127 249.716 168.007 249.28 168.587 248.682C169.185 248.102 169.485 247.322 169.485 246.343C169.485 245.364 169.185 244.575 168.587 243.976C168.007 243.396 167.127 242.97 165.949 242.698C164.788 242.444 163.319 242.317 161.542 242.317ZM161.542 271.102C159.965 271.102 158.559 270.984 157.326 270.748C156.093 270.513 155.041 270.132 154.171 269.606C153.319 269.098 152.666 268.427 152.213 267.593C151.759 266.777 151.533 265.789 151.533 264.628C151.533 263.178 151.932 261.972 152.729 261.011C153.527 260.068 154.67 259.361 156.157 258.889C157.662 258.436 159.457 258.209 161.542 258.209C163.646 258.209 165.441 258.418 166.928 258.835C168.415 259.27 169.548 259.959 170.328 260.902C171.126 261.845 171.525 263.087 171.525 264.628C171.525 266.079 171.126 267.285 170.328 268.246C169.548 269.207 168.415 269.923 166.928 270.395C165.441 270.866 163.646 271.102 161.542 271.102ZM161.542 260.603C159.765 260.603 158.287 260.73 157.109 260.984C155.93 261.256 155.041 261.682 154.443 262.262C153.863 262.86 153.573 263.649 153.573 264.628C153.573 265.608 153.863 266.387 154.443 266.968C155.023 267.566 155.903 268.001 157.081 268.273C158.278 268.545 159.765 268.681 161.542 268.681C163.319 268.681 164.788 268.545 165.949 268.273C167.127 268.001 168.007 267.566 168.587 266.968C169.185 266.387 169.485 265.608 169.485 264.628C169.485 263.649 169.185 262.86 168.587 262.262C168.007 261.682 167.127 261.256 165.949 260.984C164.788 260.73 163.319 260.603 161.542 260.603ZM151.805 304.017V301.678H165.377C165.903 301.678 166.348 301.678 166.71 301.678C167.073 301.696 167.408 301.714 167.717 301.733C168.043 301.751 168.379 301.769 168.723 301.787C168.433 301.497 168.188 301.234 167.989 300.998C167.789 300.762 167.535 300.463 167.227 300.101L165.541 298.033L167.145 296.782L171.225 302.032V304.017H151.805ZM151.805 326.791V313.953H153.79L158.931 319.039C159.91 320.018 160.781 320.843 161.542 321.514C162.304 322.185 163.047 322.693 163.773 323.037C164.516 323.382 165.323 323.554 166.193 323.554C167.263 323.554 168.07 323.237 168.614 322.602C169.176 321.968 169.457 321.143 169.457 320.127C169.457 319.184 169.294 318.35 168.968 317.625C168.641 316.917 168.188 316.192 167.608 315.449L169.213 314.17C169.648 314.678 170.038 315.231 170.382 315.829C170.727 316.446 170.999 317.108 171.198 317.815C171.398 318.54 171.497 319.311 171.497 320.127C171.497 321.342 171.289 322.385 170.872 323.255C170.455 324.125 169.856 324.796 169.077 325.268C168.315 325.757 167.399 326.002 166.329 326.002C165.568 326.002 164.843 325.884 164.153 325.649C163.483 325.413 162.821 325.077 162.168 324.642C161.515 324.207 160.853 323.681 160.182 323.065C159.511 322.448 158.813 321.768 158.088 321.025L154.089 316.972H153.981V326.791H151.805ZM166.683 344.342C165.813 344.342 165.06 344.179 164.425 343.853C163.791 343.526 163.274 343.055 162.875 342.438C162.476 341.84 162.195 341.133 162.032 340.317H161.923C161.742 341.876 161.252 343.037 160.454 343.798C159.656 344.56 158.614 344.941 157.326 344.941C156.202 344.941 155.196 344.678 154.307 344.152C153.437 343.626 152.757 342.81 152.267 341.704C151.777 340.616 151.533 339.211 151.533 337.488C151.533 336.472 151.614 335.529 151.777 334.659C151.923 333.789 152.195 332.955 152.593 332.157H154.824C154.425 332.973 154.108 333.852 153.872 334.795C153.654 335.738 153.545 336.645 153.545 337.515C153.545 339.256 153.881 340.507 154.552 341.269C155.241 342.048 156.184 342.438 157.381 342.438C158.197 342.438 158.849 342.221 159.339 341.785C159.847 341.368 160.219 340.752 160.454 339.936C160.69 339.12 160.808 338.141 160.808 336.998V335.121H162.848V337.025C162.848 338.095 163.002 338.984 163.31 339.691C163.619 340.416 164.045 340.96 164.589 341.323C165.151 341.704 165.795 341.894 166.52 341.894C167.463 341.894 168.188 341.577 168.696 340.942C169.222 340.308 169.485 339.446 169.485 338.358C169.485 337.669 169.412 337.044 169.267 336.481C169.14 335.919 168.95 335.393 168.696 334.904C168.46 334.432 168.179 333.952 167.853 333.462L169.485 332.265C169.847 332.737 170.183 333.272 170.491 333.87C170.799 334.487 171.044 335.167 171.225 335.91C171.407 336.654 171.497 337.461 171.497 338.331C171.497 340.362 171.044 341.867 170.137 342.846C169.231 343.844 168.079 344.342 166.683 344.342ZM156.211 364.233V361.404H151.805V359.092H156.211V349.789H158.251L171.334 358.929V361.404H158.36V364.233H156.211ZM164.48 359.092C164.951 359.092 165.377 359.092 165.758 359.092C166.157 359.11 166.529 359.128 166.873 359.146C167.218 359.164 167.544 359.173 167.853 359.173C168.179 359.192 168.487 359.21 168.777 359.228V359.119C168.433 358.974 168.061 358.793 167.662 358.575C167.263 358.357 166.928 358.149 166.656 357.949L158.36 352.129V359.092H164.48ZM163.718 394.183C163.718 395.507 163.492 396.658 163.038 397.638C162.585 398.617 161.932 399.369 161.08 399.895C160.246 400.439 159.221 400.711 158.006 400.711C156.664 400.711 155.504 400.421 154.525 399.841C153.564 399.261 152.82 398.426 152.294 397.338C151.787 396.269 151.533 394.972 151.533 393.449C151.533 392.452 151.623 391.509 151.805 390.62C151.986 389.75 152.249 389.015 152.593 388.417H154.851C154.452 389.07 154.135 389.858 153.899 390.783C153.681 391.726 153.573 392.624 153.573 393.476C153.573 394.437 153.718 395.271 154.008 395.978C154.316 396.704 154.779 397.266 155.395 397.665C156.03 398.064 156.819 398.263 157.761 398.263C159.031 398.263 160.001 397.873 160.672 397.094C161.361 396.314 161.705 395.081 161.705 393.394C161.705 392.887 161.66 392.306 161.569 391.654C161.479 391.001 161.388 390.475 161.297 390.076L162.059 388.879L171.225 389.614V399.351H169.049V391.654L163.419 391.191C163.473 391.5 163.537 391.917 163.609 392.442C163.682 392.968 163.718 393.549 163.718 394.183ZM160.101 406.485C161.225 406.485 162.331 406.557 163.419 406.703C164.507 406.866 165.532 407.138 166.493 407.519C167.472 407.899 168.333 408.425 169.077 409.096C169.838 409.767 170.428 410.61 170.845 411.626C171.28 412.659 171.497 413.911 171.497 415.379C171.497 415.76 171.479 416.177 171.443 416.631C171.407 417.102 171.343 417.483 171.253 417.773H169.213C169.321 417.447 169.403 417.075 169.457 416.658C169.512 416.259 169.539 415.851 169.539 415.434C169.539 414.183 169.331 413.14 168.913 412.306C168.496 411.472 167.925 410.81 167.2 410.32C166.475 409.849 165.64 409.504 164.697 409.287C163.755 409.069 162.748 408.933 161.678 408.879V409.042C162.113 409.314 162.503 409.658 162.848 410.075C163.192 410.492 163.464 410.991 163.664 411.571C163.863 412.17 163.963 412.859 163.963 413.639C163.963 414.763 163.727 415.742 163.256 416.576C162.803 417.428 162.132 418.09 161.243 418.562C160.373 419.033 159.312 419.269 158.061 419.269C156.719 419.269 155.558 419.015 154.579 418.507C153.6 418 152.847 417.283 152.321 416.359C151.796 415.452 151.533 414.364 151.533 413.095C151.533 412.17 151.705 411.308 152.049 410.511C152.394 409.713 152.92 409.005 153.627 408.389C154.334 407.791 155.223 407.319 156.293 406.975C157.381 406.648 158.65 406.485 160.101 406.485ZM153.545 413.067C153.545 414.21 153.908 415.135 154.633 415.842C155.377 416.549 156.519 416.903 158.061 416.903C159.294 416.903 160.273 416.585 160.998 415.951C161.724 415.334 162.086 414.4 162.086 413.149C162.086 412.297 161.905 411.553 161.542 410.919C161.198 410.284 160.753 409.785 160.209 409.423C159.665 409.078 159.103 408.906 158.523 408.906C157.925 408.906 157.335 408.987 156.755 409.151C156.175 409.332 155.64 409.595 155.15 409.939C154.661 410.302 154.271 410.737 153.981 411.245C153.691 411.771 153.545 412.378 153.545 413.067ZM151.805 426.974L169.049 434.943V424.471H171.225V437.5H169.376L151.805 429.612V426.974ZM171.497 449.312C171.497 450.455 171.316 451.461 170.953 452.331C170.609 453.202 170.092 453.882 169.403 454.371C168.714 454.879 167.862 455.133 166.846 455.133C166.067 455.133 165.387 454.961 164.806 454.616C164.226 454.29 163.709 453.845 163.256 453.283C162.821 452.721 162.431 452.105 162.086 451.434C161.705 452.232 161.27 452.957 160.781 453.61C160.309 454.263 159.756 454.779 159.121 455.16C158.487 455.559 157.725 455.759 156.837 455.759C155.749 455.759 154.806 455.496 154.008 454.97C153.228 454.444 152.621 453.7 152.185 452.739C151.75 451.796 151.533 450.681 151.533 449.394C151.533 447.997 151.741 446.81 152.158 445.831C152.575 444.869 153.165 444.135 153.926 443.627C154.706 443.138 155.649 442.893 156.755 442.893C157.644 442.893 158.414 443.074 159.067 443.437C159.72 443.818 160.282 444.316 160.753 444.933C161.225 445.549 161.624 446.211 161.95 446.919C162.313 446.284 162.721 445.704 163.174 445.178C163.646 444.67 164.181 444.262 164.779 443.954C165.377 443.664 166.076 443.519 166.873 443.519C167.871 443.519 168.705 443.772 169.376 444.28C170.065 444.788 170.591 445.477 170.953 446.347C171.316 447.218 171.497 448.206 171.497 449.312ZM156.728 445.232C155.785 445.232 154.996 445.568 154.361 446.239C153.745 446.909 153.437 447.943 153.437 449.339C153.437 450.228 153.582 450.971 153.872 451.57C154.162 452.168 154.561 452.621 155.069 452.93C155.576 453.256 156.157 453.419 156.809 453.419C157.444 453.419 157.997 453.247 158.469 452.903C158.958 452.576 159.393 452.105 159.774 451.488C160.155 450.89 160.5 450.173 160.808 449.339L160.971 448.904C160.627 448.106 160.255 447.435 159.856 446.891C159.457 446.347 159.004 445.93 158.496 445.64C157.988 445.368 157.399 445.232 156.728 445.232ZM169.566 449.285C169.566 448.288 169.321 447.463 168.832 446.81C168.36 446.175 167.671 445.858 166.765 445.858C166.094 445.858 165.532 446.012 165.078 446.32C164.625 446.647 164.235 447.082 163.909 447.626C163.6 448.17 163.301 448.768 163.011 449.421C163.283 450.056 163.582 450.618 163.909 451.107C164.235 451.615 164.625 452.014 165.078 452.304C165.55 452.612 166.112 452.767 166.765 452.767C167.671 452.767 168.36 452.449 168.832 451.815C169.321 451.18 169.566 450.337 169.566 449.285ZM162.929 493.189C161.823 493.189 160.717 493.108 159.611 492.944C158.523 492.799 157.489 492.536 156.51 492.156C155.549 491.775 154.688 491.249 153.926 490.578C153.183 489.907 152.593 489.055 152.158 488.021C151.741 486.988 151.533 485.736 151.533 484.268C151.533 483.905 151.56 483.479 151.614 482.989C151.651 482.518 151.714 482.128 151.805 481.82H153.845C153.736 482.146 153.645 482.527 153.573 482.962C153.518 483.397 153.491 483.814 153.491 484.213C153.491 485.483 153.7 486.525 154.117 487.341C154.534 488.175 155.096 488.837 155.803 489.327C156.528 489.816 157.363 490.17 158.305 490.388C159.267 490.605 160.273 490.732 161.325 490.768V490.605C160.908 490.333 160.527 489.989 160.182 489.572C159.838 489.155 159.566 488.647 159.366 488.048C159.167 487.468 159.067 486.779 159.067 485.981C159.067 484.875 159.294 483.896 159.747 483.044C160.219 482.209 160.889 481.557 161.76 481.085C162.63 480.632 163.691 480.405 164.942 480.405C166.302 480.405 167.472 480.659 168.451 481.167C169.43 481.693 170.183 482.418 170.709 483.343C171.235 484.268 171.497 485.356 171.497 486.607C171.497 487.532 171.316 488.393 170.953 489.191C170.609 489.989 170.083 490.687 169.376 491.285C168.669 491.884 167.78 492.346 166.71 492.672C165.64 493.017 164.38 493.189 162.929 493.189ZM169.485 486.607C169.485 485.482 169.113 484.558 168.369 483.832C167.626 483.125 166.493 482.772 164.969 482.772C163.718 482.772 162.73 483.071 162.005 483.669C161.297 484.286 160.944 485.229 160.944 486.498C160.944 487.368 161.116 488.121 161.461 488.756C161.823 489.39 162.277 489.88 162.821 490.224C163.365 490.587 163.927 490.768 164.507 490.768C165.087 490.768 165.668 490.678 166.248 490.496C166.846 490.333 167.39 490.079 167.88 489.735C168.369 489.39 168.759 488.955 169.049 488.429C169.34 487.903 169.485 487.296 169.485 486.607ZM161.542 511.556C159.965 511.556 158.559 511.439 157.326 511.203C156.093 510.967 155.041 510.586 154.171 510.06C153.319 509.553 152.666 508.882 152.213 508.048C151.759 507.232 151.533 506.243 151.533 505.083C151.533 503.632 151.932 502.426 152.729 501.465C153.527 500.522 154.67 499.815 156.157 499.344C157.662 498.89 159.457 498.664 161.542 498.664C163.646 498.664 165.441 498.872 166.928 499.289C168.415 499.724 169.548 500.413 170.328 501.356C171.126 502.299 171.525 503.541 171.525 505.083C171.525 506.533 171.126 507.739 170.328 508.7C169.548 509.661 168.415 510.378 166.928 510.849C165.441 511.321 163.646 511.556 161.542 511.556ZM161.542 501.057C159.765 501.057 158.287 501.184 157.109 501.438C155.93 501.71 155.041 502.136 154.443 502.716C153.863 503.315 153.573 504.104 153.573 505.083C153.573 506.062 153.863 506.842 154.443 507.422C155.023 508.02 155.903 508.456 157.081 508.728C158.278 509 159.765 509.136 161.542 509.136C163.319 509.136 164.788 509 165.949 508.728C167.127 508.456 168.007 508.02 168.587 507.422C169.185 506.842 169.485 506.062 169.485 505.083C169.485 504.104 169.185 503.315 168.587 502.716C168.007 502.136 167.127 501.71 165.949 501.438C164.788 501.184 163.319 501.057 161.542 501.057ZM151.805 525.272V522.933H165.377C165.903 522.933 166.348 522.933 166.71 522.933C167.073 522.951 167.408 522.969 167.717 522.988C168.043 523.006 168.379 523.024 168.723 523.042C168.433 522.752 168.188 522.489 167.989 522.253C167.789 522.017 167.535 521.718 167.227 521.356L165.541 519.288L167.145 518.037L171.225 523.287V525.272H151.805ZM151.805 548.046V535.208H153.79L158.931 540.294C159.91 541.273 160.781 542.098 161.542 542.769C162.304 543.44 163.047 543.948 163.773 544.292C164.516 544.637 165.323 544.809 166.193 544.809C167.263 544.809 168.07 544.492 168.614 543.857C169.176 543.223 169.457 542.398 169.457 541.382C169.457 540.439 169.294 539.605 168.968 538.88C168.641 538.172 168.188 537.447 167.608 536.704L169.213 535.425C169.648 535.933 170.038 536.486 170.382 537.084C170.727 537.701 170.999 538.363 171.198 539.07C171.398 539.795 171.497 540.566 171.497 541.382C171.497 542.597 171.289 543.64 170.872 544.51C170.455 545.38 169.856 546.051 169.077 546.523C168.315 547.012 167.399 547.257 166.329 547.257C165.568 547.257 164.843 547.139 164.153 546.904C163.483 546.668 162.821 546.332 162.168 545.897C161.515 545.462 160.853 544.936 160.182 544.32C159.511 543.703 158.813 543.023 158.088 542.28L154.089 538.227H153.981V548.046H151.805Z" fill="white"/>
</g>
<g filter="url(#filter2_d_1_20103)">
<path d="M85.5547 210.775L98.8572 205.781V205.696C98.5739 205.724 98.2126 205.745 97.7734 205.76C97.3343 205.788 96.8526 205.809 96.3284 205.823C95.8184 205.837 95.2943 205.845 94.7559 205.845H85.5547V204.081H100.727V206.907L88.2959 211.582V211.667L100.727 216.427V219.232H85.5547V217.341H94.8834C95.3793 217.341 95.868 217.348 96.3497 217.362C96.8455 217.376 97.3059 217.397 97.7309 217.426C98.1701 217.454 98.5384 217.475 98.8359 217.49V217.405L85.5547 212.347V210.775ZM85.5547 232.879L90.2509 231.052V225.038L85.5547 223.232V221.298L100.791 227.227V228.948L85.5547 234.856V232.879ZM96.5409 228.778C96.6543 228.736 96.8597 228.665 97.1572 228.566C97.4547 228.466 97.7593 228.367 98.0709 228.268C98.3968 228.183 98.6447 228.112 98.8147 228.056C98.5314 227.985 98.2409 227.907 97.9434 227.822C97.6601 227.751 97.398 227.673 97.1572 227.588C96.9164 227.517 96.7109 227.454 96.5409 227.397L91.9509 225.676V230.478L96.5409 228.778ZM85.5547 248.959V246.727L98.1559 238.61V238.525C97.9009 238.539 97.6176 238.553 97.3059 238.567C96.9943 238.596 96.6543 238.617 96.2859 238.631C95.9318 238.645 95.5634 238.659 95.1809 238.674C94.7984 238.688 94.4159 238.695 94.0334 238.695H85.5547V236.931H100.727V239.141L88.1684 247.237V247.322C88.3384 247.308 88.5722 247.294 88.8697 247.28C89.1814 247.266 89.5214 247.252 89.8897 247.237C90.2722 247.223 90.6618 247.209 91.0584 247.195C91.4551 247.181 91.8234 247.174 92.1634 247.174H100.727V248.959H85.5547ZM81.5172 250.93C81.5172 250.59 81.5455 250.292 81.6022 250.037C81.6447 249.782 81.7084 249.556 81.7934 249.357H83.4084C83.3518 249.584 83.3022 249.825 83.2597 250.08C83.2172 250.335 83.1959 250.604 83.1959 250.887C83.1959 251.242 83.2668 251.574 83.4084 251.886C83.5501 252.212 83.798 252.474 84.1522 252.672C84.5064 252.871 85.0022 252.97 85.6397 252.97H100.727V254.882H85.7884C84.8109 254.882 84.0105 254.719 83.3872 254.394C82.7497 254.068 82.2822 253.607 81.9847 253.012C81.673 252.417 81.5172 251.723 81.5172 250.93ZM90.9097 270.425C89.8614 270.425 88.9122 270.213 88.0622 269.788C87.2264 269.363 86.5605 268.711 86.0647 267.833C85.583 266.969 85.3422 265.864 85.3422 264.518C85.3422 262.634 85.8522 261.196 86.8722 260.204C87.9064 259.227 89.2664 258.738 90.9522 258.738H100.727V260.65H90.8884C89.6559 260.65 88.6997 260.976 88.0197 261.628C87.3397 262.294 86.9997 263.293 86.9997 264.624C86.9997 265.545 87.1626 266.289 87.4884 266.855C87.8284 267.436 88.2889 267.861 88.8697 268.13C89.4647 268.4 90.1447 268.534 90.9097 268.534H100.727V270.425H90.9097ZM85.5547 286.457V284.226L98.1559 276.109V276.024C97.9009 276.038 97.6176 276.052 97.3059 276.066C96.9943 276.094 96.6543 276.116 96.2859 276.13C95.9318 276.144 95.5634 276.158 95.1809 276.172C94.7984 276.187 94.4159 276.194 94.0334 276.194H85.5547V274.43H100.727V276.64L88.1684 284.736V284.821C88.3384 284.807 88.5722 284.793 88.8697 284.779C89.1814 284.764 89.5214 284.75 89.8897 284.736C90.2722 284.722 90.6618 284.708 91.0584 284.694C91.4551 284.679 91.8234 284.672 92.1634 284.672H100.727V286.457H85.5547ZM85.5547 300.095L90.2509 298.267V292.254L85.5547 290.447V288.514L100.791 294.442V296.164L85.5547 302.071V300.095ZM96.5409 295.994C96.6543 295.951 96.8597 295.88 97.1572 295.781C97.4547 295.682 97.7593 295.583 98.0709 295.484C98.3968 295.399 98.6447 295.328 98.8147 295.271C98.5314 295.2 98.2409 295.122 97.9434 295.037C97.6601 294.967 97.398 294.889 97.1572 294.804C96.9164 294.733 96.7109 294.669 96.5409 294.612L91.9509 292.891V297.694L96.5409 295.994ZM85.5547 307.455V305.543H99.0484V300.804H100.727V312.173H99.0484V307.455H85.5547ZM85.5547 326.063V324.15H92.6309V316.373H85.5547V314.46H100.727V316.373H94.3097V324.15H100.727L100.727 326.063H85.5547ZM85.5547 346.678V344.426L92.8009 339.05L91.4409 337.498H85.5547V335.586H100.727V337.498H93.2472C93.7289 337.923 94.2105 338.355 94.6922 338.795C95.1739 339.234 95.6555 339.673 96.1372 340.112L100.727 344.213V346.445L94.1184 340.431L85.5547 346.678ZM89.6134 357.349C88.7068 357.349 87.9347 357.129 87.2972 356.69C86.6739 356.251 86.1922 355.621 85.8522 354.799C85.5122 353.991 85.3422 353.035 85.3422 351.93C85.3422 351.363 85.3705 350.818 85.4272 350.294C85.4839 349.784 85.5618 349.316 85.6609 348.891C85.7743 348.466 85.9089 348.091 86.0647 347.765H87.8922C87.6655 348.275 87.4601 348.906 87.2759 349.656C87.0918 350.421 86.9997 351.208 86.9997 352.015C86.9997 352.766 87.0989 353.396 87.2972 353.906C87.4955 354.416 87.7789 354.799 88.1472 355.054C88.5155 355.309 88.9476 355.436 89.4434 355.436C89.9393 355.436 90.3572 355.33 90.6972 355.118C91.0372 354.905 91.3489 354.537 91.6322 354.013C91.9297 353.503 92.2414 352.787 92.5672 351.866C92.808 351.215 93.063 350.641 93.3322 350.145C93.6155 349.663 93.9343 349.26 94.2884 348.934C94.6426 348.608 95.0464 348.36 95.4997 348.19C95.953 348.034 96.4772 347.956 97.0722 347.956C97.8797 347.956 98.5668 348.162 99.1334 348.573C99.7143 348.983 100.161 349.55 100.472 350.273C100.784 351.009 100.94 351.852 100.94 352.801C100.94 353.637 100.862 354.402 100.706 355.096C100.55 355.791 100.345 356.421 100.09 356.988L98.4534 356.393C98.6801 355.868 98.8714 355.295 99.0272 354.671C99.183 354.062 99.2609 353.425 99.2609 352.759C99.2609 352.121 99.1689 351.59 98.9847 351.165C98.8005 350.74 98.5384 350.421 98.1984 350.209C97.8726 349.996 97.4901 349.89 97.0509 349.89C96.5409 349.89 96.1159 349.996 95.7759 350.209C95.4359 350.421 95.1314 350.768 94.8622 351.25C94.593 351.732 94.3026 352.383 93.9909 353.205C93.6651 354.098 93.3109 354.848 92.9284 355.458C92.5601 356.081 92.1139 356.548 91.5897 356.86C91.0655 357.186 90.4068 357.349 89.6134 357.349Z" fill="white"/>
</g>
<path d="M137.33 206.334V205.45H135.953V204.728H137.33V201.821H137.968L142.056 204.677V205.45H138.002V206.334H137.33ZM139.914 204.728C140.061 204.728 140.195 204.728 140.314 204.728C140.438 204.733 140.554 204.739 140.662 204.745C140.77 204.75 140.872 204.753 140.968 204.753C141.07 204.759 141.166 204.765 141.257 204.77V204.736C141.149 204.691 141.033 204.634 140.909 204.566C140.784 204.498 140.679 204.433 140.594 204.371L138.002 202.552V204.728H139.914ZM138.996 210.952C138.503 210.952 138.064 210.915 137.679 210.841C137.293 210.768 136.965 210.649 136.693 210.484C136.426 210.326 136.222 210.116 136.081 209.855C135.939 209.6 135.868 209.292 135.868 208.929C135.868 208.476 135.993 208.099 136.242 207.798C136.491 207.504 136.848 207.283 137.313 207.135C137.783 206.994 138.344 206.923 138.996 206.923C139.653 206.923 140.214 206.988 140.679 207.118C141.144 207.254 141.498 207.47 141.742 207.764C141.991 208.059 142.116 208.447 142.116 208.929C142.116 209.382 141.991 209.759 141.742 210.059C141.498 210.36 141.144 210.584 140.679 210.731C140.214 210.878 139.653 210.952 138.996 210.952ZM138.996 207.671C138.441 207.671 137.979 207.711 137.611 207.79C137.242 207.875 136.965 208.008 136.778 208.189C136.596 208.376 136.506 208.623 136.506 208.929C136.506 209.235 136.596 209.479 136.778 209.66C136.959 209.847 137.234 209.983 137.602 210.068C137.976 210.153 138.441 210.195 138.996 210.195C139.551 210.195 140.01 210.153 140.373 210.068C140.741 209.983 141.016 209.847 141.198 209.66C141.385 209.479 141.478 209.235 141.478 208.929C141.478 208.623 141.385 208.376 141.198 208.189C141.016 208.008 140.741 207.875 140.373 207.79C140.01 207.711 139.551 207.671 138.996 207.671ZM138.996 215.816C138.503 215.816 138.064 215.779 137.679 215.706C137.293 215.632 136.965 215.513 136.693 215.349C136.426 215.19 136.222 214.98 136.081 214.72C135.939 214.465 135.868 214.156 135.868 213.793C135.868 213.34 135.993 212.963 136.242 212.663C136.491 212.368 136.848 212.147 137.313 212C137.783 211.858 138.344 211.787 138.996 211.787C139.653 211.787 140.214 211.852 140.679 211.983C141.144 212.119 141.498 212.334 141.742 212.629C141.991 212.923 142.116 213.312 142.116 213.793C142.116 214.247 141.991 214.623 141.742 214.924C141.498 215.224 141.144 215.448 140.679 215.595C140.214 215.743 139.653 215.816 138.996 215.816ZM138.996 212.535C138.441 212.535 137.979 212.575 137.611 212.654C137.242 212.739 136.965 212.872 136.778 213.054C136.596 213.241 136.506 213.487 136.506 213.793C136.506 214.099 136.596 214.343 136.778 214.524C136.959 214.711 137.234 214.847 137.602 214.932C137.976 215.017 138.441 215.06 138.996 215.06C139.551 215.06 140.01 215.017 140.373 214.932C140.741 214.847 141.016 214.711 141.198 214.524C141.385 214.343 141.478 214.099 141.478 213.793C141.478 213.487 141.385 213.241 141.198 213.054C141.016 212.872 140.741 212.739 140.373 212.654C140.01 212.575 139.551 212.535 138.996 212.535ZM138.996 220.68C138.503 220.68 138.064 220.644 137.679 220.57C137.293 220.496 136.965 220.377 136.693 220.213C136.426 220.054 136.222 219.845 136.081 219.584C135.939 219.329 135.868 219.02 135.868 218.657C135.868 218.204 135.993 217.827 136.242 217.527C136.491 217.232 136.848 217.011 137.313 216.864C137.783 216.722 138.344 216.651 138.996 216.651C139.653 216.651 140.214 216.717 140.679 216.847C141.144 216.983 141.498 217.198 141.742 217.493C141.991 217.788 142.116 218.176 142.116 218.657C142.116 219.111 141.991 219.488 141.742 219.788C141.498 220.088 141.144 220.312 140.679 220.459C140.214 220.607 139.653 220.68 138.996 220.68ZM138.996 217.399C138.441 217.399 137.979 217.439 137.611 217.518C137.242 217.603 136.965 217.737 136.778 217.918C136.596 218.105 136.506 218.351 136.506 218.657C136.506 218.963 136.596 219.207 136.778 219.388C136.959 219.575 137.234 219.711 137.602 219.796C137.976 219.881 138.441 219.924 138.996 219.924C139.551 219.924 140.01 219.881 140.373 219.796C140.741 219.711 141.016 219.575 141.198 219.388C141.385 219.207 141.478 218.963 141.478 218.657C141.478 218.351 141.385 218.105 141.198 217.918C141.016 217.737 140.741 217.603 140.373 217.518C140.01 217.439 139.551 217.399 138.996 217.399Z" fill="white"/>
<rect x="232.075" y="199.894" width="53.7483" height="39.1" rx="4.675" transform="rotate(90 232.075 199.894)" fill="url(#paint3_linear_1_20103)" stroke="black" stroke-width="0.85"/>
<rect x="219.427" y="199.894" width="15.13" height="12.4667" transform="rotate(90 219.427 199.894)" fill="url(#paint4_linear_1_20103)" stroke="black" stroke-width="0.85"/>
<path d="M207.195 215.117H199.205C197.093 218.016 195.441 217.602 192.88 214.784" stroke="black" stroke-width="0.85"/>
<rect x="-0.425" y="-0.425" width="15.13" height="12.4667" transform="matrix(0 -1 -1 0 219.002 253.216)" fill="url(#paint5_linear_1_20103)" stroke="black" stroke-width="0.85"/>
<path d="M232.164 238.37C231.165 235.423 228.931 235.492 225.506 238.37H199.019C196.859 235.041 195.543 235.756 192.88 237.754" stroke="black" stroke-width="0.85"/>
<path d="M232.164 215.115C230.389 215.448 228.502 215.115 227.17 212.119" stroke="black" stroke-width="0.85"/>
</g>
<rect x="325.575" y="165.044" width="429.25" height="271.15" rx="20.825" transform="rotate(90 325.575 165.044)" stroke="url(#paint6_linear_1_20103)" stroke-width="0.85" shape-rendering="crispEdges"/>
</g>
<path d="M99.5 65.4199C99.5 84.6118 83.9419 100.17 64.75 100.17C45.5581 100.17 30 84.6118 30 65.4199C30 46.228 45.5581 30.6699 64.75 30.6699C83.9419 30.6699 99.5 46.228 99.5 65.4199ZM37.645 65.4199C37.645 80.3896 49.7803 92.5249 64.75 92.5249C79.7197 92.5249 91.855 80.3896 91.855 65.4199C91.855 50.4502 79.7197 38.3149 64.75 38.3149C49.7803 38.3149 37.645 50.4502 37.645 65.4199Z" fill="#3D3D3D"/>
<path d="M99.3678 68.4486C100.171 59.2674 97.2941 50.1431 91.37 43.0831C85.4459 36.023 76.9599 31.6054 67.7787 30.8022L67.1124 38.4181C74.2737 39.0446 80.8928 42.4903 85.5136 47.9972C90.1344 53.504 92.3784 60.6209 91.7519 67.7823L99.3678 68.4486Z" fill="#02B1E4"/>
<path d="M66.5 57.4023V71.6699H64.1465V60.1953L60.6602 61.377V59.4336L66.2168 57.4023H66.5Z" fill="white"/>
<path d="M45.7764 115.546L45.3457 117.102H37.1191L37.5498 115.546H45.7764ZM41.7949 125.17L37.374 119.958L37.3652 118.648H39.4658C40.0107 118.648 40.459 118.552 40.8105 118.358C41.168 118.159 41.4346 117.893 41.6104 117.559C41.7861 117.219 41.874 116.841 41.874 116.425C41.874 115.974 41.792 115.575 41.6279 115.229C41.4639 114.884 41.2031 114.614 40.8457 114.421C40.4883 114.228 40.0166 114.131 39.4307 114.131H37.1279L37.6025 112.373H39.4307C40.4678 112.373 41.3291 112.528 42.0146 112.839C42.7002 113.149 43.2129 113.601 43.5527 114.192C43.8984 114.784 44.0713 115.499 44.0713 116.337C44.0713 117.069 43.9453 117.717 43.6934 118.279C43.4414 118.836 43.0342 119.287 42.4717 119.633C41.9092 119.973 41.1621 120.184 40.2305 120.266L44.2734 125.056V125.17H41.7949ZM45.7852 112.373L45.3457 113.929H38.6221L39.0527 112.373H45.7852ZM60.1816 123.482V125.17H51.6035V123.72L55.7695 119.176C56.2266 118.66 56.5869 118.215 56.8506 117.84C57.1143 117.465 57.2988 117.128 57.4043 116.829C57.5156 116.524 57.5713 116.229 57.5713 115.941C57.5713 115.537 57.4951 115.183 57.3428 114.878C57.1963 114.567 56.9795 114.324 56.6924 114.148C56.4053 113.967 56.0566 113.876 55.6465 113.876C55.1719 113.876 54.7734 113.979 54.4512 114.184C54.1289 114.389 53.8857 114.673 53.7217 115.036C53.5576 115.394 53.4756 115.804 53.4756 116.267H51.3574C51.3574 115.522 51.5273 114.843 51.8672 114.228C52.207 113.606 52.6992 113.114 53.3438 112.751C53.9883 112.382 54.7646 112.197 55.6729 112.197C56.5283 112.197 57.2549 112.341 57.8525 112.628C58.4502 112.915 58.9043 113.322 59.2148 113.85C59.5312 114.377 59.6895 115.001 59.6895 115.722C59.6895 116.12 59.625 116.516 59.4961 116.908C59.3672 117.301 59.1826 117.693 58.9424 118.086C58.708 118.473 58.4297 118.862 58.1074 119.255C57.7852 119.642 57.4307 120.034 57.0439 120.433L54.2754 123.482H60.1816ZM70.3506 117.699V119.791C70.3506 120.793 70.251 121.648 70.0518 122.357C69.8584 123.061 69.5771 123.632 69.208 124.071C68.8389 124.511 68.3965 124.833 67.8809 125.038C67.3711 125.243 66.7998 125.346 66.167 125.346C65.6631 125.346 65.1943 125.281 64.7607 125.152C64.333 125.023 63.9463 124.821 63.6006 124.546C63.2549 124.271 62.959 123.916 62.7129 123.482C62.4727 123.043 62.2852 122.519 62.1504 121.909C62.0215 121.3 61.957 120.594 61.957 119.791V117.699C61.957 116.691 62.0566 115.842 62.2559 115.15C62.4551 114.453 62.7393 113.888 63.1084 113.454C63.4775 113.015 63.917 112.695 64.4268 112.496C64.9424 112.297 65.5166 112.197 66.1494 112.197C66.6592 112.197 67.1279 112.262 67.5557 112.391C67.9893 112.514 68.376 112.71 68.7158 112.979C69.0615 113.249 69.3545 113.601 69.5947 114.034C69.8408 114.462 70.0283 114.98 70.1572 115.59C70.2861 116.193 70.3506 116.896 70.3506 117.699ZM68.2324 120.09V117.383C68.2324 116.873 68.2031 116.425 68.1445 116.038C68.0859 115.646 67.998 115.314 67.8809 115.045C67.7695 114.77 67.6289 114.547 67.459 114.377C67.2891 114.201 67.0957 114.075 66.8789 113.999C66.6621 113.917 66.4189 113.876 66.1494 113.876C65.8213 113.876 65.5283 113.94 65.2705 114.069C65.0127 114.192 64.7959 114.392 64.6201 114.667C64.4443 114.942 64.3096 115.306 64.2158 115.757C64.1279 116.202 64.084 116.744 64.084 117.383V120.09C64.084 120.605 64.1133 121.06 64.1719 121.452C64.2305 121.845 64.3184 122.182 64.4355 122.463C64.5527 122.738 64.6934 122.967 64.8574 123.148C65.0273 123.324 65.2207 123.453 65.4375 123.535C65.6602 123.617 65.9033 123.658 66.167 123.658C66.501 123.658 66.7969 123.594 67.0547 123.465C67.3125 123.336 67.5293 123.131 67.7051 122.85C67.8809 122.562 68.0127 122.19 68.1006 121.733C68.1885 121.276 68.2324 120.729 68.2324 120.09ZM80.9326 117.699V119.791C80.9326 120.793 80.833 121.648 80.6338 122.357C80.4404 123.061 80.1592 123.632 79.79 124.071C79.4209 124.511 78.9785 124.833 78.4629 125.038C77.9531 125.243 77.3818 125.346 76.749 125.346C76.2451 125.346 75.7764 125.281 75.3428 125.152C74.915 125.023 74.5283 124.821 74.1826 124.546C73.8369 124.271 73.541 123.916 73.2949 123.482C73.0547 123.043 72.8672 122.519 72.7324 121.909C72.6035 121.3 72.5391 120.594 72.5391 119.791V117.699C72.5391 116.691 72.6387 115.842 72.8379 115.15C73.0371 114.453 73.3213 113.888 73.6904 113.454C74.0596 113.015 74.499 112.695 75.0088 112.496C75.5244 112.297 76.0986 112.197 76.7314 112.197C77.2412 112.197 77.71 112.262 78.1377 112.391C78.5713 112.514 78.958 112.71 79.2979 112.979C79.6436 113.249 79.9365 113.601 80.1768 114.034C80.4229 114.462 80.6104 114.98 80.7393 115.59C80.8682 116.193 80.9326 116.896 80.9326 117.699ZM78.8145 120.09V117.383C78.8145 116.873 78.7852 116.425 78.7266 116.038C78.668 115.646 78.5801 115.314 78.4629 115.045C78.3516 114.77 78.2109 114.547 78.041 114.377C77.8711 114.201 77.6777 114.075 77.4609 113.999C77.2441 113.917 77.001 113.876 76.7314 113.876C76.4033 113.876 76.1104 113.94 75.8525 114.069C75.5947 114.192 75.3779 114.392 75.2021 114.667C75.0264 114.942 74.8916 115.306 74.7979 115.757C74.71 116.202 74.666 116.744 74.666 117.383V120.09C74.666 120.605 74.6953 121.06 74.7539 121.452C74.8125 121.845 74.9004 122.182 75.0176 122.463C75.1348 122.738 75.2754 122.967 75.4395 123.148C75.6094 123.324 75.8027 123.453 76.0195 123.535C76.2422 123.617 76.4854 123.658 76.749 123.658C77.083 123.658 77.3789 123.594 77.6367 123.465C77.8945 123.336 78.1113 123.131 78.2871 122.85C78.4629 122.562 78.5947 122.19 78.6826 121.733C78.7705 121.276 78.8145 120.729 78.8145 120.09ZM91.5146 117.699V119.791C91.5146 120.793 91.415 121.648 91.2158 122.357C91.0225 123.061 90.7412 123.632 90.3721 124.071C90.0029 124.511 89.5605 124.833 89.0449 125.038C88.5352 125.243 87.9639 125.346 87.3311 125.346C86.8271 125.346 86.3584 125.281 85.9248 125.152C85.4971 125.023 85.1104 124.821 84.7646 124.546C84.4189 124.271 84.123 123.916 83.877 123.482C83.6367 123.043 83.4492 122.519 83.3145 121.909C83.1855 121.3 83.1211 120.594 83.1211 119.791V117.699C83.1211 116.691 83.2207 115.842 83.4199 115.15C83.6191 114.453 83.9033 113.888 84.2725 113.454C84.6416 113.015 85.0811 112.695 85.5908 112.496C86.1064 112.297 86.6807 112.197 87.3135 112.197C87.8232 112.197 88.292 112.262 88.7197 112.391C89.1533 112.514 89.54 112.71 89.8799 112.979C90.2256 113.249 90.5186 113.601 90.7588 114.034C91.0049 114.462 91.1924 114.98 91.3213 115.59C91.4502 116.193 91.5146 116.896 91.5146 117.699ZM89.3965 120.09V117.383C89.3965 116.873 89.3672 116.425 89.3086 116.038C89.25 115.646 89.1621 115.314 89.0449 115.045C88.9336 114.77 88.793 114.547 88.623 114.377C88.4531 114.201 88.2598 114.075 88.043 113.999C87.8262 113.917 87.583 113.876 87.3135 113.876C86.9854 113.876 86.6924 113.94 86.4346 114.069C86.1768 114.192 85.96 114.392 85.7842 114.667C85.6084 114.942 85.4736 115.306 85.3799 115.757C85.292 116.202 85.248 116.744 85.248 117.383V120.09C85.248 120.605 85.2773 121.06 85.3359 121.452C85.3945 121.845 85.4824 122.182 85.5996 122.463C85.7168 122.738 85.8574 122.967 86.0215 123.148C86.1914 123.324 86.3848 123.453 86.6016 123.535C86.8242 123.617 87.0674 123.658 87.3311 123.658C87.665 123.658 87.9609 123.594 88.2188 123.465C88.4766 123.336 88.6934 123.131 88.8691 122.85C89.0449 122.562 89.1768 122.19 89.2646 121.733C89.3525 121.276 89.3965 120.729 89.3965 120.09Z" fill="white"/>
<path d="M183 65.4199C183 84.6118 167.442 100.17 148.25 100.17C129.058 100.17 113.5 84.6118 113.5 65.4199C113.5 46.228 129.058 30.6699 148.25 30.6699C167.442 30.6699 183 46.228 183 65.4199ZM121.145 65.4199C121.145 80.3896 133.28 92.5249 148.25 92.5249C163.22 92.5249 175.355 80.3896 175.355 65.4199C175.355 50.4502 163.22 38.3149 148.25 38.3149C133.28 38.3149 121.145 50.4502 121.145 65.4199Z" fill="#3D3D3D"/>
<path d="M148.25 100.17C152.813 100.17 157.332 99.2711 161.548 97.5247C165.764 95.7784 169.595 93.2187 172.822 89.9919C176.049 86.765 178.608 82.9342 180.355 78.7182C182.101 74.5021 183 69.9833 183 65.4199C183 60.8565 182.101 56.3377 180.355 52.1217C178.608 47.9056 176.049 44.0748 172.822 40.848C169.595 37.6211 165.764 35.0615 161.548 33.3151C157.332 31.5688 152.813 30.6699 148.25 30.6699L148.25 38.3149C151.809 38.3149 155.334 39.016 158.623 40.3782C161.911 41.7403 164.899 43.7369 167.416 46.2538C169.933 48.7707 171.93 51.7587 173.292 55.0473C174.654 58.3358 175.355 61.8604 175.355 65.4199C175.355 68.9794 174.654 72.504 173.292 75.7925C171.93 79.0811 169.933 82.0691 167.416 84.586C164.899 87.103 161.911 89.0995 158.623 90.4617C155.334 91.8238 151.809 92.5249 148.25 92.5249V100.17Z" fill="#02B1E4"/>
<path d="M152.605 69.7949V71.6699H143.074V70.0586L147.703 65.0098C148.211 64.4368 148.611 63.9421 148.904 63.5254C149.197 63.1087 149.402 62.7344 149.52 62.4023C149.643 62.0638 149.705 61.735 149.705 61.416C149.705 60.9668 149.62 60.5729 149.451 60.2344C149.288 59.8893 149.048 59.6191 148.729 59.4238C148.41 59.222 148.022 59.1211 147.566 59.1211C147.039 59.1211 146.596 59.235 146.238 59.4629C145.88 59.6908 145.61 60.0065 145.428 60.4102C145.245 60.8073 145.154 61.263 145.154 61.7773H142.801C142.801 60.9505 142.99 60.1953 143.367 59.5117C143.745 58.8216 144.292 58.2747 145.008 57.8711C145.724 57.4609 146.587 57.2559 147.596 57.2559C148.546 57.2559 149.354 57.4154 150.018 57.7344C150.682 58.0534 151.186 58.5059 151.531 59.0918C151.883 59.6777 152.059 60.3711 152.059 61.1719C152.059 61.6146 151.987 62.054 151.844 62.4902C151.701 62.9264 151.495 63.3626 151.229 63.7988C150.968 64.2285 150.659 64.6615 150.301 65.0977C149.943 65.5273 149.549 65.9635 149.119 66.4062L146.043 69.7949H152.605Z" fill="white"/>
<path d="M129.276 115.546L128.846 117.102H120.619L121.05 115.546H129.276ZM125.295 125.17L120.874 119.958L120.865 118.648H122.966C123.511 118.648 123.959 118.552 124.311 118.358C124.668 118.159 124.935 117.893 125.11 117.559C125.286 117.219 125.374 116.841 125.374 116.425C125.374 115.974 125.292 115.575 125.128 115.229C124.964 114.884 124.703 114.614 124.346 114.421C123.988 114.228 123.517 114.131 122.931 114.131H120.628L121.103 112.373H122.931C123.968 112.373 124.829 112.528 125.515 112.839C126.2 113.149 126.713 113.601 127.053 114.192C127.398 114.784 127.571 115.499 127.571 116.337C127.571 117.069 127.445 117.717 127.193 118.279C126.941 118.836 126.534 119.287 125.972 119.633C125.409 119.973 124.662 120.184 123.73 120.266L127.773 125.056V125.17H125.295ZM129.285 112.373L128.846 113.929H122.122L122.553 112.373H129.285ZM143.682 123.482V125.17H135.104V123.72L139.27 119.176C139.727 118.66 140.087 118.215 140.351 117.84C140.614 117.465 140.799 117.128 140.904 116.829C141.016 116.524 141.071 116.229 141.071 115.941C141.071 115.537 140.995 115.183 140.843 114.878C140.696 114.567 140.479 114.324 140.192 114.148C139.905 113.967 139.557 113.876 139.146 113.876C138.672 113.876 138.273 113.979 137.951 114.184C137.629 114.389 137.386 114.673 137.222 115.036C137.058 115.394 136.976 115.804 136.976 116.267H134.857C134.857 115.522 135.027 114.843 135.367 114.228C135.707 113.606 136.199 113.114 136.844 112.751C137.488 112.382 138.265 112.197 139.173 112.197C140.028 112.197 140.755 112.341 141.353 112.628C141.95 112.915 142.404 113.322 142.715 113.85C143.031 114.377 143.189 115.001 143.189 115.722C143.189 116.12 143.125 116.516 142.996 116.908C142.867 117.301 142.683 117.693 142.442 118.086C142.208 118.473 141.93 118.862 141.607 119.255C141.285 119.642 140.931 120.034 140.544 120.433L137.775 123.482H143.682ZM153.851 117.699V119.791C153.851 120.793 153.751 121.648 153.552 122.357C153.358 123.061 153.077 123.632 152.708 124.071C152.339 124.511 151.896 124.833 151.381 125.038C150.871 125.243 150.3 125.346 149.667 125.346C149.163 125.346 148.694 125.281 148.261 125.152C147.833 125.023 147.446 124.821 147.101 124.546C146.755 124.271 146.459 123.916 146.213 123.482C145.973 123.043 145.785 122.519 145.65 121.909C145.521 121.3 145.457 120.594 145.457 119.791V117.699C145.457 116.691 145.557 115.842 145.756 115.15C145.955 114.453 146.239 113.888 146.608 113.454C146.978 113.015 147.417 112.695 147.927 112.496C148.442 112.297 149.017 112.197 149.649 112.197C150.159 112.197 150.628 112.262 151.056 112.391C151.489 112.514 151.876 112.71 152.216 112.979C152.562 113.249 152.854 113.601 153.095 114.034C153.341 114.462 153.528 114.98 153.657 115.59C153.786 116.193 153.851 116.896 153.851 117.699ZM151.732 120.09V117.383C151.732 116.873 151.703 116.425 151.645 116.038C151.586 115.646 151.498 115.314 151.381 115.045C151.27 114.77 151.129 114.547 150.959 114.377C150.789 114.201 150.596 114.075 150.379 113.999C150.162 113.917 149.919 113.876 149.649 113.876C149.321 113.876 149.028 113.94 148.771 114.069C148.513 114.192 148.296 114.392 148.12 114.667C147.944 114.942 147.81 115.306 147.716 115.757C147.628 116.202 147.584 116.744 147.584 117.383V120.09C147.584 120.605 147.613 121.06 147.672 121.452C147.73 121.845 147.818 122.182 147.936 122.463C148.053 122.738 148.193 122.967 148.357 123.148C148.527 123.324 148.721 123.453 148.938 123.535C149.16 123.617 149.403 123.658 149.667 123.658C150.001 123.658 150.297 123.594 150.555 123.465C150.812 123.336 151.029 123.131 151.205 122.85C151.381 122.562 151.513 122.19 151.601 121.733C151.688 121.276 151.732 120.729 151.732 120.09ZM164.433 117.699V119.791C164.433 120.793 164.333 121.648 164.134 122.357C163.94 123.061 163.659 123.632 163.29 124.071C162.921 124.511 162.479 124.833 161.963 125.038C161.453 125.243 160.882 125.346 160.249 125.346C159.745 125.346 159.276 125.281 158.843 125.152C158.415 125.023 158.028 124.821 157.683 124.546C157.337 124.271 157.041 123.916 156.795 123.482C156.555 123.043 156.367 122.519 156.232 121.909C156.104 121.3 156.039 120.594 156.039 119.791V117.699C156.039 116.691 156.139 115.842 156.338 115.15C156.537 114.453 156.821 113.888 157.19 113.454C157.56 113.015 157.999 112.695 158.509 112.496C159.024 112.297 159.599 112.197 160.231 112.197C160.741 112.197 161.21 112.262 161.638 112.391C162.071 112.514 162.458 112.71 162.798 112.979C163.144 113.249 163.437 113.601 163.677 114.034C163.923 114.462 164.11 114.98 164.239 115.59C164.368 116.193 164.433 116.896 164.433 117.699ZM162.314 120.09V117.383C162.314 116.873 162.285 116.425 162.227 116.038C162.168 115.646 162.08 115.314 161.963 115.045C161.852 114.77 161.711 114.547 161.541 114.377C161.371 114.201 161.178 114.075 160.961 113.999C160.744 113.917 160.501 113.876 160.231 113.876C159.903 113.876 159.61 113.94 159.353 114.069C159.095 114.192 158.878 114.392 158.702 114.667C158.526 114.942 158.392 115.306 158.298 115.757C158.21 116.202 158.166 116.744 158.166 117.383V120.09C158.166 120.605 158.195 121.06 158.254 121.452C158.312 121.845 158.4 122.182 158.518 122.463C158.635 122.738 158.775 122.967 158.939 123.148C159.109 123.324 159.303 123.453 159.52 123.535C159.742 123.617 159.985 123.658 160.249 123.658C160.583 123.658 160.879 123.594 161.137 123.465C161.395 123.336 161.611 123.131 161.787 122.85C161.963 122.562 162.095 122.19 162.183 121.733C162.271 121.276 162.314 120.729 162.314 120.09ZM175.015 117.699V119.791C175.015 120.793 174.915 121.648 174.716 122.357C174.522 123.061 174.241 123.632 173.872 124.071C173.503 124.511 173.061 124.833 172.545 125.038C172.035 125.243 171.464 125.346 170.831 125.346C170.327 125.346 169.858 125.281 169.425 125.152C168.997 125.023 168.61 124.821 168.265 124.546C167.919 124.271 167.623 123.916 167.377 123.482C167.137 123.043 166.949 122.519 166.814 121.909C166.686 121.3 166.621 120.594 166.621 119.791V117.699C166.621 116.691 166.721 115.842 166.92 115.15C167.119 114.453 167.403 113.888 167.772 113.454C168.142 113.015 168.581 112.695 169.091 112.496C169.606 112.297 170.181 112.197 170.813 112.197C171.323 112.197 171.792 112.262 172.22 112.391C172.653 112.514 173.04 112.71 173.38 112.979C173.726 113.249 174.019 113.601 174.259 114.034C174.505 114.462 174.692 114.98 174.821 115.59C174.95 116.193 175.015 116.896 175.015 117.699ZM172.896 120.09V117.383C172.896 116.873 172.867 116.425 172.809 116.038C172.75 115.646 172.662 115.314 172.545 115.045C172.434 114.77 172.293 114.547 172.123 114.377C171.953 114.201 171.76 114.075 171.543 113.999C171.326 113.917 171.083 113.876 170.813 113.876C170.485 113.876 170.192 113.94 169.935 114.069C169.677 114.192 169.46 114.392 169.284 114.667C169.108 114.942 168.974 115.306 168.88 115.757C168.792 116.202 168.748 116.744 168.748 117.383V120.09C168.748 120.605 168.777 121.06 168.836 121.452C168.895 121.845 168.982 122.182 169.1 122.463C169.217 122.738 169.357 122.967 169.521 123.148C169.691 123.324 169.885 123.453 170.102 123.535C170.324 123.617 170.567 123.658 170.831 123.658C171.165 123.658 171.461 123.594 171.719 123.465C171.977 123.336 172.193 123.131 172.369 122.85C172.545 122.562 172.677 122.19 172.765 121.733C172.853 121.276 172.896 120.729 172.896 120.09Z" fill="white"/>
<path d="M266.5 65.4199C266.5 84.6118 250.942 100.17 231.75 100.17C212.558 100.17 197 84.6118 197 65.4199C197 46.228 212.558 30.6699 231.75 30.6699C250.942 30.6699 266.5 46.228 266.5 65.4199ZM204.645 65.4199C204.645 80.3896 216.78 92.5249 231.75 92.5249C246.72 92.5249 258.855 80.3896 258.855 65.4199C258.855 50.4502 246.72 38.3149 231.75 38.3149C216.78 38.3149 204.645 50.4502 204.645 65.4199Z" fill="#3D3D3D"/>
<path d="M197.5 65.4199C197.5 72.2928 199.538 79.0114 203.356 84.726C207.175 90.4406 212.602 94.8946 218.952 97.5247C225.301 100.155 232.289 100.843 239.029 99.5022C245.77 98.1614 251.962 94.8518 256.822 89.9919C261.682 85.132 264.991 78.9402 266.332 72.1993C267.673 65.4585 266.985 58.4714 264.355 52.1217C261.725 45.7719 257.271 40.3447 251.556 36.5264C245.841 32.708 239.123 30.6699 232.25 30.6699V38.3149C237.611 38.3149 242.851 39.9046 247.309 42.8829C251.766 45.8613 255.24 50.0945 257.292 55.0473C259.343 60.0001 259.88 65.45 258.834 70.7078C257.788 75.9657 255.207 80.7953 251.416 84.5861C247.625 88.3768 242.796 90.9583 237.538 92.0041C232.28 93.05 226.83 92.5132 221.877 90.4617C216.925 88.4102 212.691 84.936 209.713 80.4787C206.735 76.0213 205.145 70.7808 205.145 65.4199H197.5Z" fill="#02B1E4"/>
<path d="M229.838 63.4961H231.244C231.791 63.4961 232.243 63.4017 232.602 63.2129C232.966 63.0241 233.236 62.7637 233.412 62.4316C233.588 62.0996 233.676 61.7188 233.676 61.2891C233.676 60.8398 233.594 60.4557 233.432 60.1367C233.275 59.8112 233.035 59.5605 232.709 59.3848C232.39 59.209 231.983 59.1211 231.488 59.1211C231.072 59.1211 230.694 59.2057 230.355 59.375C230.023 59.5378 229.76 59.7721 229.564 60.0781C229.369 60.3776 229.271 60.7357 229.271 61.1523H226.908C226.908 60.3971 227.107 59.7266 227.504 59.1406C227.901 58.5547 228.441 58.0957 229.125 57.7637C229.815 57.4251 230.59 57.2559 231.449 57.2559C232.367 57.2559 233.168 57.4089 233.852 57.7148C234.542 58.0143 235.079 58.4635 235.463 59.0625C235.847 59.6615 236.039 60.4036 236.039 61.2891C236.039 61.6927 235.945 62.1029 235.756 62.5195C235.567 62.9362 235.287 63.3171 234.916 63.6621C234.545 64.0007 234.083 64.2773 233.529 64.4922C232.976 64.7005 232.335 64.8047 231.605 64.8047H229.838V63.4961ZM229.838 65.332V64.043H231.605C232.439 64.043 233.148 64.1406 233.734 64.3359C234.327 64.5312 234.809 64.8014 235.18 65.1465C235.551 65.485 235.821 65.8724 235.99 66.3086C236.166 66.7448 236.254 67.207 236.254 67.6953C236.254 68.3594 236.133 68.9518 235.893 69.4727C235.658 69.987 235.323 70.4232 234.887 70.7812C234.451 71.1393 233.939 71.4095 233.354 71.5918C232.774 71.7741 232.143 71.8652 231.459 71.8652C230.847 71.8652 230.261 71.7806 229.701 71.6113C229.141 71.4421 228.64 71.1914 228.197 70.8594C227.755 70.5208 227.403 70.1009 227.143 69.5996C226.889 69.0918 226.762 68.5059 226.762 67.8418H229.115C229.115 68.265 229.213 68.6393 229.408 68.9648C229.61 69.2839 229.89 69.5345 230.248 69.7168C230.613 69.8991 231.029 69.9902 231.498 69.9902C231.993 69.9902 232.419 69.9023 232.777 69.7266C233.135 69.5508 233.409 69.2904 233.598 68.9453C233.793 68.6003 233.891 68.1836 233.891 67.6953C233.891 67.1419 233.783 66.6927 233.568 66.3477C233.354 66.0026 233.048 65.7487 232.65 65.5859C232.253 65.4167 231.785 65.332 231.244 65.332H229.838Z" fill="white"/>
<path d="M212.776 115.546L212.346 117.102H204.119L204.55 115.546H212.776ZM208.795 125.17L204.374 119.958L204.365 118.648H206.466C207.011 118.648 207.459 118.552 207.811 118.358C208.168 118.159 208.435 117.893 208.61 117.559C208.786 117.219 208.874 116.841 208.874 116.425C208.874 115.974 208.792 115.575 208.628 115.229C208.464 114.884 208.203 114.614 207.846 114.421C207.488 114.228 207.017 114.131 206.431 114.131H204.128L204.603 112.373H206.431C207.468 112.373 208.329 112.528 209.015 112.839C209.7 113.149 210.213 113.601 210.553 114.192C210.898 114.784 211.071 115.499 211.071 116.337C211.071 117.069 210.945 117.717 210.693 118.279C210.441 118.836 210.034 119.287 209.472 119.633C208.909 119.973 208.162 120.184 207.23 120.266L211.273 125.056V125.17H208.795ZM212.785 112.373L212.346 113.929H205.622L206.053 112.373H212.785ZM227.182 123.482V125.17H218.604V123.72L222.77 119.176C223.227 118.66 223.587 118.215 223.851 117.84C224.114 117.465 224.299 117.128 224.404 116.829C224.516 116.524 224.571 116.229 224.571 115.941C224.571 115.537 224.495 115.183 224.343 114.878C224.196 114.567 223.979 114.324 223.692 114.148C223.405 113.967 223.057 113.876 222.646 113.876C222.172 113.876 221.773 113.979 221.451 114.184C221.129 114.389 220.886 114.673 220.722 115.036C220.558 115.394 220.476 115.804 220.476 116.267H218.357C218.357 115.522 218.527 114.843 218.867 114.228C219.207 113.606 219.699 113.114 220.344 112.751C220.988 112.382 221.765 112.197 222.673 112.197C223.528 112.197 224.255 112.341 224.853 112.628C225.45 112.915 225.904 113.322 226.215 113.85C226.531 114.377 226.689 115.001 226.689 115.722C226.689 116.12 226.625 116.516 226.496 116.908C226.367 117.301 226.183 117.693 225.942 118.086C225.708 118.473 225.43 118.862 225.107 119.255C224.785 119.642 224.431 120.034 224.044 120.433L221.275 123.482H227.182ZM237.351 117.699V119.791C237.351 120.793 237.251 121.648 237.052 122.357C236.858 123.061 236.577 123.632 236.208 124.071C235.839 124.511 235.396 124.833 234.881 125.038C234.371 125.243 233.8 125.346 233.167 125.346C232.663 125.346 232.194 125.281 231.761 125.152C231.333 125.023 230.946 124.821 230.601 124.546C230.255 124.271 229.959 123.916 229.713 123.482C229.473 123.043 229.285 122.519 229.15 121.909C229.021 121.3 228.957 120.594 228.957 119.791V117.699C228.957 116.691 229.057 115.842 229.256 115.15C229.455 114.453 229.739 113.888 230.108 113.454C230.478 113.015 230.917 112.695 231.427 112.496C231.942 112.297 232.517 112.197 233.149 112.197C233.659 112.197 234.128 112.262 234.556 112.391C234.989 112.514 235.376 112.71 235.716 112.979C236.062 113.249 236.354 113.601 236.595 114.034C236.841 114.462 237.028 114.98 237.157 115.59C237.286 116.193 237.351 116.896 237.351 117.699ZM235.232 120.09V117.383C235.232 116.873 235.203 116.425 235.145 116.038C235.086 115.646 234.998 115.314 234.881 115.045C234.77 114.77 234.629 114.547 234.459 114.377C234.289 114.201 234.096 114.075 233.879 113.999C233.662 113.917 233.419 113.876 233.149 113.876C232.821 113.876 232.528 113.94 232.271 114.069C232.013 114.192 231.796 114.392 231.62 114.667C231.444 114.942 231.31 115.306 231.216 115.757C231.128 116.202 231.084 116.744 231.084 117.383V120.09C231.084 120.605 231.113 121.06 231.172 121.452C231.23 121.845 231.318 122.182 231.436 122.463C231.553 122.738 231.693 122.967 231.857 123.148C232.027 123.324 232.221 123.453 232.438 123.535C232.66 123.617 232.903 123.658 233.167 123.658C233.501 123.658 233.797 123.594 234.055 123.465C234.312 123.336 234.529 123.131 234.705 122.85C234.881 122.562 235.013 122.19 235.101 121.733C235.188 121.276 235.232 120.729 235.232 120.09ZM247.933 117.699V119.791C247.933 120.793 247.833 121.648 247.634 122.357C247.44 123.061 247.159 123.632 246.79 124.071C246.421 124.511 245.979 124.833 245.463 125.038C244.953 125.243 244.382 125.346 243.749 125.346C243.245 125.346 242.776 125.281 242.343 125.152C241.915 125.023 241.528 124.821 241.183 124.546C240.837 124.271 240.541 123.916 240.295 123.482C240.055 123.043 239.867 122.519 239.732 121.909C239.604 121.3 239.539 120.594 239.539 119.791V117.699C239.539 116.691 239.639 115.842 239.838 115.15C240.037 114.453 240.321 113.888 240.69 113.454C241.06 113.015 241.499 112.695 242.009 112.496C242.524 112.297 243.099 112.197 243.731 112.197C244.241 112.197 244.71 112.262 245.138 112.391C245.571 112.514 245.958 112.71 246.298 112.979C246.644 113.249 246.937 113.601 247.177 114.034C247.423 114.462 247.61 114.98 247.739 115.59C247.868 116.193 247.933 116.896 247.933 117.699ZM245.814 120.09V117.383C245.814 116.873 245.785 116.425 245.727 116.038C245.668 115.646 245.58 115.314 245.463 115.045C245.352 114.77 245.211 114.547 245.041 114.377C244.871 114.201 244.678 114.075 244.461 113.999C244.244 113.917 244.001 113.876 243.731 113.876C243.403 113.876 243.11 113.94 242.853 114.069C242.595 114.192 242.378 114.392 242.202 114.667C242.026 114.942 241.892 115.306 241.798 115.757C241.71 116.202 241.666 116.744 241.666 117.383V120.09C241.666 120.605 241.695 121.06 241.754 121.452C241.812 121.845 241.9 122.182 242.018 122.463C242.135 122.738 242.275 122.967 242.439 123.148C242.609 123.324 242.803 123.453 243.02 123.535C243.242 123.617 243.485 123.658 243.749 123.658C244.083 123.658 244.379 123.594 244.637 123.465C244.895 123.336 245.111 123.131 245.287 122.85C245.463 122.562 245.595 122.19 245.683 121.733C245.771 121.276 245.814 120.729 245.814 120.09ZM258.515 117.699V119.791C258.515 120.793 258.415 121.648 258.216 122.357C258.022 123.061 257.741 123.632 257.372 124.071C257.003 124.511 256.561 124.833 256.045 125.038C255.535 125.243 254.964 125.346 254.331 125.346C253.827 125.346 253.358 125.281 252.925 125.152C252.497 125.023 252.11 124.821 251.765 124.546C251.419 124.271 251.123 123.916 250.877 123.482C250.637 123.043 250.449 122.519 250.314 121.909C250.186 121.3 250.121 120.594 250.121 119.791V117.699C250.121 116.691 250.221 115.842 250.42 115.15C250.619 114.453 250.903 113.888 251.272 113.454C251.642 113.015 252.081 112.695 252.591 112.496C253.106 112.297 253.681 112.197 254.313 112.197C254.823 112.197 255.292 112.262 255.72 112.391C256.153 112.514 256.54 112.71 256.88 112.979C257.226 113.249 257.519 113.601 257.759 114.034C258.005 114.462 258.192 114.98 258.321 115.59C258.45 116.193 258.515 116.896 258.515 117.699ZM256.396 120.09V117.383C256.396 116.873 256.367 116.425 256.309 116.038C256.25 115.646 256.162 115.314 256.045 115.045C255.934 114.77 255.793 114.547 255.623 114.377C255.453 114.201 255.26 114.075 255.043 113.999C254.826 113.917 254.583 113.876 254.313 113.876C253.985 113.876 253.692 113.94 253.435 114.069C253.177 114.192 252.96 114.392 252.784 114.667C252.608 114.942 252.474 115.306 252.38 115.757C252.292 116.202 252.248 116.744 252.248 117.383V120.09C252.248 120.605 252.277 121.06 252.336 121.452C252.395 121.845 252.482 122.182 252.6 122.463C252.717 122.738 252.857 122.967 253.021 123.148C253.191 123.324 253.385 123.453 253.602 123.535C253.824 123.617 254.067 123.658 254.331 123.658C254.665 123.658 254.961 123.594 255.219 123.465C255.477 123.336 255.693 123.131 255.869 122.85C256.045 122.562 256.177 122.19 256.265 121.733C256.353 121.276 256.396 120.729 256.396 120.09Z" fill="white"/>
<path d="M350 65.4199C350 84.6118 334.442 100.17 315.25 100.17C296.058 100.17 280.5 84.6118 280.5 65.4199C280.5 46.228 296.058 30.6699 315.25 30.6699C334.442 30.6699 350 46.228 350 65.4199ZM288.145 65.4199C288.145 80.3896 300.28 92.5249 315.25 92.5249C330.22 92.5249 342.355 80.3896 342.355 65.4199C342.355 50.4502 330.22 38.3149 315.25 38.3149C300.28 38.3149 288.145 50.4502 288.145 65.4199Z" fill="#3D3D3D"/>
<path d="M280.5 65.4199C280.5 84.6118 296.058 100.17 315.25 100.17C334.442 100.17 350 84.6118 350 65.4199C350 46.228 334.442 30.6699 315.25 30.6699C296.058 30.6699 280.5 46.228 280.5 65.4199ZM342.355 65.4199C342.355 80.3896 330.22 92.5249 315.25 92.5249C300.28 92.5249 288.145 80.3896 288.145 65.4199C288.145 50.4502 300.28 38.3149 315.25 38.3149C330.22 38.3149 342.355 50.4502 342.355 65.4199Z" fill="#02B1E4"/>
<path d="M319.869 66.6016V68.4766H309.615L309.537 67.0605L315.67 57.4512H317.555L315.514 60.9473L311.988 66.6016H319.869ZM318.092 57.4512V71.6699H315.738V57.4512H318.092Z" fill="white"/>
<path d="M296.276 115.546L295.846 117.102H287.619L288.05 115.546H296.276ZM292.295 125.17L287.874 119.958L287.865 118.648H289.966C290.511 118.648 290.959 118.552 291.311 118.358C291.668 118.159 291.935 117.893 292.11 117.559C292.286 117.219 292.374 116.841 292.374 116.425C292.374 115.974 292.292 115.575 292.128 115.229C291.964 114.884 291.703 114.614 291.346 114.421C290.988 114.228 290.517 114.131 289.931 114.131H287.628L288.103 112.373H289.931C290.968 112.373 291.829 112.528 292.515 112.839C293.2 113.149 293.713 113.601 294.053 114.192C294.398 114.784 294.571 115.499 294.571 116.337C294.571 117.069 294.445 117.717 294.193 118.279C293.941 118.836 293.534 119.287 292.972 119.633C292.409 119.973 291.662 120.184 290.73 120.266L294.773 125.056V125.17H292.295ZM296.285 112.373L295.846 113.929H289.122L289.553 112.373H296.285ZM310.682 123.482V125.17H302.104V123.72L306.27 119.176C306.727 118.66 307.087 118.215 307.351 117.84C307.614 117.465 307.799 117.128 307.904 116.829C308.016 116.524 308.071 116.229 308.071 115.941C308.071 115.537 307.995 115.183 307.843 114.878C307.696 114.567 307.479 114.324 307.192 114.148C306.905 113.967 306.557 113.876 306.146 113.876C305.672 113.876 305.273 113.979 304.951 114.184C304.629 114.389 304.386 114.673 304.222 115.036C304.058 115.394 303.976 115.804 303.976 116.267H301.857C301.857 115.522 302.027 114.843 302.367 114.228C302.707 113.606 303.199 113.114 303.844 112.751C304.488 112.382 305.265 112.197 306.173 112.197C307.028 112.197 307.755 112.341 308.353 112.628C308.95 112.915 309.404 113.322 309.715 113.85C310.031 114.377 310.189 115.001 310.189 115.722C310.189 116.12 310.125 116.516 309.996 116.908C309.867 117.301 309.683 117.693 309.442 118.086C309.208 118.473 308.93 118.862 308.607 119.255C308.285 119.642 307.931 120.034 307.544 120.433L304.775 123.482H310.682ZM320.851 117.699V119.791C320.851 120.793 320.751 121.648 320.552 122.357C320.358 123.061 320.077 123.632 319.708 124.071C319.339 124.511 318.896 124.833 318.381 125.038C317.871 125.243 317.3 125.346 316.667 125.346C316.163 125.346 315.694 125.281 315.261 125.152C314.833 125.023 314.446 124.821 314.101 124.546C313.755 124.271 313.459 123.916 313.213 123.482C312.973 123.043 312.785 122.519 312.65 121.909C312.521 121.3 312.457 120.594 312.457 119.791V117.699C312.457 116.691 312.557 115.842 312.756 115.15C312.955 114.453 313.239 113.888 313.608 113.454C313.978 113.015 314.417 112.695 314.927 112.496C315.442 112.297 316.017 112.197 316.649 112.197C317.159 112.197 317.628 112.262 318.056 112.391C318.489 112.514 318.876 112.71 319.216 112.979C319.562 113.249 319.854 113.601 320.095 114.034C320.341 114.462 320.528 114.98 320.657 115.59C320.786 116.193 320.851 116.896 320.851 117.699ZM318.732 120.09V117.383C318.732 116.873 318.703 116.425 318.645 116.038C318.586 115.646 318.498 115.314 318.381 115.045C318.27 114.77 318.129 114.547 317.959 114.377C317.789 114.201 317.596 114.075 317.379 113.999C317.162 113.917 316.919 113.876 316.649 113.876C316.321 113.876 316.028 113.94 315.771 114.069C315.513 114.192 315.296 114.392 315.12 114.667C314.944 114.942 314.81 115.306 314.716 115.757C314.628 116.202 314.584 116.744 314.584 117.383V120.09C314.584 120.605 314.613 121.06 314.672 121.452C314.73 121.845 314.818 122.182 314.936 122.463C315.053 122.738 315.193 122.967 315.357 123.148C315.527 123.324 315.721 123.453 315.938 123.535C316.16 123.617 316.403 123.658 316.667 123.658C317.001 123.658 317.297 123.594 317.555 123.465C317.812 123.336 318.029 123.131 318.205 122.85C318.381 122.562 318.513 122.19 318.601 121.733C318.688 121.276 318.732 120.729 318.732 120.09ZM331.433 117.699V119.791C331.433 120.793 331.333 121.648 331.134 122.357C330.94 123.061 330.659 123.632 330.29 124.071C329.921 124.511 329.479 124.833 328.963 125.038C328.453 125.243 327.882 125.346 327.249 125.346C326.745 125.346 326.276 125.281 325.843 125.152C325.415 125.023 325.028 124.821 324.683 124.546C324.337 124.271 324.041 123.916 323.795 123.482C323.555 123.043 323.367 122.519 323.232 121.909C323.104 121.3 323.039 120.594 323.039 119.791V117.699C323.039 116.691 323.139 115.842 323.338 115.15C323.537 114.453 323.821 113.888 324.19 113.454C324.56 113.015 324.999 112.695 325.509 112.496C326.024 112.297 326.599 112.197 327.231 112.197C327.741 112.197 328.21 112.262 328.638 112.391C329.071 112.514 329.458 112.71 329.798 112.979C330.144 113.249 330.437 113.601 330.677 114.034C330.923 114.462 331.11 114.98 331.239 115.59C331.368 116.193 331.433 116.896 331.433 117.699ZM329.314 120.09V117.383C329.314 116.873 329.285 116.425 329.227 116.038C329.168 115.646 329.08 115.314 328.963 115.045C328.852 114.77 328.711 114.547 328.541 114.377C328.371 114.201 328.178 114.075 327.961 113.999C327.744 113.917 327.501 113.876 327.231 113.876C326.903 113.876 326.61 113.94 326.353 114.069C326.095 114.192 325.878 114.392 325.702 114.667C325.526 114.942 325.392 115.306 325.298 115.757C325.21 116.202 325.166 116.744 325.166 117.383V120.09C325.166 120.605 325.195 121.06 325.254 121.452C325.312 121.845 325.4 122.182 325.518 122.463C325.635 122.738 325.775 122.967 325.939 123.148C326.109 123.324 326.303 123.453 326.52 123.535C326.742 123.617 326.985 123.658 327.249 123.658C327.583 123.658 327.879 123.594 328.137 123.465C328.395 123.336 328.611 123.131 328.787 122.85C328.963 122.562 329.095 122.19 329.183 121.733C329.271 121.276 329.314 120.729 329.314 120.09ZM342.015 117.699V119.791C342.015 120.793 341.915 121.648 341.716 122.357C341.522 123.061 341.241 123.632 340.872 124.071C340.503 124.511 340.061 124.833 339.545 125.038C339.035 125.243 338.464 125.346 337.831 125.346C337.327 125.346 336.858 125.281 336.425 125.152C335.997 125.023 335.61 124.821 335.265 124.546C334.919 124.271 334.623 123.916 334.377 123.482C334.137 123.043 333.949 122.519 333.814 121.909C333.686 121.3 333.621 120.594 333.621 119.791V117.699C333.621 116.691 333.721 115.842 333.92 115.15C334.119 114.453 334.403 113.888 334.772 113.454C335.142 113.015 335.581 112.695 336.091 112.496C336.606 112.297 337.181 112.197 337.813 112.197C338.323 112.197 338.792 112.262 339.22 112.391C339.653 112.514 340.04 112.71 340.38 112.979C340.726 113.249 341.019 113.601 341.259 114.034C341.505 114.462 341.692 114.98 341.821 115.59C341.95 116.193 342.015 116.896 342.015 117.699ZM339.896 120.09V117.383C339.896 116.873 339.867 116.425 339.809 116.038C339.75 115.646 339.662 115.314 339.545 115.045C339.434 114.77 339.293 114.547 339.123 114.377C338.953 114.201 338.76 114.075 338.543 113.999C338.326 113.917 338.083 113.876 337.813 113.876C337.485 113.876 337.192 113.94 336.935 114.069C336.677 114.192 336.46 114.392 336.284 114.667C336.108 114.942 335.974 115.306 335.88 115.757C335.792 116.202 335.748 116.744 335.748 117.383V120.09C335.748 120.605 335.777 121.06 335.836 121.452C335.895 121.845 335.982 122.182 336.1 122.463C336.217 122.738 336.357 122.967 336.521 123.148C336.691 123.324 336.885 123.453 337.102 123.535C337.324 123.617 337.567 123.658 337.831 123.658C338.165 123.658 338.461 123.594 338.719 123.465C338.977 123.336 339.193 123.131 339.369 122.85C339.545 122.562 339.677 122.19 339.765 121.733C339.853 121.276 339.896 120.729 339.896 120.09Z" fill="white"/>
</g>
<defs>
<filter id="filter0_d_1_20103" x="46" y="156.619" width="288" height="446.1" filterUnits="userSpaceOnUse" color-interpolation-filters="sRGB">
<feFlood flood-opacity="0" result="BackgroundImageFix"/>
<feColorMatrix in="SourceAlpha" type="matrix" values="0 0 0 0 0 0 0 0 0 0 0 0 0 0 0 0 0 0 127 0" result="hardAlpha"/>
<feOffset/>
<feGaussianBlur stdDeviation="4"/>
<feComposite in2="hardAlpha" operator="out"/>
<feColorMatrix type="matrix" values="0 0 0 0 1 0 0 0 0 1 0 0 0 0 1 0 0 0 0.25 0"/>
<feBlend mode="normal" in2="BackgroundImageFix" result="effect1_dropShadow_1_20103"/>
<feBlend mode="normal" in="SourceGraphic" in2="effect1_dropShadow_1_20103" result="shape"/>
</filter>
<filter id="filter1_d_1_20103" x="151.531" y="202.59" width="19.9922" height="348.007" filterUnits="userSpaceOnUse" color-interpolation-filters="sRGB">
<feFlood flood-opacity="0" result="BackgroundImageFix"/>
<feColorMatrix in="SourceAlpha" type="matrix" values="0 0 0 0 0 0 0 0 0 0 0 0 0 0 0 0 0 0 127 0" result="hardAlpha"/>
<feOffset dy="2.55"/>
<feColorMatrix type="matrix" values="0 0 0 0 0 0 0 0 0 0 0 0 0 0 0 0 0 0 0.25 0"/>
<feBlend mode="normal" in2="BackgroundImageFix" result="effect1_dropShadow_1_20103"/>
<feBlend mode="normal" in="SourceGraphic" in2="effect1_dropShadow_1_20103" result="shape"/>
</filter>
<filter id="filter2_d_1_20103" x="78.1156" y="202.38" width="26.2219" height="160.07" filterUnits="userSpaceOnUse" color-interpolation-filters="sRGB">
<feFlood flood-opacity="0" result="BackgroundImageFix"/>
<feColorMatrix in="SourceAlpha" type="matrix" values="0 0 0 0 0 0 0 0 0 0 0 0 0 0 0 0 0 0 127 0" result="hardAlpha"/>
<feOffset dy="1.7"/>
<feGaussianBlur stdDeviation="1.7"/>
<feColorMatrix type="matrix" values="0 0 0 0 0 0 0 0 0 0 0 0 0 0 0 0 0 0 0.25 0"/>
<feBlend mode="normal" in2="BackgroundImageFix" result="effect1_dropShadow_1_20103"/>
<feBlend mode="normal" in="SourceGraphic" in2="effect1_dropShadow_1_20103" result="shape"/>
</filter>
<linearGradient id="paint0_linear_1_20103" x1="338.115" y1="168.354" x2="771.754" y2="435.446" gradientUnits="userSpaceOnUse">
<stop stop-color="#303030"/>
<stop offset="1" stop-color="#262B2E"/>
</linearGradient>
<linearGradient id="paint1_linear_1_20103" x1="175.553" y1="337.17" x2="12.7781" y2="533.945" gradientUnits="userSpaceOnUse">
<stop stop-color="#3E3E3E" stop-opacity="0.2"/>
<stop offset="1" stop-opacity="0"/>
</linearGradient>
<linearGradient id="paint2_linear_1_20103" x1="176.405" y1="271.043" x2="13.6297" y2="467.818" gradientUnits="userSpaceOnUse">
<stop stop-color="#3E3E3E" stop-opacity="0.2"/>
<stop offset="1" stop-opacity="0"/>
</linearGradient>
<linearGradient id="paint3_linear_1_20103" x1="259.799" y1="199.469" x2="259.799" y2="239.419" gradientUnits="userSpaceOnUse">
<stop stop-color="#B7B7B7"/>
<stop offset="0.505208" stop-color="#DFD6D6"/>
<stop offset="1" stop-color="#EFE1E1"/>
</linearGradient>
<linearGradient id="paint4_linear_1_20103" x1="227.842" y1="199.469" x2="227.842" y2="212.785" gradientUnits="userSpaceOnUse">
<stop stop-color="#B7B7B7"/>
<stop offset="0.505208" stop-color="#DFD6D6"/>
<stop offset="1" stop-color="#EFE1E1"/>
</linearGradient>
<linearGradient id="paint5_linear_1_20103" x1="7.99" y1="0" x2="7.99" y2="13.3167" gradientUnits="userSpaceOnUse">
<stop stop-color="#B7B7B7"/>
<stop offset="0.505208" stop-color="#DFD6D6"/>
<stop offset="1" stop-color="#EFE1E1"/>
</linearGradient>
<linearGradient id="paint6_linear_1_20103" x1="326.051" y1="294.619" x2="489.551" y2="293.119" gradientUnits="userSpaceOnUse">
<stop stop-color="#686868"/>
<stop offset="1"/>
</linearGradient>
<clipPath id="clip0_1_20103">
<path d="M0 8.66992C0 4.25164 3.58172 0.669922 8 0.669922H372C376.418 0.669922 380 4.25164 380 8.66992V280.67H0V8.66992Z" fill="white"/>
</clipPath>
<clipPath id="clip1_1_20103">
<rect x="326" y="164.619" width="430.1" height="272" rx="21.25" transform="rotate(90 326 164.619)" fill="white"/>
</clipPath>
</defs>
</svg>
