<svg width="90" height="97" viewBox="0 0 90 97" fill="none" xmlns="http://www.w3.org/2000/svg">
<g opacity="0.2">
<path d="M6 94C6 95.6569 4.65685 97 3 97C1.34315 97 0 95.6569 0 94C0 92.3431 1.34315 91 3 91C4.65685 91 6 92.3431 6 94Z" fill="#00BDFF"/>
<path d="M18 94C18 95.6569 16.6569 97 15 97C13.3431 97 12 95.6569 12 94C12 92.3431 13.3431 91 15 91C16.6569 91 18 92.3431 18 94Z" fill="#00BDFF"/>
<path d="M30 94C30 95.6569 28.6569 97 27 97C25.3431 97 24 95.6569 24 94C24 92.3431 25.3431 91 27 91C28.6569 91 30 92.3431 30 94Z" fill="#00BDFF"/>
<path d="M42 94C42 95.6569 40.6569 97 39 97C37.3431 97 36 95.6569 36 94C36 92.3431 37.3431 91 39 91C40.6569 91 42 92.3431 42 94Z" fill="#00BDFF"/>
<path d="M54 94C54 95.6569 52.6569 97 51 97C49.3431 97 48 95.6569 48 94C48 92.3431 49.3431 91 51 91C52.6569 91 54 92.3431 54 94Z" fill="#00BDFF"/>
<path d="M66 94C66 95.6569 64.6569 97 63 97C61.3431 97 60 95.6569 60 94C60 92.3431 61.3431 91 63 91C64.6569 91 66 92.3431 66 94Z" fill="#00BDFF"/>
<path d="M78 94C78 95.6569 76.6569 97 75 97C73.3431 97 72 95.6569 72 94C72 92.3431 73.3431 91 75 91C76.6569 91 78 92.3431 78 94Z" fill="#00BDFF"/>
<path d="M90 94C90 95.6569 88.6569 97 87 97C85.3431 97 84 95.6569 84 94C84 92.3431 85.3431 91 87 91C88.6569 91 90 92.3431 90 94Z" fill="#00BDFF"/>
<path d="M6 81C6 82.6569 4.65685 84 3 84C1.34315 84 0 82.6569 0 81C0 79.3431 1.34315 78 3 78C4.65685 78 6 79.3431 6 81Z" fill="#00BDFF"/>
<path d="M18 81C18 82.6569 16.6569 84 15 84C13.3431 84 12 82.6569 12 81C12 79.3431 13.3431 78 15 78C16.6569 78 18 79.3431 18 81Z" fill="#00BDFF"/>
<path d="M30 81C30 82.6569 28.6569 84 27 84C25.3431 84 24 82.6569 24 81C24 79.3431 25.3431 78 27 78C28.6569 78 30 79.3431 30 81Z" fill="#00BDFF"/>
<path d="M42 81C42 82.6569 40.6569 84 39 84C37.3431 84 36 82.6569 36 81C36 79.3431 37.3431 78 39 78C40.6569 78 42 79.3431 42 81Z" fill="#00BDFF"/>
<path d="M54 81C54 82.6569 52.6569 84 51 84C49.3431 84 48 82.6569 48 81C48 79.3431 49.3431 78 51 78C52.6569 78 54 79.3431 54 81Z" fill="#00BDFF"/>
<path d="M66 81C66 82.6569 64.6569 84 63 84C61.3431 84 60 82.6569 60 81C60 79.3431 61.3431 78 63 78C64.6569 78 66 79.3431 66 81Z" fill="#00BDFF"/>
<path d="M78 81C78 82.6569 76.6569 84 75 84C73.3431 84 72 82.6569 72 81C72 79.3431 73.3431 78 75 78C76.6569 78 78 79.3431 78 81Z" fill="#00BDFF"/>
<path d="M90 81C90 82.6569 88.6569 84 87 84C85.3431 84 84 82.6569 84 81C84 79.3431 85.3431 78 87 78C88.6569 78 90 79.3431 90 81Z" fill="#00BDFF"/>
<path d="M6 68C6 69.6569 4.65685 71 3 71C1.34315 71 0 69.6569 0 68C0 66.3431 1.34315 65 3 65C4.65685 65 6 66.3431 6 68Z" fill="#00BDFF"/>
<path d="M18 68C18 69.6569 16.6569 71 15 71C13.3431 71 12 69.6569 12 68C12 66.3431 13.3431 65 15 65C16.6569 65 18 66.3431 18 68Z" fill="#00BDFF"/>
<path d="M30 68C30 69.6569 28.6569 71 27 71C25.3431 71 24 69.6569 24 68C24 66.3431 25.3431 65 27 65C28.6569 65 30 66.3431 30 68Z" fill="#00BDFF"/>
<path d="M42 68C42 69.6569 40.6569 71 39 71C37.3431 71 36 69.6569 36 68C36 66.3431 37.3431 65 39 65C40.6569 65 42 66.3431 42 68Z" fill="#00BDFF"/>
<path d="M54 68C54 69.6569 52.6569 71 51 71C49.3431 71 48 69.6569 48 68C48 66.3431 49.3431 65 51 65C52.6569 65 54 66.3431 54 68Z" fill="#00BDFF"/>
<path d="M66 68C66 69.6569 64.6569 71 63 71C61.3431 71 60 69.6569 60 68C60 66.3431 61.3431 65 63 65C64.6569 65 66 66.3431 66 68Z" fill="#00BDFF"/>
<path d="M78 68C78 69.6569 76.6569 71 75 71C73.3431 71 72 69.6569 72 68C72 66.3431 73.3431 65 75 65C76.6569 65 78 66.3431 78 68Z" fill="#00BDFF"/>
<path d="M90 68C90 69.6569 88.6569 71 87 71C85.3431 71 84 69.6569 84 68C84 66.3431 85.3431 65 87 65C88.6569 65 90 66.3431 90 68Z" fill="#00BDFF"/>
<path d="M6 55C6 56.6569 4.65685 58 3 58C1.34315 58 0 56.6569 0 55C0 53.3431 1.34315 52 3 52C4.65685 52 6 53.3431 6 55Z" fill="#00BDFF"/>
<path d="M18 55C18 56.6569 16.6569 58 15 58C13.3431 58 12 56.6569 12 55C12 53.3431 13.3431 52 15 52C16.6569 52 18 53.3431 18 55Z" fill="#00BDFF"/>
<path d="M30 55C30 56.6569 28.6569 58 27 58C25.3431 58 24 56.6569 24 55C24 53.3431 25.3431 52 27 52C28.6569 52 30 53.3431 30 55Z" fill="#00BDFF"/>
<path d="M42 55C42 56.6569 40.6569 58 39 58C37.3431 58 36 56.6569 36 55C36 53.3431 37.3431 52 39 52C40.6569 52 42 53.3431 42 55Z" fill="#00BDFF"/>
<path d="M54 55C54 56.6569 52.6569 58 51 58C49.3431 58 48 56.6569 48 55C48 53.3431 49.3431 52 51 52C52.6569 52 54 53.3431 54 55Z" fill="#00BDFF"/>
<path d="M66 55C66 56.6569 64.6569 58 63 58C61.3431 58 60 56.6569 60 55C60 53.3431 61.3431 52 63 52C64.6569 52 66 53.3431 66 55Z" fill="#00BDFF"/>
<path d="M78 55C78 56.6569 76.6569 58 75 58C73.3431 58 72 56.6569 72 55C72 53.3431 73.3431 52 75 52C76.6569 52 78 53.3431 78 55Z" fill="#00BDFF"/>
<path d="M90 55C90 56.6569 88.6569 58 87 58C85.3431 58 84 56.6569 84 55C84 53.3431 85.3431 52 87 52C88.6569 52 90 53.3431 90 55Z" fill="#00BDFF"/>
<path d="M6 42C6 43.6569 4.65685 45 3 45C1.34315 45 0 43.6569 0 42C0 40.3431 1.34315 39 3 39C4.65685 39 6 40.3431 6 42Z" fill="#00BDFF"/>
<path d="M18 42C18 43.6569 16.6569 45 15 45C13.3431 45 12 43.6569 12 42C12 40.3431 13.3431 39 15 39C16.6569 39 18 40.3431 18 42Z" fill="#00BDFF"/>
<path d="M30 42C30 43.6569 28.6569 45 27 45C25.3431 45 24 43.6569 24 42C24 40.3431 25.3431 39 27 39C28.6569 39 30 40.3431 30 42Z" fill="#00BDFF"/>
<path d="M42 42C42 43.6569 40.6569 45 39 45C37.3431 45 36 43.6569 36 42C36 40.3431 37.3431 39 39 39C40.6569 39 42 40.3431 42 42Z" fill="#00BDFF"/>
<path d="M54 42C54 43.6569 52.6569 45 51 45C49.3431 45 48 43.6569 48 42C48 40.3431 49.3431 39 51 39C52.6569 39 54 40.3431 54 42Z" fill="#00BDFF"/>
<path d="M66 42C66 43.6569 64.6569 45 63 45C61.3431 45 60 43.6569 60 42C60 40.3431 61.3431 39 63 39C64.6569 39 66 40.3431 66 42Z" fill="#00BDFF"/>
<path d="M78 42C78 43.6569 76.6569 45 75 45C73.3431 45 72 43.6569 72 42C72 40.3431 73.3431 39 75 39C76.6569 39 78 40.3431 78 42Z" fill="#00BDFF"/>
<path d="M90 42C90 43.6569 88.6569 45 87 45C85.3431 45 84 43.6569 84 42C84 40.3431 85.3431 39 87 39C88.6569 39 90 40.3431 90 42Z" fill="#00BDFF"/>
<path d="M6 29C6 30.6569 4.65685 32 3 32C1.34315 32 0 30.6569 0 29C0 27.3431 1.34315 26 3 26C4.65685 26 6 27.3431 6 29Z" fill="#00BDFF"/>
<path d="M18 29C18 30.6569 16.6569 32 15 32C13.3431 32 12 30.6569 12 29C12 27.3431 13.3431 26 15 26C16.6569 26 18 27.3431 18 29Z" fill="#00BDFF"/>
<path d="M30 29C30 30.6569 28.6569 32 27 32C25.3431 32 24 30.6569 24 29C24 27.3431 25.3431 26 27 26C28.6569 26 30 27.3431 30 29Z" fill="#00BDFF"/>
<path d="M42 29C42 30.6569 40.6569 32 39 32C37.3431 32 36 30.6569 36 29C36 27.3431 37.3431 26 39 26C40.6569 26 42 27.3431 42 29Z" fill="#00BDFF"/>
<path d="M54 29C54 30.6569 52.6569 32 51 32C49.3431 32 48 30.6569 48 29C48 27.3431 49.3431 26 51 26C52.6569 26 54 27.3431 54 29Z" fill="#00BDFF"/>
<path d="M66 29C66 30.6569 64.6569 32 63 32C61.3431 32 60 30.6569 60 29C60 27.3431 61.3431 26 63 26C64.6569 26 66 27.3431 66 29Z" fill="#00BDFF"/>
<path d="M78 29C78 30.6569 76.6569 32 75 32C73.3431 32 72 30.6569 72 29C72 27.3431 73.3431 26 75 26C76.6569 26 78 27.3431 78 29Z" fill="#00BDFF"/>
<path d="M90 29C90 30.6569 88.6569 32 87 32C85.3431 32 84 30.6569 84 29C84 27.3431 85.3431 26 87 26C88.6569 26 90 27.3431 90 29Z" fill="#00BDFF"/>
<path d="M6 16C6 17.6569 4.65685 19 3 19C1.34315 19 0 17.6569 0 16C0 14.3431 1.34315 13 3 13C4.65685 13 6 14.3431 6 16Z" fill="#00BDFF"/>
<path d="M18 16C18 17.6569 16.6569 19 15 19C13.3431 19 12 17.6569 12 16C12 14.3431 13.3431 13 15 13C16.6569 13 18 14.3431 18 16Z" fill="#00BDFF"/>
<path d="M30 16C30 17.6569 28.6569 19 27 19C25.3431 19 24 17.6569 24 16C24 14.3431 25.3431 13 27 13C28.6569 13 30 14.3431 30 16Z" fill="#00BDFF"/>
<path d="M42 16C42 17.6569 40.6569 19 39 19C37.3431 19 36 17.6569 36 16C36 14.3431 37.3431 13 39 13C40.6569 13 42 14.3431 42 16Z" fill="#00BDFF"/>
<path d="M54 16C54 17.6569 52.6569 19 51 19C49.3431 19 48 17.6569 48 16C48 14.3431 49.3431 13 51 13C52.6569 13 54 14.3431 54 16Z" fill="#00BDFF"/>
<path d="M66 16C66 17.6569 64.6569 19 63 19C61.3431 19 60 17.6569 60 16C60 14.3431 61.3431 13 63 13C64.6569 13 66 14.3431 66 16Z" fill="#00BDFF"/>
<path d="M78 16C78 17.6569 76.6569 19 75 19C73.3431 19 72 17.6569 72 16C72 14.3431 73.3431 13 75 13C76.6569 13 78 14.3431 78 16Z" fill="#00BDFF"/>
<path d="M90 16C90 17.6569 88.6569 19 87 19C85.3431 19 84 17.6569 84 16C84 14.3431 85.3431 13 87 13C88.6569 13 90 14.3431 90 16Z" fill="#00BDFF"/>
<path d="M6 3C6 4.65685 4.65685 6 3 6C1.34315 6 0 4.65685 0 3C0 1.34315 1.34315 0 3 0C4.65685 0 6 1.34315 6 3Z" fill="#00BDFF"/>
<path d="M18 3C18 4.65685 16.6569 6 15 6C13.3431 6 12 4.65685 12 3C12 1.34315 13.3431 0 15 0C16.6569 0 18 1.34315 18 3Z" fill="#00BDFF"/>
<path d="M30 3C30 4.65685 28.6569 6 27 6C25.3431 6 24 4.65685 24 3C24 1.34315 25.3431 0 27 0C28.6569 0 30 1.34315 30 3Z" fill="#00BDFF"/>
<path d="M42 3C42 4.65685 40.6569 6 39 6C37.3431 6 36 4.65685 36 3C36 1.34315 37.3431 0 39 0C40.6569 0 42 1.34315 42 3Z" fill="#00BDFF"/>
<path d="M54 3C54 4.65685 52.6569 6 51 6C49.3431 6 48 4.65685 48 3C48 1.34315 49.3431 0 51 0C52.6569 0 54 1.34315 54 3Z" fill="#00BDFF"/>
<path d="M66 3C66 4.65685 64.6569 6 63 6C61.3431 6 60 4.65685 60 3C60 1.34315 61.3431 0 63 0C64.6569 0 66 1.34315 66 3Z" fill="#00BDFF"/>
<path d="M78 3C78 4.65685 76.6569 6 75 6C73.3431 6 72 4.65685 72 3C72 1.34315 73.3431 0 75 0C76.6569 0 78 1.34315 78 3Z" fill="#00BDFF"/>
<path d="M90 3C90 4.65685 88.6569 6 87 6C85.3431 6 84 4.65685 84 3C84 1.34315 85.3431 0 87 0C88.6569 0 90 1.34315 90 3Z" fill="#00BDFF"/>
</g>
</svg>
