<svg width="90" height="97" viewBox="0 0 90 97" fill="none" xmlns="http://www.w3.org/2000/svg">
<g opacity="0.2">
<path d="M84 94C84 95.6569 85.3431 97 87 97C88.6569 97 90 95.6569 90 94C90 92.3431 88.6569 91 87 91C85.3431 91 84 92.3431 84 94Z" fill="#00BDFF"/>
<path d="M72 94C72 95.6569 73.3431 97 75 97C76.6569 97 78 95.6569 78 94C78 92.3431 76.6569 91 75 91C73.3431 91 72 92.3431 72 94Z" fill="#00BDFF"/>
<path d="M60 94C60 95.6569 61.3431 97 63 97C64.6569 97 66 95.6569 66 94C66 92.3431 64.6569 91 63 91C61.3431 91 60 92.3431 60 94Z" fill="#00BDFF"/>
<path d="M48 94C48 95.6569 49.3431 97 51 97C52.6569 97 54 95.6569 54 94C54 92.3431 52.6569 91 51 91C49.3431 91 48 92.3431 48 94Z" fill="#00BDFF"/>
<path d="M36 94C36 95.6569 37.3431 97 39 97C40.6569 97 42 95.6569 42 94C42 92.3431 40.6569 91 39 91C37.3431 91 36 92.3431 36 94Z" fill="#00BDFF"/>
<path d="M24 94C24 95.6569 25.3431 97 27 97C28.6569 97 30 95.6569 30 94C30 92.3431 28.6569 91 27 91C25.3431 91 24 92.3431 24 94Z" fill="#00BDFF"/>
<path d="M12 94C12 95.6569 13.3431 97 15 97C16.6569 97 18 95.6569 18 94C18 92.3431 16.6569 91 15 91C13.3431 91 12 92.3431 12 94Z" fill="#00BDFF"/>
<path d="M0 94C0 95.6569 1.34315 97 3 97C4.65685 97 6 95.6569 6 94C6 92.3431 4.65685 91 3 91C1.34315 91 0 92.3431 0 94Z" fill="#00BDFF"/>
<path d="M84 81C84 82.6569 85.3431 84 87 84C88.6569 84 90 82.6569 90 81C90 79.3431 88.6569 78 87 78C85.3431 78 84 79.3431 84 81Z" fill="#00BDFF"/>
<path d="M72 81C72 82.6569 73.3431 84 75 84C76.6569 84 78 82.6569 78 81C78 79.3431 76.6569 78 75 78C73.3431 78 72 79.3431 72 81Z" fill="#00BDFF"/>
<path d="M60 81C60 82.6569 61.3431 84 63 84C64.6569 84 66 82.6569 66 81C66 79.3431 64.6569 78 63 78C61.3431 78 60 79.3431 60 81Z" fill="#00BDFF"/>
<path d="M48 81C48 82.6569 49.3431 84 51 84C52.6569 84 54 82.6569 54 81C54 79.3431 52.6569 78 51 78C49.3431 78 48 79.3431 48 81Z" fill="#00BDFF"/>
<path d="M36 81C36 82.6569 37.3431 84 39 84C40.6569 84 42 82.6569 42 81C42 79.3431 40.6569 78 39 78C37.3431 78 36 79.3431 36 81Z" fill="#00BDFF"/>
<path d="M24 81C24 82.6569 25.3431 84 27 84C28.6569 84 30 82.6569 30 81C30 79.3431 28.6569 78 27 78C25.3431 78 24 79.3431 24 81Z" fill="#00BDFF"/>
<path d="M12 81C12 82.6569 13.3431 84 15 84C16.6569 84 18 82.6569 18 81C18 79.3431 16.6569 78 15 78C13.3431 78 12 79.3431 12 81Z" fill="#00BDFF"/>
<path d="M0 81C0 82.6569 1.34315 84 3 84C4.65685 84 6 82.6569 6 81C6 79.3431 4.65685 78 3 78C1.34315 78 0 79.3431 0 81Z" fill="#00BDFF"/>
<path d="M84 68C84 69.6569 85.3431 71 87 71C88.6569 71 90 69.6569 90 68C90 66.3431 88.6569 65 87 65C85.3431 65 84 66.3431 84 68Z" fill="#00BDFF"/>
<path d="M72 68C72 69.6569 73.3431 71 75 71C76.6569 71 78 69.6569 78 68C78 66.3431 76.6569 65 75 65C73.3431 65 72 66.3431 72 68Z" fill="#00BDFF"/>
<path d="M60 68C60 69.6569 61.3431 71 63 71C64.6569 71 66 69.6569 66 68C66 66.3431 64.6569 65 63 65C61.3431 65 60 66.3431 60 68Z" fill="#00BDFF"/>
<path d="M48 68C48 69.6569 49.3431 71 51 71C52.6569 71 54 69.6569 54 68C54 66.3431 52.6569 65 51 65C49.3431 65 48 66.3431 48 68Z" fill="#00BDFF"/>
<path d="M36 68C36 69.6569 37.3431 71 39 71C40.6569 71 42 69.6569 42 68C42 66.3431 40.6569 65 39 65C37.3431 65 36 66.3431 36 68Z" fill="#00BDFF"/>
<path d="M24 68C24 69.6569 25.3431 71 27 71C28.6569 71 30 69.6569 30 68C30 66.3431 28.6569 65 27 65C25.3431 65 24 66.3431 24 68Z" fill="#00BDFF"/>
<path d="M12 68C12 69.6569 13.3431 71 15 71C16.6569 71 18 69.6569 18 68C18 66.3431 16.6569 65 15 65C13.3431 65 12 66.3431 12 68Z" fill="#00BDFF"/>
<path d="M0 68C0 69.6569 1.34315 71 3 71C4.65685 71 6 69.6569 6 68C6 66.3431 4.65685 65 3 65C1.34315 65 0 66.3431 0 68Z" fill="#00BDFF"/>
<path d="M84 55C84 56.6569 85.3431 58 87 58C88.6569 58 90 56.6569 90 55C90 53.3431 88.6569 52 87 52C85.3431 52 84 53.3431 84 55Z" fill="#00BDFF"/>
<path d="M72 55C72 56.6569 73.3431 58 75 58C76.6569 58 78 56.6569 78 55C78 53.3431 76.6569 52 75 52C73.3431 52 72 53.3431 72 55Z" fill="#00BDFF"/>
<path d="M60 55C60 56.6569 61.3431 58 63 58C64.6569 58 66 56.6569 66 55C66 53.3431 64.6569 52 63 52C61.3431 52 60 53.3431 60 55Z" fill="#00BDFF"/>
<path d="M48 55C48 56.6569 49.3431 58 51 58C52.6569 58 54 56.6569 54 55C54 53.3431 52.6569 52 51 52C49.3431 52 48 53.3431 48 55Z" fill="#00BDFF"/>
<path d="M36 55C36 56.6569 37.3431 58 39 58C40.6569 58 42 56.6569 42 55C42 53.3431 40.6569 52 39 52C37.3431 52 36 53.3431 36 55Z" fill="#00BDFF"/>
<path d="M24 55C24 56.6569 25.3431 58 27 58C28.6569 58 30 56.6569 30 55C30 53.3431 28.6569 52 27 52C25.3431 52 24 53.3431 24 55Z" fill="#00BDFF"/>
<path d="M12 55C12 56.6569 13.3431 58 15 58C16.6569 58 18 56.6569 18 55C18 53.3431 16.6569 52 15 52C13.3431 52 12 53.3431 12 55Z" fill="#00BDFF"/>
<path d="M0 55C0 56.6569 1.34315 58 3 58C4.65685 58 6 56.6569 6 55C6 53.3431 4.65685 52 3 52C1.34315 52 0 53.3431 0 55Z" fill="#00BDFF"/>
<path d="M84 42C84 43.6569 85.3431 45 87 45C88.6569 45 90 43.6569 90 42C90 40.3431 88.6569 39 87 39C85.3431 39 84 40.3431 84 42Z" fill="#00BDFF"/>
<path d="M72 42C72 43.6569 73.3431 45 75 45C76.6569 45 78 43.6569 78 42C78 40.3431 76.6569 39 75 39C73.3431 39 72 40.3431 72 42Z" fill="#00BDFF"/>
<path d="M60 42C60 43.6569 61.3431 45 63 45C64.6569 45 66 43.6569 66 42C66 40.3431 64.6569 39 63 39C61.3431 39 60 40.3431 60 42Z" fill="#00BDFF"/>
<path d="M48 42C48 43.6569 49.3431 45 51 45C52.6569 45 54 43.6569 54 42C54 40.3431 52.6569 39 51 39C49.3431 39 48 40.3431 48 42Z" fill="#00BDFF"/>
<path d="M36 42C36 43.6569 37.3431 45 39 45C40.6569 45 42 43.6569 42 42C42 40.3431 40.6569 39 39 39C37.3431 39 36 40.3431 36 42Z" fill="#00BDFF"/>
<path d="M24 42C24 43.6569 25.3431 45 27 45C28.6569 45 30 43.6569 30 42C30 40.3431 28.6569 39 27 39C25.3431 39 24 40.3431 24 42Z" fill="#00BDFF"/>
<path d="M12 42C12 43.6569 13.3431 45 15 45C16.6569 45 18 43.6569 18 42C18 40.3431 16.6569 39 15 39C13.3431 39 12 40.3431 12 42Z" fill="#00BDFF"/>
<path d="M0 42C0 43.6569 1.34315 45 3 45C4.65685 45 6 43.6569 6 42C6 40.3431 4.65685 39 3 39C1.34315 39 0 40.3431 0 42Z" fill="#00BDFF"/>
<path d="M84 29C84 30.6569 85.3431 32 87 32C88.6569 32 90 30.6569 90 29C90 27.3431 88.6569 26 87 26C85.3431 26 84 27.3431 84 29Z" fill="#00BDFF"/>
<path d="M72 29C72 30.6569 73.3431 32 75 32C76.6569 32 78 30.6569 78 29C78 27.3431 76.6569 26 75 26C73.3431 26 72 27.3431 72 29Z" fill="#00BDFF"/>
<path d="M60 29C60 30.6569 61.3431 32 63 32C64.6569 32 66 30.6569 66 29C66 27.3431 64.6569 26 63 26C61.3431 26 60 27.3431 60 29Z" fill="#00BDFF"/>
<path d="M48 29C48 30.6569 49.3431 32 51 32C52.6569 32 54 30.6569 54 29C54 27.3431 52.6569 26 51 26C49.3431 26 48 27.3431 48 29Z" fill="#00BDFF"/>
<path d="M36 29C36 30.6569 37.3431 32 39 32C40.6569 32 42 30.6569 42 29C42 27.3431 40.6569 26 39 26C37.3431 26 36 27.3431 36 29Z" fill="#00BDFF"/>
<path d="M24 29C24 30.6569 25.3431 32 27 32C28.6569 32 30 30.6569 30 29C30 27.3431 28.6569 26 27 26C25.3431 26 24 27.3431 24 29Z" fill="#00BDFF"/>
<path d="M12 29C12 30.6569 13.3431 32 15 32C16.6569 32 18 30.6569 18 29C18 27.3431 16.6569 26 15 26C13.3431 26 12 27.3431 12 29Z" fill="#00BDFF"/>
<path d="M0 29C0 30.6569 1.34315 32 3 32C4.65685 32 6 30.6569 6 29C6 27.3431 4.65685 26 3 26C1.34315 26 0 27.3431 0 29Z" fill="#00BDFF"/>
<path d="M84 16C84 17.6569 85.3431 19 87 19C88.6569 19 90 17.6569 90 16C90 14.3431 88.6569 13 87 13C85.3431 13 84 14.3431 84 16Z" fill="#00BDFF"/>
<path d="M72 16C72 17.6569 73.3431 19 75 19C76.6569 19 78 17.6569 78 16C78 14.3431 76.6569 13 75 13C73.3431 13 72 14.3431 72 16Z" fill="#00BDFF"/>
<path d="M60 16C60 17.6569 61.3431 19 63 19C64.6569 19 66 17.6569 66 16C66 14.3431 64.6569 13 63 13C61.3431 13 60 14.3431 60 16Z" fill="#00BDFF"/>
<path d="M48 16C48 17.6569 49.3431 19 51 19C52.6569 19 54 17.6569 54 16C54 14.3431 52.6569 13 51 13C49.3431 13 48 14.3431 48 16Z" fill="#00BDFF"/>
<path d="M36 16C36 17.6569 37.3431 19 39 19C40.6569 19 42 17.6569 42 16C42 14.3431 40.6569 13 39 13C37.3431 13 36 14.3431 36 16Z" fill="#00BDFF"/>
<path d="M24 16C24 17.6569 25.3431 19 27 19C28.6569 19 30 17.6569 30 16C30 14.3431 28.6569 13 27 13C25.3431 13 24 14.3431 24 16Z" fill="#00BDFF"/>
<path d="M12 16C12 17.6569 13.3431 19 15 19C16.6569 19 18 17.6569 18 16C18 14.3431 16.6569 13 15 13C13.3431 13 12 14.3431 12 16Z" fill="#00BDFF"/>
<path d="M0 16C0 17.6569 1.34315 19 3 19C4.65685 19 6 17.6569 6 16C6 14.3431 4.65685 13 3 13C1.34315 13 0 14.3431 0 16Z" fill="#00BDFF"/>
<path d="M84 3C84 4.65685 85.3431 6 87 6C88.6569 6 90 4.65685 90 3C90 1.34315 88.6569 0 87 0C85.3431 0 84 1.34315 84 3Z" fill="#00BDFF"/>
<path d="M72 3C72 4.65685 73.3431 6 75 6C76.6569 6 78 4.65685 78 3C78 1.34315 76.6569 0 75 0C73.3431 0 72 1.34315 72 3Z" fill="#00BDFF"/>
<path d="M60 3C60 4.65685 61.3431 6 63 6C64.6569 6 66 4.65685 66 3C66 1.34315 64.6569 0 63 0C61.3431 0 60 1.34315 60 3Z" fill="#00BDFF"/>
<path d="M48 3C48 4.65685 49.3431 6 51 6C52.6569 6 54 4.65685 54 3C54 1.34315 52.6569 0 51 0C49.3431 0 48 1.34315 48 3Z" fill="#00BDFF"/>
<path d="M36 3C36 4.65685 37.3431 6 39 6C40.6569 6 42 4.65685 42 3C42 1.34315 40.6569 0 39 0C37.3431 0 36 1.34315 36 3Z" fill="#00BDFF"/>
<path d="M24 3C24 4.65685 25.3431 6 27 6C28.6569 6 30 4.65685 30 3C30 1.34315 28.6569 0 27 0C25.3431 0 24 1.34315 24 3Z" fill="#00BDFF"/>
<path d="M12 3C12 4.65685 13.3431 6 15 6C16.6569 6 18 4.65685 18 3C18 1.34315 16.6569 0 15 0C13.3431 0 12 1.34315 12 3Z" fill="#00BDFF"/>
<path d="M0 3C0 4.65685 1.34315 6 3 6C4.65685 6 6 4.65685 6 3C6 1.34315 4.65685 0 3 0C1.34315 0 0 1.34315 0 3Z" fill="#00BDFF"/>
</g>
</svg>
