<svg width="72" height="72" viewBox="0 0 72 72" fill="none" xmlns="http://www.w3.org/2000/svg">
<rect width="72" height="72" rx="36" fill="#E6F7FC"/>
<path d="M27.2193 48.833C28.5859 47.3663 30.6693 47.483 31.8693 49.083L33.5526 51.333C34.9026 53.1163 37.0859 53.1163 38.4359 51.333L40.1193 49.083C41.3193 47.483 43.4026 47.3663 44.7693 48.833C47.7359 51.9997 50.1526 50.9497 50.1526 46.5163V27.733C50.1693 21.0163 48.6026 19.333 42.3026 19.333H29.7026C23.4026 19.333 21.8359 21.0163 21.8359 27.733V46.4997C21.8359 50.9497 24.2693 51.983 27.2193 48.833Z" stroke="#0D0E15" stroke-width="2.5" stroke-linecap="round" stroke-linejoin="round"/>
<path d="M29.4961 34.3333H29.511" stroke="#43BAF9" stroke-width="3.33333" stroke-linecap="round" stroke-linejoin="round"/>
<path d="M34.1641 34.333H43.3307" stroke="#43BAF9" stroke-width="2.5" stroke-linecap="round" stroke-linejoin="round"/>
<path d="M29.4961 27.6663H29.511" stroke="#43BAF9" stroke-width="3.33333" stroke-linecap="round" stroke-linejoin="round"/>
<path d="M34.1641 27.667H43.3307" stroke="#43BAF9" stroke-width="2.5" stroke-linecap="round" stroke-linejoin="round"/>
</svg>
