<svg width="73" height="72" viewBox="0 0 73 72" fill="none" xmlns="http://www.w3.org/2000/svg">
<rect x="0.5" width="72" height="72" rx="36" fill="#E6F7FC"/>
<path d="M21.1641 36.6832V29.0666C21.1641 27.0833 22.3807 25.3165 24.2307 24.6165L37.4641 19.6165C39.5307 18.8332 41.7474 20.3666 41.7474 22.5832V28.9166" stroke="#43BAF9" stroke-width="2.5" stroke-linecap="round" stroke-linejoin="round"/>
<path d="M28.6641 36H40.3307" stroke="#43BAF9" stroke-width="2.5" stroke-linecap="round" stroke-linejoin="round"/>
<path d="M47.0641 38.5836C46.3641 39.267 45.9641 40.2503 46.0641 41.3003C46.2141 43.1003 47.8641 44.417 49.6641 44.417H52.8307V46.4003C52.8307 49.8503 50.0141 52.667 46.5641 52.667H27.4307C23.9807 52.667 21.1641 49.8503 21.1641 46.4003V35.1837C21.1641 31.7337 23.9807 28.917 27.4307 28.917H46.5641C50.0141 28.917 52.8307 31.7337 52.8307 35.1837V37.5837H49.4641C48.5307 37.5837 47.6807 37.9503 47.0641 38.5836Z" stroke="#0D0E15" stroke-width="2.5" stroke-linecap="round" stroke-linejoin="round"/>
<path d="M54.6032 39.2829V42.7164C54.6032 43.633 53.8699 44.383 52.9366 44.4163H49.6699C47.8699 44.4163 46.2199 43.0996 46.0699 41.2996C45.9699 40.2496 46.3699 39.2663 47.0699 38.583C47.6866 37.9496 48.5366 37.583 49.4699 37.583H52.9366C53.8699 37.6163 54.6032 38.3663 54.6032 39.2829Z" stroke="#0D0E15" stroke-width="2.5" stroke-linecap="round" stroke-linejoin="round"/>
</svg>
