<svg width="72" height="72" viewBox="0 0 72 72" fill="none" xmlns="http://www.w3.org/2000/svg">
<rect width="72" height="72" rx="36" fill="#E6F7FC"/>
<path d="M49.3333 27.733V44.2663C49.3333 46.7997 49.1 48.5997 48.5 49.883C48.5 49.8997 48.4833 49.933 48.4666 49.9497C48.1 50.4163 47.6167 50.6497 47.05 50.6497C46.1667 50.6497 45.1 50.0663 43.95 48.833C42.5834 47.3663 40.4833 47.483 39.2833 49.083L37.6 51.3163C36.9334 52.2163 36.05 52.6663 35.1667 52.6663C34.2833 52.6663 33.4 52.2163 32.7333 51.3163L31.0334 49.0663C29.85 47.483 27.7667 47.3663 26.4 48.8163L26.3833 48.833C24.5 50.8497 22.8334 51.1497 21.8667 49.9497C21.85 49.933 21.8333 49.8997 21.8333 49.883C21.2333 48.5997 21 46.7997 21 44.2663V27.733C21 25.1997 21.2333 23.3997 21.8333 22.1163C21.8333 22.0997 21.8334 22.083 21.8667 22.0663C22.8167 20.8497 24.5 21.1497 26.3833 23.1663L26.4 23.183C27.7667 24.633 29.85 24.5163 31.0334 22.933L32.7333 20.683C33.4 19.783 34.2833 19.333 35.1667 19.333C36.05 19.333 36.9334 19.783 37.6 20.683L39.2833 22.9163C40.4833 24.5163 42.5834 24.633 43.95 23.1663C45.1 21.933 46.1667 21.3497 47.05 21.3497C47.6167 21.3497 48.1 21.5997 48.4666 22.0663C48.5 22.083 48.5 22.0997 48.5 22.1163C49.1 23.3997 49.3333 25.1997 49.3333 27.733Z" stroke="#0D0E15" stroke-width="2.5" stroke-linecap="round" stroke-linejoin="round"/>
<path d="M29.3359 33.083H42.6693" stroke="#43BAF9" stroke-width="2.5" stroke-linecap="round" stroke-linejoin="round"/>
<path d="M29.3359 38.917H39.3359" stroke="#43BAF9" stroke-width="2.5" stroke-linecap="round" stroke-linejoin="round"/>
</svg>
