<svg width="73" height="72" viewBox="0 0 73 72" fill="none" xmlns="http://www.w3.org/2000/svg">
<rect x="0.5" width="72" height="72" rx="36" fill="#E6F7FC"/>
<path d="M42.0312 47.7666C42.0312 50.5166 39.7812 52.7666 37.0312 52.7666C35.6646 52.7666 34.3979 52.1999 33.4979 51.2999C32.5979 50.3999 32.0312 49.1333 32.0312 47.7666" stroke="#43BAF9" stroke-width="2.5" stroke-miterlimit="10"/>
<path d="M37.0349 20.8496C31.5183 20.8496 27.0349 25.3329 27.0349 30.8496V35.6663C27.0349 36.6829 26.6016 38.2329 26.0849 39.0996L24.1683 42.2829C22.9849 44.2496 23.8016 46.4329 25.9683 47.1663C33.1516 49.5663 40.9016 49.5663 48.0849 47.1663C50.1016 46.4996 50.9849 44.1163 49.8849 42.2829L47.9683 39.0996C47.4683 38.2329 47.0349 36.6829 47.0349 35.6663V30.8496C47.0349 25.3496 42.5349 20.8496 37.0349 20.8496Z" stroke="#0D0E15" stroke-width="2.5" stroke-miterlimit="10" stroke-linecap="round"/>
<path d="M40.1198 21.3334C39.6031 21.1834 39.0698 21.0667 38.5198 21.0001C36.9198 20.8001 35.3865 20.9167 33.9531 21.3334C34.4365 20.1001 35.6365 19.2334 37.0365 19.2334C38.4365 19.2334 39.6365 20.1001 40.1198 21.3334Z" stroke="#0D0E15" stroke-width="2.5" stroke-miterlimit="10" stroke-linecap="round" stroke-linejoin="round"/>
</svg>
