<svg width="73" height="72" viewBox="0 0 73 72" fill="none" xmlns="http://www.w3.org/2000/svg">
<rect x="0.5" width="72" height="72" rx="36" fill="#E6F7FC"/>
<path d="M53.6641 25.9997V30.033C53.6641 32.6663 51.9974 34.333 49.3641 34.333H43.6641V22.683C43.6641 20.833 45.1807 19.333 47.0307 19.333C48.8474 19.3497 50.5141 20.083 51.7141 21.283C52.9141 22.4997 53.6641 24.1663 53.6641 25.9997Z" stroke="#0D0E15" stroke-width="2.5" stroke-miterlimit="10" stroke-linecap="round" stroke-linejoin="round"/>
<path d="M20.3359 27.6663V50.9997C20.3359 52.383 21.9026 53.1663 23.0026 52.333L25.8526 50.1997C26.5193 49.6997 27.4526 49.7663 28.0526 50.3663L30.8193 53.1497C31.4693 53.7997 32.5359 53.7997 33.1859 53.1497L35.9859 50.3497C36.5693 49.7663 37.5026 49.6997 38.1526 50.1997L41.0026 52.333C42.1026 53.1497 43.6693 52.3663 43.6693 50.9997V22.6663C43.6693 20.833 45.1693 19.333 47.0026 19.333H28.6693H27.0026C22.0026 19.333 20.3359 22.3163 20.3359 25.9997V27.6663Z" stroke="#0D0E15" stroke-width="2.5" stroke-miterlimit="10" stroke-linecap="round" stroke-linejoin="round"/>
<path d="M32 37.6836H37" stroke="#43BAF9" stroke-width="2.5" stroke-linecap="round" stroke-linejoin="round"/>
<path d="M32 31.0166H37" stroke="#43BAF9" stroke-width="2.5" stroke-linecap="round" stroke-linejoin="round"/>
<path d="M26.9922 37.667H27.0072" stroke="#43BAF9" stroke-width="3.33333" stroke-linecap="round" stroke-linejoin="round"/>
<path d="M26.9961 31.0003H27.011" stroke="#43BAF9" stroke-width="3.33333" stroke-linecap="round" stroke-linejoin="round"/>
</svg>
