<svg width="73" height="72" viewBox="0 0 73 72" fill="none" xmlns="http://www.w3.org/2000/svg">
<rect x="0.5" width="72" height="72" rx="36" fill="#E6F7FC"/>
<path d="M53.6693 32.6663V37.6663C53.6693 44.333 50.3359 47.6663 43.6693 47.6663H42.8359C42.3193 47.6663 41.8193 47.9163 41.5026 48.333L39.0026 51.6663C37.9026 53.133 36.1026 53.133 35.0026 51.6663L32.5026 48.333C32.2359 47.9663 31.6193 47.6663 31.1693 47.6663H30.3359C23.6693 47.6663 20.3359 45.9997 20.3359 37.6663V29.333C20.3359 22.6663 23.6693 19.333 30.3359 19.333H40.3359" stroke="#0D0E15" stroke-width="2.5" stroke-miterlimit="10" stroke-linecap="round" stroke-linejoin="round"/>
<path d="M49.5026 27.6663C51.8038 27.6663 53.6693 25.8009 53.6693 23.4997C53.6693 21.1985 51.8038 19.333 49.5026 19.333C47.2014 19.333 45.3359 21.1985 45.3359 23.4997C45.3359 25.8009 47.2014 27.6663 49.5026 27.6663Z" stroke="#43BAF9" stroke-width="2.5" stroke-linecap="round" stroke-linejoin="round"/>
<path d="M43.6601 34.3333H43.6751" stroke="#43BAF9" stroke-width="3.33333" stroke-linecap="round" stroke-linejoin="round"/>
<path d="M36.9961 34.3333H37.011" stroke="#43BAF9" stroke-width="3.33333" stroke-linecap="round" stroke-linejoin="round"/>
<path d="M30.3242 34.3333H30.3391" stroke="#43BAF9" stroke-width="3.33333" stroke-linecap="round" stroke-linejoin="round"/>
</svg>
