<svg width="105" height="44" viewBox="0 0 105 44" fill="none" xmlns="http://www.w3.org/2000/svg">
<path d="M17.1252 43.7407H13.304L8.94257 36.6782L4.61927 43.7407H0.75991L7.06892 33.5863L0.780081 23.4632H4.52514L8.9224 30.586L13.3578 23.4632H17.1409L10.87 33.6176L17.123 43.7429L17.1252 43.7407Z" fill="black"/>
<path d="M29.0106 44H25.6354V27.7266L20.6577 29.419V26.582L28.5781 23.6734H29.0106V44Z" fill="black"/>
<path d="M53.798 17.5276H51.7271V10.1007C51.7271 9.01641 51.3775 8.09756 50.6782 7.34637C49.979 6.59519 49.0847 6.2196 47.9933 6.2196C46.9018 6.2196 46.0076 6.59296 45.3083 7.3352C44.609 8.07967 44.2594 9.00076 44.2594 10.1007V17.5276H42.1258V4.46685H44.2594V5.82389C44.9587 5.28063 45.5638 4.90504 46.0815 4.69712C46.7091 4.4199 47.4083 4.27905 48.1748 4.27905C49.152 4.27905 50.0529 4.51156 50.8755 4.97881C51.698 5.44383 52.3614 6.06758 52.8657 6.84559C53.4372 6.08099 54.1678 5.46171 55.0531 4.98775C55.9406 4.51603 56.8438 4.27905 57.7649 4.27905C59.3428 4.27905 60.6763 4.8402 61.7633 5.95803C62.8525 7.0781 63.3971 8.42396 63.3971 9.99563V17.5276H61.3061V10.1007C61.3061 9.01641 60.9564 8.09756 60.2594 7.34637C59.5624 6.59519 58.6771 6.2196 57.6036 6.2196C56.53 6.2196 55.6089 6.58849 54.885 7.32625C54.1588 8.06402 53.798 8.96723 53.798 10.0381V17.5298V17.5276Z" fill="black"/>
<path d="M12.6651 10.5926C12.6651 12.5733 11.9569 14.2233 10.5427 15.5468C9.12845 16.868 7.42065 17.5298 5.42149 17.5298H0.398935C0.179297 17.5298 0 17.3509 0 17.1319V0.397947C0 0.178853 0.179297 0 0.398935 0H1.75487C1.97451 0 2.1538 0.178853 2.1538 0.397947V3.25736C2.1538 3.47645 2.3331 3.6553 2.55274 3.6553H5.53131C6.89396 3.6553 8.13783 3.97947 9.26292 4.63005C10.388 5.28063 11.2554 6.19725 11.8627 7.37767C12.3961 8.39713 12.6628 9.46802 12.6628 10.5903M2.15604 14.8917C2.15604 15.1108 2.33534 15.2897 2.55498 15.2897H5.31167C6.7326 15.2897 7.92492 14.8537 8.88864 13.9818C9.85236 13.1099 10.332 11.9787 10.332 10.5903C10.332 9.20197 9.83891 8.0126 8.85502 7.06692C7.86889 6.12123 6.66536 5.64951 5.24443 5.64951H2.55498C2.33534 5.64951 2.15604 5.82836 2.15604 6.04746V14.8917Z" fill="black"/>
<path d="M20.5205 17.7288C18.4765 17.7288 16.7149 17.0424 15.2313 15.6675C13.7498 14.2926 13.0102 12.6091 13.0102 10.6149C13.0102 8.6207 13.7498 6.92831 15.2313 5.53996C16.7127 4.15162 18.4765 3.45633 20.5205 3.45633C22.5645 3.45633 24.3552 4.15162 25.8524 5.53996C27.3472 6.92831 28.0958 8.6207 28.0958 10.6149C28.0958 12.6091 27.3472 14.2926 25.8524 15.6675C24.3552 17.0424 22.5779 17.7288 20.5205 17.7288ZM20.3345 5.51984C18.9472 5.56008 17.7504 6.05416 16.7441 7.00208C15.6907 7.99248 15.1663 9.19527 15.1663 10.6149C15.1797 12.0323 15.7154 13.2239 16.7643 14.183C17.8154 15.1444 19.0682 15.625 20.5205 15.625C21.9728 15.625 23.2481 15.1444 24.3082 14.183C25.366 13.2239 25.9039 12.0346 25.9196 10.6149C25.933 9.24445 25.44 8.0752 24.4382 7.10492C23.3512 6.05193 21.8496 5.47513 20.3345 5.51984Z" fill="black"/>
<path d="M34.1785 17.7288C32.1345 17.7288 30.3729 17.0424 28.8892 15.6675C27.4078 14.2926 26.6682 12.6091 26.6682 10.6149C26.6682 8.6207 27.4078 6.92831 28.8892 5.53996C30.3706 4.15162 32.1345 3.45633 34.1785 3.45633C36.2224 3.45633 38.0132 4.15162 39.5103 5.53996C41.0052 6.92831 41.7537 8.6207 41.7537 10.6149C41.7537 12.6091 41.0052 14.2926 39.5103 15.6675C38.0132 17.0424 36.2359 17.7288 34.1785 17.7288ZM33.9924 5.51984C32.6051 5.56008 31.4083 6.05416 30.3998 7.00208C29.3464 7.99248 28.822 9.19527 28.822 10.6149C28.8354 12.0323 29.3688 13.2239 30.4199 14.183C31.4711 15.1444 32.7239 15.625 34.1762 15.625C35.6285 15.625 36.9038 15.1444 37.9639 14.183C39.0217 13.2239 39.5596 12.0346 39.5753 10.6149C39.5887 9.24445 39.0957 8.0752 38.0938 7.10492C37.0069 6.05193 35.5053 5.47513 33.9902 5.51984H33.9924Z" fill="black"/>
<path d="M77.064 10.5926C77.064 12.5733 76.3558 14.2233 74.9416 15.5468C73.5274 16.868 71.8196 17.5298 69.8204 17.5298H64.7979C64.5782 17.5298 64.3989 17.3509 64.3989 17.1319V0.397947C64.3989 0.178853 64.5782 0 64.7979 0H66.1538C66.3734 0 66.5527 0.178853 66.5527 0.397947V3.25736C66.5527 3.47645 66.732 3.6553 66.9517 3.6553H69.9302C71.2929 3.6553 72.5368 3.97947 73.6619 4.63005C74.7869 5.28063 75.6543 6.19725 76.2617 7.37767C76.7951 8.39713 77.0618 9.46802 77.0618 10.5903M66.555 14.8917C66.555 15.1108 66.7343 15.2897 66.9539 15.2897H69.7106C71.1315 15.2897 72.3238 14.8537 73.2876 13.9818C74.2513 13.1099 74.7309 11.9787 74.7309 10.5903C74.7309 9.20197 74.2378 8.0126 73.254 7.06692C72.2678 6.12123 71.0643 5.64951 69.6434 5.64951H66.9539C66.7343 5.64951 66.555 5.82836 66.555 6.04746V14.8917Z" fill="black"/>
<path d="M84.9195 17.7288C82.8755 17.7288 81.1116 17.0424 79.6302 15.6675C78.1488 14.2926 77.4092 12.6091 77.4092 10.6149C77.4092 8.6207 78.1488 6.92831 79.6302 5.53996C81.1116 4.15162 82.8755 3.45633 84.9195 3.45633C86.9634 3.45633 88.7542 4.15162 90.2513 5.53996C91.7462 6.92831 92.4947 8.6207 92.4947 10.6149C92.4947 12.6091 91.7462 14.2926 90.2513 15.6675C88.7542 17.0424 86.9769 17.7288 84.9195 17.7288ZM84.7334 5.51984C83.3461 5.56008 82.1493 6.05416 81.1408 7.00208C80.0874 7.99248 79.563 9.19527 79.563 10.6149C79.5764 12.0323 80.1098 13.2239 81.1609 14.183C82.2121 15.1444 83.4649 15.625 84.9172 15.625C86.3695 15.625 87.6448 15.1444 88.7049 14.183C89.7627 13.2239 90.3006 12.0346 90.3163 10.6149C90.3297 9.24445 89.8367 8.0752 88.8348 7.10492C87.7479 6.05193 86.2463 5.47513 84.7312 5.51984H84.7334Z" fill="black"/>
<path d="M104.512 17.5276H102.907C102.791 17.5276 102.679 17.4761 102.605 17.389L98.8912 13.0607C98.732 12.8752 98.4429 12.8752 98.2838 13.0607L94.597 17.3867C94.5208 17.4761 94.411 17.5276 94.2922 17.5276H92.6628C92.3289 17.5276 92.1429 17.1453 92.3491 16.8837L97.1139 10.8385C97.2282 10.6932 97.2282 10.4897 97.1139 10.3466L92.3625 4.32376C92.1563 4.06219 92.3423 3.67989 92.6763 3.67989H94.2272C94.3437 3.67989 94.4558 3.73131 94.532 3.82074L98.2703 8.19145C98.4295 8.37701 98.7163 8.37701 98.8777 8.19145L102.641 3.81851C102.717 3.73131 102.827 3.67989 102.943 3.67989H104.523C104.855 3.67989 105.043 4.06219 104.837 4.32376L100.095 10.3712C99.9826 10.5165 99.9826 10.7177 100.095 10.8631L104.824 16.8882C105.03 17.1497 104.842 17.532 104.51 17.532L104.512 17.5276Z" fill="black"/>
</svg>
