<svg width="106" height="44" viewBox="0 0 106 44" fill="none" xmlns="http://www.w3.org/2000/svg">
<path d="M54.1425 17.8367H52.0591V10.2772C52.0591 9.17257 51.7066 8.23889 51.004 7.47395C50.2991 6.709 49.4001 6.32653 48.3026 6.32653C47.2052 6.32653 46.304 6.7045 45.6013 7.4627C44.8964 8.22089 44.5462 9.15907 44.5462 10.2772V17.8367H42.3981V4.54466H44.5462V5.92381C45.2489 5.3726 45.8601 4.99013 46.3798 4.7764C47.0111 4.49292 47.7137 4.35118 48.4878 4.35118C49.4715 4.35118 50.3771 4.58741 51.2069 5.06212C52.0345 5.53684 52.7037 6.16904 53.2078 6.96323C53.7834 6.18479 54.5172 5.55484 55.4095 5.07337C56.3018 4.59191 57.2119 4.35118 58.1398 4.35118C59.7281 4.35118 61.0687 4.92038 62.1639 6.06105C63.2592 7.20172 63.8079 8.56961 63.8079 10.1692V17.8344H61.7022V10.275C61.7022 9.17032 61.352 8.23664 60.6493 7.4717C59.9467 6.70675 59.0566 6.32428 57.977 6.32428C56.8974 6.32428 55.9694 6.7 55.24 7.4492C54.5106 8.20064 54.1447 9.11857 54.1447 10.2097V17.8322L54.1425 17.8367Z" fill="black"/>
<path d="M12.7437 10.779C12.7437 12.7948 12.0322 14.4732 10.609 15.8186C9.18584 17.164 7.46824 17.8367 5.45619 17.8367H0.401518C0.180683 17.8367 0 17.6544 0 17.4317V0.40497C0 0.182237 0.180683 0 0.401518 0H1.76668C1.98751 0 2.1682 0.182237 2.1682 0.40497V3.31625C2.1682 3.53899 2.34888 3.72122 2.56972 3.72122H5.56772C6.93957 3.72122 8.19097 4.05195 9.32191 4.7134C10.4551 5.37485 11.3273 6.30628 11.9385 7.50994C12.4761 8.54712 12.7437 9.63604 12.7437 10.779ZM2.1682 15.1526C2.1682 15.3754 2.34888 15.5576 2.56972 15.5576H5.34242C6.7745 15.5576 7.97237 15.1144 8.9427 14.2279C9.91081 13.3415 10.3949 12.1896 10.3949 10.779C10.3949 9.36831 9.89965 8.15565 8.90924 7.19272C7.9166 6.22979 6.70758 5.74832 5.2755 5.74832H2.56972C2.34888 5.74832 2.1682 5.93056 2.1682 6.15329V15.1526Z" fill="black"/>
<path d="M20.6514 18.0392C18.5948 18.0392 16.8214 17.3395 15.3291 15.9423C13.839 14.5429 13.094 12.8308 13.094 10.8014C13.094 8.7721 13.839 7.05098 15.3291 5.63808C16.8214 4.22519 18.5948 3.51874 20.6514 3.51874C22.7081 3.51874 24.5105 4.22519 26.0184 5.63808C27.5241 7.05098 28.2758 8.7721 28.2758 10.8014C28.2758 12.8308 27.5218 14.5452 26.0184 15.9423C24.5127 17.3417 22.7237 18.0392 20.6514 18.0392ZM20.464 5.61783C19.0677 5.65833 17.8631 6.16229 16.8504 7.12522C15.7908 8.13315 15.2622 9.35706 15.2622 10.8014C15.2778 12.2458 15.8131 13.4563 16.8705 14.4304C17.9278 15.4091 19.1881 15.8973 20.6492 15.8973C22.1103 15.8973 23.3951 15.4091 24.4614 14.4304C25.5276 13.454 26.0675 12.2436 26.0831 10.8014C26.0964 9.40655 25.6012 8.21639 24.593 7.23096C23.5 6.16004 21.9876 5.57284 20.464 5.61783Z" fill="black"/>
<path d="M34.3967 18.0392C32.3401 18.0392 30.5667 17.3395 29.0744 15.9423C27.5843 14.5429 26.8393 12.8308 26.8393 10.8014C26.8393 8.7721 27.5843 7.05098 29.0744 5.63808C30.5667 4.22519 32.3401 3.51874 34.3967 3.51874C36.4534 3.51874 38.2558 4.22519 39.7637 5.63808C41.2694 7.05098 42.0211 8.7721 42.0211 10.8014C42.0211 12.8308 41.2671 14.5452 39.7637 15.9423C38.258 17.3417 36.469 18.0392 34.3967 18.0392ZM34.2093 5.61783C32.813 5.65833 31.6084 6.16229 30.5935 7.12522C29.5339 8.13315 29.0052 9.35706 29.0052 10.8014C29.0208 12.2458 29.5562 13.4563 30.6135 14.4304C31.6709 15.4091 32.9312 15.8973 34.3923 15.8973C35.8533 15.8973 37.1382 15.4091 38.2045 14.4304C39.2707 13.454 39.8105 12.2436 39.8261 10.8014C39.8395 9.40655 39.3443 8.21639 38.3361 7.23096C37.243 6.16004 35.7307 5.57284 34.2071 5.61783H34.2093Z" fill="black"/>
<path d="M77.5555 10.779C77.5555 12.7948 76.8439 14.4732 75.4207 15.8186C73.9976 17.164 72.28 17.8367 70.2657 17.8367H65.211C64.9902 17.8367 64.8095 17.6544 64.8095 17.4317V0.40497C64.8095 0.182237 64.9902 0 65.211 0H66.5762C66.797 0 66.9777 0.182237 66.9777 0.40497V3.31625C66.9777 3.53899 67.1584 3.72122 67.3792 3.72122H70.3772C71.7491 3.72122 73.0005 4.05195 74.1336 4.7134C75.2668 5.37485 76.139 6.30628 76.7502 7.50994C77.2878 8.54712 77.5555 9.63604 77.5555 10.779ZM66.9799 15.1526C66.9799 15.3754 67.1606 15.5576 67.3814 15.5576H70.1541C71.5862 15.5576 72.7841 15.1144 73.7544 14.2279C74.7225 13.3415 75.2066 12.1896 75.2066 10.779C75.2066 9.36831 74.7114 8.15565 73.721 7.19272C72.7283 6.22979 71.5193 5.74832 70.0872 5.74832H67.3814C67.1606 5.74832 66.9799 5.93056 66.9799 6.15329V15.1526Z" fill="black"/>
<path d="M85.4609 18.0392C83.4042 18.0392 81.6286 17.3395 80.1386 15.9423C78.6485 14.5429 77.9035 12.8308 77.9035 10.8014C77.9035 8.7721 78.6485 7.05098 80.1386 5.63808C81.6286 4.22519 83.4042 3.51874 85.4609 3.51874C87.5176 3.51874 89.3199 4.22519 90.8279 5.63808C92.3336 7.05098 93.0853 8.7721 93.0853 10.8014C93.0853 12.8308 92.3313 14.5452 90.8279 15.9423C89.3222 17.3417 87.5332 18.0392 85.4609 18.0392ZM85.2758 5.61783C83.8794 5.65833 82.6748 6.16229 81.6599 7.12522C80.6003 8.13315 80.0716 9.35706 80.0716 10.8014C80.0873 12.2458 80.6226 13.4563 81.68 14.4304C82.7373 15.4091 83.9976 15.8973 85.4587 15.8973C86.9198 15.8973 88.2046 15.4091 89.2709 14.4304C90.3371 13.454 90.8769 12.2436 90.8926 10.8014C90.9059 9.40655 90.4107 8.21639 89.4025 7.23096C88.3095 6.16004 86.7971 5.57284 85.2735 5.61783H85.2758Z" fill="black"/>
<path d="M105.18 17.8367H103.565C103.447 17.8367 103.335 17.7849 103.259 17.6949L99.523 13.2898C99.3624 13.1008 99.0724 13.1008 98.9118 13.2898L95.2022 17.6927C95.1263 17.7827 95.0148 17.8344 94.8966 17.8344H93.2571C92.9225 17.8344 92.7328 17.4452 92.9403 17.1775L97.7362 11.0264C97.85 10.8802 97.85 10.6732 97.7362 10.5247L92.9559 4.39617C92.7485 4.13069 92.9358 3.73922 93.2727 3.73922H94.8341C94.9524 3.73922 95.0639 3.79097 95.1397 3.88096L98.9028 8.32888C99.0635 8.51787 99.3534 8.51787 99.514 8.32888L103.302 3.87871C103.378 3.78872 103.489 3.73697 103.607 3.73697H105.198C105.532 3.73697 105.72 4.12619 105.515 4.39167L100.741 10.545C100.627 10.6912 100.627 10.8982 100.741 11.0444L105.501 17.1752C105.709 17.4407 105.519 17.8299 105.184 17.8299L105.18 17.8367Z" fill="black"/>
<path d="M15.7529 35.0502C15.7529 37.5407 14.8718 39.6173 13.114 41.28C11.354 42.9426 9.23046 43.775 6.74327 43.775H0V21.7244H2.68125V26.3231H6.88158C8.57687 26.3231 10.1249 26.7325 11.5258 27.5492C12.9267 28.3682 14.0041 29.5201 14.7603 31.005C15.4228 32.2874 15.7551 33.635 15.7551 35.0479L15.7529 35.0502ZM2.68125 40.9605H6.60497C8.37388 40.9605 9.85727 40.4115 11.0551 39.3158C12.253 38.2202 12.8508 36.7983 12.8508 35.0502C12.8508 33.302 12.2374 31.8082 11.0127 30.618C9.78812 29.4278 8.29135 28.8339 6.52244 28.8339H2.68125V40.9605Z" fill="black"/>
<path d="M27.0712 44H23.8056V28.0779L18.9873 29.7338V26.9575L26.6519 24.1137H27.0712V44Z" fill="black"/>
</svg>
