<svg width="116" height="26" viewBox="0 0 116 26" fill="none" xmlns="http://www.w3.org/2000/svg">
<path fill-rule="evenodd" clip-rule="evenodd" d="M17.1881 25.8026L19.1116 24.7438V18.5147V15.2893V14.5753V0.171875L17.1635 1.55066C17.1635 5.83475 17.1635 10.045 17.1635 14.3291V14.5507V15.2401C17.0207 15.795 16.7505 16.3092 16.3744 16.742C15.794 17.4107 14.942 17.7817 14.0563 17.7514C13.123 17.8091 12.2145 17.4372 11.5903 16.742C10.964 16.0757 10.6194 15.1936 10.6286 14.2798V7.43513H8.8531V14.2306C8.8683 15.1364 8.54273 16.0149 7.94069 16.6927C7.37475 17.3889 6.52066 17.7881 5.62266 17.776C4.68526 17.8276 3.77609 17.4463 3.15667 16.742C2.55672 16.0629 2.23145 15.1852 2.24426 14.2798V7.43513H0.46875V19.3764H2.3429V18.1207C2.82447 18.5288 3.35453 18.8761 3.92113 19.1548C4.50099 19.4183 5.13388 19.5447 5.77062 19.5241C6.6373 19.5531 7.49381 19.3308 8.23661 18.884C8.94921 18.4759 9.54389 17.8907 9.9628 17.1851C10.4693 17.8874 11.1264 18.4678 11.8863 18.884C12.6347 19.3172 13.4873 19.5385 14.3523 19.5241C15.4374 19.5388 16.4934 19.1728 17.3361 18.4901V25.8764L17.1881 25.8026Z" fill="#02B1E4"/>
<path d="M22.8854 19.5722H20.8633V7.43398H22.8854V19.5722ZM20.9126 5.43966C20.916 5.19189 21.0129 4.95452 21.1839 4.77489C21.3624 4.60207 21.601 4.505 21.8497 4.50406C22.0994 4.49955 22.34 4.59743 22.5155 4.77489C22.7023 4.94584 22.8095 5.18666 22.8114 5.43966C22.8134 5.70061 22.7061 5.95052 22.5155 6.12906C22.34 6.30651 22.0994 6.4044 21.8497 6.39989C21.601 6.39895 21.3624 6.30188 21.1839 6.12906C21.0092 5.94187 20.9123 5.69547 20.9126 5.43966ZM24.0197 19.5722V17.6025H32.2068C32.6586 17.6026 33.0924 17.4258 33.4152 17.1101C33.7475 16.7968 33.935 16.36 33.933 15.9037C33.9404 15.4534 33.7514 15.0221 33.4152 14.7219C33.0879 14.3977 32.643 14.2201 32.1822 14.2294H27.2502C26.0522 14.2736 24.9297 13.6467 24.3403 12.6044C24.05 12.0851 23.8973 11.5003 23.8964 10.9056C23.8706 10.0322 24.2207 9.1897 24.8582 8.59118C25.4891 7.90803 26.3954 7.54607 27.3242 7.60633H35.6592V9.52678H27.2502C26.8692 9.51831 26.5023 9.67022 26.2391 9.94534C25.9593 10.1948 25.8055 10.5559 25.8199 10.9302C25.8083 11.3111 25.9609 11.6787 26.2391 11.9397C26.5087 12.2053 26.8715 12.3554 27.2502 12.3582H32.1822C33.5108 12.2798 34.7633 12.9821 35.3879 14.1556C35.7077 14.701 35.8778 15.3209 35.8811 15.9529C35.9205 16.9519 35.5141 17.9168 34.7714 18.5874C34.0348 19.266 33.0606 19.6285 32.0589 19.5969H23.9211L24.0197 19.5722ZM47.348 12.6783C47.2494 11.6365 46.7321 10.6791 45.9142 10.0249C45.0963 9.37065 44.0476 9.07544 43.0078 9.20671C41.7845 9.21491 40.6109 9.69069 39.7281 10.5363C38.8497 11.3375 38.3561 12.4753 38.3718 13.6631C38.4123 16.0371 40.3586 17.9364 42.7366 17.9226C43.7343 17.9252 44.7228 17.7329 45.6464 17.3563C46.5624 17.035 47.3037 16.3484 47.6932 15.4605L49.0002 16.6916C48.4465 17.694 47.5808 18.4892 46.5342 18.9567C45.4361 19.4585 44.2401 19.7108 43.0325 19.6953C41.3128 19.7417 39.6452 19.104 38.3964 17.9226C37.1474 16.8126 36.4526 15.2089 36.4976 13.54C36.4794 11.8836 37.1703 10.2981 38.3964 9.18209C39.626 7.99923 41.276 7.35268 42.9832 7.38474C44.6148 7.29677 46.2267 7.77522 47.5453 8.7389C48.8967 9.90291 49.6112 11.6406 49.4687 13.4169C49.4687 13.6631 49.4687 13.9586 49.4687 14.2294H40.1473V12.7029H47.2987L47.348 12.6783ZM52.28 9.52678H55.0172C56.1646 9.49201 57.28 9.90743 58.1243 10.684C58.9409 11.4466 59.39 12.5227 59.3573 13.6385C59.3788 14.7766 58.9122 15.8696 58.075 16.6423C57.246 17.4722 56.1171 17.9337 54.9432 17.9226H52.4772V9.50216L52.28 9.52678ZM61.3548 13.6385C61.3873 12.0087 60.7238 10.4419 59.53 9.32981C58.3368 8.19189 56.7408 7.57219 55.0912 7.60633H50.5044V23.5609H52.4772V19.5722H55.3871C56.5229 19.5876 57.6408 19.2894 58.6175 18.7105C59.5919 18.1281 60.3725 17.2717 60.8616 16.2484C61.3168 15.4093 61.5542 14.4697 61.5521 13.5154L61.3548 13.6385ZM69.098 9.2067C67.9063 9.2275 66.768 9.70328 65.9169 10.5363C65.0519 11.3419 64.5608 12.4698 64.5608 13.6508C64.5608 14.8318 65.0519 15.9598 65.9169 16.7654C66.806 17.5735 67.9697 18.0137 69.172 17.9965C70.3793 18.0008 71.5462 17.5627 72.4517 16.7654C73.3354 15.9763 73.8382 14.8469 73.8327 13.6631C73.862 12.4675 73.3557 11.321 72.4517 10.5363C71.5746 9.68193 70.3973 9.20465 69.172 9.2067H69.098ZM69.098 19.7446C67.4214 19.7441 65.8111 19.0904 64.6099 17.9226C63.3844 16.7989 62.6868 15.2137 62.6868 13.5524C62.6868 11.891 63.3844 10.3058 64.6099 9.18209C65.8274 7.99596 67.4713 7.34829 69.172 7.38474C70.8791 7.35268 72.5291 7.99923 73.7587 9.18209C74.9981 10.2979 75.7057 11.8861 75.7057 13.5524C75.7057 15.2186 74.9981 16.8068 73.7587 17.9226C72.5272 19.1053 70.8806 19.7594 69.172 19.7446H69.098ZM76.2 19.5722V17.6025H84.535C84.9954 17.6091 85.4393 17.4318 85.768 17.1101C86.1004 16.7968 86.2879 16.36 86.2859 15.9037C86.2933 15.4534 86.1043 15.0221 85.768 14.7219C85.4408 14.3977 84.9959 14.2201 84.535 14.2294H79.6031C78.4023 14.2851 77.2741 13.6551 76.6932 12.6044C76.3845 12.0915 76.2225 11.504 76.2247 10.9056C76.2205 10.0315 76.5773 9.19425 77.2111 8.59118C77.8174 7.94702 78.6685 7.58922 79.5538 7.60633H87.8888V9.52678H79.6031C79.2233 9.52418 78.8586 9.67516 78.592 9.94534C78.3203 10.2005 78.1682 10.5578 78.1728 10.9302C78.173 11.3089 78.3238 11.672 78.592 11.9397C78.8644 12.201 79.2254 12.3504 79.6031 12.3582H84.535C85.8696 12.2824 87.128 12.9826 87.7655 14.1556C88.0666 14.7074 88.2275 15.3246 88.234 15.9529C88.2734 16.9519 87.867 17.9168 87.1243 18.5874C86.4241 19.245 85.4963 19.6067 84.535 19.5969H76.274L76.2 19.5722Z" fill="black"/>
<path d="M95.8957 12.8778L94.7034 19.7687H92.8203L94.3663 10.8714H96.126L95.8957 12.8778ZM95.2132 15.0158L94.6952 15.024C94.75 14.5526 94.8459 14.0619 94.983 13.5521C95.1255 13.0423 95.3284 12.5708 95.5915 12.1377C95.8601 11.6992 96.1973 11.3456 96.6029 11.077C97.0086 10.8083 97.4992 10.6822 98.0749 10.6987C98.5299 10.7151 98.8917 10.8275 99.1603 11.0358C99.4289 11.2442 99.6235 11.5128 99.7441 11.8417C99.8702 12.1651 99.9442 12.5187 99.9662 12.9025C99.9881 13.2862 99.9799 13.6617 99.9415 14.029L98.9876 19.7687H97.121L98.0749 14.0044C98.1023 13.7522 98.1078 13.5 98.0913 13.2478C98.0803 12.9957 98.0118 12.7819 97.8857 12.6064C97.7596 12.4255 97.5376 12.3323 97.2197 12.3269C96.8853 12.3104 96.5974 12.3926 96.3562 12.5736C96.1205 12.7545 95.9259 12.9847 95.7724 13.2643C95.6189 13.5439 95.4983 13.8399 95.4106 14.1524C95.3229 14.4649 95.2571 14.7527 95.2132 15.0158Z" fill="black"/>
<path d="M104.25 19.9332C103.664 19.9222 103.168 19.8071 102.762 19.5878C102.356 19.3686 102.036 19.0698 101.8 18.6915C101.57 18.3133 101.413 17.8857 101.331 17.4087C101.254 16.9263 101.241 16.4192 101.29 15.8875L101.397 15.0323C101.463 14.484 101.589 13.9495 101.775 13.4288C101.967 12.9025 102.222 12.431 102.54 12.0144C102.858 11.5977 103.247 11.2716 103.708 11.0358C104.174 10.8001 104.719 10.6877 105.344 10.6987C105.947 10.7151 106.432 10.8522 106.8 11.1098C107.172 11.362 107.446 11.6937 107.622 12.1048C107.803 12.516 107.912 12.971 107.951 13.4699C107.989 13.9687 107.975 14.4676 107.91 14.9665L107.77 15.9286H102.154L102.408 14.4813L106.117 14.4895L106.15 14.2675C106.194 13.9879 106.205 13.7001 106.183 13.4041C106.166 13.1081 106.084 12.8559 105.936 12.6476C105.788 12.4392 105.539 12.3241 105.188 12.3022C104.821 12.2857 104.519 12.3625 104.283 12.5324C104.048 12.7024 103.861 12.9299 103.724 13.215C103.587 13.5 103.486 13.8043 103.42 14.1277C103.354 14.4457 103.305 14.7472 103.272 15.0323L103.165 15.8957C103.132 16.1698 103.118 16.4466 103.124 16.7262C103.135 17.0058 103.179 17.2662 103.255 17.5074C103.338 17.7431 103.472 17.935 103.658 18.083C103.85 18.231 104.119 18.3105 104.464 18.3215C104.87 18.3324 105.24 18.2557 105.574 18.0912C105.909 17.9213 106.216 17.702 106.495 17.4334L107.227 18.6175C107.002 18.9245 106.728 19.1767 106.405 19.374C106.081 19.5659 105.733 19.7084 105.361 19.8016C104.993 19.8948 104.623 19.9387 104.25 19.9332Z" fill="black"/>
<path d="M109.028 15.6819L109.118 14.9747C109.184 14.4265 109.316 13.8947 109.513 13.3794C109.711 12.8641 109.974 12.4036 110.303 11.9979C110.637 11.5868 111.037 11.2661 111.503 11.0358C111.975 10.8001 112.52 10.6905 113.14 10.7069C113.726 10.7179 114.214 10.8494 114.603 11.1016C114.998 11.3538 115.302 11.6855 115.516 12.0966C115.735 12.5078 115.878 12.9628 115.944 13.4616C116.009 13.955 116.018 14.4566 115.968 14.9665L115.878 15.6819C115.812 16.2246 115.68 16.7564 115.483 17.2772C115.286 17.7925 115.02 18.253 114.685 18.6586C114.357 19.0643 113.956 19.3823 113.485 19.6125C113.019 19.8428 112.479 19.9497 111.865 19.9332C111.273 19.9222 110.782 19.7907 110.393 19.5385C110.004 19.2863 109.7 18.9574 109.48 18.5517C109.266 18.1406 109.124 17.6856 109.053 17.1867C108.987 16.6878 108.979 16.1862 109.028 15.6819ZM110.993 14.9665L110.911 15.6901C110.889 15.9149 110.875 16.1753 110.87 16.4713C110.864 16.7618 110.892 17.0469 110.952 17.3265C111.013 17.6061 111.125 17.8418 111.289 18.0337C111.459 18.2201 111.701 18.3187 112.013 18.3297C112.369 18.3516 112.668 18.2804 112.909 18.1159C113.151 17.946 113.345 17.7239 113.493 17.4498C113.647 17.1757 113.762 16.8824 113.839 16.57C113.921 16.2575 113.981 15.9587 114.019 15.6737L114.102 14.9582C114.118 14.7335 114.129 14.4758 114.135 14.1853C114.14 13.8892 114.11 13.6014 114.044 13.3219C113.984 13.0423 113.871 12.8093 113.707 12.6229C113.542 12.431 113.301 12.3269 112.983 12.3104C112.643 12.2885 112.353 12.3625 112.112 12.5324C111.876 12.7024 111.681 12.9271 111.528 13.2067C111.374 13.4863 111.254 13.7823 111.166 14.0948C111.084 14.4073 111.026 14.6978 110.993 14.9665Z" fill="black"/>
</svg>
