<svg width="53" height="39" viewBox="0 0 53 39" fill="none" xmlns="http://www.w3.org/2000/svg">
<path d="M14.9445 38.1038H12.2923V28.5687C12.2923 27.1759 11.8456 25.9974 10.9501 25.0332C10.0546 24.069 8.90846 23.5879 7.51165 23.5879C6.11484 23.5879 4.96869 24.0649 4.07319 25.0211C3.17769 25.9772 2.73096 27.1597 2.73096 28.5707V38.1058H0V21.34H2.73096V23.0805C3.62443 22.3831 4.40268 21.902 5.06369 21.6351C5.86822 21.2774 6.7617 21.0995 7.74412 21.0995C8.99539 21.0995 10.1476 21.3986 11.2028 21.997C12.258 22.5953 13.107 23.3938 13.7498 24.3944C14.4816 23.412 15.4175 22.6176 16.5515 22.0111C17.6855 21.4047 18.8438 21.1015 20.0243 21.1015C22.0437 21.1015 23.7498 21.8211 25.1446 23.2584C26.5394 24.6956 27.2368 26.4239 27.2368 28.4413V38.1098H24.5584V28.5747C24.5584 27.182 24.1117 26.0035 23.2202 25.0392C22.3267 24.075 21.1927 23.5939 19.8181 23.5939C18.4436 23.5939 17.2651 24.0669 16.3372 25.013C15.4094 25.959 14.9445 27.1193 14.9445 28.4939V38.1078V38.1038Z" fill="black"/>
<path d="M31.7102 38.1038H28.9793V21.0974H31.7102V38.1038ZM29.0581 18.3119C29.0581 17.9541 29.1875 17.6469 29.4462 17.3881C29.705 17.1294 30.0122 17 30.37 17C30.7278 17 31.0614 17.1294 31.3201 17.3881C31.5789 17.6469 31.7082 17.9541 31.7082 18.3119C31.7082 18.6879 31.5789 19.0032 31.3201 19.262C31.0614 19.5207 30.744 19.6501 30.37 19.6501C29.9961 19.6501 29.705 19.5207 29.4462 19.262C29.1875 19.0032 29.0581 18.6859 29.0581 18.3119Z" fill="black"/>
<path d="M48.5286 28.4353V38.1038H45.8765V28.5687C45.8765 27.1759 45.4297 25.9974 44.5342 25.0332C43.6387 24.069 42.4926 23.5879 41.0958 23.5879C39.699 23.5879 38.5528 24.0649 37.6573 25.0211C36.7618 25.9772 36.3151 27.1597 36.3151 28.5707V38.1058H33.5841V21.34H36.3151V23.0805C37.2106 22.3831 37.9888 21.902 38.6498 21.6351C39.4544 21.2774 40.3499 21.0995 41.3343 21.0995C43.3375 21.0995 45.0376 21.8191 46.4344 23.2563C47.8292 24.6936 48.5286 26.4219 48.5286 28.4393V28.4353Z" fill="black"/>
<path d="M53 38.1038H50.269V21.0974H53V38.1038ZM50.3499 18.3119C50.3499 17.9541 50.4793 17.6469 50.738 17.3881C50.9968 17.1294 51.304 17 51.6618 17C52.0196 17 52.3531 17.1294 52.6119 17.3881C52.8706 17.6469 53 17.9541 53 18.3119C53 18.6879 52.8706 19.0032 52.6119 19.262C52.3531 19.5207 52.0358 19.6501 51.6618 19.6501C51.2879 19.6501 50.9968 19.5207 50.738 19.262C50.4793 19.0032 50.3499 18.6859 50.3499 18.3119Z" fill="black"/>
<path fill-rule="evenodd" clip-rule="evenodd" d="M10.0963 15.4775L11.2578 14.8382V0L10.0814 0.832602C10.0814 3.41962 10.0814 5.96203 10.0814 8.54904V9.09915C9.99515 9.43428 9.832 9.74478 9.60485 10.0061C9.25439 10.4099 8.73992 10.6339 8.20507 10.6157C7.64145 10.6505 7.09285 10.4259 6.71595 10.0061C6.33769 9.60375 6.12963 9.07111 6.13519 8.51931V4.38603H5.06302V8.48957C5.0722 9.03655 4.8756 9.56708 4.51205 9.97636C4.1703 10.3968 3.65454 10.6378 3.11227 10.6305C2.5462 10.6617 1.99719 10.4315 1.62314 10.0061C1.26085 9.59606 1.06443 9.06604 1.07217 8.51931V4.38603H0V11.597H1.13173V10.8387C1.42254 11.0851 1.74263 11.2948 2.08477 11.4632C2.43493 11.6222 2.81711 11.6986 3.20162 11.6862C3.72497 11.7037 4.24219 11.5694 4.69074 11.2996C5.12105 11.0532 5.48016 10.6998 5.73313 10.2737C6.03896 10.6978 6.43579 11.0483 6.89464 11.2996C7.34661 11.5612 7.86143 11.6948 8.38377 11.6862C9.03907 11.695 9.67672 11.474 10.1856 11.0617V15.5221L10.0963 15.4775Z" fill="#02B1E4"/>
<path d="M13.5366 11.7158H12.3156V4.38592H13.5366V11.7158ZM12.3453 3.18162C12.3474 3.032 12.4059 2.88866 12.5091 2.78019C12.6169 2.67583 12.761 2.61721 12.9112 2.61664C13.062 2.61392 13.2073 2.67303 13.3133 2.78019C13.4261 2.88342 13.4908 3.02884 13.492 3.18162C13.4931 3.3392 13.4284 3.49011 13.3133 3.59793C13.2073 3.70508 13.062 3.7642 12.9112 3.76147C12.761 3.7609 12.6169 3.70229 12.5091 3.59793C12.4037 3.48489 12.3451 3.3361 12.3453 3.18162ZM14.2216 11.7158V10.5264H19.1655C19.4383 10.5264 19.7003 10.4196 19.8952 10.229C20.0959 10.0398 20.2091 9.77606 20.2079 9.50048C20.2124 9.22855 20.0983 8.9681 19.8952 8.78682C19.6976 8.5911 19.4289 8.4838 19.1506 8.48946H16.1724C15.449 8.51612 14.7711 8.13757 14.4152 7.50818C14.2399 7.19455 14.1477 6.84146 14.1472 6.4823C14.1316 5.95493 14.343 5.44615 14.7279 5.08471C15.1089 4.67218 15.6562 4.45361 16.2171 4.49H21.2503V5.6497H16.1724C15.9423 5.64458 15.7208 5.73631 15.5618 5.90245C15.3928 6.05307 15.3 6.27115 15.3087 6.49717C15.3017 6.72719 15.3939 6.94917 15.5618 7.10675C15.7246 7.26713 15.9437 7.35781 16.1724 7.3595H19.1506C19.953 7.31218 20.7093 7.73622 21.0865 8.44486C21.2796 8.77421 21.3823 9.14858 21.3843 9.53022C21.4081 10.1335 21.1627 10.7161 20.7142 11.1211C20.2694 11.5308 19.6811 11.7498 19.0762 11.7307H14.1621L14.2216 11.7158ZM28.3087 7.55279C28.2492 6.9237 27.9368 6.34557 27.4429 5.95049C26.949 5.55541 26.3158 5.37714 25.6879 5.45641C24.9492 5.46137 24.2404 5.74867 23.7073 6.25928C23.1769 6.7431 22.8789 7.43022 22.8883 8.1475C22.9128 9.58105 24.0881 10.728 25.5241 10.7196C26.1265 10.7212 26.7235 10.6051 27.2812 10.3777C27.8344 10.1837 28.282 9.76904 28.5172 9.23286L29.3065 9.97625C28.9721 10.5816 28.4494 11.0618 27.8173 11.3441C27.1542 11.6471 26.432 11.7995 25.7028 11.7901C24.6643 11.8181 23.6573 11.4331 22.9032 10.7196C22.149 10.0494 21.7294 9.08095 21.7566 8.07316C21.7456 7.07287 22.1628 6.11545 22.9032 5.44155C23.6457 4.72726 24.6421 4.33683 25.673 4.35619C26.6583 4.30307 27.6317 4.59199 28.4279 5.17392C29.244 5.87683 29.6754 6.92616 29.5894 7.99882C29.5894 8.1475 29.5894 8.32592 29.5894 8.48946H23.9605V7.56765H28.279L28.3087 7.55279ZM31.287 5.6497H32.9399C33.6328 5.6287 34.3064 5.87955 34.8162 6.34849C35.3093 6.80899 35.5805 7.4588 35.5608 8.13263C35.5737 8.81988 35.292 9.47991 34.7864 9.94652C34.2858 10.4477 33.6041 10.7264 32.8952 10.7196H31.4061V5.63483L31.287 5.6497ZM36.767 8.13263C36.7866 7.14841 36.3859 6.20233 35.665 5.53075C34.9445 4.8436 33.9808 4.46938 32.9846 4.49H30.2148V14.1244H31.4061V11.7158H33.1633C33.8491 11.7251 34.5242 11.545 35.114 11.1954C35.7024 10.8438 36.1738 10.3266 36.4691 9.70863C36.744 9.20193 36.8874 8.63455 36.8861 8.0583L36.767 8.13263ZM41.4428 5.45641C40.7232 5.46897 40.0358 5.75628 39.5218 6.25928C38.9996 6.74576 38.703 7.42691 38.703 8.14007C38.703 8.85323 38.9996 9.53438 39.5218 10.0209C40.0588 10.5089 40.7615 10.7746 41.4875 10.7643C42.2165 10.7668 42.9212 10.5023 43.468 10.0209C44.0017 9.54431 44.3053 8.86232 44.3019 8.1475C44.3197 7.42547 44.0139 6.73318 43.468 6.25928C42.9384 5.74338 42.2274 5.45517 41.4875 5.45641H41.4428ZM41.4428 11.8199C40.4304 11.8196 39.458 11.4248 38.7326 10.7196C37.9926 10.0411 37.5714 9.0838 37.5714 8.0806C37.5714 7.07739 37.9926 6.12013 38.7326 5.44155C39.4678 4.72529 40.4605 4.33418 41.4875 4.35619C42.5184 4.33683 43.5147 4.72726 44.2573 5.44155C45.0057 6.11535 45.433 7.07439 45.433 8.0806C45.433 9.08681 45.0057 10.0458 44.2573 10.7196C43.5136 11.4338 42.5193 11.8288 41.4875 11.8199H41.4428ZM45.7315 11.7158V10.5264H50.7647C51.0427 10.5303 51.3108 10.4233 51.5093 10.229C51.71 10.0398 51.8232 9.77606 51.822 9.50048C51.8265 9.22855 51.7124 8.9681 51.5093 8.78682C51.3117 8.5911 51.043 8.4838 50.7647 8.48946H47.7865C47.0614 8.5231 46.3801 8.14265 46.0293 7.50818C45.8429 7.19846 45.745 6.84365 45.7464 6.4823C45.7439 5.95445 45.9593 5.44889 46.342 5.08471C46.7082 4.69573 47.2221 4.47967 47.7567 4.49H52.7899V5.6497H47.7865C47.5571 5.64813 47.3369 5.7393 47.1759 5.90245C47.0119 6.05654 46.92 6.27228 46.9228 6.49717C46.9229 6.72584 47.0139 6.9451 47.1759 7.10675C47.3404 7.26456 47.5584 7.35479 47.7865 7.3595H50.7647C51.5706 7.31374 52.3305 7.73653 52.7155 8.44486C52.8973 8.77809 52.9945 9.15077 52.9984 9.53022C53.0222 10.1335 52.7768 10.7161 52.3283 11.1211C51.9055 11.5182 51.3452 11.7366 50.7647 11.7307H45.7762L45.7315 11.7158Z" fill="black"/>
</svg>
