<svg width="54" height="40" viewBox="0 0 54 40" fill="none" xmlns="http://www.w3.org/2000/svg">
<path d="M1.2292 2.00226V6.33852C1.2292 7.08642 1.28256 7.60662 1.39126 7.89518C1.59085 8.42322 2.00388 8.68626 2.63627 8.68626C3.05918 8.68626 3.40304 8.54297 3.66785 8.25441C3.93266 7.96585 4.06507 7.6125 4.06507 7.19242V2.00618H5.31008V7.19242C5.31008 7.60465 5.44051 7.95603 5.70137 8.24852C5.96223 8.541 6.30017 8.68823 6.71517 8.68823C7.13018 8.68823 7.48787 8.54689 7.74082 8.26226C7.99378 7.97762 8.12026 7.62232 8.12026 7.19242V2.00618H9.38899V7.10605C9.38899 7.85592 9.13603 8.49193 8.63012 9.01408C8.12421 9.53624 7.49973 9.79928 6.75272 9.79928C5.89899 9.79928 5.20534 9.46557 4.67572 8.79815C4.15202 9.46557 3.47023 9.79928 2.62441 9.79928C1.87147 9.79928 1.24501 9.54017 0.747008 9.01997C0.249002 8.50174 0 7.86769 0 7.11783V2.00422H1.23118L1.2292 2.00226Z" fill="#00B8E0"/>
<path d="M11.5233 9.73451H10.2546V1.89037H11.5233V9.73451ZM10.2921 0.606566C10.2921 0.441675 10.3514 0.298376 10.4719 0.180596C10.5925 0.0608529 10.7348 0 10.9008 0C11.0668 0 11.2229 0.0608529 11.3415 0.180596C11.462 0.300339 11.5233 0.441675 11.5233 0.606566C11.5233 0.771458 11.462 0.926535 11.3415 1.04431C11.2209 1.16406 11.0747 1.22295 10.9008 1.22295C10.7269 1.22295 10.5905 1.16406 10.4719 1.04431C10.3514 0.924572 10.2921 0.77931 10.2921 0.606566Z" fill="black"/>
<path d="M12.3078 8.45071H17.6179C17.9242 8.45071 18.1891 8.3447 18.4143 8.13466C18.6377 7.92462 18.7503 7.66747 18.7503 7.3632C18.7503 7.05894 18.6396 6.80179 18.4203 6.59175C18.2009 6.38171 17.9341 6.27767 17.6179 6.27767H14.3967C13.5588 6.27767 12.9343 5.92825 12.5193 5.22942C12.3197 4.89179 12.2209 4.52864 12.2209 4.14192C12.2209 3.55695 12.4304 3.05442 12.8493 2.63631C13.2683 2.21622 13.7762 2.00618 14.373 2.00618H19.7819V3.25269H14.4204C14.1635 3.25269 13.9442 3.33906 13.7623 3.51377C13.5805 3.68847 13.4896 3.89851 13.4896 4.14781C13.4896 4.39711 13.5805 4.6209 13.7623 4.79364C13.9442 4.96835 14.1635 5.05472 14.4204 5.05472H17.697C18.6396 5.05472 19.3353 5.44535 19.7819 6.22859C19.9894 6.58978 20.0921 6.97649 20.0921 7.38872C20.0921 8.08166 19.855 8.64504 19.3768 9.08083C18.9005 9.51661 18.3175 9.73647 17.6298 9.73647H12.3078V8.45071Z" fill="black"/>
<path d="M27.4397 5.27654C27.2085 3.78662 26.2698 3.04068 24.6295 3.04068C23.8094 3.04068 23.1019 3.3155 22.5091 3.86907C21.9162 4.42067 21.6237 5.09202 21.6336 5.8831C21.6415 6.65652 21.9221 7.31609 22.4735 7.85984C23.0248 8.40359 23.6908 8.67449 24.4695 8.67449C25.1315 8.67449 25.7619 8.55082 26.3587 8.30348C27.0563 8.00707 27.499 7.60858 27.6907 7.10605L28.5247 7.90892C28.1847 8.54297 27.6413 9.02979 26.8962 9.36742C26.2164 9.68739 25.4615 9.84836 24.6335 9.84836C23.4735 9.84836 22.4814 9.46754 21.6553 8.70589C20.8293 7.94425 20.4182 7.00398 20.4182 5.88507C20.4182 4.76616 20.8332 3.82981 21.6613 3.05639C22.4893 2.28297 23.4814 1.89626 24.6335 1.89626C25.8785 1.90411 26.8508 2.18482 27.5563 2.73642C28.3942 3.38617 28.8132 4.39515 28.8132 5.76336C28.8132 5.92825 28.8092 6.101 28.7993 6.28159H22.8312V5.2942H27.4318L27.4437 5.28046L27.4397 5.27654Z" fill="black"/>
<path d="M36.1331 7.64784C35.7932 8.30741 35.307 8.81975 34.6786 9.18487C34.0482 9.55195 33.3525 9.73451 32.5897 9.73451H30.6985V12.3041H29.493V2.00226H32.5265C33.645 2.00226 34.6015 2.37523 35.392 3.1192C36.1844 3.86514 36.5797 4.78971 36.5797 5.89292C36.5797 6.50145 36.4315 7.08642 36.1331 7.64588V7.64784ZM30.6985 8.61167H32.4277C33.2221 8.61167 33.896 8.35452 34.4474 7.84021C34.9987 7.32591 35.2754 6.67812 35.2754 5.89488C35.2754 5.11165 35.0066 4.48545 34.4671 3.98685C33.9276 3.48825 33.2616 3.23895 32.4652 3.23895H30.6985V8.61167Z" fill="black"/>
<path d="M41.6032 9.8464C40.459 9.8464 39.4729 9.46361 38.6429 8.69804C37.8128 7.93247 37.3978 6.99416 37.3978 5.8831C37.3978 4.77205 37.8128 3.82785 38.6429 3.05442C39.4709 2.281 40.459 1.89429 41.6032 1.89429C42.7474 1.89429 43.7494 2.281 44.5873 3.05442C45.4232 3.82981 45.8422 4.77205 45.8422 5.8831C45.8422 6.99416 45.4232 7.93247 44.5873 8.69804C43.7494 9.46361 42.7554 9.8464 41.6032 9.8464ZM41.6032 3.04068C40.7831 3.04068 40.0776 3.3155 39.4887 3.86907C38.8998 4.42067 38.6053 5.09202 38.6053 5.8831C38.6132 6.67223 38.9116 7.33572 39.5005 7.87162C40.0894 8.40752 40.789 8.67449 41.6012 8.67449C42.4135 8.67449 43.1289 8.40752 43.7217 7.87162C44.3146 7.33768 44.615 6.67419 44.6229 5.8831C44.6308 5.09202 44.3343 4.42067 43.7336 3.86907C43.1328 3.31747 42.4214 3.04068 41.6012 3.04068H41.6032Z" fill="black"/>
<path d="M46.2157 8.45071H51.5258C51.8321 8.45071 52.0969 8.3447 52.3222 8.13466C52.5455 7.92462 52.6582 7.66747 52.6582 7.3632C52.6582 7.05894 52.5475 6.80179 52.3281 6.59175C52.1088 6.38171 51.842 6.27767 51.5258 6.27767H48.3046C47.4666 6.27767 46.8422 5.92825 46.4272 5.22942C46.2276 4.89179 46.1287 4.52864 46.1287 4.14192C46.1287 3.55695 46.3382 3.05442 46.7572 2.63631C47.1761 2.21622 47.684 2.00618 48.2808 2.00618H53.6897V3.25269H48.3283C48.0714 3.25269 47.852 3.33906 47.6702 3.51377C47.4884 3.68847 47.3975 3.89851 47.3975 4.14781C47.3975 4.39711 47.4884 4.6209 47.6702 4.79364C47.852 4.96835 48.0714 5.05472 48.3283 5.05472H51.6048C52.5475 5.05472 53.2431 5.44535 53.6897 6.22859C53.8972 6.58978 54 6.97649 54 7.38872C54 8.08166 53.7629 8.64504 53.2846 9.08083C52.8083 9.51661 52.2254 9.73647 51.5376 9.73647H46.2157V8.45071Z" fill="black"/>
<path d="M16.8176 28.5871C15.9836 30.2027 14.7959 31.459 13.2525 32.3561C11.7071 33.2532 10.0016 33.7027 8.13212 33.7027H3.49987V40H0.543458V14.7519H7.97995C10.7229 14.7519 13.0647 15.6647 15.0054 17.4923C16.946 19.3198 17.9163 21.5851 17.9163 24.2882C17.9163 25.782 17.5507 27.215 16.8195 28.5871H16.8176ZM3.49987 30.9486H7.73687C9.68739 30.9486 11.3375 30.3185 12.6893 29.0563C14.041 27.7941 14.7169 26.206 14.7169 24.2882C14.7169 22.3703 14.0568 20.8313 12.7347 19.6103C11.4146 18.3894 9.7783 17.7789 7.82778 17.7789H3.49987V30.9486Z" fill="black"/>
<path d="M28.4436 17.296C26.8745 17.296 25.5761 17.8358 24.5485 18.9154C23.5189 19.9951 23.0051 21.3319 23.0051 22.9258V33.7027H19.8965V14.7519H23.0051V16.7189C24.0228 15.9317 24.9082 15.3879 25.6631 15.0837C26.5801 14.6793 27.5978 14.4771 28.7183 14.4771C31.3052 14.4771 33.4237 15.4861 35.0738 17.504L32.3842 18.9567C31.3447 17.8476 30.0305 17.292 28.4436 17.292V17.296Z" fill="black"/>
<path d="M43.5458 33.9756C40.7416 33.9756 38.3247 33.0373 36.2931 31.1606C34.2616 29.282 33.2458 26.9834 33.2458 24.2587C33.2458 21.5341 34.2616 19.2236 36.2931 17.3274C38.3247 15.4292 40.7436 14.481 43.5458 14.481C46.3481 14.481 48.8085 15.4292 50.8598 17.3274C52.9111 19.2236 53.9387 21.536 53.9387 24.2587C53.9387 26.9814 52.9131 29.284 50.8598 31.1606C48.8085 33.0373 46.3698 33.9756 43.5458 33.9756ZM43.5458 17.296C41.534 17.296 39.8068 17.9732 38.3642 19.3237C36.9216 20.6763 36.2003 22.3212 36.2003 24.2587C36.22 26.1962 36.9512 27.8216 38.3939 29.1328C39.8365 30.4461 41.5538 31.1017 43.5439 31.1017C45.5339 31.1017 47.2868 30.4461 48.7393 29.1328C50.1918 27.8216 50.929 26.1962 50.9487 24.2587C50.9685 22.3212 50.2432 20.6763 48.769 19.3237C47.2967 17.9732 45.5537 17.296 43.5419 17.296H43.5458Z" fill="black"/>
</svg>
