<svg width="116" height="26" viewBox="0 0 116 26" fill="none" xmlns="http://www.w3.org/2000/svg">
<path fill-rule="evenodd" clip-rule="evenodd" d="M17.1881 25.8026L19.1116 24.7438V18.5147V15.2893V14.5753V0.171875L17.1635 1.55066C17.1635 5.83475 17.1635 10.045 17.1635 14.3291V14.5507V15.2401C17.0207 15.795 16.7505 16.3092 16.3744 16.742C15.794 17.4107 14.942 17.7817 14.0563 17.7514C13.123 17.8091 12.2145 17.4372 11.5903 16.742C10.964 16.0757 10.6194 15.1936 10.6286 14.2798V7.43513H8.8531V14.2306C8.8683 15.1364 8.54273 16.0149 7.94069 16.6927C7.37475 17.3889 6.52066 17.7881 5.62266 17.776C4.68526 17.8276 3.77609 17.4463 3.15667 16.742C2.55672 16.0629 2.23145 15.1852 2.24426 14.2798V7.43513H0.46875V19.3764H2.3429V18.1207C2.82447 18.5288 3.35453 18.8761 3.92113 19.1548C4.50099 19.4183 5.13388 19.5447 5.77062 19.5241C6.6373 19.5531 7.49381 19.3308 8.23661 18.884C8.94921 18.4759 9.54389 17.8907 9.9628 17.1851C10.4693 17.8874 11.1264 18.4678 11.8863 18.884C12.6347 19.3172 13.4873 19.5385 14.3523 19.5241C15.4374 19.5388 16.4934 19.1728 17.3361 18.4901V25.8764L17.1881 25.8026Z" fill="#02B1E4"/>
<path d="M22.8854 19.5722H20.8633V7.43398H22.8854V19.5722ZM20.9126 5.43966C20.916 5.19189 21.0129 4.95452 21.1839 4.77489C21.3624 4.60207 21.601 4.505 21.8497 4.50406C22.0994 4.49955 22.34 4.59743 22.5155 4.77489C22.7023 4.94584 22.8095 5.18666 22.8114 5.43966C22.8134 5.70061 22.7061 5.95052 22.5155 6.12906C22.34 6.30651 22.0994 6.4044 21.8497 6.39989C21.601 6.39895 21.3624 6.30188 21.1839 6.12906C21.0092 5.94187 20.9123 5.69547 20.9126 5.43966ZM24.0197 19.5722V17.6025H32.2068C32.6586 17.6026 33.0924 17.4258 33.4152 17.1101C33.7475 16.7968 33.935 16.36 33.933 15.9037C33.9404 15.4534 33.7514 15.0221 33.4152 14.7219C33.0879 14.3977 32.643 14.2201 32.1822 14.2294H27.2502C26.0522 14.2736 24.9297 13.6467 24.3403 12.6044C24.05 12.0851 23.8973 11.5003 23.8964 10.9056C23.8706 10.0322 24.2207 9.1897 24.8582 8.59118C25.4891 7.90802 26.3954 7.54607 27.3242 7.60633H35.6592V9.52678H27.2502C26.8692 9.51831 26.5023 9.67022 26.2391 9.94534C25.9593 10.1948 25.8055 10.5559 25.8199 10.9302C25.8083 11.3111 25.9609 11.6787 26.2391 11.9397C26.5087 12.2053 26.8715 12.3554 27.2502 12.3582H32.1822C33.5108 12.2798 34.7633 12.9821 35.3879 14.1556C35.7077 14.701 35.8778 15.3209 35.8811 15.9529C35.9205 16.9519 35.5141 17.9168 34.7714 18.5874C34.0348 19.266 33.0606 19.6285 32.0589 19.5969H23.9211L24.0197 19.5722ZM47.348 12.6783C47.2494 11.6365 46.7321 10.6791 45.9142 10.0249C45.0963 9.37065 44.0476 9.07544 43.0078 9.20671C41.7845 9.21491 40.6109 9.69069 39.7281 10.5363C38.8497 11.3375 38.3561 12.4753 38.3718 13.6631C38.4123 16.0371 40.3586 17.9364 42.7366 17.9226C43.7343 17.9252 44.7228 17.7329 45.6464 17.3563C46.5624 17.035 47.3037 16.3484 47.6932 15.4605L49.0002 16.6916C48.4465 17.694 47.5808 18.4892 46.5342 18.9567C45.4361 19.4585 44.2401 19.7108 43.0325 19.6953C41.3128 19.7417 39.6452 19.104 38.3964 17.9226C37.1474 16.8126 36.4526 15.2089 36.4976 13.54C36.4794 11.8836 37.1703 10.2981 38.3964 9.18209C39.626 7.99923 41.276 7.35268 42.9832 7.38474C44.6148 7.29677 46.2267 7.77522 47.5453 8.7389C48.8967 9.90291 49.6112 11.6406 49.4687 13.4169C49.4687 13.6631 49.4687 13.9586 49.4687 14.2294H40.1473V12.7029H47.2987L47.348 12.6783ZM52.28 9.52678H55.0172C56.1646 9.49201 57.28 9.90743 58.1243 10.684C58.9409 11.4466 59.39 12.5227 59.3573 13.6385C59.3788 14.7766 58.9122 15.8696 58.075 16.6423C57.246 17.4722 56.1171 17.9337 54.9432 17.9226H52.4772V9.50216L52.28 9.52678ZM61.3548 13.6385C61.3873 12.0087 60.7238 10.4419 59.5299 9.32981C58.3368 8.19188 56.7408 7.57219 55.0912 7.60633H50.5044V23.5609H52.4772V19.5722H55.3871C56.5229 19.5876 57.6408 19.2894 58.6175 18.7105C59.5919 18.1281 60.3725 17.2717 60.8616 16.2484C61.3168 15.4093 61.5542 14.4697 61.5521 13.5154L61.3548 13.6385ZM69.098 9.2067C67.9063 9.2275 66.768 9.70328 65.9169 10.5363C65.0519 11.3419 64.5608 12.4698 64.5608 13.6508C64.5608 14.8318 65.0519 15.9598 65.9169 16.7654C66.806 17.5735 67.9697 18.0137 69.172 17.9965C70.3793 18.0008 71.5462 17.5627 72.4517 16.7654C73.3354 15.9763 73.8382 14.8469 73.8327 13.6631C73.862 12.4675 73.3557 11.321 72.4517 10.5363C71.5746 9.68193 70.3973 9.20465 69.172 9.2067H69.098ZM69.098 19.7446C67.4214 19.7441 65.8111 19.0904 64.6099 17.9226C63.3844 16.7989 62.6868 15.2137 62.6868 13.5524C62.6868 11.891 63.3844 10.3058 64.6099 9.18209C65.8274 7.99596 67.4713 7.34829 69.172 7.38474C70.8791 7.35268 72.5291 7.99923 73.7587 9.18209C74.9981 10.2979 75.7057 11.8861 75.7057 13.5524C75.7057 15.2186 74.9981 16.8068 73.7587 17.9226C72.5272 19.1053 70.8806 19.7594 69.172 19.7446H69.098ZM76.2 19.5722V17.6025H84.535C84.9954 17.6091 85.4393 17.4318 85.7681 17.1101C86.1004 16.7968 86.2879 16.36 86.2859 15.9037C86.2933 15.4534 86.1043 15.0221 85.7681 14.7219C85.4408 14.3977 84.9959 14.2201 84.535 14.2294H79.6031C78.4023 14.2851 77.2741 13.6551 76.6932 12.6044C76.3845 12.0915 76.2225 11.504 76.2247 10.9056C76.2205 10.0315 76.5773 9.19425 77.2111 8.59118C77.8174 7.94702 78.6685 7.58922 79.5538 7.60633H87.8888V9.52678H79.6031C79.2233 9.52418 78.8586 9.67516 78.592 9.94534C78.3203 10.2005 78.1682 10.5578 78.1728 10.9302C78.173 11.3089 78.3238 11.672 78.592 11.9397C78.8644 12.201 79.2254 12.3504 79.6031 12.3582H84.535C85.8696 12.2824 87.128 12.9826 87.7655 14.1556C88.0666 14.7074 88.2275 15.3246 88.234 15.9529C88.2734 16.9519 87.867 17.9168 87.1243 18.5874C86.4241 19.245 85.4963 19.6067 84.535 19.5969H76.274L76.2 19.5722Z" fill="black"/>
<path d="M91.291 22.2068H92.9186L93.6584 18.6121C93.8069 19.3465 94.4904 19.8476 95.2366 19.7693C96.3463 19.7693 97.8999 19.0307 98.615 15.6576C99.3301 12.9985 98.8123 11.2996 96.8641 11.2996C96.0111 11.3169 95.2277 11.7732 94.7927 12.506L94.99 11.5212H93.4857L91.291 22.2068ZM94.2502 15.4606C94.6201 13.7371 95.1133 12.6045 96.223 12.6045C97.3327 12.6045 97.3573 13.7617 96.9628 15.5591C96.4696 17.7996 95.9271 18.489 94.9653 18.489C94.0036 18.489 93.831 17.381 94.2502 15.4606ZM99.1822 19.5723H100.81L103.103 8.88672H101.476L99.1822 19.5723ZM106.58 19.5723H108.084L109.786 11.4966H108.183L106.975 17.1348C106.833 17.9107 106.162 18.4782 105.372 18.489C104.657 18.489 104.336 18.1935 104.509 17.2826L105.742 11.4966H104.114L102.906 17.1348C102.487 19.2276 103.152 19.7693 104.361 19.7693C105.291 19.787 106.172 19.3562 106.728 18.6121L106.531 19.5723H106.58ZM115.877 13.8602V13.4909C116.074 12.506 115.877 11.2996 113.805 11.2996C112.323 11.0965 110.931 12.0586 110.6 13.5155C110.405 13.9807 110.428 14.5082 110.661 14.9552C110.894 15.4022 111.315 15.7227 111.808 15.8299L113.016 16.2977C113.265 16.3596 113.476 16.5229 113.598 16.7477C113.72 16.9724 113.741 17.238 113.658 17.4795C113.532 18.2201 112.853 18.7367 112.104 18.6613C111.167 18.6613 110.945 18.1689 111.142 17.2333V16.9871H109.712V17.2826C109.367 18.8337 109.712 19.7447 111.833 19.7447C113.438 19.9202 114.917 18.8578 115.26 17.2826C115.431 16.8294 115.406 16.3258 115.191 15.8918C114.976 15.4578 114.59 15.1322 114.126 14.9928L113.164 14.6235C112.375 14.328 112.153 14.0572 112.301 13.4416C112.414 12.7966 113.005 12.3464 113.658 12.4076C114.521 12.4076 114.595 12.9985 114.471 13.6386V13.8602H115.877Z" fill="black"/>
</svg>
