<svg width="580" height="390" viewBox="0 0 580 390" fill="none" xmlns="http://www.w3.org/2000/svg">
<path d="M0 8C0 3.58172 3.58172 0 8 0H572C576.418 0 580 3.58172 580 8V382C580 386.418 576.418 390 572 390H8C3.58173 390 0 386.418 0 382V8Z" fill="#F2F2F2"/>
<rect x="147" y="50" width="383" height="292" rx="8.93667" fill="white"/>
<path opacity="0.1" d="M162.958 219.524C151.625 221.29 154.022 222.716 147 226.227V320.381H530V152.18C530 152.18 519.444 175.176 511.169 174.203C498.36 172.696 503.93 161.206 491.062 162.074C481.493 162.72 479.891 193.169 466.167 192.395C448.829 191.418 455.639 176.28 438.399 174.203C426.292 172.744 426.652 150.581 414.462 150.265C395.629 149.777 392.979 131.657 376.8 130.158C338.616 126.619 373.584 69.7278 335.308 72.0693C297.958 74.3543 339.651 165.969 302.434 162.074C293.061 161.094 289.109 152.487 279.773 153.776C268.244 155.368 269.196 170.784 258.07 174.203C243.527 178.672 235.916 158.853 221.047 162.074C206.803 165.161 207.535 186.61 192.96 186.65C173.333 186.704 182.352 216.503 162.958 219.524Z" fill="url(#paint0_linear_1_21099)"/>
<path d="M147 226.227C154.022 222.716 151.625 221.29 162.958 219.524C182.352 216.503 173.333 186.704 192.96 186.65C207.535 186.61 206.803 165.161 221.047 162.074C235.916 158.853 243.527 178.672 258.07 174.203C269.196 170.784 268.244 155.368 279.773 153.776C289.109 152.487 293.061 161.094 302.434 162.074C339.651 165.969 297.958 74.3543 335.308 72.0693C373.584 69.7278 338.616 126.619 376.8 130.158C392.979 131.657 395.629 149.777 414.462 150.265C426.652 150.581 426.292 172.744 438.399 174.203C455.639 176.28 448.829 191.418 466.167 192.395C479.891 193.169 481.493 162.72 491.062 162.074C503.93 161.206 498.36 172.696 511.169 174.203C519.444 175.176 530 152.18 530 152.18" stroke="#02B1E4" stroke-width="3.19167" stroke-linecap="round"/>
<path opacity="0.5" d="M358.93 94.4102H416.38V320.38H358.93V94.4102Z" fill="url(#paint1_linear_1_21099)"/>
<g filter="url(#filter0_d_1_21099)">
<circle cx="387.649" cy="132.71" r="12.7667" fill="white"/>
<circle cx="387.649" cy="132.71" r="9.25583" stroke="url(#paint2_linear_1_21099)" stroke-width="7.02167"/>
</g>
<path opacity="0.5" d="M171.93 310.874C172.988 310.874 173.613 310.249 173.613 309.187V305.387H172.775V309.18C172.775 309.797 172.476 310.126 171.922 310.126C171.421 310.126 171.163 309.804 171.129 309.393L171.125 309.359H170.299L170.303 309.404C170.347 310.264 170.931 310.874 171.93 310.874ZM174.114 310.784H174.993L175.49 309.325H177.57L178.064 310.784H178.942L176.983 305.387H176.077L174.114 310.784ZM176.523 306.281H176.538L177.342 308.652H175.715L176.523 306.281ZM179.541 310.784H180.371V306.786H180.394L183.173 310.784H183.943V305.387H183.113V309.378H183.09L180.315 305.387H179.541V310.784Z" fill="#454459"/>
<path d="M382.408 310.784H383.279V306.947H383.305L384.861 310.784H385.516L387.072 306.947H387.102V310.784H387.97V305.387H386.855L385.202 309.509H385.176L383.522 305.387H382.408V310.784ZM388.549 310.784H389.559L390.015 309.389H392.024L392.48 310.784H393.494L391.564 305.387H390.479L388.549 310.784ZM391.01 306.348H391.033L391.781 308.645H390.259L391.01 306.348ZM394.863 310.784H395.824V308.656L397.717 305.387H396.662L395.357 307.736H395.33L394.025 305.387H392.97L394.863 308.656V310.784Z" fill="#454459"/>
<path opacity="0.5" d="M223.374 310.784H224.211V308.525H226.53V307.818H224.211V306.109H226.744V305.387H223.374V310.784ZM227.473 310.784H230.899V310.062H228.311V308.387H230.761V307.684H228.311V306.109H230.899V305.387H227.473V310.784ZM231.759 310.784H233.925C235.073 310.784 235.765 310.208 235.765 309.262V309.254C235.765 308.544 235.268 308.016 234.501 307.938V307.923C235.069 307.841 235.499 307.313 235.499 306.745V306.737C235.499 305.922 234.871 305.387 233.914 305.387H231.759V310.784ZM233.712 306.071C234.318 306.071 234.665 306.345 234.665 306.838V306.846C234.665 307.388 234.265 307.687 233.525 307.687H232.597V306.071H233.712ZM233.697 308.334C234.497 308.334 234.909 308.634 234.909 309.213V309.221C234.909 309.797 234.505 310.1 233.753 310.1H232.597V308.334H233.697Z" fill="#454459"/>
<path opacity="0.5" d="M277.603 310.784H278.366V306.801H278.392L280.019 310.784H280.64L282.267 306.801H282.293V310.784H283.056V305.387H282.091L280.341 309.696H280.319L278.572 305.387H277.603V310.784ZM283.651 310.784H284.53L285.028 309.325H287.107L287.601 310.784H288.48L286.52 305.387H285.615L283.651 310.784ZM286.06 306.281H286.075L286.879 308.652H285.252L286.06 306.281ZM289.078 310.784H289.916V308.712H291.068L292.168 310.784H293.133L291.925 308.585C292.572 308.364 292.972 307.781 292.972 307.048V307.04C292.972 306.027 292.276 305.387 291.173 305.387H289.078V310.784ZM289.916 308.024V306.09H291.068C291.711 306.09 292.108 306.449 292.108 307.048V307.055C292.108 307.669 291.738 308.024 291.09 308.024H289.916Z" fill="#454459"/>
<path d="M391.326 288.949C391.326 288.788 391.258 288.661 391.172 288.485L388.887 283.765C388.726 283.432 388.558 283.309 388.33 283.309C388.102 283.309 387.933 283.432 387.769 283.765L385.487 288.485C385.401 288.665 385.334 288.792 385.334 288.949C385.334 289.252 385.562 289.462 385.928 289.462L390.731 289.458C391.094 289.458 391.326 289.248 391.326 288.949Z" fill="#02B1E4"/>
<path d="M391.326 245.543C391.326 245.382 391.258 245.255 391.172 245.079L388.887 240.359C388.726 240.026 388.558 239.903 388.33 239.903C388.102 239.903 387.933 240.026 387.769 240.359L385.487 245.079C385.401 245.259 385.334 245.386 385.334 245.543C385.334 245.846 385.562 246.055 385.928 246.055L390.731 246.052C391.094 246.052 391.326 245.842 391.326 245.543Z" fill="#02B1E4"/>
<path d="M391.326 202.137C391.326 201.976 391.258 201.849 391.172 201.673L388.887 196.953C388.726 196.62 388.558 196.496 388.33 196.496C388.102 196.496 387.933 196.62 387.769 196.953L385.487 201.673C385.401 201.852 385.334 201.98 385.334 202.137C385.334 202.44 385.562 202.649 385.928 202.649L390.731 202.645C391.094 202.645 391.326 202.436 391.326 202.137Z" fill="#02B1E4"/>
<path d="M391.326 267.246C391.326 267.085 391.258 266.958 391.172 266.782L388.887 262.062C388.726 261.729 388.558 261.606 388.33 261.606C388.102 261.606 387.933 261.729 387.769 262.062L385.487 266.782C385.401 266.962 385.334 267.089 385.334 267.246C385.334 267.549 385.562 267.758 385.928 267.758L390.731 267.755C391.094 267.755 391.326 267.545 391.326 267.246Z" fill="#02B1E4"/>
<path d="M391.326 223.84C391.326 223.679 391.258 223.552 391.172 223.376L388.887 218.656C388.726 218.323 388.558 218.2 388.33 218.2C388.102 218.2 387.933 218.323 387.769 218.656L385.487 223.376C385.401 223.556 385.334 223.683 385.334 223.84C385.334 224.143 385.562 224.352 385.928 224.352L390.731 224.348C391.094 224.348 391.326 224.139 391.326 223.84Z" fill="#02B1E4"/>
<path d="M391.326 180.433C391.326 180.272 391.258 180.145 391.172 179.969L388.887 175.249C388.726 174.916 388.558 174.792 388.33 174.792C388.102 174.792 387.933 174.916 387.769 175.249L385.487 179.969C385.401 180.148 385.334 180.275 385.334 180.433C385.334 180.736 385.562 180.945 385.928 180.945L390.731 180.941C391.094 180.941 391.326 180.732 391.326 180.433Z" fill="#02B1E4"/>
<path d="M391.326 158.729C391.326 158.569 391.258 158.441 391.172 158.266L388.887 153.545C388.726 153.213 388.558 153.089 388.33 153.089C388.102 153.089 387.933 153.213 387.769 153.545L385.487 158.266C385.401 158.445 385.334 158.572 385.334 158.729C385.334 159.032 385.562 159.242 385.928 159.242L390.731 159.238C391.094 159.238 391.326 159.029 391.326 158.729Z" fill="#02B1E4"/>
<path opacity="0.5" d="M438.958 310.874C440.017 310.874 440.641 310.249 440.641 309.187V305.387H439.804V309.18C439.804 309.797 439.504 310.126 438.951 310.126C438.45 310.126 438.192 309.804 438.158 309.393L438.154 309.359H437.328L437.331 309.404C437.376 310.264 437.96 310.874 438.958 310.874ZM443.836 310.874C445.193 310.874 446.016 310.07 446.016 308.888V305.387H445.182V308.821C445.182 309.606 444.696 310.133 443.836 310.133C442.975 310.133 442.485 309.606 442.485 308.821V305.387H441.648V308.888C441.648 310.07 442.482 310.874 443.836 310.874ZM447.011 310.784H447.841V306.786H447.864L450.643 310.784H451.413V305.387H450.583V309.378H450.561L447.785 305.387H447.011V310.784Z" fill="#454459"/>
<path opacity="0.5" d="M329.21 310.784H330.089L330.587 309.325H332.666L333.16 310.784H334.039L332.079 305.387H331.174L329.21 310.784ZM331.619 306.281H331.634L332.438 308.652H330.811L331.619 306.281ZM334.638 310.784H335.475V308.94H336.646C337.705 308.94 338.438 308.218 338.438 307.164V307.156C338.438 306.098 337.705 305.387 336.646 305.387H334.638V310.784ZM336.437 306.094C337.166 306.094 337.585 306.487 337.585 307.16V307.167C337.585 307.844 337.166 308.237 336.437 308.237H335.475V306.094H336.437ZM339.171 310.784H340.009V308.712H341.161L342.26 310.784H343.225L342.017 308.585C342.664 308.364 343.064 307.781 343.064 307.048V307.04C343.064 306.027 342.369 305.387 341.265 305.387H339.171V310.784ZM340.009 308.024V306.09H341.161C341.804 306.09 342.2 306.449 342.2 307.048V307.055C342.2 307.669 341.83 308.024 341.183 308.024H340.009Z" fill="#454459"/>
<path opacity="0.5" d="M492.397 310.874C493.456 310.874 494.08 310.249 494.08 309.187V305.387H493.242V309.18C493.242 309.797 492.943 310.126 492.39 310.126C491.888 310.126 491.63 309.804 491.597 309.393L491.593 309.359H490.766L490.77 309.404C490.815 310.264 491.398 310.874 492.397 310.874ZM497.274 310.874C498.632 310.874 499.455 310.07 499.455 308.888V305.387H498.621V308.821C498.621 309.606 498.135 310.133 497.274 310.133C496.414 310.133 495.924 309.606 495.924 308.821V305.387H495.086V308.888C495.086 310.07 495.92 310.874 497.274 310.874ZM500.45 310.784H503.801V310.062H501.288V305.387H500.45V310.784Z" fill="#454459"/>
<g filter="url(#filter1_d_1_21099)">
<rect x="40" y="158" width="138" height="200" rx="8" fill="white"/>
<g clip-path="url(#clip0_1_21099)">
<g clip-path="url(#clip1_1_21099)">
<path d="M75.7734 199.748H89.8698" stroke="#0D0E15" stroke-width="0.939759" stroke-linecap="round" stroke-linejoin="round"/>
<path d="M75.7734 191.134H89.8698" stroke="#0D0E15" stroke-width="0.939759" stroke-linecap="round" stroke-linejoin="round"/>
<path d="M77.3359 188.001L82.8179 185.651L88.2998 188.001" stroke="#0D0E15" stroke-width="0.939759" stroke-linecap="round" stroke-linejoin="round"/>
<path d="M76.5547 191.133V199.747" stroke="#0D0E15" stroke-width="0.939759" stroke-linecap="round" stroke-linejoin="round"/>
<path d="M89.0859 191.133V199.747" stroke="#0D0E15" stroke-width="0.939759" stroke-linecap="round" stroke-linejoin="round"/>
<path d="M79.6875 194.267V196.616" stroke="#23AFD4" stroke-opacity="0.62" stroke-width="0.939759" stroke-linecap="round" stroke-linejoin="round"/>
<path d="M82.8203 194.266V196.615" stroke="#23AFD4" stroke-opacity="0.62" stroke-width="0.939759" stroke-linecap="round" stroke-linejoin="round"/>
<path d="M85.9531 194.267V196.616" stroke="#23AFD4" stroke-opacity="0.62" stroke-width="0.939759" stroke-linecap="round" stroke-linejoin="round"/>
</g>
<path d="M67.7551 213.718H66.1921L66.1836 213.061H67.6026C67.837 213.061 68.0417 213.022 68.2168 212.943C68.3918 212.864 68.5274 212.751 68.6234 212.604C68.7222 212.454 68.7717 212.276 68.7717 212.07C68.7717 211.844 68.7279 211.661 68.6403 211.52C68.5556 211.376 68.4243 211.271 68.2464 211.206C68.0713 211.138 67.8483 211.105 67.5772 211.105H66.3742V216.603H65.5568V210.435H67.5772C67.8934 210.435 68.1758 210.468 68.4243 210.533C68.6728 210.595 68.8832 210.694 69.0554 210.829C69.2305 210.962 69.3632 211.131 69.4536 211.338C69.544 211.544 69.5891 211.791 69.5891 212.079C69.5891 212.333 69.5242 212.563 69.3943 212.769C69.2644 212.973 69.0837 213.139 68.8521 213.269C68.6234 213.399 68.3551 213.482 68.0473 213.519L67.7551 213.718ZM67.717 216.603H65.8702L66.3319 215.938H67.717C67.9768 215.938 68.197 215.892 68.3777 215.802C68.5613 215.712 68.7011 215.585 68.7971 215.421C68.8931 215.254 68.9411 215.058 68.9411 214.832C68.9411 214.603 68.9001 214.406 68.8182 214.239C68.7364 214.072 68.6079 213.944 68.4328 213.854C68.2577 213.763 68.0318 213.718 67.7551 213.718H66.5903L66.5987 213.061H68.1914L68.365 213.299C68.6615 213.324 68.9128 213.409 69.119 213.553C69.3251 213.694 69.4818 213.875 69.5891 214.095C69.6993 214.315 69.7543 214.558 69.7543 214.824C69.7543 215.208 69.6696 215.532 69.5002 215.798C69.3336 216.06 69.0978 216.261 68.7928 216.399C68.4879 216.535 68.1292 216.603 67.717 216.603ZM73.5453 215.819V213.46C73.5453 213.279 73.5086 213.122 73.4351 212.989C73.3646 212.854 73.2572 212.749 73.1132 212.676C72.9692 212.603 72.7913 212.566 72.5795 212.566C72.3819 212.566 72.2082 212.6 72.0585 212.668C71.9117 212.735 71.7959 212.824 71.7112 212.934C71.6293 213.045 71.5884 213.163 71.5884 213.29H70.8048C70.8048 213.126 70.8471 212.964 70.9319 212.803C71.0166 212.642 71.138 212.497 71.2961 212.367C71.4571 212.234 71.6491 212.13 71.8722 212.053C72.0981 211.974 72.3494 211.935 72.6261 211.935C72.9593 211.935 73.253 211.991 73.5072 212.104C73.7641 212.217 73.9646 212.388 74.1086 212.617C74.2555 212.843 74.3289 213.126 74.3289 213.468V215.603C74.3289 215.755 74.3416 215.918 74.367 216.09C74.3952 216.262 74.4362 216.411 74.4898 216.535V216.603H73.6723C73.6328 216.512 73.6018 216.392 73.5792 216.243C73.5566 216.09 73.5453 215.949 73.5453 215.819ZM73.6808 213.824L73.6893 214.375H72.8972C72.6741 214.375 72.4751 214.393 72.3 214.43C72.1249 214.464 71.9781 214.516 71.8595 214.586C71.7409 214.657 71.6505 214.746 71.5884 214.853C71.5263 214.958 71.4952 215.081 71.4952 215.222C71.4952 215.366 71.5277 215.497 71.5926 215.616C71.6576 215.734 71.755 215.829 71.8849 215.899C72.0176 215.967 72.18 216.001 72.372 216.001C72.612 216.001 72.8238 215.95 73.0073 215.849C73.1909 215.747 73.3363 215.623 73.4436 215.476C73.5537 215.329 73.613 215.186 73.6215 215.048L73.9561 215.425C73.9364 215.544 73.8827 215.675 73.7952 215.819C73.7076 215.963 73.5905 216.101 73.4436 216.234C73.2996 216.364 73.1274 216.473 72.9269 216.56C72.7292 216.645 72.5061 216.687 72.2576 216.687C71.947 216.687 71.6745 216.627 71.4401 216.505C71.2086 216.384 71.0279 216.221 70.898 216.018C70.7709 215.812 70.7074 215.582 70.7074 215.328C70.7074 215.082 70.7554 214.866 70.8514 214.68C70.9474 214.49 71.0858 214.334 71.2665 214.209C71.4472 214.082 71.6646 213.986 71.9188 213.921C72.1729 213.856 72.4567 213.824 72.7701 213.824H73.6808ZM76.3451 212.998V216.603H75.5615V212.02H76.3027L76.3451 212.998ZM76.1587 214.137L75.8326 214.125C75.8354 213.811 75.882 213.522 75.9723 213.256C76.0627 212.988 76.1898 212.755 76.3535 212.557C76.5173 212.36 76.7122 212.207 76.9381 212.1C77.1668 211.99 77.4195 211.935 77.6963 211.935C77.9222 211.935 78.1255 211.966 78.3062 212.028C78.4869 212.087 78.6408 212.183 78.7679 212.316C78.8978 212.449 78.9966 212.621 79.0644 212.833C79.1322 213.042 79.166 213.297 79.166 213.599V216.603H78.3782V213.591C78.3782 213.351 78.3429 213.159 78.2723 213.015C78.2017 212.868 78.0986 212.762 77.9631 212.697C77.8276 212.629 77.661 212.596 77.4633 212.596C77.2685 212.596 77.0906 212.637 76.9296 212.718C76.7715 212.8 76.6345 212.913 76.5187 213.057C76.4058 213.201 76.3168 213.366 76.2519 213.553C76.1898 213.736 76.1587 213.931 76.1587 214.137ZM81.1441 210.097V216.603H80.3563V210.097H81.1441ZM83.9439 212.02L81.9447 214.159L80.8264 215.319L80.7629 214.485L81.5634 213.527L82.9866 212.02H83.9439ZM83.2281 216.603L81.5931 214.417L81.9997 213.718L84.1515 216.603H83.2281ZM90.9413 215.938V216.603H87.6755V215.938H90.9413ZM87.8407 210.435V216.603H87.0233V210.435H87.8407ZM90.5092 213.087V213.752H87.6755V213.087H90.5092ZM90.8989 210.435V211.105H87.6755V210.435H90.8989ZM92.212 210.435H93.004L95.0245 215.463L97.0407 210.435H97.837L95.3294 216.603H94.711L92.212 210.435ZM91.9536 210.435H92.6525L92.7668 214.197V216.603H91.9536V210.435ZM97.3922 210.435H98.0911V216.603H97.2779V214.197L97.3922 210.435ZM100.404 210.435V216.603H99.5863V210.435H100.404Z" fill="#0D0E15"/>
<g clip-path="url(#clip2_1_21099)">
<path d="M127.5 188.001V192.051C127.5 192.466 127.665 192.865 127.959 193.158L133.997 199.196C134.351 199.55 134.831 199.749 135.331 199.749C135.832 199.749 136.312 199.55 136.666 199.196L141.045 194.817C141.399 194.463 141.598 193.983 141.598 193.483C141.598 192.982 141.399 192.502 141.045 192.148L135.007 186.11C134.713 185.817 134.315 185.651 133.9 185.651H129.849C129.226 185.651 128.629 185.899 128.188 186.339C127.748 186.78 127.5 187.378 127.5 188.001Z" stroke="#0D0E15" stroke-width="0.939759" stroke-linecap="round" stroke-linejoin="round"/>
<path opacity="0.62" d="M129.772 189.176C129.772 189.508 129.904 189.827 130.139 190.062C130.374 190.297 130.693 190.429 131.025 190.429C131.358 190.429 131.676 190.297 131.911 190.062L131.579 189.729L131.911 190.062C132.146 189.827 132.278 189.508 132.278 189.176C132.278 188.843 132.146 188.525 131.911 188.29C131.676 188.055 131.358 187.923 131.025 187.923C130.693 187.923 130.374 188.055 130.139 188.29C129.904 188.525 129.772 188.843 129.772 189.176Z" stroke="#43BAF9" stroke-width="0.939759" stroke-linecap="round" stroke-linejoin="round"/>
</g>
<path d="M117.659 213.718H116.096L116.088 213.061H117.507C117.741 213.061 117.946 213.022 118.121 212.943C118.296 212.864 118.431 212.751 118.527 212.604C118.626 212.454 118.676 212.276 118.676 212.07C118.676 211.844 118.632 211.661 118.544 211.52C118.46 211.376 118.328 211.271 118.151 211.206C117.975 211.138 117.752 211.105 117.481 211.105H116.278V216.603H115.461V210.435H117.481C117.798 210.435 118.08 210.468 118.328 210.533C118.577 210.595 118.787 210.694 118.96 210.829C119.135 210.962 119.267 211.131 119.358 211.338C119.448 211.544 119.493 211.791 119.493 212.079C119.493 212.333 119.428 212.563 119.298 212.769C119.168 212.973 118.988 213.139 118.756 213.269C118.527 213.399 118.259 213.482 117.951 213.519L117.659 213.718ZM117.621 216.603H115.774L116.236 215.938H117.621C117.881 215.938 118.101 215.892 118.282 215.802C118.465 215.712 118.605 215.585 118.701 215.421C118.797 215.254 118.845 215.058 118.845 214.832C118.845 214.603 118.804 214.406 118.722 214.239C118.64 214.072 118.512 213.944 118.337 213.854C118.162 213.763 117.936 213.718 117.659 213.718H116.494L116.503 213.061H118.095L118.269 213.299C118.566 213.324 118.817 213.409 119.023 213.553C119.229 213.694 119.386 213.875 119.493 214.095C119.603 214.315 119.658 214.558 119.658 214.824C119.658 215.208 119.574 215.532 119.404 215.798C119.238 216.06 119.002 216.261 118.697 216.399C118.392 216.535 118.033 216.603 117.621 216.603ZM121.531 212.74V216.603H120.747V212.02H121.509L121.531 212.74ZM122.962 211.994L122.958 212.723C122.893 212.709 122.831 212.7 122.772 212.697C122.715 212.692 122.65 212.689 122.577 212.689C122.396 212.689 122.237 212.717 122.098 212.773C121.96 212.83 121.843 212.909 121.747 213.011C121.651 213.112 121.574 213.234 121.518 213.375C121.464 213.513 121.429 213.666 121.412 213.832L121.192 213.959C121.192 213.683 121.219 213.423 121.272 213.18C121.329 212.937 121.415 212.723 121.531 212.536C121.646 212.347 121.793 212.2 121.971 212.096C122.152 211.988 122.366 211.935 122.615 211.935C122.671 211.935 122.736 211.942 122.81 211.956C122.883 211.967 122.934 211.98 122.962 211.994ZM126.22 215.819V213.46C126.22 213.279 126.183 213.122 126.109 212.989C126.039 212.854 125.931 212.749 125.787 212.676C125.643 212.603 125.466 212.566 125.254 212.566C125.056 212.566 124.882 212.6 124.733 212.668C124.586 212.735 124.47 212.824 124.385 212.934C124.304 213.045 124.263 213.163 124.263 213.29H123.479C123.479 213.126 123.521 212.964 123.606 212.803C123.691 212.642 123.812 212.497 123.97 212.367C124.131 212.234 124.323 212.13 124.546 212.053C124.772 211.974 125.024 211.935 125.3 211.935C125.634 211.935 125.927 211.991 126.181 212.104C126.438 212.217 126.639 212.388 126.783 212.617C126.93 212.843 127.003 213.126 127.003 213.468V215.603C127.003 215.755 127.016 215.918 127.041 216.09C127.069 216.262 127.11 216.411 127.164 216.535V216.603H126.347C126.307 216.512 126.276 216.392 126.253 216.243C126.231 216.09 126.22 215.949 126.22 215.819ZM126.355 213.824L126.364 214.375H125.571C125.348 214.375 125.149 214.393 124.974 214.43C124.799 214.464 124.652 214.516 124.534 214.586C124.415 214.657 124.325 214.746 124.263 214.853C124.2 214.958 124.169 215.081 124.169 215.222C124.169 215.366 124.202 215.497 124.267 215.616C124.332 215.734 124.429 215.829 124.559 215.899C124.692 215.967 124.854 216.001 125.046 216.001C125.286 216.001 125.498 215.95 125.682 215.849C125.865 215.747 126.011 215.623 126.118 215.476C126.228 215.329 126.287 215.186 126.296 215.048L126.63 215.425C126.611 215.544 126.557 215.675 126.469 215.819C126.382 215.963 126.265 216.101 126.118 216.234C125.974 216.364 125.802 216.473 125.601 216.56C125.403 216.645 125.18 216.687 124.932 216.687C124.621 216.687 124.349 216.627 124.114 216.505C123.883 216.384 123.702 216.221 123.572 216.018C123.445 215.812 123.382 215.582 123.382 215.328C123.382 215.082 123.43 214.866 123.526 214.68C123.622 214.49 123.76 214.334 123.941 214.209C124.121 214.082 124.339 213.986 124.593 213.921C124.847 213.856 125.131 213.824 125.444 213.824H126.355ZM129.019 212.998V216.603H128.236V212.02H128.977L129.019 212.998ZM128.833 214.137L128.507 214.125C128.51 213.811 128.556 213.522 128.647 213.256C128.737 212.988 128.864 212.755 129.028 212.557C129.192 212.36 129.386 212.207 129.612 212.1C129.841 211.99 130.094 211.935 130.37 211.935C130.596 211.935 130.8 211.966 130.98 212.028C131.161 212.087 131.315 212.183 131.442 212.316C131.572 212.449 131.671 212.621 131.739 212.833C131.806 213.042 131.84 213.297 131.84 213.599V216.603H131.052V213.591C131.052 213.351 131.017 213.159 130.947 213.015C130.876 212.868 130.773 212.762 130.637 212.697C130.502 212.629 130.335 212.596 130.138 212.596C129.943 212.596 129.765 212.637 129.604 212.718C129.446 212.8 129.309 212.913 129.193 213.057C129.08 213.201 128.991 213.366 128.926 213.553C128.864 213.736 128.833 213.931 128.833 214.137ZM135.919 215.713V210.097H136.707V216.603H135.987L135.919 215.713ZM132.836 214.362V214.273C132.836 213.923 132.878 213.605 132.963 213.32C133.05 213.032 133.173 212.785 133.331 212.579C133.492 212.372 133.683 212.214 133.903 212.104C134.126 211.991 134.375 211.935 134.649 211.935C134.937 211.935 135.188 211.986 135.402 212.087C135.62 212.186 135.803 212.332 135.953 212.524C136.106 212.713 136.226 212.941 136.313 213.21C136.401 213.478 136.461 213.782 136.495 214.12V214.51C136.464 214.846 136.404 215.148 136.313 215.417C136.226 215.685 136.106 215.914 135.953 216.103C135.803 216.292 135.62 216.437 135.402 216.539C135.185 216.638 134.931 216.687 134.64 216.687C134.372 216.687 134.126 216.629 133.903 216.514C133.683 216.398 133.492 216.235 133.331 216.026C133.173 215.818 133.05 215.572 132.963 215.289C132.878 215.004 132.836 214.695 132.836 214.362ZM133.623 214.273V214.362C133.623 214.591 133.646 214.805 133.691 215.006C133.739 215.206 133.813 215.383 133.912 215.535C134.01 215.688 134.136 215.808 134.288 215.895C134.441 215.98 134.623 216.022 134.835 216.022C135.095 216.022 135.308 215.967 135.474 215.857C135.644 215.747 135.779 215.602 135.881 215.421C135.983 215.24 136.062 215.044 136.118 214.832V213.811C136.084 213.656 136.035 213.506 135.97 213.362C135.908 213.215 135.826 213.086 135.724 212.973C135.626 212.857 135.503 212.765 135.356 212.697C135.212 212.629 135.041 212.596 134.843 212.596C134.629 212.596 134.444 212.641 134.288 212.731C134.136 212.819 134.01 212.94 133.912 213.095C133.813 213.248 133.739 213.426 133.691 213.629C133.646 213.83 133.623 214.044 133.623 214.273ZM144.115 215.938V216.603H140.85V215.938H144.115ZM141.015 210.435V216.603H140.197V210.435H141.015ZM143.683 213.087V213.752H140.85V213.087H143.683ZM144.073 210.435V211.105H140.85V210.435H144.073ZM145.386 210.435H146.178L148.199 215.463L150.215 210.435H151.011L148.503 216.603H147.885L145.386 210.435ZM145.128 210.435H145.827L145.941 214.197V216.603H145.128V210.435ZM150.566 210.435H151.265V216.603H150.452V214.197L150.566 210.435ZM153.578 210.435V216.603H152.76V210.435H153.578Z" fill="#0D0E15"/>
<rect x="64.2109" y="225.385" width="37.5904" height="37.5904" rx="5.78313" fill="white"/>
<g clip-path="url(#clip3_1_21099)">
<path opacity="0.62" d="M81.1953 242.218H84.8098M81.1953 243.679H84.8098M83.7189 248.001L81.9641 245.476C83.1384 245.289 84.496 244.168 82.9271 242.289" stroke="#23AFD4" stroke-width="0.939759" stroke-miterlimit="2.67178" stroke-linecap="round"/>
<path d="M90.2313 244.181C90.2313 248.171 86.9927 251.41 83.0024 251.41C79.012 251.41 75.7734 248.171 75.7734 244.181C75.7734 240.191 79.012 236.952 83.0024 236.952M90.8495 239.113C90.8495 239.655 90.6977 240.169 90.4302 240.602C90.1753 241.031 89.8134 241.385 89.3799 241.631C88.9464 241.877 88.4563 242.006 87.9579 242.005C87.4595 242.006 86.9694 241.877 86.5359 241.631C86.1024 241.385 85.7405 241.031 85.4856 240.602C85.2104 240.154 85.0653 239.639 85.0663 239.113C85.0663 237.516 86.3603 236.222 87.9579 236.222C89.5555 236.222 90.8495 237.516 90.8495 239.113Z" stroke="#0D0E15" stroke-width="0.939759" stroke-linecap="round" stroke-linejoin="round"/>
<path opacity="0.62" d="M86.8516 239.113L87.5672 239.828L89.107 238.404" stroke="#23AFD4" stroke-width="0.939759" stroke-linecap="round" stroke-linejoin="round"/>
</g>
<path d="M61.5922 265.665H59.9445V265H61.5922C61.9112 265 62.1696 264.95 62.3673 264.848C62.5649 264.746 62.709 264.605 62.7993 264.424C62.8925 264.244 62.9391 264.037 62.9391 263.806C62.9391 263.594 62.8925 263.395 62.7993 263.209C62.709 263.022 62.5649 262.873 62.3673 262.76C62.1696 262.644 61.9112 262.586 61.5922 262.586H60.1351V268.084H59.3176V261.917H61.5922C62.0581 261.917 62.452 261.997 62.7739 262.158C63.0958 262.319 63.3401 262.542 63.5067 262.827C63.6733 263.11 63.7566 263.433 63.7566 263.797C63.7566 264.193 63.6733 264.53 63.5067 264.81C63.3401 265.089 63.0958 265.303 62.7739 265.449C62.452 265.593 62.0581 265.665 61.5922 265.665ZM66.4886 262.463L64.447 268.084H63.6126L65.9634 261.917H66.5013L66.4886 262.463ZM68.1998 268.084L66.154 262.463L66.1413 261.917H66.6792L69.0385 268.084H68.1998ZM68.0939 265.801V266.47H64.6291V265.801H68.0939ZM73.7316 267.525C73.918 267.525 74.0903 267.487 74.2484 267.411C74.4065 267.334 74.5364 267.23 74.6381 267.097C74.7397 266.962 74.7976 266.808 74.8117 266.635H75.5572C75.5431 266.906 75.4513 267.159 75.2819 267.394C75.1153 267.625 74.8965 267.813 74.6254 267.957C74.3543 268.098 74.0564 268.169 73.7316 268.169C73.3871 268.169 73.0864 268.108 72.8294 267.987C72.5753 267.865 72.3635 267.699 72.1941 267.487C72.0275 267.275 71.9018 267.032 71.8171 266.758C71.7352 266.481 71.6943 266.189 71.6943 265.881V265.704C71.6943 265.396 71.7352 265.105 71.8171 264.831C71.9018 264.554 72.0275 264.31 72.1941 264.098C72.3635 263.886 72.5753 263.72 72.8294 263.598C73.0864 263.477 73.3871 263.416 73.7316 263.416C74.0903 263.416 74.4037 263.49 74.672 263.637C74.9402 263.781 75.1506 263.978 75.3031 264.23C75.4584 264.478 75.5431 264.76 75.5572 265.077H74.8117C74.7976 264.887 74.744 264.717 74.6508 264.564C74.5604 264.412 74.4362 264.29 74.278 264.2C74.1227 264.107 73.9406 264.06 73.7316 264.06C73.4916 264.06 73.2897 264.108 73.1259 264.204C72.965 264.297 72.8365 264.424 72.7405 264.585C72.6473 264.743 72.5795 264.92 72.5372 265.115C72.4976 265.307 72.4779 265.503 72.4779 265.704V265.881C72.4779 266.082 72.4976 266.28 72.5372 266.474C72.5767 266.669 72.6431 266.846 72.7363 267.004C72.8323 267.162 72.9607 267.289 73.1217 267.385C73.2855 267.478 73.4888 267.525 73.7316 267.525ZM76.2307 265.843V265.746C76.2307 265.415 76.2787 265.109 76.3747 264.827C76.4707 264.542 76.6091 264.294 76.7898 264.085C76.9705 263.874 77.1894 263.71 77.4463 263.594C77.7033 263.476 77.9913 263.416 78.3104 263.416C78.6323 263.416 78.9218 263.476 79.1787 263.594C79.4385 263.71 79.6588 263.874 79.8395 264.085C80.0231 264.294 80.1628 264.542 80.2588 264.827C80.3549 265.109 80.4029 265.415 80.4029 265.746V265.843C80.4029 266.174 80.3549 266.48 80.2588 266.762C80.1628 267.045 80.0231 267.292 79.8395 267.504C79.6588 267.713 79.4399 267.876 79.183 267.995C78.9288 268.111 78.6408 268.169 78.3189 268.169C77.997 268.169 77.7075 268.111 77.4506 267.995C77.1936 267.876 76.9734 267.713 76.7898 267.504C76.6091 267.292 76.4707 267.045 76.3747 266.762C76.2787 266.48 76.2307 266.174 76.2307 265.843ZM77.0143 265.746V265.843C77.0143 266.072 77.0411 266.288 77.0948 266.491C77.1484 266.692 77.2289 266.87 77.3362 267.025C77.4463 267.18 77.5833 267.303 77.7471 267.394C77.9109 267.481 78.1015 267.525 78.3189 267.525C78.5335 267.525 78.7213 267.481 78.8822 267.394C79.046 267.303 79.1816 267.18 79.2889 267.025C79.3962 266.87 79.4767 266.692 79.5303 266.491C79.5868 266.288 79.615 266.072 79.615 265.843V265.746C79.615 265.52 79.5868 265.307 79.5303 265.106C79.4767 264.903 79.3948 264.724 79.2846 264.568C79.1773 264.41 79.0418 264.286 78.878 264.196C78.7171 264.105 78.5279 264.06 78.3104 264.06C78.0958 264.06 77.9066 264.105 77.7428 264.196C77.5819 264.286 77.4463 264.41 77.3362 264.568C77.2289 264.724 77.1484 264.903 77.0948 265.106C77.0411 265.307 77.0143 265.52 77.0143 265.746ZM82.1649 264.412V268.084H81.3771V263.501H82.1226L82.1649 264.412ZM82.004 265.619L81.6397 265.606C81.6425 265.293 81.6835 265.003 81.7625 264.738C81.8416 264.47 81.9588 264.237 82.1141 264.039C82.2694 263.841 82.4628 263.689 82.6944 263.581C82.9259 263.471 83.1942 263.416 83.4992 263.416C83.7138 263.416 83.9114 263.447 84.0921 263.509C84.2729 263.569 84.4296 263.663 84.5623 263.793C84.695 263.923 84.7981 264.09 84.8715 264.293C84.9449 264.496 84.9816 264.742 84.9816 265.03V268.084H84.198V265.068C84.198 264.828 84.1571 264.636 84.0752 264.492C83.9961 264.348 83.8832 264.244 83.7364 264.179C83.5895 264.111 83.4173 264.077 83.2196 264.077C82.988 264.077 82.7946 264.118 82.6393 264.2C82.484 264.282 82.3598 264.395 82.2666 264.539C82.1734 264.683 82.1056 264.848 82.0633 265.034C82.0237 265.218 82.004 265.413 82.004 265.619ZM84.9732 265.187L84.4479 265.348C84.4508 265.096 84.4917 264.855 84.5708 264.623C84.6527 264.392 84.7699 264.186 84.9223 264.005C85.0777 263.824 85.2683 263.682 85.4942 263.577C85.7201 263.47 85.9784 263.416 86.2693 263.416C86.515 263.416 86.7324 263.449 86.9216 263.514C87.1136 263.579 87.2746 263.679 87.4045 263.814C87.5372 263.947 87.6374 264.118 87.7052 264.327C87.773 264.536 87.8069 264.784 87.8069 265.072V268.084H87.019V265.064C87.019 264.807 86.9781 264.608 86.8962 264.467C86.8171 264.323 86.7042 264.222 86.5573 264.166C86.4133 264.107 86.2411 264.077 86.0406 264.077C85.8683 264.077 85.7158 264.107 85.5831 264.166C85.4504 264.225 85.3389 264.307 85.2485 264.412C85.1581 264.513 85.0889 264.63 85.0409 264.763C84.9958 264.896 84.9732 265.037 84.9732 265.187ZM89.7765 264.382V269.846H88.9886V263.501H89.7087L89.7765 264.382ZM92.8643 265.754V265.843C92.8643 266.177 92.8247 266.486 92.7457 266.771C92.6666 267.053 92.5508 267.299 92.3983 267.508C92.2487 267.717 92.0637 267.879 91.8435 267.995C91.6232 268.111 91.3705 268.169 91.0853 268.169C90.7944 268.169 90.5375 268.121 90.3144 268.025C90.0913 267.929 89.9021 267.789 89.7468 267.605C89.5915 267.422 89.4672 267.202 89.3741 266.945C89.2837 266.688 89.2216 266.398 89.1877 266.076V265.602C89.2216 265.263 89.2851 264.959 89.3783 264.691C89.4715 264.423 89.5943 264.194 89.7468 264.005C89.9021 263.813 90.0899 263.668 90.3101 263.569C90.5304 263.467 90.7845 263.416 91.0726 263.416C91.3606 263.416 91.6162 263.473 91.8392 263.586C92.0623 263.696 92.2501 263.854 92.4026 264.06C92.5551 264.266 92.6694 264.513 92.7457 264.801C92.8247 265.087 92.8643 265.404 92.8643 265.754ZM92.0764 265.843V265.754C92.0764 265.526 92.0524 265.311 92.0044 265.111C91.9564 264.907 91.8816 264.729 91.7799 264.577C91.6811 264.422 91.554 264.3 91.3987 264.213C91.2434 264.122 91.0585 264.077 90.8438 264.077C90.6462 264.077 90.4739 264.111 90.3271 264.179C90.1831 264.246 90.0602 264.338 89.9586 264.454C89.8569 264.567 89.7736 264.697 89.7087 264.844C89.6466 264.988 89.6 265.137 89.5689 265.293V266.39C89.6254 266.587 89.7044 266.774 89.8061 266.949C89.9078 267.121 90.0433 267.261 90.2127 267.368C90.3822 267.473 90.5954 267.525 90.8523 267.525C91.0641 267.525 91.2462 267.481 91.3987 267.394C91.554 267.303 91.6811 267.18 91.7799 267.025C91.8816 266.87 91.9564 266.692 92.0044 266.491C92.0524 266.288 92.0764 266.072 92.0764 265.843ZM94.7153 261.578V268.084H93.9274V261.578H94.7153ZM97.8751 268.169C97.556 268.169 97.2666 268.115 97.0068 268.008C96.7498 267.898 96.5281 267.744 96.3418 267.546C96.1582 267.348 96.017 267.114 95.9182 266.843C95.8194 266.572 95.77 266.275 95.77 265.953V265.776C95.77 265.403 95.825 265.071 95.9351 264.78C96.0453 264.486 96.1949 264.238 96.3841 264.035C96.5733 263.831 96.7879 263.677 97.028 263.573C97.268 263.468 97.5165 263.416 97.7734 263.416C98.101 263.416 98.3834 263.473 98.6206 263.586C98.8606 263.699 99.0569 263.857 99.2093 264.06C99.3618 264.261 99.4748 264.498 99.5482 264.772C99.6216 265.043 99.6583 265.339 99.6583 265.661V266.013H96.2359V265.373H98.8747V265.314C98.8634 265.111 98.8211 264.913 98.7476 264.721C98.6771 264.529 98.5641 264.371 98.4088 264.246C98.2535 264.122 98.0417 264.06 97.7734 264.06C97.5955 264.06 97.4318 264.098 97.2821 264.174C97.1324 264.248 97.004 264.358 96.8967 264.505C96.7893 264.652 96.706 264.831 96.6467 265.043C96.5874 265.255 96.5578 265.499 96.5578 265.776V265.953C96.5578 266.171 96.5874 266.376 96.6467 266.568C96.7089 266.757 96.7978 266.923 96.9136 267.067C97.0322 267.211 97.1748 267.324 97.3414 267.406C97.5108 267.488 97.7028 267.529 97.9175 267.529C98.1942 267.529 98.4286 267.473 98.6206 267.36C98.8126 267.247 98.9806 267.096 99.1246 266.906L99.599 267.283C99.5002 267.433 99.3745 267.576 99.222 267.711C99.0696 267.847 98.8818 267.957 98.6587 268.042C98.4384 268.126 98.1772 268.169 97.8751 268.169ZM102.492 263.501V264.102H100.014V263.501H102.492ZM100.853 262.387H101.636V266.949C101.636 267.104 101.66 267.221 101.708 267.3C101.756 267.379 101.819 267.432 101.895 267.457C101.971 267.483 102.053 267.495 102.14 267.495C102.205 267.495 102.273 267.49 102.344 267.478C102.417 267.464 102.472 267.453 102.509 267.444L102.513 268.084C102.451 268.104 102.369 268.122 102.268 268.139C102.169 268.159 102.049 268.169 101.907 268.169C101.715 268.169 101.539 268.131 101.378 268.054C101.217 267.978 101.089 267.851 100.993 267.673C100.899 267.492 100.853 267.25 100.853 266.945V262.387ZM105.313 268.169C104.994 268.169 104.704 268.115 104.445 268.008C104.188 267.898 103.966 267.744 103.78 267.546C103.596 267.348 103.455 267.114 103.356 266.843C103.257 266.572 103.208 266.275 103.208 265.953V265.776C103.208 265.403 103.263 265.071 103.373 264.78C103.483 264.486 103.633 264.238 103.822 264.035C104.011 263.831 104.226 263.677 104.466 263.573C104.706 263.468 104.954 263.416 105.211 263.416C105.539 263.416 105.821 263.473 106.058 263.586C106.298 263.699 106.495 263.857 106.647 264.06C106.8 264.261 106.913 264.498 106.986 264.772C107.059 265.043 107.096 265.339 107.096 265.661V266.013H103.674V265.373H106.313V265.314C106.301 265.111 106.259 264.913 106.186 264.721C106.115 264.529 106.002 264.371 105.847 264.246C105.691 264.122 105.48 264.06 105.211 264.06C105.033 264.06 104.87 264.098 104.72 264.174C104.57 264.248 104.442 264.358 104.335 264.505C104.227 264.652 104.144 264.831 104.085 265.043C104.025 265.255 103.996 265.499 103.996 265.776V265.953C103.996 266.171 104.025 266.376 104.085 266.568C104.147 266.757 104.236 266.923 104.351 267.067C104.47 267.211 104.613 267.324 104.779 267.406C104.949 267.488 105.141 267.529 105.355 267.529C105.632 267.529 105.866 267.473 106.058 267.36C106.25 267.247 106.418 267.096 106.562 266.906L107.037 267.283C106.938 267.433 106.812 267.576 106.66 267.711C106.507 267.847 106.32 267.957 106.097 268.042C105.876 268.126 105.615 268.169 105.313 268.169Z" fill="#0D0E15"/>
<path d="M141.77 244.18C141.77 248.17 138.532 251.409 134.541 251.409C130.551 251.409 127.312 248.17 127.312 244.18C127.312 240.19 130.551 236.951 134.541 236.951M141.77 239.843V236.951M141.77 236.951H138.879M141.77 236.951L138.156 240.566" stroke="#0D0E15" stroke-width="0.939759" stroke-linecap="round" stroke-linejoin="round"/>
<path d="M132.734 242.218H136.349M132.734 243.679H136.349M135.258 248.001L133.503 245.476C134.678 245.289 136.035 244.168 134.466 242.289" stroke="#23AFD4" stroke-opacity="0.62" stroke-width="0.939759" stroke-miterlimit="2.67178" stroke-linecap="round"/>
<path d="M121.437 265.665H119.79V265H121.437C121.756 265 122.015 264.95 122.213 264.848C122.41 264.746 122.554 264.605 122.645 264.424C122.738 264.244 122.784 264.037 122.784 263.806C122.784 263.594 122.738 263.395 122.645 263.209C122.554 263.022 122.41 262.873 122.213 262.76C122.015 262.644 121.756 262.586 121.437 262.586H119.98V268.084H119.163V261.917H121.437C121.903 261.917 122.297 261.997 122.619 262.158C122.941 262.319 123.185 262.542 123.352 262.827C123.519 263.11 123.602 263.433 123.602 263.797C123.602 264.193 123.519 264.53 123.352 264.81C123.185 265.089 122.941 265.303 122.619 265.449C122.297 265.593 121.903 265.665 121.437 265.665ZM125.3 264.221V268.084H124.517V263.501H125.279L125.3 264.221ZM126.732 263.476L126.728 264.204C126.663 264.19 126.601 264.181 126.541 264.179C126.485 264.173 126.42 264.17 126.347 264.17C126.166 264.17 126.006 264.198 125.868 264.255C125.73 264.311 125.612 264.39 125.516 264.492C125.42 264.594 125.344 264.715 125.288 264.856C125.234 264.995 125.199 265.147 125.182 265.314L124.962 265.441C124.962 265.164 124.988 264.904 125.042 264.662C125.098 264.419 125.185 264.204 125.3 264.018C125.416 263.829 125.563 263.682 125.741 263.577C125.922 263.47 126.136 263.416 126.385 263.416C126.441 263.416 126.506 263.423 126.58 263.437C126.653 263.449 126.704 263.461 126.732 263.476ZM129.273 268.169C128.954 268.169 128.665 268.115 128.405 268.008C128.148 267.898 127.926 267.744 127.74 267.546C127.557 267.348 127.415 267.114 127.317 266.843C127.218 266.572 127.168 266.275 127.168 265.953V265.776C127.168 265.403 127.223 265.071 127.333 264.78C127.444 264.486 127.593 264.238 127.782 264.035C127.972 263.831 128.186 263.677 128.426 263.573C128.666 263.468 128.915 263.416 129.172 263.416C129.499 263.416 129.782 263.473 130.019 263.586C130.259 263.699 130.455 263.857 130.608 264.06C130.76 264.261 130.873 264.498 130.947 264.772C131.02 265.043 131.057 265.339 131.057 265.661V266.013H127.634V265.373H130.273V265.314C130.262 265.111 130.219 264.913 130.146 264.721C130.075 264.529 129.962 264.371 129.807 264.246C129.652 264.122 129.44 264.06 129.172 264.06C128.994 264.06 128.83 264.098 128.68 264.174C128.531 264.248 128.402 264.358 128.295 264.505C128.188 264.652 128.104 264.831 128.045 265.043C127.986 265.255 127.956 265.499 127.956 265.776V265.953C127.956 266.171 127.986 266.376 128.045 266.568C128.107 266.757 128.196 266.923 128.312 267.067C128.431 267.211 128.573 267.324 128.74 267.406C128.909 267.488 129.101 267.529 129.316 267.529C129.593 267.529 129.827 267.473 130.019 267.36C130.211 267.247 130.379 267.096 130.523 266.906L130.997 267.283C130.899 267.433 130.773 267.576 130.62 267.711C130.468 267.847 130.28 267.957 130.057 268.042C129.837 268.126 129.576 268.169 129.273 268.169ZM136.826 267.3V264.941C136.826 264.76 136.789 264.604 136.716 264.471C136.645 264.335 136.538 264.231 136.394 264.157C136.25 264.084 136.072 264.047 135.86 264.047C135.662 264.047 135.489 264.081 135.339 264.149C135.192 264.217 135.076 264.306 134.992 264.416C134.91 264.526 134.869 264.645 134.869 264.772H134.085C134.085 264.608 134.128 264.446 134.212 264.285C134.297 264.124 134.418 263.978 134.577 263.848C134.737 263.716 134.929 263.611 135.153 263.535C135.378 263.456 135.63 263.416 135.907 263.416C136.24 263.416 136.533 263.473 136.788 263.586C137.045 263.699 137.245 263.869 137.389 264.098C137.536 264.324 137.609 264.608 137.609 264.95V267.084C137.609 267.237 137.622 267.399 137.647 267.571C137.676 267.744 137.717 267.892 137.77 268.016V268.084H136.953C136.913 267.994 136.882 267.874 136.86 267.724C136.837 267.571 136.826 267.43 136.826 267.3ZM136.961 265.305L136.97 265.856H136.178C135.955 265.856 135.755 265.874 135.58 265.911C135.405 265.945 135.258 265.997 135.14 266.068C135.021 266.138 134.931 266.227 134.869 266.335C134.807 266.439 134.776 266.562 134.776 266.703C134.776 266.847 134.808 266.978 134.873 267.097C134.938 267.216 135.035 267.31 135.165 267.381C135.298 267.449 135.46 267.483 135.652 267.483C135.892 267.483 136.104 267.432 136.288 267.33C136.471 267.228 136.617 267.104 136.724 266.957C136.834 266.81 136.893 266.668 136.902 266.529L137.237 266.906C137.217 267.025 137.163 267.156 137.076 267.3C136.988 267.444 136.871 267.583 136.724 267.715C136.58 267.845 136.408 267.954 136.207 268.042C136.01 268.126 135.787 268.169 135.538 268.169C135.227 268.169 134.955 268.108 134.721 267.987C134.489 267.865 134.308 267.703 134.178 267.499C134.051 267.293 133.988 267.063 133.988 266.809C133.988 266.563 134.036 266.347 134.132 266.161C134.228 265.972 134.366 265.815 134.547 265.691C134.728 265.564 134.945 265.468 135.199 265.403C135.453 265.338 135.737 265.305 136.051 265.305H136.961ZM141.646 267.025V263.501H142.434V268.084H141.684L141.646 267.025ZM141.794 266.059L142.12 266.051C142.12 266.356 142.088 266.638 142.023 266.898C141.961 267.155 141.859 267.378 141.718 267.567C141.577 267.756 141.392 267.905 141.163 268.012C140.934 268.116 140.656 268.169 140.329 268.169C140.106 268.169 139.901 268.136 139.714 268.071C139.531 268.006 139.373 267.906 139.24 267.771C139.107 267.635 139.004 267.459 138.931 267.241C138.86 267.024 138.825 266.762 138.825 266.457V263.501H139.609V266.466C139.609 266.672 139.631 266.843 139.676 266.978C139.724 267.111 139.788 267.217 139.867 267.296C139.949 267.372 140.039 267.426 140.138 267.457C140.24 267.488 140.344 267.504 140.451 267.504C140.785 267.504 141.049 267.44 141.244 267.313C141.438 267.183 141.578 267.01 141.663 266.792C141.75 266.572 141.794 266.328 141.794 266.059ZM145.547 263.501V264.102H143.069V263.501H145.547ZM143.908 262.387H144.691V266.949C144.691 267.104 144.715 267.221 144.763 267.3C144.811 267.379 144.873 267.432 144.95 267.457C145.026 267.483 145.108 267.495 145.195 267.495C145.26 267.495 145.328 267.49 145.399 267.478C145.472 267.464 145.527 267.453 145.564 267.444L145.568 268.084C145.506 268.104 145.424 268.122 145.322 268.139C145.224 268.159 145.104 268.169 144.962 268.169C144.77 268.169 144.594 268.131 144.433 268.054C144.272 267.978 144.144 267.851 144.048 267.673C143.954 267.492 143.908 267.25 143.908 266.945V262.387ZM147.25 261.578V268.084H146.466V261.578H147.25ZM147.063 265.619L146.737 265.606C146.74 265.293 146.787 265.003 146.877 264.738C146.967 264.47 147.094 264.237 147.258 264.039C147.422 263.841 147.617 263.689 147.843 263.581C148.071 263.471 148.324 263.416 148.601 263.416C148.827 263.416 149.03 263.447 149.211 263.509C149.392 263.569 149.545 263.665 149.673 263.797C149.802 263.93 149.901 264.102 149.969 264.314C150.037 264.523 150.071 264.779 150.071 265.081V268.084H149.283V265.072C149.283 264.832 149.248 264.64 149.177 264.496C149.106 264.35 149.003 264.244 148.868 264.179C148.732 264.111 148.566 264.077 148.368 264.077C148.173 264.077 147.995 264.118 147.834 264.2C147.676 264.282 147.539 264.395 147.423 264.539C147.31 264.683 147.221 264.848 147.157 265.034C147.094 265.218 147.063 265.413 147.063 265.619Z" fill="#0D0E15"/>
<rect x="64.2109" y="279.759" width="37.5904" height="37.5904" rx="5.78313" fill="white"/>
<path d="M86.3356 304.336C87.3043 304.343 88.2368 303.982 88.9525 303.331C91.3164 301.264 90.0513 297.114 86.9356 296.724C85.8224 289.972 76.085 292.531 78.3911 298.958" stroke="#0D0E15" stroke-width="0.939759" stroke-miterlimit="10" stroke-linecap="round" stroke-linejoin="round"/>
<path d="M79.5881 299.253C79.2049 299.058 78.7784 298.957 78.3519 298.964C74.9832 299.203 74.9905 304.104 78.3519 304.343" stroke="#0D0E15" stroke-width="0.939759" stroke-miterlimit="10" stroke-linecap="round" stroke-linejoin="round"/>
<path d="M85.7656 297.028C86.1415 296.84 86.5463 296.739 86.9656 296.731" stroke="#0D0E15" stroke-width="0.939759" stroke-miterlimit="10" stroke-linecap="round" stroke-linejoin="round"/>
<g opacity="0.62">
<path d="M83.7041 304.336H80.8125" stroke="#23AFD4" stroke-width="0.939759" stroke-miterlimit="10" stroke-linecap="round" stroke-linejoin="round"/>
<path d="M82.2578 305.782V302.891" stroke="#23AFD4" stroke-width="0.939759" stroke-miterlimit="10" stroke-linecap="round" stroke-linejoin="round"/>
</g>
<path d="M76.2519 320.497H77.0651C77.0228 320.887 76.9112 321.235 76.7305 321.543C76.5498 321.851 76.2942 322.095 75.9639 322.276C75.6335 322.454 75.2212 322.543 74.727 322.543C74.3656 322.543 74.0366 322.475 73.7401 322.339C73.4464 322.204 73.1937 322.012 72.9819 321.763C72.7701 321.512 72.6064 321.211 72.4906 320.861C72.3776 320.508 72.3212 320.116 72.3212 319.684V319.069C72.3212 318.637 72.3776 318.246 72.4906 317.896C72.6064 317.543 72.7716 317.241 72.9862 316.99C73.2036 316.738 73.4648 316.545 73.7698 316.409C74.0747 316.274 74.4178 316.206 74.799 316.206C75.265 316.206 75.6589 316.294 75.9808 316.469C76.3027 316.644 76.5526 316.887 76.7305 317.197C76.9112 317.505 77.0228 317.862 77.0651 318.269H76.2519C76.2123 317.981 76.1389 317.734 76.0316 317.528C75.9243 317.319 75.7718 317.158 75.5742 317.045C75.3765 316.932 75.1181 316.875 74.799 316.875C74.5251 316.875 74.2837 316.928 74.0747 317.032C73.8686 317.137 73.6949 317.285 73.5537 317.477C73.4154 317.669 73.3109 317.899 73.2403 318.167C73.1697 318.436 73.1344 318.733 73.1344 319.061V319.684C73.1344 319.986 73.1655 320.27 73.2276 320.535C73.2925 320.8 73.39 321.033 73.5199 321.234C73.6498 321.434 73.8149 321.593 74.0154 321.708C74.2159 321.821 74.4531 321.878 74.727 321.878C75.0744 321.878 75.3511 321.823 75.5572 321.713C75.7634 321.602 75.9187 321.444 76.0232 321.238C76.1305 321.032 76.2067 320.785 76.2519 320.497ZM78.9119 315.952V322.458H78.1241V315.952H78.9119ZM79.9623 320.217V320.12C79.9623 319.79 80.0104 319.483 80.1064 319.201C80.2024 318.916 80.3407 318.668 80.5215 318.46C80.7022 318.248 80.921 318.084 81.178 317.968C81.435 317.85 81.723 317.79 82.0421 317.79C82.364 317.79 82.6534 317.85 82.9104 317.968C83.1702 318.084 83.3904 318.248 83.5712 318.46C83.7547 318.668 83.8945 318.916 83.9905 319.201C84.0865 319.483 84.1345 319.79 84.1345 320.12V320.217C84.1345 320.548 84.0865 320.854 83.9905 321.136C83.8945 321.419 83.7547 321.666 83.5712 321.878C83.3904 322.087 83.1716 322.25 82.9146 322.369C82.6605 322.485 82.3725 322.543 82.0505 322.543C81.7286 322.543 81.4392 322.485 81.1822 322.369C80.9253 322.25 80.705 322.087 80.5215 321.878C80.3407 321.666 80.2024 321.419 80.1064 321.136C80.0104 320.854 79.9623 320.548 79.9623 320.217ZM80.746 320.12V320.217C80.746 320.446 80.7728 320.662 80.8264 320.865C80.8801 321.066 80.9606 321.244 81.0679 321.399C81.178 321.554 81.3149 321.677 81.4787 321.768C81.6425 321.855 81.8331 321.899 82.0505 321.899C82.2652 321.899 82.4529 321.855 82.6139 321.768C82.7777 321.677 82.9132 321.554 83.0205 321.399C83.1278 321.244 83.2083 321.066 83.262 320.865C83.3184 320.662 83.3467 320.446 83.3467 320.217V320.12C83.3467 319.894 83.3184 319.681 83.262 319.48C83.2083 319.277 83.1264 319.098 83.0163 318.942C82.909 318.784 82.7734 318.66 82.6097 318.57C82.4487 318.479 82.2595 318.434 82.0421 318.434C81.8275 318.434 81.6383 318.479 81.4745 318.57C81.3135 318.66 81.178 318.784 81.0679 318.942C80.9606 319.098 80.8801 319.277 80.8264 319.48C80.7728 319.681 80.746 319.894 80.746 320.12ZM87.9212 321.399V317.875H88.7091V322.458H87.9593L87.9212 321.399ZM88.0695 320.433L88.3956 320.425C88.3956 320.73 88.3631 321.012 88.2982 321.272C88.2361 321.529 88.1344 321.752 87.9932 321.941C87.852 322.13 87.6671 322.279 87.4383 322.386C87.2096 322.49 86.9315 322.543 86.6039 322.543C86.3808 322.543 86.1761 322.51 85.9897 322.445C85.8062 322.38 85.6481 322.28 85.5153 322.145C85.3826 322.009 85.2796 321.833 85.2061 321.615C85.1355 321.398 85.1002 321.136 85.1002 320.832V317.875H85.8838V320.84C85.8838 321.046 85.9064 321.217 85.9516 321.352C85.9996 321.485 86.0632 321.591 86.1422 321.67C86.2241 321.746 86.3145 321.8 86.4133 321.831C86.515 321.862 86.6194 321.878 86.7268 321.878C87.06 321.878 87.324 321.814 87.5188 321.687C87.7137 321.557 87.8534 321.384 87.9382 321.166C88.0257 320.946 88.0695 320.702 88.0695 320.433ZM92.7923 321.569V315.952H93.5801V322.458H92.86L92.7923 321.569ZM89.7087 320.217V320.128C89.7087 319.778 89.751 319.461 89.8358 319.175C89.9233 318.887 90.0461 318.64 90.2043 318.434C90.3652 318.228 90.5558 318.07 90.7761 317.96C90.9992 317.847 91.2476 317.79 91.5216 317.79C91.8096 317.79 92.0609 317.841 92.2755 317.943C92.4929 318.042 92.6765 318.187 92.8262 318.379C92.9786 318.568 93.0986 318.797 93.1862 319.065C93.2737 319.333 93.3344 319.637 93.3683 319.976V320.366C93.3373 320.702 93.2765 321.004 93.1862 321.272C93.0986 321.54 92.9786 321.769 92.8262 321.958C92.6765 322.147 92.4929 322.293 92.2755 322.394C92.0581 322.493 91.8039 322.543 91.5131 322.543C91.2448 322.543 90.9992 322.485 90.7761 322.369C90.5558 322.253 90.3652 322.091 90.2043 321.882C90.0461 321.673 89.9233 321.427 89.8358 321.145C89.751 320.86 89.7087 320.551 89.7087 320.217ZM90.4965 320.128V320.217C90.4965 320.446 90.5191 320.661 90.5643 320.861C90.6123 321.062 90.6857 321.238 90.7845 321.391C90.8834 321.543 91.009 321.663 91.1615 321.751C91.314 321.835 91.4961 321.878 91.7079 321.878C91.9677 321.878 92.1809 321.823 92.3475 321.713C92.5169 321.602 92.6525 321.457 92.7541 321.276C92.8558 321.096 92.9349 320.899 92.9913 320.687V319.667C92.9575 319.511 92.908 319.362 92.8431 319.218C92.781 319.071 92.6991 318.941 92.5974 318.828C92.4986 318.712 92.3758 318.62 92.2289 318.553C92.0849 318.485 91.9141 318.451 91.7164 318.451C91.5018 318.451 91.3168 318.496 91.1615 318.587C91.009 318.674 90.8834 318.796 90.7845 318.951C90.6857 319.103 90.6123 319.281 90.5643 319.485C90.5191 319.685 90.4965 319.9 90.4965 320.128ZM69.9111 332.899C70.0974 332.899 70.2697 332.861 70.4278 332.785C70.5859 332.708 70.7158 332.604 70.8175 332.471C70.9191 332.336 70.977 332.182 70.9912 332.009H71.7366C71.7225 332.28 71.6307 332.533 71.4613 332.768C71.2947 332.999 71.0759 333.187 70.8048 333.331C70.5337 333.472 70.2358 333.543 69.9111 333.543C69.5665 333.543 69.2658 333.482 69.0088 333.361C68.7547 333.239 68.5429 333.073 68.3735 332.861C68.2069 332.649 68.0812 332.406 67.9965 332.132C67.9146 331.856 67.8737 331.563 67.8737 331.255V331.078C67.8737 330.77 67.9146 330.479 67.9965 330.205C68.0812 329.928 68.2069 329.684 68.3735 329.472C68.5429 329.26 68.7547 329.094 69.0088 328.972C69.2658 328.851 69.5665 328.79 69.9111 328.79C70.2697 328.79 70.5831 328.864 70.8514 329.011C71.1196 329.155 71.33 329.352 71.4825 329.604C71.6378 329.852 71.7225 330.134 71.7366 330.451H70.9912C70.977 330.261 70.9234 330.091 70.8302 329.938C70.7398 329.786 70.6156 329.664 70.4575 329.574C70.3021 329.481 70.12 329.434 69.9111 329.434C69.671 329.434 69.4691 329.482 69.3053 329.578C69.1444 329.671 69.0159 329.798 68.9199 329.959C68.8267 330.117 68.7589 330.294 68.7166 330.489C68.6771 330.681 68.6573 330.877 68.6573 331.078V331.255C68.6573 331.456 68.6771 331.654 68.7166 331.848C68.7561 332.043 68.8225 332.22 68.9157 332.378C69.0117 332.536 69.1402 332.663 69.3011 332.759C69.4649 332.852 69.6682 332.899 69.9111 332.899ZM72.4101 331.217V331.12C72.4101 330.79 72.4581 330.483 72.5541 330.201C72.6501 329.916 72.7885 329.668 72.9692 329.46C73.1499 329.248 73.3688 329.084 73.6258 328.968C73.8827 328.85 74.1707 328.79 74.4898 328.79C74.8117 328.79 75.1012 328.85 75.3582 328.968C75.6179 329.084 75.8382 329.248 76.0189 329.46C76.2025 329.668 76.3422 329.916 76.4383 330.201C76.5343 330.483 76.5823 330.79 76.5823 331.12V331.217C76.5823 331.548 76.5343 331.854 76.4383 332.136C76.3422 332.419 76.2025 332.666 76.0189 332.878C75.8382 333.087 75.6194 333.25 75.3624 333.369C75.1082 333.485 74.8202 333.543 74.4983 333.543C74.1764 333.543 73.887 333.485 73.63 333.369C73.373 333.25 73.1528 333.087 72.9692 332.878C72.7885 332.666 72.6501 332.419 72.5541 332.136C72.4581 331.854 72.4101 331.548 72.4101 331.217ZM73.1937 331.12V331.217C73.1937 331.446 73.2205 331.662 73.2742 331.865C73.3278 332.066 73.4083 332.244 73.5156 332.399C73.6258 332.554 73.7627 332.677 73.9265 332.768C74.0903 332.855 74.2809 332.899 74.4983 332.899C74.7129 332.899 74.9007 332.855 75.0617 332.768C75.2254 332.677 75.361 332.554 75.4683 332.399C75.5756 332.244 75.6561 332.066 75.7097 331.865C75.7662 331.662 75.7944 331.446 75.7944 331.217V331.12C75.7944 330.894 75.7662 330.681 75.7097 330.48C75.6561 330.277 75.5742 330.098 75.464 329.942C75.3567 329.784 75.2212 329.66 75.0574 329.57C74.8965 329.479 74.7073 329.434 74.4898 329.434C74.2752 329.434 74.086 329.479 73.9223 329.57C73.7613 329.66 73.6258 329.784 73.5156 329.942C73.4083 330.098 73.3278 330.277 73.2742 330.48C73.2205 330.681 73.1937 330.894 73.1937 331.12ZM78.3486 329.853V333.458H77.5649V328.875H78.3062L78.3486 329.853ZM78.1622 330.993L77.836 330.98C77.8389 330.667 77.8854 330.377 77.9758 330.112C78.0662 329.844 78.1932 329.611 78.357 329.413C78.5208 329.215 78.7156 329.063 78.9415 328.955C79.1703 328.845 79.423 328.79 79.6997 328.79C79.9256 328.79 80.129 328.821 80.3097 328.883C80.4904 328.943 80.6443 329.039 80.7714 329.171C80.9013 329.304 81.0001 329.476 81.0679 329.688C81.1356 329.897 81.1695 330.153 81.1695 330.455V333.458H80.3817V330.446C80.3817 330.206 80.3464 330.014 80.2758 329.87C80.2052 329.724 80.1021 329.618 79.9666 329.553C79.831 329.485 79.6644 329.451 79.4668 329.451C79.2719 329.451 79.094 329.492 78.9331 329.574C78.7749 329.656 78.638 329.769 78.5222 329.913C78.4093 330.057 78.3203 330.222 78.2554 330.408C78.1932 330.592 78.1622 330.787 78.1622 330.993ZM83.1434 329.853V333.458H82.3598V328.875H83.101L83.1434 329.853ZM82.957 330.993L82.6308 330.98C82.6337 330.667 82.6803 330.377 82.7706 330.112C82.861 329.844 82.988 329.611 83.1518 329.413C83.3156 329.215 83.5104 329.063 83.7364 328.955C83.9651 328.845 84.2178 328.79 84.4945 328.79C84.7204 328.79 84.9238 328.821 85.1045 328.883C85.2852 328.943 85.4391 329.039 85.5662 329.171C85.6961 329.304 85.7949 329.476 85.8627 329.688C85.9304 329.897 85.9643 330.153 85.9643 330.455V333.458H85.1765V330.446C85.1765 330.206 85.1412 330.014 85.0706 329.87C85 329.724 84.8969 329.618 84.7614 329.553C84.6258 329.485 84.4592 329.451 84.2616 329.451C84.0667 329.451 83.8888 329.492 83.7279 329.574C83.5697 329.656 83.4328 329.769 83.317 329.913C83.2041 330.057 83.1151 330.222 83.0502 330.408C82.988 330.592 82.957 330.787 82.957 330.993ZM89.0564 333.543C88.7373 333.543 88.4479 333.489 88.1881 333.382C87.9311 333.272 87.7094 333.118 87.5231 332.92C87.3395 332.722 87.1983 332.488 87.0995 332.217C87.0007 331.946 86.9512 331.649 86.9512 331.327V331.15C86.9512 330.777 87.0063 330.445 87.1164 330.154C87.2266 329.86 87.3762 329.612 87.5654 329.409C87.7546 329.205 87.9692 329.051 88.2092 328.947C88.4493 328.843 88.6978 328.79 88.9547 328.79C89.2823 328.79 89.5647 328.847 89.8019 328.96C90.0419 329.073 90.2381 329.231 90.3906 329.434C90.5431 329.635 90.6561 329.872 90.7295 330.146C90.8029 330.417 90.8396 330.713 90.8396 331.035V331.387H87.4172V330.747H90.056V330.688C90.0447 330.485 90.0024 330.287 89.9289 330.095C89.8583 329.903 89.7454 329.745 89.5901 329.62C89.4348 329.496 89.223 329.434 88.9547 329.434C88.7768 329.434 88.613 329.472 88.4634 329.548C88.3137 329.622 88.1852 329.732 88.0779 329.879C87.9706 330.026 87.8873 330.205 87.828 330.417C87.7687 330.629 87.7391 330.873 87.7391 331.15V331.327C87.7391 331.545 87.7687 331.75 87.828 331.942C87.8902 332.131 87.9791 332.297 88.0949 332.441C88.2135 332.585 88.3561 332.698 88.5227 332.78C88.6921 332.862 88.8841 332.903 89.0987 332.903C89.3755 332.903 89.6098 332.847 89.8019 332.734C89.9939 332.621 90.1619 332.47 90.3059 332.28L90.7803 332.657C90.6815 332.807 90.5558 332.95 90.4033 333.085C90.2508 333.221 90.0631 333.331 89.84 333.416C89.6197 333.5 89.3585 333.543 89.0564 333.543ZM93.5886 332.899C93.7749 332.899 93.9472 332.861 94.1053 332.785C94.2635 332.708 94.3934 332.604 94.495 332.471C94.5967 332.336 94.6546 332.182 94.6687 332.009H95.4142C95.4 332.28 95.3083 332.533 95.1388 332.768C94.9722 332.999 94.7534 333.187 94.4823 333.331C94.2112 333.472 93.9133 333.543 93.5886 333.543C93.2441 333.543 92.9433 333.482 92.6864 333.361C92.4322 333.239 92.2204 333.073 92.051 332.861C91.8844 332.649 91.7588 332.406 91.674 332.132C91.5922 331.856 91.5512 331.563 91.5512 331.255V331.078C91.5512 330.77 91.5922 330.479 91.674 330.205C91.7588 329.928 91.8844 329.684 92.051 329.472C92.2204 329.26 92.4322 329.094 92.6864 328.972C92.9433 328.851 93.2441 328.79 93.5886 328.79C93.9472 328.79 94.2606 328.864 94.5289 329.011C94.7972 329.155 95.0075 329.352 95.16 329.604C95.3153 329.852 95.4 330.134 95.4142 330.451H94.6687C94.6546 330.261 94.6009 330.091 94.5077 329.938C94.4174 329.786 94.2931 329.664 94.135 329.574C93.9797 329.481 93.7975 329.434 93.5886 329.434C93.3486 329.434 93.1466 329.482 92.9829 329.578C92.8219 329.671 92.6934 329.798 92.5974 329.959C92.5042 330.117 92.4365 330.294 92.3941 330.489C92.3546 330.681 92.3348 330.877 92.3348 331.078V331.255C92.3348 331.456 92.3546 331.654 92.3941 331.848C92.4336 332.043 92.5 332.22 92.5932 332.378C92.6892 332.536 92.8177 332.663 92.9786 332.759C93.1424 332.852 93.3457 332.899 93.5886 332.899ZM98.2139 328.875V329.476H95.7361V328.875H98.2139ZM96.5747 327.761H97.3583V332.323C97.3583 332.478 97.3823 332.595 97.4303 332.674C97.4784 332.753 97.5405 332.806 97.6167 332.831C97.693 332.857 97.7748 332.869 97.8624 332.869C97.9273 332.869 97.9951 332.864 98.0657 332.852C98.1391 332.838 98.1942 332.827 98.2309 332.818L98.2351 333.458C98.173 333.478 98.0911 333.496 97.9895 333.513C97.8906 333.533 97.7706 333.543 97.6294 333.543C97.4374 333.543 97.2609 333.505 97.1 333.428C96.939 333.352 96.8105 333.225 96.7145 333.047C96.6213 332.866 96.5747 332.624 96.5747 332.319V327.761Z" fill="#0D0E15"/>
</g>
<path d="M50.4786 173.903C50.4786 170.909 52.906 168.482 55.9003 168.482H162.093C165.087 168.482 167.515 170.909 167.515 173.903V343.686C167.515 346.681 165.087 349.108 162.093 349.108H55.9003C52.906 349.108 50.4786 346.681 50.4786 343.686V173.903Z" stroke="#DFE5E7" stroke-width="0.722892"/>
<rect width="138" height="59" transform="matrix(1 0 0 -1 40 358)" fill="url(#paint3_linear_1_21099)"/>
</g>
<defs>
<filter id="filter0_d_1_21099" x="358.924" y="107.177" width="57.4479" height="57.4499" filterUnits="userSpaceOnUse" color-interpolation-filters="sRGB">
<feFlood flood-opacity="0" result="BackgroundImageFix"/>
<feColorMatrix in="SourceAlpha" type="matrix" values="0 0 0 0 0 0 0 0 0 0 0 0 0 0 0 0 0 0 127 0" result="hardAlpha"/>
<feOffset dy="3.19167"/>
<feGaussianBlur stdDeviation="7.97917"/>
<feColorMatrix type="matrix" values="0 0 0 0 0 0 0 0 0 0 0 0 0 0 0 0 0 0 0.1 0"/>
<feBlend mode="normal" in2="BackgroundImageFix" result="effect1_dropShadow_1_21099"/>
<feBlend mode="normal" in="SourceGraphic" in2="effect1_dropShadow_1_21099" result="shape"/>
</filter>
<filter id="filter1_d_1_21099" x="31.9" y="147.9" width="158.2" height="220.2" filterUnits="userSpaceOnUse" color-interpolation-filters="sRGB">
<feFlood flood-opacity="0" result="BackgroundImageFix"/>
<feColorMatrix in="SourceAlpha" type="matrix" values="0 0 0 0 0 0 0 0 0 0 0 0 0 0 0 0 0 0 127 0" result="hardAlpha"/>
<feOffset dx="2"/>
<feGaussianBlur stdDeviation="5.05"/>
<feComposite in2="hardAlpha" operator="out"/>
<feColorMatrix type="matrix" values="0 0 0 0 0 0 0 0 0 0 0 0 0 0 0 0 0 0 0.25 0"/>
<feBlend mode="normal" in2="BackgroundImageFix" result="effect1_dropShadow_1_21099"/>
<feBlend mode="normal" in="SourceGraphic" in2="effect1_dropShadow_1_21099" result="shape"/>
</filter>
<linearGradient id="paint0_linear_1_21099" x1="338.5" y1="71.999" x2="338.5" y2="320.381" gradientUnits="userSpaceOnUse">
<stop stop-color="#02B1E4"/>
<stop offset="1" stop-color="#02B1E4" stop-opacity="0"/>
</linearGradient>
<linearGradient id="paint1_linear_1_21099" x1="387.655" y1="94.4102" x2="387.655" y2="320.38" gradientUnits="userSpaceOnUse">
<stop offset="0.0104167" stop-color="#02B1E4" stop-opacity="0"/>
<stop offset="0.28125" stop-color="#BAEFFF"/>
<stop offset="0.666667" stop-color="#02B1E4"/>
<stop offset="0.984375" stop-color="#02B1E4" stop-opacity="0"/>
</linearGradient>
<linearGradient id="paint2_linear_1_21099" x1="387.649" y1="119.943" x2="387.649" y2="145.477" gradientUnits="userSpaceOnUse">
<stop stop-color="#A4EAFF"/>
<stop offset="1" stop-color="#02B1E4"/>
</linearGradient>
<linearGradient id="paint3_linear_1_21099" x1="69" y1="10.2347" x2="69" y2="59" gradientUnits="userSpaceOnUse">
<stop stop-color="white"/>
<stop offset="1" stop-color="white" stop-opacity="0.11"/>
</linearGradient>
<clipPath id="clip0_1_21099">
<path d="M50.1172 173.903C50.1172 170.709 52.7064 168.12 55.9003 168.12H162.093C165.287 168.12 167.876 170.709 167.876 173.903V343.686C167.876 346.88 165.287 349.47 162.093 349.47H55.9003C52.7064 349.47 50.1172 346.88 50.1172 343.686V173.903Z" fill="white"/>
</clipPath>
<clipPath id="clip1_1_21099">
<rect width="18.7952" height="18.7952" fill="white" transform="translate(73.6094 183.301)"/>
</clipPath>
<clipPath id="clip2_1_21099">
<rect width="18.7952" height="18.7952" fill="white" transform="translate(125.148 183.301)"/>
</clipPath>
<clipPath id="clip3_1_21099">
<rect width="17.3494" height="17.3494" fill="white" transform="translate(74.3281 235.505)"/>
</clipPath>
</defs>
</svg>
