<svg width="72" height="72" viewBox="0 0 72 72" fill="none" xmlns="http://www.w3.org/2000/svg">
<rect width="72" height="72" rx="36" fill="#E6F7FC"/>
<path d="M31.0026 54.6663H41.0026C49.3359 54.6663 52.6693 51.333 52.6693 42.9997V32.9997C52.6693 24.6663 49.3359 21.333 41.0026 21.333H31.0026C22.6693 21.333 19.3359 24.6663 19.3359 32.9997V42.9997C19.3359 51.333 22.6693 54.6663 31.0026 54.6663Z" stroke="black" stroke-width="2.5" stroke-linecap="round" stroke-linejoin="round"/>
<path d="M34.9246 37.0075V38.1942H31.0701V37.0075H34.9246ZM31.5215 34V41.3843H30V34H31.5215ZM36.0099 34V41.3843H34.4935V34H36.0099Z" fill="black"/>
<path d="M39.6006 41.3843H37.9929L38.003 40.1975H39.6006C39.9996 40.1975 40.336 40.1079 40.6099 39.9287C40.8837 39.7462 41.09 39.4808 41.2286 39.1325C41.3706 38.7842 41.4416 38.3633 41.4416 37.8697V37.5096C41.4416 37.1309 41.401 36.7979 41.3199 36.5105C41.2421 36.2231 41.1255 35.9813 40.97 35.7852C40.8144 35.5891 40.6234 35.442 40.3969 35.344C40.1703 35.2426 39.91 35.1918 39.6158 35.1918H37.9625V34H39.6158C40.1095 34 40.5608 34.0845 40.97 34.2536C41.3825 34.4193 41.7392 34.6576 42.0401 34.9687C42.341 35.2797 42.5726 35.6517 42.7349 36.0844C42.9006 36.5138 42.9834 36.9923 42.9834 37.5197V37.8697C42.9834 38.3937 42.9006 38.8722 42.7349 39.3049C42.5726 39.7377 42.341 40.1096 42.0401 40.4207C41.7425 40.7284 41.3858 40.9667 40.97 41.1358C40.5575 41.3015 40.101 41.3843 39.6006 41.3843ZM38.8551 34V41.3843H37.3336V34H38.8551Z" fill="black"/>
<path d="M47 44V46.5C47 47.6046 46.1046 48.5 45 48.5H42" stroke="#00BDFF" stroke-width="2.5" stroke-linecap="round"/>
<path d="M25 32V29.5C25 28.3954 25.8954 27.5 27 27.5H30" stroke="#00BDFF" stroke-width="2.5" stroke-linecap="round"/>
</svg>
