<svg width="72" height="72" viewBox="0 0 72 72" fill="none" xmlns="http://www.w3.org/2000/svg">
<rect width="72" height="72" rx="36" fill="#E6F7FC"/>
<path d="M26 39.5125C32.05 34.8292 39.95 34.8292 46 39.5125M28.6667 44.6608C33.1167 41.2275 38.9 41.2275 43.35 44.6608" stroke="#00BDFF" stroke-width="2.5" stroke-linecap="round" stroke-linejoin="round"/>
<path d="M31.0026 52.6663H41.0026C49.3359 52.6663 52.6693 49.333 52.6693 40.9997V30.9997C52.6693 22.6663 49.3359 19.333 41.0026 19.333H31.0026C22.6693 19.333 19.3359 22.6663 19.3359 30.9997V40.9997C19.3359 49.333 22.6693 52.6663 31.0026 52.6663Z" stroke="black" stroke-width="2.5" stroke-linecap="round" stroke-linejoin="round"/>
<path d="M33.7611 24.857V29.7062H32.7619L30.8136 26.4557V29.7062H29.8145V24.857H30.8136L32.7653 28.1109V24.857H33.7611Z" fill="black"/>
<path d="M35.6295 24.857V29.7062H34.6303V24.857H35.6295ZM37.5611 26.9286V27.7079H35.3564V26.9286H37.5611ZM37.7943 24.857V25.6397H35.3564V24.857H37.7943Z" fill="black"/>
<path d="M41.1847 28.0976H42.1805C42.1605 28.424 42.0706 28.7137 41.9107 28.9669C41.7531 29.22 41.5322 29.4176 41.248 29.5597C40.966 29.7018 40.6263 29.7728 40.2288 29.7728C39.918 29.7728 39.6393 29.7195 39.3929 29.613C39.1464 29.5042 38.9355 29.3487 38.7601 29.1467C38.5869 28.9446 38.4548 28.7004 38.3638 28.414C38.2727 28.1276 38.2272 27.8067 38.2272 27.4515V27.1151C38.2272 26.7599 38.2739 26.439 38.3671 26.1526C38.4626 25.864 38.598 25.6186 38.7734 25.4166C38.951 25.2145 39.1631 25.0591 39.4095 24.9503C39.656 24.8415 39.9313 24.7871 40.2355 24.7871C40.6396 24.7871 40.9804 24.8604 41.258 25.0069C41.5377 25.1535 41.7542 25.3555 41.9074 25.6131C42.0628 25.8706 42.1561 26.1637 42.1872 26.4923H41.188C41.1769 26.2969 41.1381 26.1315 41.0715 25.9961C41.0048 25.8584 40.9038 25.7552 40.7684 25.6863C40.6352 25.6153 40.4575 25.5798 40.2355 25.5798C40.069 25.5798 39.9235 25.6108 39.7992 25.673C39.6749 25.7352 39.5705 25.8295 39.4861 25.9561C39.4018 26.0827 39.3385 26.2425 39.2963 26.4357C39.2563 26.6266 39.2364 26.8509 39.2364 27.1084V27.4515C39.2364 27.7024 39.2552 27.9233 39.293 28.1143C39.3307 28.303 39.3885 28.4628 39.4662 28.5938C39.5461 28.7226 39.6482 28.8203 39.7726 28.8869C39.8991 28.9513 40.0512 28.9835 40.2288 28.9835C40.4376 28.9835 40.6096 28.9502 40.7451 28.8836C40.8805 28.817 40.9837 28.7182 41.0548 28.5872C41.1281 28.4562 41.1714 28.293 41.1847 28.0976Z" fill="black"/>
</svg>
