<svg width="72" height="72" viewBox="0 0 72 72" fill="none" xmlns="http://www.w3.org/2000/svg">
<rect width="72" height="72" rx="36" fill="#E6F7FC"/>
<path d="M19.3359 30.9997V26.833C19.3359 22.683 22.6859 19.333 26.8359 19.333H31.0026M41.0026 19.333H45.1693C49.3193 19.333 52.6693 22.683 52.6693 26.833V30.9997M52.6693 42.6663V45.1663C52.6693 49.3163 49.3193 52.6663 45.1693 52.6663H42.6693M31.0026 52.6663H26.8359C22.6859 52.6663 19.3359 49.3163 19.3359 45.1663V40.9997" stroke="black" stroke-width="2.5" stroke-linecap="round" stroke-linejoin="round"/>
<path d="M33.4974 27.667V31.0003C33.4974 32.667 32.6641 33.5003 30.9974 33.5003H27.6641C25.9974 33.5003 25.1641 32.667 25.1641 31.0003V27.667C25.1641 26.0003 25.9974 25.167 27.6641 25.167H30.9974C32.6641 25.167 33.4974 26.0003 33.4974 27.667ZM46.8307 27.667V31.0003C46.8307 32.667 45.9974 33.5003 44.3307 33.5003H40.9974C39.3307 33.5003 38.4974 32.667 38.4974 31.0003V27.667C38.4974 26.0003 39.3307 25.167 40.9974 25.167H44.3307C45.9974 25.167 46.8307 26.0003 46.8307 27.667ZM33.4974 41.0003V44.3337C33.4974 46.0003 32.6641 46.8337 30.9974 46.8337H27.6641C25.9974 46.8337 25.1641 46.0003 25.1641 44.3337V41.0003C25.1641 39.3337 25.9974 38.5003 27.6641 38.5003H30.9974C32.6641 38.5003 33.4974 39.3337 33.4974 41.0003ZM46.8307 41.0003V44.3337C46.8307 46.0003 45.9974 46.8337 44.3307 46.8337H40.9974C39.3307 46.8337 38.4974 46.0003 38.4974 44.3337V41.0003C38.4974 39.3337 39.3307 38.5003 40.9974 38.5003H44.3307C45.9974 38.5003 46.8307 39.3337 46.8307 41.0003Z" stroke="#00BDFF" stroke-width="2.5" stroke-linecap="round" stroke-linejoin="round"/>
</svg>
