<svg width="72" height="72" viewBox="0 0 72 72" fill="none" xmlns="http://www.w3.org/2000/svg">
<rect width="72" height="72" rx="36" fill="#E6F7FC"/>
<path d="M50.166 31.833C52.666 31.833 52.666 32.6663 52.666 34.333V37.6663C52.666 39.333 52.666 40.1663 50.166 40.1663M32.666 29.333L29.516 33.4997C28.866 34.6163 29.666 35.9997 30.9494 35.9997H34.7827C36.066 35.9997 36.866 37.383 36.2327 38.4997L32.666 42.6663" stroke="#00BDFF" stroke-width="2.5" stroke-linecap="round" stroke-linejoin="round"/>
<path d="M27.6673 47.6663C21.0007 47.6663 19.334 45.9997 19.334 39.333V32.6663C19.334 25.9997 21.0007 24.333 27.6673 24.333M37.6673 24.333C44.334 24.333 46.0007 25.9997 46.0007 32.6663V39.333C46.0007 45.9997 44.334 47.6663 37.6673 47.6663" stroke="black" stroke-width="2.5" stroke-linecap="round" stroke-linejoin="round"/>
</svg>
