<svg width="72" height="72" viewBox="0 0 72 72" fill="none" xmlns="http://www.w3.org/2000/svg">
<rect width="72" height="72" rx="36" fill="#E6F7FC"/>
<path d="M49.3327 28.0833V44.75C49.3327 51.4167 47.666 53.0833 40.9994 53.0833H30.9993C24.3327 53.0833 22.666 51.4167 22.666 44.75V28.0833C22.666 21.4167 24.3327 19.75 30.9993 19.75H40.9994C47.666 19.75 49.3327 21.4167 49.3327 28.0833Z" stroke="black" stroke-width="2.5" stroke-linecap="round" stroke-linejoin="round"/>
<path d="M38.9167 24.75H32.25M35.5833 47.4167C36.2685 47.4167 36.9256 47.1445 37.41 46.66C37.8945 46.1756 38.1667 45.5185 38.1667 44.8333C38.1667 44.1482 37.8945 43.4911 37.41 43.0066C36.9256 42.5222 36.2685 42.25 35.5833 42.25C34.8982 42.25 34.2411 42.5222 33.7566 43.0066C33.2722 43.4911 33 44.1482 33 44.8333C33 45.5185 33.2722 46.1756 33.7566 46.66C34.2411 47.1445 34.8982 47.4167 35.5833 47.4167Z" stroke="#00BDFF" stroke-width="2.5" stroke-linecap="round" stroke-linejoin="round"/>
</svg>
