<svg width="73" height="72" viewBox="0 0 73 72" fill="none" xmlns="http://www.w3.org/2000/svg">
<rect x="0.5" width="72" height="72" rx="36" fill="#E6F7FC"/>
<path d="M27.7682 52.6663H45.2349C49.8349 52.6663 51.6682 49.8497 51.8849 46.4163L52.7516 32.6497C52.8056 31.7961 52.684 30.9404 52.3942 30.1357C52.1045 29.3309 51.6527 28.5942 51.067 27.9709C50.4812 27.3477 49.7738 26.8512 48.9886 26.5121C48.2033 26.1731 47.3569 25.9987 46.5016 25.9997C45.4849 25.9997 44.5516 25.4163 44.0849 24.5163L42.8849 22.0997C42.1182 20.583 40.1182 19.333 38.4182 19.333H34.6016C32.8849 19.333 30.8849 20.583 30.1182 22.0997L28.9182 24.5163C28.4516 25.4163 27.5182 25.9997 26.5016 25.9997C22.8849 25.9997 20.0182 29.0497 20.2516 32.6497L21.1182 46.4163C21.3182 49.8497 23.1682 52.6663 27.7682 52.6663Z" stroke="black" stroke-width="2" stroke-linecap="round" stroke-linejoin="round"/>
<path d="M36.4987 46.0003C39.482 46.0003 41.9154 43.567 41.9154 40.5837C41.9154 37.6003 39.482 35.167 36.4987 35.167C33.5154 35.167 31.082 37.6003 31.082 40.5837C31.082 43.567 33.5154 46.0003 36.4987 46.0003Z" stroke="#02B1E4" stroke-width="2" stroke-linecap="round" stroke-linejoin="round"/>
<path d="M34 29.333H39" stroke="#02B1E4" stroke-width="2" stroke-linecap="round" stroke-linejoin="round"/>
</svg>
