<svg width="73" height="72" viewBox="0 0 73 72" fill="none" xmlns="http://www.w3.org/2000/svg">
<rect x="0.5" width="72" height="72" rx="36" fill="#E6F7FC"/>
<path d="M52.6654 27.2167V38.8667C52.6654 43.3667 51.6154 44.8167 47.6654 45.05V33.1333C47.6654 28.1667 46.3987 26.9167 41.3653 26.9167H25.6321C25.1654 26.9167 24.732 26.9333 24.332 26.95C24.382 22.2 25.6821 21 30.6321 21H46.3653C51.3987 21 52.6654 22.25 52.6654 27.2167Z" stroke="#43BAF9" stroke-width="2.5" stroke-linecap="round" stroke-linejoin="round"/>
<path d="M24.75 45.6836H27.6166" stroke="#43BAF9" stroke-width="2.5" stroke-miterlimit="10" stroke-linecap="round" stroke-linejoin="round"/>
<path d="M31.1836 45.6836H36.9169" stroke="#43BAF9" stroke-width="2.5" stroke-miterlimit="10" stroke-linecap="round" stroke-linejoin="round"/>
<path d="M19.332 37.0166H47.6654" stroke="#0D0E15" stroke-width="2.5" stroke-miterlimit="10" stroke-linecap="round" stroke-linejoin="round"/>
<path d="M47.6654 33.1337V45.0503C47.6154 49.8003 46.3153 51.0003 41.3653 51.0003H25.6321C20.5987 51.0003 19.332 49.7503 19.332 44.7837V33.1337C19.332 28.6337 20.382 27.1837 24.332 26.9503C24.732 26.9337 25.1654 26.917 25.6321 26.917H41.3653C46.3987 26.917 47.6654 28.167 47.6654 33.1337Z" stroke="#0D0E15" stroke-width="2.5" stroke-linecap="round" stroke-linejoin="round"/>
</svg>
