<svg width="72" height="72" viewBox="0 0 72 72" fill="none" xmlns="http://www.w3.org/2000/svg">
<rect width="72" height="72" rx="36" fill="#E6F7FC"/>
<path d="M26 29.333V42.6663M31 29.333V35.9997M31 40.9997V42.6663M41 29.333V30.9997M36 29.333V42.6663M41 35.9997V42.6663M46 29.333V42.6663" stroke="#02B1E4" stroke-width="2" stroke-miterlimit="10" stroke-linecap="round" stroke-linejoin="round"/>
<path d="M28.5 48H43.5H43.9412C43.9958 48 44.0231 48 44.0462 47.9998C47.8761 47.9746 50.9746 44.8761 50.9998 41.0462C51 41.0231 51 40.9958 51 40.9412V31.0588C51 31.0042 51 30.9769 50.9998 30.9538C50.9746 27.1239 47.8761 24.0254 44.0462 24.0002C44.0231 24 43.9958 24 43.9412 24H43.5H28.5H28.0588C28.0042 24 27.9769 24 27.9538 24.0002C24.1239 24.0254 21.0254 27.1239 21.0002 30.9538C21 30.9769 21 31.0042 21 31.0588V40.9412C21 40.9958 21 41.0231 21.0002 41.0462C21.0254 44.8761 24.1239 47.9746 27.9538 47.9998C27.9769 48 28.0042 48 28.0588 48H28.5Z" stroke="black" stroke-width="2" stroke-miterlimit="10" stroke-linecap="round" stroke-linejoin="round"/>
</svg>
