<svg width="72" height="72" viewBox="0 0 72 72" fill="none" xmlns="http://www.w3.org/2000/svg">
<rect width="72" height="72" rx="36" fill="#E6F7FC"/>
<path d="M48.5667 26.9016L43.45 21.785C42.6759 21.0088 41.7563 20.3929 40.7439 19.9725C39.7316 19.5521 38.6462 19.3355 37.55 19.335H29.3333C24.3333 19.335 21 22.6683 21 27.6683V44.335C21 49.335 24.3333 52.6683 29.3333 52.6683H42.6667C47.6667 52.6683 51 49.335 51 44.335V32.785C51 30.5683 50.1167 28.4516 48.5667 26.9016Z" stroke="black" stroke-width="2.5" stroke-linecap="round" stroke-linejoin="round"/>
<path d="M34.75 40.75V42.5156H26.5547L26.4453 41.1484L31.1875 33.625H32.9766L31.0391 36.8672L28.6797 40.75H34.75ZM33.4609 33.625V45H31.2109V33.625H33.4609Z" fill="#00BDFF"/>
<path d="M45.2188 39.0547V43.5625C45.0417 43.776 44.7682 44.0078 44.3984 44.2578C44.0286 44.5026 43.5521 44.7135 42.9688 44.8906C42.3854 45.0677 41.6797 45.1562 40.8516 45.1562C40.1172 45.1562 39.4479 45.0365 38.8438 44.7969C38.2396 44.5521 37.7188 44.1953 37.2812 43.7266C36.849 43.2578 36.5156 42.6849 36.2812 42.0078C36.0469 41.3255 35.9297 40.5469 35.9297 39.6719V38.9609C35.9297 38.0859 36.0417 37.3073 36.2656 36.625C36.4948 35.9427 36.8203 35.3672 37.2422 34.8984C37.6641 34.4297 38.1667 34.0729 38.75 33.8281C39.3333 33.5833 39.9818 33.4609 40.6953 33.4609C41.6849 33.4609 42.4974 33.6224 43.1328 33.9453C43.7682 34.263 44.2526 34.7057 44.5859 35.2734C44.9245 35.8359 45.1328 36.4818 45.2109 37.2109H42.9375C42.8802 36.8255 42.7708 36.4896 42.6094 36.2031C42.4479 35.9167 42.2161 35.6927 41.9141 35.5312C41.6172 35.3698 41.2318 35.2891 40.7578 35.2891C40.3672 35.2891 40.0182 35.3698 39.7109 35.5312C39.4089 35.6875 39.1536 35.9193 38.9453 36.2266C38.737 36.5339 38.5781 36.9141 38.4688 37.3672C38.3594 37.8203 38.3047 38.3464 38.3047 38.9453V39.6719C38.3047 40.2656 38.362 40.7917 38.4766 41.25C38.5911 41.7031 38.7604 42.0859 38.9844 42.3984C39.2135 42.7057 39.4948 42.9375 39.8281 43.0938C40.1615 43.25 40.5495 43.3281 40.9922 43.3281C41.362 43.3281 41.6693 43.2969 41.9141 43.2344C42.1641 43.1719 42.3646 43.0964 42.5156 43.0078C42.6719 42.9141 42.7917 42.8255 42.875 42.7422V40.7266H40.7344V39.0547H45.2188Z" fill="#00BDFF"/>
</svg>
