<svg width="72" height="72" viewBox="0 0 72 72" fill="none" xmlns="http://www.w3.org/2000/svg">
<rect width="72" height="72" rx="36" fill="#E6F7FC"/>
<path d="M26 32.6673V29.334C26 23.8173 27.6667 19.334 36 19.334C44.3333 19.334 46 23.8173 46 29.334V32.6673" stroke="#00BDFF" stroke-width="2.5" stroke-linecap="round" stroke-linejoin="round"/>
<path d="M44.3359 52.666H27.6693C21.0026 52.666 19.3359 50.9993 19.3359 44.3327V40.9993C19.3359 34.3327 21.0026 32.666 27.6693 32.666H44.3359C51.0026 32.666 52.6693 34.3327 52.6693 40.9993V44.3327C52.6693 50.9993 51.0026 52.666 44.3359 52.666Z" stroke="black" stroke-width="2.5" stroke-linecap="round" stroke-linejoin="round"/>
<path d="M42.6576 42.666H42.6709M35.9909 42.666H36.0059M29.3242 42.666H29.3376" stroke="#00BDFF" stroke-width="3.33333" stroke-linecap="round" stroke-linejoin="round"/>
</svg>
