<svg width="72" height="72" viewBox="0 0 72 72" fill="none" xmlns="http://www.w3.org/2000/svg">
<rect width="72" height="72" rx="36" fill="#E6F7FC"/>
<path d="M29.2419 26.7102L26.3387 35H24L27.9663 25H29.4545L29.2419 26.7102ZM31.654 35L28.7434 26.7102L28.5088 25H30.0117L34 35H31.654ZM31.522 31.2775V32.8915H25.8842V31.2775H31.522Z" fill="#00BDFF"/>
<path d="M31.0026 52.6673H41.0026C49.3359 52.6673 52.6693 49.334 52.6693 41.0007V31.0007C52.6693 22.6673 49.3359 19.334 41.0026 19.334H31.0026C22.6693 19.334 19.3359 22.6673 19.3359 31.0007V41.0007C19.3359 49.334 22.6693 52.6673 31.0026 52.6673Z" stroke="black" stroke-width="2.5" stroke-linecap="round" stroke-linejoin="round"/>
<path d="M43.032 43.592C43.032 45.32 41.848 46.328 39.96 46.328C37.832 46.328 36.376 45.208 35 41.736L36.728 40.888C37.672 43.352 38.504 44.488 39.688 44.488C40.456 44.488 40.92 44.104 40.92 43.368C40.92 42.92 40.712 42.52 40.36 42.168C39.896 42.296 39.384 42.36 38.824 42.408L38.52 40.76C40.168 40.584 40.632 40.232 40.632 39.624C40.632 39.096 40.248 38.824 39.624 38.824C38.984 38.824 38.344 39 37.704 39.368L37.096 37.672C37.896 37.256 38.824 37 39.896 37C41.944 37 42.792 38.088 42.792 39.512C42.792 40.264 42.504 40.904 41.96 41.384C42.312 41.432 42.696 41.464 43.128 41.464C43.688 41.464 44.216 41.4 44.728 41.24V38.952H43.72V37.16H48.44V38.952H46.952V47.112H44.728V43.048C44.36 43.128 43.976 43.176 43.592 43.176C43.4 43.176 43.192 43.16 43 43.144C43.016 43.288 43.032 43.432 43.032 43.592Z" fill="black"/>
</svg>
