<svg width="72" height="72" viewBox="0 0 72 72" fill="none" xmlns="http://www.w3.org/2000/svg">
<rect width="72" height="72" rx="36" fill="#E6F7FC"/>
<path d="M40.707 32.0645L40.209 33.959H31L31.5078 32.0645H40.707ZM35.9902 42.7188L31.2832 37.1426L31.2734 35.4727H33.5684C34.1022 35.4727 34.5417 35.3685 34.8867 35.1602C35.2318 34.9518 35.4889 34.6719 35.6582 34.3203C35.8275 33.9622 35.9121 33.5651 35.9121 33.1289C35.9121 32.6732 35.834 32.2695 35.6777 31.918C35.5215 31.5664 35.2708 31.293 34.9258 31.0977C34.5807 30.8958 34.1217 30.7949 33.5488 30.7949H31.0098L31.5859 28.5H33.5488C34.7207 28.5 35.6973 28.6758 36.4785 29.0273C37.2598 29.3789 37.8457 29.8867 38.2363 30.5508C38.627 31.2083 38.8223 32.0059 38.8223 32.9434C38.8223 33.7637 38.6921 34.4831 38.4316 35.1016C38.1712 35.7201 37.7578 36.2311 37.1914 36.6348C36.625 37.0319 35.8796 37.3118 34.9551 37.4746L39.1934 42.582V42.7188H35.9902ZM40.7266 28.5L40.2188 30.3848H32.5918L33.0996 28.5H40.7266Z" fill="#00BDFF"/>
<path d="M41.0026 52.6673H31.0026C22.6693 52.6673 19.3359 49.334 19.3359 41.0007V31.0007C19.3359 22.6673 22.6693 19.334 31.0026 19.334H41.0026C49.3359 19.334 52.6693 22.6673 52.6693 31.0007V41.0007C52.6693 49.334 49.3359 52.6673 41.0026 52.6673Z" stroke="black" stroke-width="2.5" stroke-linecap="round" stroke-linejoin="round"/>
</svg>
