<svg width="72" height="72" viewBox="0 0 72 72" fill="none" xmlns="http://www.w3.org/2000/svg">
<rect width="72" height="72" rx="36" fill="#E6F7FC"/>
<path d="M19.3008 37.663H25.6174C26.2376 37.6633 26.8453 37.8367 27.3724 38.1635C27.8994 38.4903 28.3248 38.9577 28.6008 39.513L30.0841 42.4963C31.0008 44.3297 32.6674 44.3297 33.0674 44.3297H38.9508C39.5709 44.3293 40.1787 44.156 40.7057 43.8292C41.2327 43.5024 41.6582 43.035 41.9341 42.4797L43.4174 39.4963C43.6934 38.941 44.1188 38.4736 44.6459 38.1468C45.1729 37.82 45.7806 37.6467 46.4008 37.6463H52.6341M47.6674 29.333C48.9935 29.333 50.2653 28.8062 51.203 27.8685C52.1407 26.9309 52.6674 25.6591 52.6674 24.333C52.6674 23.0069 52.1407 21.7352 51.203 20.7975C50.2653 19.8598 48.9935 19.333 47.6674 19.333C46.3414 19.333 45.0696 19.8598 44.1319 20.7975C43.1942 21.7352 42.6674 23.0069 42.6674 24.333C42.6674 25.6591 43.1942 26.9309 44.1319 27.8685C45.0696 28.8062 46.3414 29.333 47.6674 29.333Z" stroke="#00BDFF" stroke-width="2.5" stroke-linecap="round" stroke-linejoin="round"/>
<path d="M39.3398 19.333H31.0065C22.6732 19.333 19.3398 22.6663 19.3398 30.9997V40.9997C19.3398 49.333 22.6732 52.6663 31.0065 52.6663H41.0065C49.3398 52.6663 52.6732 49.333 52.6732 40.9997V32.6663" stroke="black" stroke-width="2.5" stroke-linecap="round" stroke-linejoin="round"/>
</svg>
