<svg width="24" height="24" viewBox="0 0 24 24" fill="none" xmlns="http://www.w3.org/2000/svg">
<path fill-rule="evenodd" clip-rule="evenodd" d="M2 12.0508C2 16.9988 5.59859 21.0972 10.3467 21.9469L10.4043 21.8998C10.4018 21.8993 10.3993 21.8989 10.3968 21.8984V14.8512H7.89773V12.0522H10.3968V9.85311C10.3968 7.35409 11.9961 5.95463 14.2952 5.95463C14.995 5.95463 15.7946 6.05459 16.4944 6.15456V8.70356H15.1949C13.9954 8.70356 13.6955 9.30332 13.6955 10.103V12.0522H16.3444L15.8946 14.8512H13.6955V21.8984C13.6655 21.9039 13.6355 21.9091 13.6056 21.9143L13.6454 21.9469C18.3936 21.0972 21.9922 16.9988 21.9922 12.0508C21.9922 6.55293 17.4939 2.05469 11.9961 2.05469C6.49824 2.05469 2 6.55293 2 12.0508Z" fill="white"/>
</svg>
