<svg width="40" height="40" viewBox="0 0 40 40" fill="none" xmlns="http://www.w3.org/2000/svg">
<rect width="40" height="40" rx="20" fill="#1A1B21"/>
<path d="M27.1565 28.3346C27.1565 25.1096 23.9482 22.5013 19.9982 22.5013C16.0482 22.5013 12.8398 25.1096 12.8398 28.3346M19.9982 20.0013C21.1032 20.0013 22.1631 19.5623 22.9445 18.7809C23.7259 17.9995 24.1648 16.9397 24.1648 15.8346C24.1648 14.7296 23.7259 13.6698 22.9445 12.8884C22.1631 12.107 21.1032 11.668 19.9982 11.668C18.8931 11.668 17.8333 12.107 17.0519 12.8884C16.2705 13.6698 15.8315 14.7296 15.8315 15.8346C15.8315 16.9397 16.2705 17.9995 17.0519 18.7809C17.8333 19.5623 18.8931 20.0013 19.9982 20.0013Z" stroke="#02B1E4" stroke-width="1.25" stroke-linecap="round" stroke-linejoin="round"/>
</svg>
