<svg width="20" height="20" viewBox="0 0 20 20" fill="none" xmlns="http://www.w3.org/2000/svg">
<path d="M9.58464 17.5003C10.6243 17.5003 11.6537 17.2956 12.6142 16.8977C13.5747 16.4999 14.4474 15.9167 15.1826 15.1816C15.9177 14.4465 16.5008 13.5737 16.8987 12.6132C17.2965 11.6527 17.5013 10.6233 17.5013 9.58366C17.5013 8.54403 17.2965 7.51458 16.8987 6.55408C16.5008 5.59359 15.9177 4.72086 15.1826 3.98573C14.4474 3.2506 13.5747 2.66746 12.6142 2.26961C11.6537 1.87176 10.6243 1.66699 9.58464 1.66699C7.48501 1.66699 5.47137 2.50107 3.98671 3.98573C2.50204 5.47039 1.66797 7.48403 1.66797 9.58366C1.66797 11.6833 2.50204 13.6969 3.98671 15.1816C5.47137 16.6663 7.48501 17.5003 9.58464 17.5003Z" stroke="white" stroke-width="1.25" stroke-linecap="round" stroke-linejoin="round"/>
<path opacity="0.4" d="M18.3346 18.3337L16.668 16.667" stroke="white" stroke-width="1.25" stroke-linecap="round" stroke-linejoin="round"/>
</svg>
