<svg width="52" height="52" viewBox="0 0 52 52" fill="none" xmlns="http://www.w3.org/2000/svg">
<rect width="52" height="52" rx="26" fill="#E6F7FC"/>
<path d="M32.1994 36.9321C32.1994 33.8255 29.106 31.2921 25.2794 31.2921C21.4527 31.2921 18.3594 33.8121 18.3594 36.9321M25.2767 28.3068C26.2704 28.3068 27.2234 27.9121 27.926 27.2094C28.6286 26.5068 29.0234 25.5538 29.0234 24.5601C29.0234 23.5665 28.6286 22.6135 27.926 21.9109C27.2234 21.2082 26.2704 20.8135 25.2767 20.8135C24.283 20.8135 23.3301 21.2082 22.6274 21.9109C21.9248 22.6135 21.53 23.5665 21.53 24.5601C21.53 25.5538 21.9248 26.5068 22.6274 27.2094C23.3301 27.9121 24.283 28.3068 25.2767 28.3068Z" stroke="#00BDFF" stroke-width="2" stroke-linecap="round" stroke-linejoin="round"/>
<path d="M37.9993 26.6667C37.9993 33.6667 32.3327 39.3333 25.3327 39.3333C18.3327 39.3333 12.666 33.6667 12.666 26.6667C12.666 19.6667 18.3327 14 25.3327 14C27.0793 14 28.746 14.3467 30.266 14.9867C30.0927 15.52 29.9993 16.08 29.9993 16.6667C29.9993 17.6667 30.2793 18.6133 30.7727 19.4133C31.0393 19.8667 31.386 20.28 31.786 20.6267C32.7193 21.48 33.9593 22 35.3327 22C35.9193 22 36.4793 21.9067 36.9993 21.72C37.6393 23.24 37.9993 24.92 37.9993 26.6667Z" stroke="#0D0E15" stroke-width="2" stroke-linecap="round" stroke-linejoin="round"/>
<path d="M37.3227 16.6397H33.3493M35.3333 14.693V18.6797M40.6667 16.6664C40.6667 17.093 40.6133 17.5063 40.5067 17.9064C40.3867 18.4397 40.1733 18.9597 39.8933 19.413C39.2533 20.493 38.2267 21.333 37 21.7197C36.48 21.9064 35.92 21.9997 35.3333 21.9997C34.0206 22.0035 32.7545 21.5133 31.7867 20.6264C31.3867 20.2797 31.04 19.8664 30.7733 19.413C30.2658 18.5869 29.998 17.6359 30 16.6664C30 16.0797 30.0933 15.5197 30.2667 14.9864C30.619 13.9215 31.2985 12.9951 32.2083 12.3391C33.1181 11.6831 34.2117 11.331 35.3333 11.333C36.9067 11.333 38.3333 12.013 39.2933 13.1063C40.1467 14.053 40.6667 15.3064 40.6667 16.6664Z" stroke="#0D0E15" stroke-width="2" stroke-miterlimit="10" stroke-linecap="round" stroke-linejoin="round"/>
</svg>
