<svg width="53" height="52" viewBox="0 0 53 52" fill="none" xmlns="http://www.w3.org/2000/svg">
<rect x="0.25" width="52" height="52" rx="26" fill="#E6F7FC"/>
<path d="M30.0156 22.8516L29.6172 24.3672H22.25L22.6562 22.8516H30.0156ZM26.2422 31.375L22.4766 26.9141L22.4688 25.5781H24.3047C24.7318 25.5781 25.0833 25.4948 25.3594 25.3281C25.6354 25.1615 25.8411 24.9375 25.9766 24.6562C26.112 24.3698 26.1797 24.0521 26.1797 23.7031C26.1797 23.3385 26.1172 23.0156 25.9922 22.7344C25.8672 22.4531 25.6667 22.2344 25.3906 22.0781C25.1146 21.9167 24.7474 21.8359 24.2891 21.8359H22.2578L22.7188 20H24.2891C25.2266 20 26.0078 20.1406 26.6328 20.4219C27.2578 20.7031 27.7266 21.1094 28.0391 21.6406C28.3516 22.1667 28.5078 22.8047 28.5078 23.5547C28.5078 24.2109 28.4036 24.7865 28.1953 25.2812C27.987 25.776 27.6562 26.1849 27.2031 26.5078C26.75 26.8255 26.1536 27.0495 25.4141 27.1797L28.8047 31.2656V31.375H26.2422ZM30.0312 20L29.625 21.5078H23.5234L23.9297 20H30.0312Z" fill="#00BDFF"/>
<path d="M30.2513 39.3337H22.2513C15.5846 39.3337 12.918 36.667 12.918 30.0003V22.0003C12.918 15.3337 15.5846 12.667 22.2513 12.667H30.2513C36.918 12.667 39.5846 15.3337 39.5846 22.0003V30.0003C39.5846 36.667 36.918 39.3337 30.2513 39.3337Z" stroke="black" stroke-width="2" stroke-linecap="round" stroke-linejoin="round"/>
</svg>
