<svg width="53" height="52" viewBox="0 0 53 52" fill="none" xmlns="http://www.w3.org/2000/svg">
<rect x="0.5" width="52" height="52" rx="26" fill="#E6F7FC"/>
<path d="M14.5 23.3337V39.3337H19.8333V23.3337C19.8333 21.867 19.3 20.667 17.7 20.667H16.6333C15.0333 20.667 14.5 21.867 14.5 23.3337ZM33.1667 30.0003V39.3337H38.5V30.0003C38.5 28.5337 37.9667 27.3337 36.3667 27.3337H35.3C33.7 27.3337 33.1667 28.5337 33.1667 30.0003Z" stroke="#00BDFF" stroke-width="2" stroke-linecap="round" stroke-linejoin="round"/>
<path d="M13.166 39.333H39.8327" stroke="#0D0E15" stroke-width="2" stroke-miterlimit="10" stroke-linecap="round" stroke-linejoin="round"/>
<path d="M23.5 15.3337V39.3337H29.5V15.3337C29.5 13.867 28.9 12.667 27.1 12.667H25.9C24.1 12.667 23.5 13.867 23.5 15.3337Z" stroke="#0D0E15" stroke-width="2" stroke-linecap="round" stroke-linejoin="round"/>
</svg>
