<svg width="53" height="52" viewBox="0 0 53 52" fill="none" xmlns="http://www.w3.org/2000/svg">
<rect x="0.75" width="52" height="52" rx="26" fill="#E6F7FC"/>
<path d="M18.5301 34.6534V30.7601C18.5301 29.4667 19.5434 28.3067 20.9834 28.3067C22.2767 28.3067 23.4367 29.3201 23.4367 30.7601V34.5067C23.4367 37.1067 21.2767 39.2667 18.6767 39.2667C16.0767 39.2667 13.9167 37.0934 13.9167 34.5067V26.2934C13.7701 18.8001 19.6901 12.7334 27.1834 12.7334C34.6767 12.7334 40.5834 18.8001 40.5834 26.1467V34.3601C40.5834 36.9601 38.4234 39.1201 35.8234 39.1201C33.2234 39.1201 31.0634 36.9601 31.0634 34.3601V30.6134C31.0634 29.3201 32.0767 28.1601 33.5167 28.1601C34.8101 28.1601 35.9701 29.1734 35.9701 30.6134V34.6534" stroke="black" stroke-width="2" stroke-linecap="round" stroke-linejoin="round"/>
<path d="M18.5293 34.6532V30.7598C18.5293 29.4665 19.5427 28.3065 20.9827 28.3065C22.276 28.3065 23.436 29.3198 23.436 30.7598V34.5065C23.436 37.1065 21.276 39.2665 18.676 39.2665C16.076 39.2665 13.916 37.0932 13.916 34.5065V26.2932M40.5827 26.1465V34.3598C40.5827 36.9598 38.4227 39.1198 35.8227 39.1198C33.2227 39.1198 31.0627 36.9598 31.0627 34.3598V30.6132C31.0627 29.3198 32.076 28.1598 33.516 28.1598C34.8094 28.1598 35.9694 29.1732 35.9694 30.6132V34.6532" stroke="#00BDFF" stroke-width="2" stroke-linecap="round" stroke-linejoin="round"/>
</svg>
