<svg width="52" height="53" viewBox="0 0 52 53" fill="none" xmlns="http://www.w3.org/2000/svg">
<rect y="0.669922" width="52" height="52" rx="26" fill="#E6F7FC"/>
<path d="M21.9994 28.0029C21.1194 28.4429 20.386 29.0963 19.8394 29.9096C19.5327 30.3763 19.5327 30.9629 19.8394 31.4296C20.386 32.2429 21.1194 32.8963 21.9994 33.3363M30.2794 28.0029C31.1594 28.4429 31.8927 29.0963 32.4394 29.9096C32.746 30.3763 32.746 30.9629 32.4394 31.4296C31.8927 32.2429 31.1594 32.8963 30.2794 33.3363" stroke="#02B1E4" stroke-width="2" stroke-linecap="round" stroke-linejoin="round"/>
<path d="M12.9707 21.3502L38.5974 21.3369M21.9974 40.0036H29.9974C36.6641 40.0036 39.3307 37.3369 39.3307 30.6702V22.6702C39.3307 16.0036 36.6641 13.3369 29.9974 13.3369H21.9974C15.3307 13.3369 12.6641 16.0036 12.6641 22.6702V30.6702C12.6641 37.3369 15.3307 40.0036 21.9974 40.0036Z" stroke="black" stroke-width="2" stroke-linecap="round" stroke-linejoin="round"/>
</svg>
